<svg width="32" height="46" viewBox="0 0 32 46" fill="none" xmlns="http://www.w3.org/2000/svg">
<path d="M15.5927 45.3619C15.6984 45.4747 15.8457 45.5385 15.9997 45.5385H16.0053C16.1611 45.5368 16.3095 45.4701 16.4146 45.3539C16.4534 45.3106 20.3457 40.9916 24.1834 35.2958C29.3699 27.5975 32 21.1756 32 16.2089C32 7.27116 24.8227 0 16.0003 0C7.17789 0 0 7.27116 0 16.2089C0 21.4495 2.63064 27.9552 7.81882 35.5447C11.6588 41.1624 15.5539 45.3203 15.5927 45.3619Z" fill="#FF9933"/>
<path d="M19.7708 25.6164C19.7924 25.6119 19.8119 25.6014 19.8325 25.5942C19.8488 25.5887 19.8652 25.5843 19.881 25.5765C19.9368 25.551 19.9879 25.5184 20.0317 25.4752C20.0327 25.4741 20.0343 25.4735 20.0353 25.4724C20.0396 25.468 20.0406 25.4624 20.0448 25.458C20.0838 25.4165 20.1144 25.3683 20.1397 25.3157C20.1476 25.2985 20.1544 25.2824 20.1607 25.2653C20.166 25.2503 20.1744 25.2376 20.1787 25.2221C20.2213 25.0609 20.8863 22.5025 20.4848 19.8261C21.6703 19.4949 22.6066 18.9091 23.2657 18.0756C25.0044 15.876 24.5734 10.5747 24.5545 10.3505C24.5418 10.2037 24.4744 10.068 24.3664 9.9739C24.2584 9.87975 24.1219 9.83601 23.9796 9.84819C23.7662 9.86979 18.7287 10.3964 16.9899 12.596C16.6332 13.0473 16.364 13.5939 16.179 14.2197C13.2074 13.0224 9.37323 12.9061 9.15826 12.9006C8.87111 12.8978 8.6261 13.1348 8.61873 13.4405C8.61135 13.7434 8.47436 20.8988 10.9671 23.6499C12.602 25.4541 15.2043 25.8462 17.158 25.8462C18.5869 25.8467 19.6686 25.6369 19.7708 25.6164ZM17.9826 16.6286C19.8962 18.7407 19.6344 22.2284 19.362 23.9285L10.437 14.0962C12.4871 14.2867 16.3924 14.8731 17.9826 16.6286ZM22.4559 17.3679C21.949 18.0092 21.2024 18.461 20.2577 18.7341C20.0559 17.9892 19.7514 17.2605 19.3098 16.5954L23.5613 11.7637C23.5781 13.5524 23.39 16.1856 22.4559 17.3679ZM17.8013 13.3043C18.7002 12.1668 20.9811 11.4979 22.6461 11.1723L18.6254 15.742C18.2197 15.3283 17.7165 14.975 17.1522 14.6727C17.2966 14.1339 17.511 13.6709 17.8013 13.3043ZM9.69411 14.8826L18.5722 24.6633C16.8961 24.8261 13.5251 24.8677 11.73 22.8868C10.1493 21.1413 9.77788 17.0545 9.69411 14.8826Z" fill="#000088"/>
</svg>
