<svg fill="none" height="172" viewBox="0 0 253 172" width="253" xmlns="http://www.w3.org/2000/svg" xmlns:xlink="http://www.w3.org/1999/xlink"><mask id="a" height="172" maskUnits="userSpaceOnUse" width="251" x="2" y="0"><path d="m3.1111 64.6791c-.08385-1.1165-.15931-2.2163-.24315-3.2908-2.414755-30.6666 15.59525-48.4722 40.17045-54.02964 6.9591-1.57824 12.6606-1.90565 19.3515.88986 8.5439 3.56788 17.4399 4.26458 26.1347.88147 9.5332-3.71055 17.6994-9.528221 28.1384-9.1084759 14.858.6044329 28.902 8.2857659 42.049 15.7152859 11.579 6.5396 22.797 8.6383 34.754 2.1575 16.769-9.09171 41.99 6.909 32.733 30.0453-3.739 9.3436-9.684 20.9957-4.871 31.4054 4.15 8.9573 15.142 13.2723 21.02 20.811 6.473 8.303 11.394 19.426 10.002 30.935-3.06 25.235-33.102 35.653-51.179 38.541-10.732 1.713-22.99 1.217-32.683-4.919-8.192-5.188-14.388-14.515-23.72-17.26-13.776-4.055-25.531 13.171-37.152 18.914-12.9288 6.388-28.742 9.108-39.3401-4.038-8.5187-10.553-8.5103-34.319-22.3616-38.306-7.8396-2.259-15.9391.159-23.502-4.089-16.81099-9.427-17.91775-35.7703-19.3012-55.2549z" fill="#dee4ff" opacity=".8"/></mask><path d="m.460465 64.8382c-.083891-1.1148-.15939-2.2129-.24328-3.2859-2.416045-30.6209 15.603615-48.4001 40.191915-53.94921 6.9629-1.5759 12.6675-1.90282 19.3619.88853 8.5484 3.56248 17.4492 4.25828 26.1487.88016 9.5383-3.70503 17.7093-9.514048 28.1533-9.094927 14.866.603534 28.917 8.273447 42.071 15.691847 11.586 6.5299 22.81 8.6256 34.773 2.1543 16.778-9.07814 42.012 6.8988 32.751 30.0007-3.742 9.3296-9.69 20.9644-4.874 31.3586 4.152 8.9441 15.15 13.2526 21.031 20.7797 6.476 8.291 11.401 19.397 10.008 30.89-3.062 25.197-33.12 35.6-51.207 38.483-10.738 1.71-23.002 1.216-32.7-4.912-8.196-5.18-14.396-14.493-23.733-17.234-13.783-4.049-25.544 13.152-37.171 18.885-12.9364 6.38-28.7581 9.095-39.3619-4.031-8.5232-10.537-8.5149-34.268-22.3736-38.249-7.8437-2.255-15.9475.159-23.5145-4.083-16.81999-9.413-17.92734-35.7172-19.311535-55.1728z" fill="#dee4ff" opacity=".7"/><g mask="url(#a)"><path d="m124.825 159.892c-2.855 0-5.63-.664-7.632-1.823-1.778-1.032-2.802-2.37-2.802-3.681 0-1.284.952-2.541 2.676-3.547 1.939-1.122 4.561-1.742 7.381-1.742 2.855 0 5.63.665 7.632 1.823 1.787 1.033 2.802 2.37 2.802 3.681 0 1.284-.952 2.551-2.676 3.547-1.939 1.123-4.561 1.742-7.381 1.742z" fill="#f8f8ff"/><path d="m85.8552 66.2737-.7812.0089-4.2921.0539-1.0237.027-.44.0089-2.0742.027-1.7779.018-6.088.0808h-.0269l-.9788.0179-6.3214.0898-2.7207.0359-.5298.009-2.622.0359-2.2628.0359-1.6432.018h-.4041l-1.0146.0269-3.8881.0449h-.0089l-.4041.009-.7722.009h-.009v12.3196h.0269c.0629 1.76.8171 3.493 2.2538 5.0644v.0089c.3053.3413.6555.6735 1.0237.9878.2604.2334.5567.4579.844.6824.2963.2245.6106.431.9339.6375.2155.1437.44.2784.6824.4131 7.7581 4.4896 20.4459 4.4268 28.3388-.1347.2155-.1257.422-.2514.6285-.3861.4041-.2514.7812-.5208 1.1404-.7902 2.3885-1.7869 3.7623-3.888 4.1035-6.0251.0539-.3143.0808-.6286.0898-.9429h.0359v-12.3914zm-22.2059 1.6432c.1796-.027.3502-.0449.5298-.0539 1.3918-.1077 2.8105-.0898 4.1933.0539 2.5861.2424 5.0644.9338 7.0937 2.0473.0898.0449.1975.0898.2873.1436.5747.3233 1.0776.6735 1.5265 1.0506-.4849.4131-1.0416.8082-1.6791 1.1673-.0449.018-.0898.0449-.1347.0629v.0179c-.2963.1617-.6196.3323-.9428.476-.3323.1616-.6825.3232-1.0326.4579-.458.1796-.9339.3322-1.4188.4759-.404.1257-.8171.2424-1.2481.3322-.2245.0539-.458.1078-.6914.1527-.7992.1616-1.6253.2694-2.4514.3412-.2245.018-.4579.0449-.6824.0539-.2245.0269-.4579.0269-.7004.0269-.5118.018-1.0416.018-1.5714 0-.7004-.0269-1.3828-.0718-2.0562-.1706-.1976-.0269-.3861-.0539-.5657-.0808-.2874-.0359-.5747-.0808-.8531-.1437-.0538-.0089-.1257-.0269-.1795-.0359-.7813-.1437-1.5445-.3502-2.2718-.5926-1.0506-.3323-2.0383-.7543-2.9273-1.2751-.1885-.1077-.3681-.2245-.5477-.3322-.3592-.2335-.6735-.4759-.9788-.7094l.009-.018c.4849-.404 1.0326-.7811 1.6792-1.1583.853-.4938 1.7779-.9069 2.7656-1.2391.3322-.1168.6734-.2245 1.0146-.3233.4131-.1257.8351-.2334 1.2661-.3232l.1347-.027c.2065-.0449.422-.0898.6376-.1257.5836-.1077 1.1852-.1975 1.7958-.2514z" fill="#000"/><path d="m80.6562 67.6565c-.3053-.1436-.6196-.2783-.9429-.404-.0359-.018-.0628-.027-.0987-.036-.7722-.3232-1.5624-.5836-2.3706-.8171l-1.7779.018-6.088.0808h-.0269l-.9787.0179-6.3215.0898-2.7207.036-.5298.0089-2.622.036c-.7812.2604-1.5265.5387-2.2628.853-.6106.2604-1.2032.5477-1.7779.8441-.2604.1257-.5028.2693-.7363.404-.0359.027-.0808.0449-.1167.0719-1.2571.7273-2.2987 1.5444-3.1877 2.3705-.0089.0269-.0269.0359-.0449.0449v12.9482c.3053.3412.6555.6734 1.0237.9877.2604.2335.5567.458.844.6824.2964.2245.6106.431.9339.6376.2155.1436.44.2783.6824.413 7.7582 4.4897 20.4459 4.4268 28.3388-.1347.2155-.1257.422-.2514.6285-.3861.4041-.2514.7812-.5208 1.1404-.7902.1796-.1436.3502-.2783.5208-.422v-16.8093c-.4849-.2694-.9877-.5208-1.5085-.7453zm-17.0069.2604c.1796-.0269.3502-.0449.5298-.0539 1.3918-.1077 2.8105-.0897 4.1934.0539 2.586.2425 5.0643.9339 7.0936 2.0473.0898.0449.1976.0898.2874.1437.5746.3232 1.0775.6734 1.5264 1.0506-.4848.413-1.0416.8081-1.6791 1.1673-.0449.0179-.0898.0449-.1347.0628v.018c-.2963.1616-.6196.3322-.9428.4759-.3322.1616-.6824.3233-1.0326.4579-.458.1796-.9339.3323-1.4188.4759-.404.1258-.8171.2425-1.2481.3323-.2245.0539-.4579.1077-.6914.1526-.7992.1617-1.6253.2694-2.4514.3413-.2244.0179-.4579.0448-.6824.0538-.2245.027-.4579.027-.7004.027-.5118.0179-1.0416.0179-1.5713 0-.7004-.027-1.3829-.0719-2.0563-.1706-.1976-.027-.3861-.0539-.5657-.0809-.2873-.0359-.5747-.0808-.853-.1436-.0539-.009-.1258-.027-.1796-.036-.7812-.1436-1.5445-.3501-2.2718-.5926-1.0506-.3322-2.0383-.7542-2.9273-1.275-.1885-.1078-.3681-.2245-.5477-.3323-.3592-.2335-.6735-.4759-.9787-.7093l.0089-.018c.4849-.4041 1.0327-.7812 1.6792-1.1583.853-.4939 1.7779-.9069 2.7656-1.2392.3322-.1167.6734-.2245 1.0147-.3233.413-.1257.835-.2334 1.266-.3232.0449-.009.0898-.018.1347-.0269.2066-.0449.4221-.0898.6376-.1258.5836-.1077 1.1852-.1975 1.7958-.2514z" fill="#1f1f1f"/><path d="m84.7058 62.5923c-.9518-1.5265-2.4872-2.9632-4.6153-4.1844-6.986-4.0317-17.9856-4.3819-25.8695-1.0865-.862.3682-1.6971.7812-2.4783 1.2302-3.9688 2.2987-5.9622 5.2978-5.9712 8.2789v.0359c0 .0539 0 .1168.009.1707 0 .1167 0 .2424.0179.3591.1257 1.6702.871 3.3224 2.2538 4.8309.889.9787 2.0473 1.8946 3.484 2.7207.1347.0719.2694.1527.4131.2245 6.501 3.5379 16.1717 4.0317 23.6874 1.5085 1.4457-.4848 2.8016-1.0775 4.0497-1.7779.0718-.0359.1257-.0718.1886-.1077.862-.4939 1.6252-1.0237 2.2897-1.5804 2.5411-2.0742 3.7623-4.5256 3.6905-6.941-.0359-1.2481-.422-2.4963-1.1494-3.6815zm-14.5734 11.709c-.7992.1616-1.6253.2694-2.4514.3412-.2244.018-.4579.0449-.6824.0539-.2245.027-.4579.027-.7004.027-.5118.0179-1.0416.0179-1.5714 0-.7004-.027-1.3828-.0719-2.0562-.1707-.1976-.0269-.3861-.0538-.5657-.0808-.2874-.0359-.5747-.0808-.8531-.1436-.0538-.009-.1257-.027-.1795-.036-.7812-.1436-1.5445-.3502-2.2718-.5926-1.0506-.3322-2.0383-.7543-2.9273-1.2751-.1885-.1077-.3681-.2245-.5477-.3322-.3592-.2335-.6735-.4759-.9788-.7094l.009-.0179c.4849-.4041 1.0326-.7812 1.6792-1.1583.853-.4939 1.7779-.907 2.7656-1.2392.3322-.1167.6734-.2245 1.0146-.3233.4131-.1257.8351-.2334 1.2661-.3232.0449-.009.0898-.018.1347-.0269.2065-.0449.422-.0899.6376-.1258.5836-.1077 1.1852-.1975 1.7958-.2514.1796-.0269.3502-.0449.5298-.0539 1.3918-.1077 2.8105-.0898 4.1933.0539 2.5861.2424 5.0644.9339 7.0937 2.0473.0898.0449.1976.0898.2873.1437.5747.3232 1.0776.6734 1.5265 1.0506-.4849.413-1.0416.8081-1.6791 1.1673-.0449.0179-.0898.0449-.1347.0628v.018c-.2963.1616-.6196.3322-.9428.4759-.3323.1616-.6825.3232-1.0326.4579-.458.1796-.9339.3323-1.4188.4759-.404.1257-.8171.2425-1.2481.3323-.2245.0538-.4579.1077-.6914.1526z" fill="#2a2a2a"/><path d="m83.7536 62.4396c-.9159-1.3469-2.3167-2.6129-4.2113-3.7084-6.8333-3.9509-17.6264-4.2293-25.214-.88-.7093.3053-1.3828.6465-2.0293 1.0236-3.8162 2.2-5.7288 5.0823-5.7468 7.9467 0 .0629 0 .1347.009.1976.018 1.4456.5388 2.8823 1.5355 4.2113.9159 1.2391 2.2448 2.3885 3.9778 3.3852h.009c6.1419 3.5558 15.4893 4.1395 22.8255 1.7869 1.5893-.5029 3.0799-1.1404 4.4268-1.9216.0808-.0449.1526-.0898.2155-.1347 1.0146-.5926 1.8766-1.2302 2.6129-1.9305 2.0114-1.8677 2.9902-4.0048 2.9093-6.1329-.0359-1.311-.4759-2.613-1.3199-3.8432zm-8.2879 9.9491v.018c-.2964.1616-.6196.3322-.9429.4759-.3322.1616-.6824.3232-1.0326.4579-.4579.1796-.9338.3323-1.4187.4759-.4041.1257-.8171.2425-1.2481.3323-.2245.0538-.458.1077-.6914.1526-.7992.1616-1.6253.2694-2.4514.3412-.2245.018-.458.0449-.6824.0539-.2245.0269-.458.0269-.7004.0269-.5118.018-1.0416.018-1.5714 0-.7004-.0269-1.3828-.0718-2.0563-.1706-.1975-.0269-.3861-.0538-.5657-.0808-.2873-.0359-.5746-.0808-.853-.1436-.0539-.009-.1257-.027-.1796-.036-.7812-.1436-1.5444-.3502-2.2718-.5926-1.0505-.3322-2.0383-.7543-2.9272-1.2751-.1886-.1077-.3682-.2245-.5478-.3322-.3591-.2335-.6734-.4759-.9787-.7094l.009-.0179c.4849-.4041 1.0326-.7812 1.6791-1.1584.853-.4938 1.7779-.9069 2.7656-1.2391.3323-.1167.6735-.2245 1.0147-.3233.4131-.1257.8351-.2334 1.2661-.3232l.1347-.027c.2065-.0448.422-.0898.6375-.1257.5837-.1077 1.1853-.1975 1.7959-.2514.1796-.0269.3502-.0449.5298-.0539 1.3918-.1077 2.8105-.0898 4.1933.0539 2.586.2424 5.0643.9339 7.0937 2.0473.0898.0449.1975.0898.2873.1437.5747.3232 1.0775.6734 1.5265 1.0506-.4849.413-1.0416.8081-1.6791 1.1673-.0449.0179-.0898.0449-.1347.0628z" fill="#1d1d1d"/><path d="m78.2678 61.7752c-.5208-.449-1.1224-.871-1.7959-1.2661-5.7916-3.3493-15.2648-3.3044-21.1642.1077-.027.018-.0539.036-.0809.0449-2.137 1.2572-3.4929 2.7926-4.0676 4.3999v.009c-.1975.5657-.2963 1.1224-.3053 1.6971-.009.7093.1347 1.4097.431 2.0922.449 1.0775 1.2841 2.1281 2.4783 3.0619.4131.3143.889.6286 1.3918.9159 4.2652 2.4693 10.5238 3.0979 15.8755 1.8946 1.9215-.431 3.7264-1.0954 5.2798-1.9934.5747-.3232 1.0955-.6824 1.5534-1.0595 1.5445-1.2122 2.4693-2.604 2.7926-4.0228.0898-.4399.1347-.8799.1257-1.3199-.0718-1.5983-.9069-3.1787-2.5142-4.5615zm-2.6669 10.5507c-.0449.0179-.0898.0449-.1347.0628v.018c-.2963.1616-.6195.3322-.9428.4759-.3322.1616-.6824.3233-1.0326.4579-.458.1796-.9339.3323-1.4187.4759-.4041.1258-.8172.2425-1.2482.3323-.2245.0539-.4579.1077-.6914.1526-.7991.1617-1.6252.2694-2.4513.3413-.2245.0179-.458.0449-.6825.0538-.2244.027-.4579.027-.7004.027-.5118.0179-1.0416.0179-1.5713 0-.7004-.027-1.3828-.0719-2.0563-.1706-.1975-.027-.3861-.0539-.5657-.0809-.2873-.0359-.5747-.0808-.853-.1436-.0539-.009-.1257-.027-.1796-.0359-.7812-.1437-1.5445-.3502-2.2718-.5927-1.0506-.3322-2.0383-.7542-2.9272-1.275-.1886-.1078-.3682-.2245-.5478-.3323-.3592-.2335-.6734-.4759-.9787-.7093l.0089-.018c.4849-.4041 1.0327-.7812 1.6792-1.1583.853-.4939 1.7779-.9069 2.7656-1.2392.3323-.1167.6735-.2245 1.0147-.3232.413-.1258.8351-.2335 1.2661-.3233.0449-.009.0898-.0179.1347-.0269.2065-.0449.422-.0898.6375-.1258.5836-.1077 1.1853-.1975 1.7958-.2514.1796-.0269.3502-.0449.5298-.0538 1.3918-.1078 2.8106-.0898 4.1934.0538 2.586.2425 5.0643.9339 7.0936 2.0473.0898.0449.1976.0898.2874.1437.5747.3232 1.0775.6734 1.5265 1.0506-.4849.413-1.0416.8081-1.6792 1.1673z" fill="#3b3b3b"/><path d="m79.6681 67.45v.009.0089c-.1886 1.0057-.7183 1.9934-1.5714 2.9183-.5926-.6555-1.3828-1.2571-2.3436-1.8138-.0898-.0539-.1885-.0988-.2783-.1437-.009-.009-.0359-.009-.0449-.0269-.3053-.1706-.6286-.3233-.9518-.4759-.027-.009-.0539-.0359-.0898-.0449-.3233-.1437-.6645-.2784-1.0147-.4041-.3592-.1347-.7273-.2514-1.1044-.3592-.0539-.0269-.1168-.0359-.1707-.0449-.3501-.0987-.7003-.1885-1.0595-.2693-.862-.1976-1.751-.3502-2.6669-.4311-.3861-.0448-.7632-.0808-1.1583-.0898-.3951-.0089-.7722-.0179-1.1673-.0179h-.009c-1.724 0-3.457.1796-5.0913.5478-.7273.1616-1.4546.3591-2.1371.6195-.9877.3233-1.9125.7453-2.7656 1.2392-.2155.1257-.4041.2514-.5926.3681-.5837.3682-1.0775.7633-1.5175 1.1943-.1347.1257-.2604.2514-.3682.3861-.6734-.7094-1.1493-1.4636-1.4097-2.2359-.0719-.1975-.1347-.404-.1706-.6195v-.009c.2065-1.1584.862-2.2987 1.9485-3.3313.44-.4311.9338-.8262 1.5175-1.1943.1885-.1257.3861-.2514.5926-.3682.8531-.4938 1.7779-.9069 2.7656-1.2391.6825-.2604 1.4098-.4579 2.1371-.6196 1.6432-.3681 3.3763-.5477 5.0913-.5477h.009c.3951 0 .7722.009 1.1673.0269.3951.009.7722.0449 1.1583.0898.9069.0808 1.7959.2245 2.6669.431.3592.0808.7094.1706 1.0595.2694.0539.009.1168.0269.1707.0449.3681.1167.7452.2245 1.1044.3592.3502.1257.6824.2604 1.0147.404.0359.009.0718.036.0898.0449.3232.1437.6555.3053.9518.4759.009.009.0359.009.0449.027.0898.0449.1885.0898.2783.1437 2.2718 1.293 3.5738 2.9631 3.915 4.6782z" fill="#000"/><path d="m79.6681 67.45v.009.0089c-.1886 1.0057-.7183 1.9934-1.5714 2.9183-.5926-.6555-1.3828-1.2571-2.3436-1.8138-.0898-.0539-.1885-.0988-.2783-.1437-.009-.009-.0359-.009-.0449-.0269-.3053-.1706-.6286-.3233-.9518-.4759-.027-.009-.0539-.0359-.0898-.0449-.3233-.1437-.6645-.2784-1.0147-.4041-.3592-.1347-.7273-.2514-1.1044-.3592-.0539-.0269-.1168-.0359-.1707-.0449-.3501-.0987-.7003-.1885-1.0595-.2693-.862-.1976-1.751-.3502-2.6669-.4311-.3861-.0448-.7632-.0808-1.1583-.0898-.3951-.0089-.7722-.0179-1.1673-.0179h-.009c-1.724 0-3.457.1796-5.0913.5478-.7273.1616-1.4546.3591-2.1371.6195-.9877.3233-1.9125.7453-2.7656 1.2392-.2155.1257-.4041.2514-.5926.3681-.5837.3682-1.0775.7633-1.5175 1.1943-.1347.1257-.2604.2514-.3682.3861-.6734-.7094-1.1493-1.4636-1.4097-2.2359-.0719-.1975-.1347-.404-.1706-.6195v-.009c.2065-1.1584.862-2.2987 1.9485-3.3313.44-.4311.9338-.8262 1.5175-1.1943.1885-.1257.3861-.2514.5926-.3682.8531-.4938 1.7779-.9069 2.7656-1.2391.6825-.2604 1.4098-.4579 2.1371-.6196 1.6432-.3681 3.3763-.5477 5.0913-.5477h.009c.3951 0 .7722.009 1.1673.0269.3951.009.7722.0449 1.1583.0898.9069.0808 1.7959.2245 2.6669.431.3592.0808.7094.1706 1.0595.2694.0539.009.1168.0269.1707.0449.3681.1167.7452.2245 1.1044.3592.3502.1257.6824.2604 1.0147.404.0359.009.0718.036.0898.0449.3232.1437.6555.3053.9518.4759.009.009.0359.009.0449.027.0898.0449.1885.0898.2783.1437 2.2718 1.293 3.5738 2.9631 3.915 4.6782z" fill="#000"/><path d="m75.4664 60.7873v9.1769c-2.0383-1.1135-4.5076-1.7959-7.0937-2.0473-3.2415-.3233-6.6447.0179-9.5719 1.0595-.9878.3233-1.9126.7453-2.7657 1.2392-.6375.3682-1.1942.7543-1.6791 1.1583-.1437-.1257-.2963-.2514-.44-.3861v-8.3956c.44-.4131.9428-.8082 1.5175-1.1943.1886-.1257.3861-.2514.5927-.3681.853-.4939 1.7779-.9069 2.7656-1.2392.6824-.2604 1.4097-.4579 2.1371-.6196.1616-.0359.3142-.0718.4759-.0898.2963-.0718.5836-.1167.8889-.1706.0359 0 .0808-.0089.1078-.0089.5747-.0988 1.1583-.1706 1.7509-.2066.3053-.0359.6106-.0449.907-.0538.3232-.009.6554-.018.9697-.018.431 0 .8441.009 1.2571.0359.3592.027.7184.0449 1.0686.0898.9069.0808 1.7958.2245 2.6668.4131.3592.0808.7094.1706 1.0596.2694.0539.0089.1167.0269.1706.0448.3681.1168.7453.2245 1.1044.3592.3502.1257.6825.2604 1.0147.4041.0359.009.0718.0359.0898.0449.3233.1436.6555.3053.9518.4759.027.009.0449.009.0539.0269z" fill="#000"/><path d="m45.7803 66.8303v7.2643.2065.2425h.0179c.1168 2.8464 2.0114 5.648 5.7378 7.803 7.7671 4.4807 20.4549 4.4178 28.3477-.1437 3.9061-2.2628 5.8995-5.199 5.9713-8.1442h.0269v.8171h-.0359c-.0718 2.9362-2.0652 5.8814-5.9712 8.1442-7.8839 4.5615-20.5806 4.6244-28.3478.1437-3.7264-2.155-5.621-4.9566-5.7377-7.803h-.009v-.2425c0-.0718 0-.1347 0-.2065z" fill="#000"/><path d="m45.7805 66.8303v3.5648.2065.2425h.0179c.1168 2.8464 2.0114 5.648 5.7378 7.803 7.7671 4.4807 20.4549 4.4178 28.3477-.1437 3.906-2.2627 5.8994-5.199 5.9713-8.1442h.0269v.8171h-.0359c-.0718 2.9363-2.0652 5.8815-5.9712 8.1443-7.8839 4.5615-20.5807 4.6243-28.3478.1436-3.7264-2.155-5.621-4.9566-5.7378-7.803h-.0179v-.2425c0-.0718 0-.1346 0-.2065z" fill="#000"/><path d="m79.7582 66.3635c.009.2963 0 .5836-.0449.8889-.009.0719-.018.1347-.0449.2066-.3412-1.7241-1.6432-3.3852-3.915-4.6872-.0898-.0539-.1886-.0988-.2784-.1437-.0089-.009-.0359-.009-.0449-.0269-.3053-.1707-.6285-.3233-.9518-.476-.0269-.0089-.0538-.0359-.0898-.0449-.3232-.1436-.6644-.2783-1.0146-.404-.3592-.1347-.7273-.2515-1.1045-.3592-.0538-.018-.1167-.0359-.1706-.0449-.3502-.0988-.7004-.1886-1.0595-.2694-.8621-.2065-1.751-.3502-2.6669-.431-.3861-.0449-.7632-.0808-1.1583-.0898s-.7723-.0269-1.1673-.0269h-.009c-1.7241 0-3.4571.1796-5.0913.5477-.7273.1617-1.4546.3592-2.1371.6196-.9877.3233-1.9126.7453-2.7656 1.2391-.2155.1257-.4041.2515-.5926.3682-.5837.3681-1.0776.7632-1.5175 1.1943-1.0776 1.0326-1.742 2.1729-1.9486 3.3313-.0808-.3412-.1167-.6735-.0987-1.0147.0179-1.4367.7093-2.8824 2.0473-4.1484.4399-.431.9338-.8171 1.5175-1.1943.1885-.1257.3861-.2514.5926-.3681.853-.4939 1.7779-.9069 2.7656-1.2392.6825-.2604 1.4098-.4579 2.1371-.6196 1.6432-.3681 3.3762-.5477 5.0913-.5477h.009c.395 0 .7722.009 1.1673.018.3951.0089.7722.0449 1.1583.0898.9069.0808 1.7959.2244 2.6669.431.3591.0808.7093.1706 1.0595.2694.0539.0089.1168.0269.1706.0448.3682.1168.7453.2245 1.1045.3592.3502.1257.6824.2604 1.0146.4041.036.009.0719.0359.0898.0449.3233.1436.6555.3053.9518.4759.009.009.036.009.0449.0269.0898.0449.1886.0898.2784.1437 2.595 1.4906 3.924 3.4481 4.0048 5.4325z" fill="#1f1f1f"/><path d="m78.0877 70.3864c-.2335.2604-.5029.5208-.8082.7632-.4489-.3681-.9518-.7183-1.5265-1.0505-.0898-.0539-.1885-.0988-.2783-.1437-2.0383-1.1134-4.5076-1.7959-7.0937-2.0473-3.2415-.3232-6.6447.018-9.5719 1.0596-.9878.3232-1.9126.7453-2.7657 1.2391-.6375.3682-1.1942.7543-1.6791 1.1583l-.009.009c-.2963-.2514-.5657-.4938-.7991-.7542.1167-.1347.2334-.2604.3681-.3861.44-.431.9339-.8172 1.5175-1.1943.1886-.1257.3861-.2514.5926-.3682.8531-.4938 1.778-.9068 2.7657-1.2391.6824-.2604 1.4097-.4579 2.1371-.6196 1.6432-.3681 3.3762-.5477 5.0912-.5477h.009c.3951 0 .7722.009 1.1673.0179.3951.009.7722.0449 1.1584.0898.9069.0809 1.7958.2245 2.6668.4311.3592.0808.7094.1706 1.0596.2693.0539.009.1167.027.1706.0449.3681.1078.7453.2245 1.1044.3592.3502.1257.6825.2604 1.0147.4041.0359.009.0718.0359.0898.0449.3233.1436.6555.3053.9518.4759.009.009.0359.009.0449.0269.0898.0449.1886.0898.2784.1437.9607.5567 1.7509 1.1673 2.3436 1.8138z" fill="#1f1f1f"/><path d="m89.5907 163.493c-3.9868 0-7.8748-.925-10.6674-2.541-2.4873-1.437-3.915-3.314-3.915-5.145 0-1.796 1.3289-3.556 3.7444-4.948 2.7117-1.571 6.3753-2.433 10.3082-2.433 3.9869 0 7.8659.924 10.6585 2.541 2.4876 1.436 3.9146 3.313 3.9146 5.145 0 1.796-1.329 3.556-3.744 4.947-2.7028 1.572-6.3663 2.434-10.2993 2.434z" fill="#f8f8ff"/><path d="m124.314 153.741c-.009.009-.018.009-.009.018.009.018.063.054.161.099.377.171 1.266.44 1.266.44l1.033.126.808.107-.063.018.018.072-3.681 2.128-6.986-4.031 7.677-4.436 6.986 4.031-2.882 1.662-1.635-.207s-.35-.009-.79-.027c-.772-.018-1.823-.045-1.903 0z" fill="#fff"/><path d="m140.126 143.029c-7.615 0-15.032-1.769-20.374-4.858-4.75-2.747-7.48-6.33-7.48-9.823 0-3.43 2.541-6.798 7.148-9.455 5.181-2.991 12.175-4.643 19.691-4.643 7.615 0 15.032 1.769 20.365 4.858 4.759 2.748 7.48 6.33 7.48 9.823 0 3.44-2.541 6.798-7.147 9.456-5.173 2.999-12.167 4.642-19.683 4.642z" fill="#f8f8ff"/><path d="m128.632 153.975-1.113.646-.018-.071.063-.018-.808-.108-1.033-.126s-.889-.269-1.266-.44c-.099-.045-.162-.081-.162-.099-.009-.009 0-.018.009-.018.09-.045 1.141-.018 1.904 0 .44.018.79.027.79.027z" fill="#fff"/><path d="m141.051 120.895-4.139-2.388-.557.098 1.248 2.506-.26.071-.79.216.152 1.185-1.679.449.422 1.733-.161.108-.548.377 2.846 1.643z" fill="#4d1e00"/><path d="m140 122.718-2.657-1.536-.791.216.153 1.185-1.679.449.422 1.733-.162.108 2.604 1.499.728-1.248v-.009z" fill="#783500"/><path d="m141.67 122.448c0 1.572-1.086 3.484-2.424 4.257-1.338.772-2.434.125-2.434-1.446 0-1.572 1.087-3.484 2.425-4.256 1.347-.782 2.433-.135 2.433 1.445z" fill="#783500"/><path d="m138.294 121.766c.296-.117.961.431 1.149 1.176.243.97-.197 2.218-.987 2.811-.62.458-1.239.556-1.599.027-.009-.108-.045-.413-.045-.53 0-1.096.818-2.864 1.482-3.484z" fill="#ab5400"/><path d="m141.509 122.341 6.456 4.723-1.572 2.721-7.039-3.116c-.09-.036-.171-.054-.252-.099 0 0-.009 0-.009-.009-.009 0-.009 0-.018-.009v-.009c-.296-.189-.485-.566-.485-1.113 0-1.105.764-2.443 1.706-2.991.476-.26.907-.278 1.213-.098z" fill="#4d1e00"/><path d="m138.626 125.636c-.009-.072-.036-.117-.036-.188 0-.764.377-1.617.907-2.263l7.875 4.903-.736 1.275z" fill="#783500"/><path d="m148.163 126.947-.234.404c0 .027.018.045.018.072 0 .808-.557 1.778-1.239 2.182-.036.018-.063.018-.09.027l-.215.377-.575-.332c-.225-.135-.359-.413-.359-.817 0-.808.556-1.778 1.239-2.182.35-.198.664-.216.889-.072z" fill="#612600"/><path d="m148.513 127.764c0 .808-.557 1.778-1.239 2.182-.692.395-1.249.063-1.249-.745s.557-1.778 1.24-2.173c.691-.404 1.248-.072 1.248.736z" fill="#ab5400"/><path d="m148.271 127.962c0 .61-.422 1.356-.943 1.661s-.952.054-.952-.566c0-.61.422-1.356.943-1.661.53-.296.952-.045.952.566z" fill="#662b0d"/><path d="m133.723 116.657-2.289-1.32-.009.009c-.44-.297-1.069-.288-1.769.116-.324.189-.638.449-.925.746-.054.062-.108.116-.162.188-.036.036-.063.072-.09.108-.098.126-.197.251-.287.386-.036.054-.072.108-.108.162-.045.08-.098.152-.134.224-.108.189-.207.386-.297.584-.179.413-.305.835-.368 1.248-.027.206-.045.413-.045.61 0 .171.018.36.045.521.099.521.341.889.692 1.087l3.573 2.065.548-.377.153-.108-.422-1.733 1.679-.449-.153-1.185.79-.216.261-.071-1.248-2.506z" fill="#4d1e00"/><path d="m134.155 119.341-2.227-1.284c-.287 1.231-1.113 2.443-2.083 3.008-.261.144-.503.234-.719.261l2.964 1.715.152-.108-.422-1.733 1.679-.449-.152-1.185z" fill="#783500"/><path d="m129.036 116.387-.296-.17c-.898.952-1.509 2.316-1.509 3.511 0 .17.018.359.045.521l.431.251c-.08-.198-.125-.467-.125-.772-.009-1.15.601-2.461 1.454-3.341z" fill="#783500"/><path d="m131.928 118.058-2.891-1.671c-.853.88-1.464 2.191-1.455 3.341 0 .296.045.574.126.772l1.419.817c.215-.027.458-.108.718-.26.979-.557 1.796-1.769 2.083-2.999z" fill="#ab5400"/><path d="m129.126 121.317-1.418-.817c.224.646.736.97 1.418.817z" fill="#612600"/><path d="m129.818 115.768c-.27.17-.53.368-.781.619l2.891 1.67c.108-.314.153-.655.153-.96-.009-1.446-1.006-2.048-2.263-1.329z" fill="#612600"/><path d="m132.655 127.073-7.83 4.516 3.564 6.178 7.83-4.516c.467-.261.755-.836.764-1.662 0-1.625-1.123-3.582-2.506-4.382-.718-.431-1.364-.44-1.822-.134z" fill="#800000"/><path d="m128.085 137.228 6.941-4.005 1.463-.844c.09-.206.126-.484.135-.79.009-1.185-.62-2.541-1.5-3.439l-2.981 1.724-6.231 3.601z" fill="#bf271d"/><path d="m124.188 133.179c0 1.625 1.122 3.582 2.505 4.382 1.383.799 2.505.134 2.505-1.491s-1.122-3.583-2.505-4.382-2.505-.135-2.505 1.491z" fill="#bf271d"/><path d="m127.672 132.478c-.306-.117-.988.449-1.186 1.212-.251.997.207 2.29 1.015 2.892.638.476 1.275.574 1.652.036.009-.108.045-.422.045-.548 0-1.123-.844-2.954-1.526-3.592z" fill="#ff6969"/><path d="m123.532 133.861c0 1.455.996 3.206 2.236 3.924 1.239.718 2.244.117 2.244-1.338 0-1.454-.996-3.205-2.235-3.924-1.24-.709-2.245-.108-2.245 1.338z" fill="#727272"/><path d="m126.962 134.409c.395.682.62 1.445.62 2.083 0 .575-.18 1.006-.494 1.185-.306.18-.746.126-1.221-.152-.539-.315-1.051-.854-1.446-1.536s-.62-1.446-.62-2.083c0-.575.18-1.006.494-1.185.305-.18.745-.126 1.221.152.548.314 1.06.853 1.446 1.536z" fill="#a9a9a9"/><path d="m126.046 137.417c-.539-.314-1.05-.853-1.446-1.536-.395-.682-.619-1.445-.619-2.083 0-.521.153-.916.413-1.122-.036.009-.063.027-.099.045-.314.179-.494.61-.494 1.185 0 .638.225 1.401.62 2.083.395.674.907 1.221 1.446 1.536.475.278.915.332 1.221.152.027-.018.054-.036.081-.063-.297.126-.692.054-1.123-.197z" fill="#484848"/><path d="m125.229 134.66v-1.185c0-.198.216-.323.386-.224l.44.26c.081.045.126.135.126.224v1.186c0 .197-.216.323-.386.224l-.44-.251c-.072-.054-.126-.135-.126-.234z" fill="#484848"/><path d="m125.112 134.732v-1.185c0-.198.216-.323.386-.224l.44.251c.081.045.126.135.126.224v1.186c0 .197-.215.323-.386.224l-.44-.251c-.081-.045-.126-.135-.126-.225z" fill="#ccc"/><path d="m125.4 134.175.305.18c.099.054.216-.018.216-.126v-.296c0-.108-.054-.207-.153-.261l-.305-.179c-.099-.054-.216.018-.216.125v.297c0 .107.063.206.153.26z" fill="#000"/><path d="m125.57 134.993c-.134-.072-.233-.261-.233-.413 0-.153.108-.216.242-.144.135.072.234.26.234.413 0 .162-.108.224-.243.144z" fill="#727272"/><path d="m158.461 127.809.009-7.749h-6.115v7.749c0 .458.297.925.907 1.275 1.204.7 3.143.709 4.328.018.62-.35.907-.826.871-1.293z" fill="#00540f"/><path d="m152.885 120.06v6.869 1.445c.117.153.306.306.53.44.88.512 2.155.629 3.197.36v-2.955-6.159z" fill="#559d2b"/><path d="m157.563 118.901c-1.203-.7-3.142-.709-4.328-.018-1.185.683-1.167 1.805.036 2.496 1.203.701 3.143.71 4.328.018 1.176-.673 1.168-1.796-.036-2.496z" fill="#21842f"/><path d="m156.585 121.784c.215-.171.089-.925-.395-1.401-.629-.611-1.787-.826-2.586-.485-.62.269-.97.7-.728 1.212.072.054.297.216.386.27.844.484 2.559.646 3.323.404z" fill="#99e04f"/><path d="m157.33 118.12c-1.077-.62-2.81-.629-3.87-.018-1.059.611-1.05 1.616.027 2.236 1.078.619 2.811.628 3.87.018 1.069-.611 1.051-1.607-.027-2.236z" fill="#727272"/><path d="m155.462 120.437c-.673 0-1.338-.162-1.814-.431-.422-.243-.664-.566-.664-.871 0-.306.224-.602.637-.844.458-.27 1.087-.413 1.751-.413.674 0 1.338.161 1.814.431.422.242.665.565.665.871 0 .305-.225.601-.638.844-.458.269-1.086.413-1.751.413z" fill="#a9a9a9"/><path d="m153.613 118.47c.458-.269 1.086-.413 1.751-.413.673 0 1.338.162 1.813.431.387.225.62.503.656.79 0-.027.009-.063.009-.09 0-.314-.243-.628-.665-.871-.475-.278-1.14-.431-1.813-.431-.674 0-1.293.144-1.751.414-.413.233-.638.538-.638.844 0 .027 0 .062.009.089.045-.287.26-.556.629-.763z" fill="#484848"/><path d="m156.01 119.045.88.503c.144.08.144.296 0 .386l-.377.215c-.072.036-.153.036-.224 0l-.88-.503c-.144-.089-.144-.296 0-.386l.377-.215c.071-.036.161-.036.224 0z" fill="#484848"/><path d="m156.01 118.928.88.512c.144.081.144.296 0 .386l-.377.216c-.072.036-.153.036-.224 0l-.88-.503c-.144-.081-.144-.297 0-.386l.377-.216c.071-.054.161-.054.224-.009z" fill="#ccc"/><path d="m156.306 119.377-.26.153c-.081.044-.081.161 0 .215l.224.126c.081.045.18.045.261 0l.26-.153c.081-.045.081-.161 0-.215l-.224-.126c-.09-.045-.189-.045-.261 0z" fill="#000"/><path d="m155.624 119.153c.117-.063.296-.063.413 0 .117.062.117.17 0 .233s-.296.063-.413 0-.117-.171 0-.233z" fill="#727272"/><path d="m152.355 122.61v2.657c0 .351.171.701.53 1.006v-2.658c-.35-.305-.53-.655-.53-1.005z" fill="#21842f"/><path d="m156.621 124.289v2.658c.359-.09.691-.207.978-.377.62-.36.898-.827.871-1.303h.009v-2.657h-.009c.027.467-.26.942-.871 1.302-.296.161-.628.287-.978.377z" fill="#21842f"/><path d="m152.885 123.615v2.658c.108.099.234.189.386.27.916.529 2.245.655 3.35.404v-2.658c-1.105.26-2.434.125-3.35-.404-.152-.081-.278-.18-.386-.27z" fill="#99e04f"/><path d="m85.9356 151.209s-.7543.682-.6825 1.589c.0719.898-.009 1.518-.009 1.518l2.604 1.338h1.1584s1.8407 2.343 4.5435 2.307 4.2921-.862 3.026-2.559c-1.266-1.697-3.9688-2.703-3.9688-2.703l-.7902-2.523z" fill="#1b1b1b"/><path d="m92.6074 152.691s2.7028 1.005 3.9689 2.702c.3502.476.4849.88.431 1.222 0 0-2.8644 1.364-5.1721-.378-2.3077-1.751-2.3166-3.699-2.3166-3.699l2.3795-2.137z" fill="#2a2a2a"/><path d="m85.7563 122.251v29.156c0 .511.2066.978.5478 1.32.3322.341.7991.547 1.3199.547h2.5592c1.5713 0 2.8644-1.257 2.9003-2.837v-.018l.1167-4.75.0359-1.509.0359-1.499.036-1.527.4579-18.883z" fill="#fe9500"/><path d="m93.7571 122.251-.0628 2.487-3.6277-.072-.5747 28.608h-1.8766c-.5119 0-.9788-.206-1.32-.547-.3412-.333-.5477-.8-.5477-1.32v-29.156z" fill="#fd8700"/><path d="m85.8286 145.92v1.356c3.8791 2.263 6.5549.242 7.3631-1.607l.0359-1.509c-1.0057 2.173-3.7713 4.373-7.399 1.76z" fill="#fff"/><path d="m93.2992 141.134c-.9967 2.218-3.8162 4.499-7.5067 1.841v1.365c3.9599 2.308 6.6896.197 7.4708-1.688z" fill="#fff"/><path d="m80.9614 154.037s-.7542.683-.6824 1.59c.0718.898-.009 1.517-.009 1.517l2.604 1.338h1.1584s1.8407 2.344 4.5435 2.308 4.2921-.862 3.026-2.559-3.9688-2.703-3.9688-2.703l-.7902-2.523z" fill="#1b1b1b"/><path d="m87.6331 155.519s2.7028 1.006 3.9689 2.703c.3053.404.44.763.44 1.068-.018.018-.027.045-.0449.063 0 0-2.8644 1.365-5.1721-.377-2.3077-1.751-2.3167-3.7-2.3167-3.7l2.3795-2.146z" fill="#343434"/><path d="m80.7822 125.079v29.156c0 .512.1617 1.015.7094 1.383.5477.377 1.4816.611 3.035.611 1.8946 0 3.5379-1.392 3.5738-2.973v-.018l.1077-4.534.0359-1.374.0539-2.272.0359-1.374.458-18.623h-8.0096z" fill="#fe9500"/><path d="m88.7918 125.079-.0359 1.41h-5.6301v29.156c0 .179.018.35.0719.521-.7902-.099-1.338-.288-1.7061-.539-.5477-.368-.7094-.871-.7094-1.383v-29.156h8.0096z" fill="#fd8700"/><path d="m88.3069 145.301-.009.395-.0269 1.122c-.7543 1.895-3.493 4.059-7.4888 1.724v-1.365c3.7175 2.685 6.546.359 7.5247-1.876z" fill="#fff"/><path d="m83.5919 96.9381-4.4537 31.4189 2.1101 1.347-.2873-.386c3.5019.888 6.8063.484 10.1736-1.59 0 0 2.2358-.979 3.7443-3.52l3.4571-24.4055c.1077-.7902-.0449-1.5893-.44-2.2807-.2604-.458-.6106-.8441-1.0326-1.1314-.4131-.2963-.898-.5029-1.4098-.6016-.2873-.0539-.5836-.1078-.88-.1437-2.3705-.3323-4.7859-.2155-7.1116.3502z" fill="#ffa500"/><path d="m87.4623 95.9953c2.3346-.5657 4.7501-.6825 7.1116-.3502.2964.0449.5837.0898.88.1437.5118.0987.9967.3053 1.4098.6016.2693.1885.5028.413.7093.6734-.0628-.009-.1257-.018-.1885-.0269-2.3706-.3323-4.786-.2155-7.1117.3502l-3.87.9428-4.4179 31.2121c-.3322-.063-.6734-.135-1.0146-.215l.2873.386-2.1101-1.347 4.4537-31.4189z" fill="#fe7f00"/><path d="m82.7663 116.603c3.502.889 6.8063.476 10.1736-1.59 0 0 2.2358-.978 3.7444-3.52l-.5837 4.095c-1.5085 2.532-3.7444 3.52-3.7444 3.52-3.3672 2.065-6.6716 2.478-10.1735 1.589l.2873.386-2.1101-1.347.5836-4.094 2.1102 1.347z" fill="#fff"/><path d="m88.8896 97.8272-.7363-1.9845c1.9306-.395 3.915-.4848 5.8725-.2604l-.3322 1.8318c-.449 2.5053-3.915 2.8109-4.804.4131z" fill="#007cbb"/><path d="m88.7827 97.5309-.6196-1.6882c1.9305-.395 3.915-.4848 5.8725-.2604l-.2964 1.6433c-1.6611-.1257-3.3223-.018-4.9565.3053z" fill="#0054bb"/><path d="m89.7875 92.9153-.3861 2.7118s.1706 1.1403 1.1224 1.4726c.9518.3322 1.8228.3861 2.1999.1616.3771-.2155.3771-.2155.3771-.2155l.3772-2.6758z" fill="#dbbaa4"/><path d="m93.4782 94.37-.0898.6195-2.4334-.9518-.3861 2.7118s.0269.1796.1167.4131c-.0539-.018-.1078-.036-.1706-.0539-.9518-.3323-1.1224-1.4726-1.1224-1.4726l.3861-2.7118z" fill="#e4c0b0"/><path d="m88.5039 143.972c-.1437.269-.3412.485-.5747.647-.2514.17-1.6702.969-2.2718 1.31.027-.017.0539-.044.0808-.062.1078-.09.2066-.18.2964-.288.0269-.027.0449-.054.0628-.081.0539-.062.0988-.143.1347-.215.8171-1.58.5657-4.113.1078-6.393-.0898-.44-.2066-.889-.3413-1.329-.2873-.907-.6824-1.805-1.2122-2.631-.6016-.943-1.1852-1.94-1.6252-2.954-.2155-.512-.3053-.925-.44-1.275.0539-.045.0988-.09.1437-.135.1077-.099.2155-.189.3232-.287.0718-.063.1437-.135.2245-.198.1437-.135.3053-.269.4849-.44h.009l2.2807-1.32c-.4849.431-.7722.682-1.1853 1.051.1347.359.2245.772.449 1.275.44 1.032 1.0236 2.011 1.6253 2.963.5297.835.9248 1.733 1.2122 2.631.1436.449.2514.898.3412 1.329.44 2.28.6914 4.822-.1257 6.402z" fill="#000"/><path d="m86.3396 138.889c-.0897-.44-.2065-.889-.3412-1.329-.0718-.233-.1526-.466-.2424-.7-.1796-.449-.3771-.898-.6106-1.329-.1167-.206-.2335-.413-.3592-.61-.6016-.943-1.1852-1.931-1.6252-2.955-.018-.027-.027-.063-.036-.089-.1975-.476-.2873-.854-.404-1.186.0449-.054.0987-.099.1436-.134.0898-.081.1796-.162.2604-.243.018-.018.036-.027.0539-.045.0808-.063.1527-.125.2245-.197.1167-.099.2335-.198.3592-.324.0359-.035.0808-.071.1257-.116-.0359-.036-.0629-.072-.0988-.108-.0359-.045-.0808-.09-.1167-.126-.0449-.045-.0898-.099-.1347-.143l-.1706-.171c-.0449-.045-.0898-.081-.1257-.126-.0359-.036-.0808-.072-.1168-.108l-.0538-.053c-.018-.027-.0359-.054-.0629-.063-.0898-.09-.1975-.189-.2873-.27-.0898-.08-.1706-.152-.2425-.215-.0898-.072-.1706-.153-.2604-.225-.0089 0-.0179-.009-.0269-.018-.0718-.062-.1527-.125-.2245-.179-.0269-.027-.0628-.045-.0898-.072-.0179-.009-.0269-.018-.0359-.027-.018-.018-.0359-.027-.0539-.045-.0269-.018-.0628-.045-.0898-.063-.0179-.018-.0359-.027-.0538-.036-.0898-.062-.1706-.125-.2604-.179-.1168-.081-.2425-.162-.3682-.234 0 0-.009-.009-.018-.009-.0718-.045-.1346-.08-.2065-.116h-.009c-.0359-.018-.0538-.036-.0898-.045-.0089-.009-.0089-.009-.0179-.009 0-.009-.018-.018-.018-.018h-.0089s0 0-.009-.009c-.018-.009-.027-.018-.0449-.018-.0449-.027-.0898-.054-.1347-.072-.0988-.045-.1976-.081-.2963-.117-.0808-.036-.1706-.072-.2515-.098-.0538-.018-.0987-.027-.1436-.045-.0359-.009-.0719-.027-.1078-.027-.0359-.018-.0808-.027-.1167-.036-.0539-.018-.0988-.027-.1437-.036-.0269-.009-.0628-.009-.0898-.018-.0359-.009-.0628-.018-.0987-.018-.0719-.018-.1437-.036-.2155-.045-.1976-.027-.4131-.054-.6286-.072h-.1347c-.0179-.009-.0359-.009-.0539-.009h-.3142c-.0808 0-.1617 0-.2515.009-.0898 0-.1795 0-.2693.009.5028.952.7901 1.5 1.2391 2.335-.009 0-.009 0-.009.009-.3053.485-.5746 1.203-.871 1.508-.7991.826-1.6342 1.275-2.3076 2.299-1.2572 1.913-1.5445 7.21 1.284 9.931.1347.126.2694.252.3951.368.1077.099.2155.198.3232.288.1258.116.2425.215.3682.323.1706.144.3412.287.5208.431.009.009.018.018.0269.018.1796.144.3682.287.5567.422.2335.179.467.341.7004.485.1168.081.2335.152.3592.224 0 0 .009.009.018.018.2783.162.5567.323.835.458.1168.063.2335.117.3502.171.6106.26 1.311.494 1.9934.592.0449.018.0898.018.1347.027.1437.018.2964.036.431.045.2515.018.4849.018.7094 0 .0808-.009.1527-.018.2335-.027.0808-.018.1616-.027.2334-.045h.027c.0808-.027.1616-.044.2334-.071.0898-.027.1706-.063.2515-.099.0269-.009.0538-.027.0808-.045.0179-.009.0359-.009.0449-.018.0449-.027.0808-.054.1257-.072.009-.009.0179-.009.0269-.018.027-.018.0539-.045.0808-.063.009-.009.009-.009.018-.018.0988-.071.1975-.17.2784-.269.0179-.027.0359-.054.0538-.081.0539-.063.0988-.144.1437-.215.0988-.18.1796-.377.2424-.593.009-.027.027-.063.027-.099.0359-.099.0628-.206.0898-.323.0269-.144.0628-.287.0808-.44.0179-.09.0269-.189.0359-.278v-.009c.018-.171.0359-.333.0359-.503.009-.171.018-.332.018-.503 0-1.167-.1796-2.442-.4221-3.646zm-5.6839-4.148.1257.072.2245.134c-.0628-.027-.1167-.044-.1706-.053-.0179-.009-.0359-.009-.0539-.009-.0359-.009-.0718-.018-.0987-.018-.009-.036-.018-.081-.027-.126zm.3682 2.227c-.009-.126-.027-.252-.0449-.377-.018-.126-.0359-.252-.0629-.368-.0359-.207-.0808-.414-.1167-.62-.009-.036-.009-.072-.018-.099v-.027c-.0269-.116-.0449-.242-.0628-.359 0-.045-.018-.099-.018-.144.027 0 .0539.009.0808.018.027 0 .0539 0 .0809.009.0449.009.0987.036.1616.063 0 0 .3412.207.4579.458.1168.261.7453 1.913.7453 1.913l-1.1583.134c-.018-.197-.027-.404-.0449-.601zm.5836 4.741c-.0898-.045-.413-.234-.7363-.422.0719-.53.1168-1.06.1437-1.598l.8351.44s.413.853.1257 1.418c0 0-.1706.252-.3682.162zm1.0865-2.829s.2425.629.3413.889c.0897.261-.027.476-.027.476l-.9428 1.383c.2245-.566-.0359-1.248-.0359-1.248l-.5208-1.401-.3951.027.6106-1.149 1.4007.978z" fill="#565656"/><path d="m81.0686 138.538c-.009.377-.027.763-.0539 1.158-.027.53-.0718 1.06-.1437 1.599-.1706 1.329-.4489 2.622-.9249 3.744-.0089-.009-.0179-.009-.0179-.009-.1257-.072-.2425-.144-.3592-.224-.2334-.144-.4579-.306-.6914-.485-.1886-.135-.3771-.279-.5567-.422-.009 0-.018-.009-.0269-.018-.1796-.144-.3502-.288-.5208-.431-.1258-.099-.2425-.207-.3682-.324-.1078-.089-.2155-.188-.3233-.287-.1346-.126-.2604-.242-.395-.368-2.8285-2.721-2.5502-8.019-1.2931-9.922.6825-1.024 1.5175-1.473 2.3167-2.299.2963-.305.5657-1.024.871-1.508 0-.009 0-.009.009-.009-.449-.845-.7363-1.383-1.2392-2.344.8531 1.077 1.751 1.805 2.595 2.299-.0359.152-.0628.323-.0718.467-.0179.161-.009.341.009.52.009.018.009.027.009.045.0628.907.1796 1.832.3322 2.775.1257.745.3233 1.517.458 2.263.0089.045.0179.089.0179.125.009.036.018.072.018.108.009.045.0179.099.0179.144.0898.619.2514 1.239.3053 1.85.018.206.027.404.0449.61-.009.305-.009.62-.0179.943z" fill="#2f2f2f"/><path d="m86.2314 145.283c-.0359.072-.0898.152-.1347.215-.018.027-.0449.054-.0629.081-.0897.108-.1795.207-.2963.287-.0269.018-.0538.036-.0808.063-.009.009-.0179.009-.0269.018-.0359.027-.0808.054-.1257.072-.018.009-.027.018-.0539.027-.0269.018-.0539.027-.0808.045-.0719.036-.1617.063-.2514.099-.0719.027-.1437.045-.2245.062-.009.009-.018.009-.027.009-.0718.018-.1526.027-.2424.045-.0718.009-.1527.018-.2335.027-.2245.018-.4579.018-.7004 0-.1436-.009-.2873-.027-.4399-.045.0897-.107.1795-.233.2514-.377.1975-.377.3412-.79.4579-1.239.44-1.724.3233-3.924.0629-5.935-.0629-.485-.1527-.979-.2694-1.473-.1706-.709-.4041-1.419-.7094-2.128-.2963-.664-.6644-1.284-.9338-1.966-.3861-.961-.7722-1.949-1.0147-2.91-.0179-.054-.0269-.107-.0359-.161-.0629-.27-.1167-.422-.009-.575.0629-.09.1527-.162.2335-.233h.009c1.4456.502 2.5321.368 2.6129.35-.1795.17-.3412.305-.4848.44-.0719.063-.1437.134-.2245.197-.0988.09-.2065.18-.3233.288-.0449.044-.0987.089-.1436.134.1346.35.2244.764.4399 1.275.44 1.024 1.0237 2.012 1.6253 2.955.5298.826.9249 1.724 1.2122 2.63.1437.449.2604.889.3412 1.329.449 2.281.7004 4.813-.1167 6.394z" fill="#2f2f2f"/><path d="m83.8879 129.632c-.1796.17-.3412.305-.4849.44-.0718.062-.1436.134-.2245.197-.0987.09-.2065.18-.3232.287-.0359.027-.0718.063-.1167.099-.458-.045-1.0327-.161-1.6612-.404-.0629-.027-.1167-.045-.1796-.072-.3412-.134-.6914-.305-1.0506-.521-.1347-.08-.2694-.17-.4041-.26-.1257-.081-.2514-.171-.3681-.269-.1706-.126-.3412-.261-.5118-.413 0-.009 0-.009.009-.009-.449-.844-.7364-1.383-1.2392-2.344.853 1.078 1.751 1.805 2.595 2.299.467.269.9159.467 1.3379.61h.009c1.4457.512 2.5322.377 2.613.36z" fill="#2f2f2f"/><path d="m86.1781 128.312-2.2807 1.32s0 0-.009 0c-.0898.018-1.1673.152-2.613-.35h-.009c-.422-.144-.871-.342-1.3379-.611-.844-.494-1.742-1.221-2.595-2.299l2.2807-1.311c2.4873-.161 4.0767.629 6.5639 3.251z" fill="#161616"/><path d="m85.9713 128.285-2.1191 1.23c-.0718.009-.2155.027-.449.027-.4669 0-1.2122-.063-2.0921-.377-.44-.144-.88-.341-1.32-.602-.1167-.063-.2245-.134-.3412-.206-.7722-.503-1.4816-1.159-2.1191-1.949l2.1191-1.221c.1885-.018.3771-.018.5477-.018 2.0832-.009 3.5469.781 5.7737 3.116z" fill="#000"/><path d="m81.0239 139.689c-.0269.529-.0718 1.059-.1436 1.598-.3592-.206-.7004-.413-.7004-.413l-.009-1.634z" fill="#8f8f8f"/><path d="m79.776 139.751-.7992.916-.009-.601s-.4669-.27-.6734-.386c-.1976-.117-.3502-.458-.3502-.458l-.9608-2.497c.413.817.9249 1.114.9249 1.114l1.0416.61.0089-.538z" fill="#8f8f8f"/><path d="m78.8597 136.456-.7453 1.365s-.6465-.252-1.0416-1.132c0 0-.1796-.458-.0988-.619.0808-.171.6914-1.105.6914-1.105z" fill="#8f8f8f"/><path d="m81.0685 137.57h-.018l-.9338-2.227s.1616-.404.5837-.368c.0089.045.0179.098.0179.143.0898.62.2514 1.239.3053 1.85.018.198.027.404.0449.602z" fill="#8f8f8f"/><path d="m80.6831 134.867c-.3862-.027-.5568.224-.5568.224l-.5208.773.3861.502-1.4007-.691-.6016-1.877.431.548s.2334-.35.3322-.494.3682-.009.3682-.009l1.5354.898c.009.045.018.09.027.126z" fill="#8f8f8f"/><path d="m81.9756 141.547s-.1707.252-.3682.162c-.0898-.045-.4131-.233-.7363-.422.0718-.53.1167-1.06.1437-1.598l.835.44s.4131.853.1258 1.418z" fill="#bfbfbf"/><path d="m83.035 139.77c.0898.26-.0179.484-.0179.484l-.9428 1.383c.2244-.574-.0449-1.257-.0449-1.257l-.5208-1.401-.4041.027.6106-1.149 1.4008.979-.431.045c.0089 0 .2514.628.3501.889z" fill="#bfbfbf"/><path d="m81.0063 134.948c-.1258-.045-.2335-.072-.3233-.072-.009-.036-.018-.09-.018-.126z" fill="#bfbfbf"/><path d="m82.2267 137.435-1.1584.134c-.0089-.206-.0179-.404-.0448-.61-.0539-.611-.2156-1.23-.3053-1.85-.009-.045-.018-.099-.018-.144.0988.009.2065.027.3233.09 0 0 .3412.207.4579.458.1167.269.7453 1.922.7453 1.922z" fill="#bfbfbf"/><path d="m85.9713 128.285-2.1191 1.23c-.0718.009-.2155.027-.4489.027-.467 0-1.2122-.063-2.0922-.377-.44-.144-.88-.341-1.32-.602-.1167-.063-.2245-.134-.3412-.206v-3.17c.1886-.018.3771-.018.5477-.018 2.0832-.009 3.5469.781 5.7737 3.116z" fill="#2f2f2f"/><path d="m79.6592 128.348c.1077.072.2245.144.3412.206.449.261.8889.458 1.32.602.8799.305 1.6252.377 2.0921.377.2245 0 .3772-.018.449-.027l-4.2023-4.328z" fill="#000"/><path d="m81.8946 124.962s.7453 1.554.9967 2.191c.2425.638 1.311 1.823.871 2.039-.44.215-1.5355-1.527-1.5355-1.527l-.0538 3.269s.0359.404-.3502.359-.3861-.045-.3861-.045.0718.844-1.0416.126c-1.1135-.719-.889-.647-.9788-1.284-.0898-.638-.3232-1.32-.2514-2.793.0808-1.482.2245-2.505.2245-2.505z" fill="#ff7e17"/><path d="m82.0566 97.9616s1.1853-1.7959 3.1608-1.0865c1.9754.7183 2.0383 2.1999.7003 5.8369-1.3379 3.636-3.008 8.916-3.008 8.916l.2424 13.64-5.0374.485-.413-14.43z" fill="#fe9500"/><path d="m82.0564 97.9616s1.1853-1.7959 3.1608-1.0865c.0089 0 .0179.009.0269.009-.7632.3681-1.1853 1.0056-1.1853 1.0056l-4.3549 13.3703.413 14.304-1.9934.198-.4131-14.43z" fill="#fe7f00"/><path d="m110.637 101.024-8.18 4.902-4.8845-8.8623-.404 9.8503 1.6073 2.972s1.3652 2.335 3.7892 1.769l11.799-6.169z" fill="#fe9500"/><path d="m98.157 104.076 1.6073 2.973s1.3647 2.334 3.7897 1.769l9.464-4.948 1.356 1.616-11.799 6.169c-2.434.566-3.7895-1.769-3.7895-1.769l-1.6073-2.972.3951-9.581z" fill="#fe7f00"/><path d="m113.305 102.595c1.033 1.23 1.508 2.532 1.077 2.9-.44.368-1.634-.332-2.666-1.562-1.033-1.23-1.518-2.532-1.078-2.9.44-.378 1.634.323 2.667 1.562z" fill="#fe7f00"/><path d="m111.679 102.083.943-.745s.808-1.5805 1.446-2.4874c.637-.8979 3.681-1.275 3.834-.8081.153.4579-.126.8889-.126.8889s.512-.2694.692.5478c.179.8168.494 1.9218-.377 2.6668-.871.754-1.491 1.024-1.751.808-.261-.215-.413-.97-.413-.97s-.045 1.087-.548 1.527-.781.144-1.284.332c-.503.189-.871.494-.871.494s-1.796-.503-1.545-2.254z" fill="#ff7e17"/><path d="m89.2583 93.499c.3951.5567.8441 1.0595 1.3649 1.4636 2.7566 2.1371 4.7321-.2065 5.3516-2.2987.3951-1.3379 1.0327-3.4122 1.0147-5.217-.3322-.2963-.862-.4849-1.6971-.3951-2.586.2514-3.8701.3143-4.0497 1.8587-.1885 1.5445-.3681 2.5771-.3681 2.5771l-.6375-.0898s-.4221-2.9721-1.2661-2.3616c-1.9037 1.3559.6644 2.0204.2873 4.4628z" fill="#f8cfb3"/><path d="m88.971 89.0362c.853-.6106 1.2661 2.3616 1.2661 2.3616l.6375.0898s.1796-1.0327.3681-2.5771c.1347-1.1045.8261-1.4547 2.1641-1.6522-.0449.1257-.1258.2514-.2335.3412-.1796.1616-.4041.2514-.6106.3861-.889.5478-1.2751 1.6343-1.4816 2.6579-.2963 1.5175-.3143 3.0979-.0449 4.6244-.1347-.0898-.2784-.1796-.413-.2874-.5208-.404-.9788-.9069-1.3649-1.4636.3771-2.4603-2.191-3.1248-.2873-4.4807z" fill="#e4c0b0"/><path d="m86.9954 87.842s.5747 3.2775 2.2628 5.657c.3772-2.4424-2.1909-3.1069-.2873-4.4717.853-.6106 1.2661 2.3615 1.2661 2.3615l.6375.0898s.1796-1.0326.3681-2.5771c.1796-1.5444 1.4637-1.6072 4.0497-1.8587.8351-.0808 1.3649.1078 1.6971.3951-.009-1.0236-.2334-1.9664-.8351-2.6219-1.6522-1.8228-4.2921-3.2865-6.9949-2.2987-2.7027.9877-2.164 5.3247-2.164 5.3247z" fill="#222"/><path d="m93.8017 79.6708c2.8195.5298 4.768 2.7028 4.3639 4.8578-.404 2.1461-3.017 3.4571-5.8365 2.9273s-4.768-2.7028-4.364-4.8578c.4041-2.1551 3.0171-3.4661 5.8366-2.9273z" fill="#ffa500"/><path d="m88.2166 148.318-.009.386-.0269 1.113c-.7453 1.868-3.457 4.005-7.399 1.706v-1.356c3.6726 2.658 6.4652.36 7.4349-1.849z" fill="#fff"/><path d="m77.8008 114.493 5.1541-.225.0359 1.679-5.1451.225z" fill="#fff"/><path d="m106.92 109.392-1.49.773-2.407-4.571 1.446-.862z" fill="#fff"/><path d="m92.3293 87.4469c2.7028.5118 5.208-.6735 5.7737-2.6669 0 0 1.8048 1.2392 2.047 1.5894.261.3681.35.8351.216 1.2661-.009.0449-.027.0808-.045.1167-.278.5926-.7993 1.0326-1.4189 1.2481-.5297.1886-1.1942.4131-1.4995.5119-1.6522.5387-3.2146.422-4.5525-.6915-.0988-.0808-.1796-.1526-.2425-.2065-.8081-.7004-2.568-2.0652-2.568-2.0652.6554.422 1.4277.7363 2.2897.8979z" fill="#fe7f00"/><path d="m87.965 82.598c.4041-2.146 3.0171-3.457 5.8366-2.9272.5298.0987 1.0326.2604 1.4905.4669-2.4064.1527-4.5884 2.2628-5.1451 5.1811-.0808.413-.1167.8261-.1257 1.2301-1.4906-.9697-2.3436-2.4693-2.0563-3.9509z" fill="#fe7f00"/><path d="m95.1849 86.2079.1167-.8261-.9159.3323s-.2693.404-.1706.7093c0 0 .0719.1437.1706.1078.1078-.0359.7992-.3233.7992-.3233z" fill="#fff"/><path d="m94.161 86.4593-.3771-.7722s-.0449-.1167.0269-.2424c.0629-.1257.2335-.431.2335-.431l-.2155-.0539.7812-.3951.2245.6286-.1976-.045-.3592.6735s-.1885.3232-.1167.6375z" fill="#fff"/><path d="m97.0886 84.3313-.6644 1.1943s-.0988.1616-.2066.2155c-.1077.0449-.3681.1526-.3681.1526l-.0449.3053-.3412-.5208.5387-.88-.0359.2784.5747-.2335c0-.0179.2873-.1257.5477-.5118z" fill="#fff"/><path d="m96.8822 83.3884-.7093.6735.2783.7452s.3502-.0808.6106-.5028c0 0 .1257-.2245.0988-.3143-.0359-.0898-.2784-.6016-.2784-.6016z" fill="#fff"/><path d="m95.1846 83.1369 1.0326-.4221s.1437-.0449.1886.036c.0449.0808.1346.2783.1346.2783l.2605-.2514-.44.9069-.7633.2514.2335-.2334-.2065-.4311c-.009 0-.1078-.2155-.44-.1346z" fill="#fff"/><path d="m94.3857 84.3134.5837.1526.6285-1.0685s-.0718-.3233-.4399-.2066c0 0-.1886.0809-.2694.1976-.0629.1257-.5029.9249-.5029.9249z" fill="#fff"/><path d="m115.639 145.929 6.986 4.032 7.686-4.436-6.986-4.032z" fill="#949494"/><path d="m115.164 143.667 6.985 4.031 7.678-4.436-6.977-4.031z" fill="#bababa"/><path d="m114.876 141.538 6.986 4.032 7.687-4.436-6.986-4.031z" fill="#fff"/><path d="m114.014 93.903 1.724-.2604 8.935 57.7374s-.252 2.298-.44 2.343c-.252.054-1.257-1.903-1.257-1.903z" fill="#ababab"/><path d="m122.688 149.925.296 1.886s1.015 1.957 1.257 1.903c.189-.045.44-2.343.44-2.343l-.368-2.38z" fill="#636363"/><path d="m122.123 145.732s.224.224.853.161c.628-.072.871-.422.871-.422l1.248.539 1.374 1.733-3.844 2.218z" fill="#949494"/><path d="m121.646 143.469s.225.233.854.162c.628-.072.871-.423.871-.423l1.248.539 1.373 1.733-3.843 2.218z" fill="#bababa"/><path d="m121.359 141.341s.225.224.853.162c.629-.072.871-.422.871-.422l1.249.538 1.373 1.733-3.843 2.218z" fill="#fff"/><path d="m146.689 132.837-.853.925-2.469.144c-.225.009-.449 0-.674-.027l-1.58-.243c-.458-.071.135-.493.135-.493.682-.387 1.05-.252 1.984-.234l2.514-.224z" fill="#c95200"/><path d="m145.837 133.367-2.47.144c-.224.018-.449 0-.673-.027l-1.572-.234c-.143.135-.323.341-.009.395l1.581.243c.224.036.449.045.673.027l2.47-.144.853-.925-.315-.054z" fill="#ffd83e"/><path d="m145.271 132.604 2.442 1.194 2.084.179c.79.063 1.58.045 2.361-.08l.997-.153c.404-.063.727-.395.368-.602-1.401.144-4.454-.063-4.454-.063z" fill="#ff8b00"/><path d="m153.622 133.223c-.09.117-.27.207-.467.243l-.997.152c-.781.117-1.571.144-2.361.081l-2.084-.179-1.652-.808-.79-.099 2.442 1.194 2.084.18c.79.062 1.58.045 2.361-.081l.997-.153c.359-.063.655-.332.467-.53z" fill="#ffd83e"/><path d="m152.894 139.006c-.611.35-2.963-.889-2.963-.889-.656-.386-1.248-.889-1.733-1.473l-2.443-2.909c.144-.144.297-.287.44-.422.117-.117.234-.233.36-.341.116-.108.197-.189.359-.117.107.045.188.072.269.162.063.063.117.126.18.188.143.153.278.297.422.44.422.44.835.88 1.257 1.32.404.422.853.79 1.356 1.096l1.445.889c.71.727 1.94 1.544 1.051 2.056z" fill="#ff9f17"/><path d="m152.894 138.548c-.611.35-2.963-.889-2.963-.889-.656-.386-1.248-.889-1.733-1.473l-2.227-2.648-.216.206 2.443 2.909c.494.584 1.077 1.078 1.733 1.473 0 0 2.352 1.239 2.963.889.332-.189.368-.431.242-.682-.045.071-.125.143-.242.215z" fill="#ffd83e"/><path d="m147.453 133.322c-.359.198-.781.233-1.186.198-.197-.018-.404-.072-.601-.081-.153 0-.216-.063-.243-.225-.018-.134-.045-.269-.071-.404-.063-.26-.135-.512-.234-.763-.188-.494-.449-.961-.772-1.383-.018-.027-.045-.063-.054-.099s.009-.071.018-.107c.108-.225.386-.324.629-.288.242.036.727 1.123.853 1.329.592.988.915.979 1.661 1.823z" fill="#ff9f17"/><path d="m146.438 133.744-.144-.53-.799-.314-1.248 1.733c-.754 1.051-4.203 3.691-3.314 4.202.611.351 2.802-.862 2.802-.862.88-.583 1.643-1.319 2.263-2.173l.682-.942z" fill="#ff7e04"/><path d="m145.827 135.325c-.619.853-1.382 1.589-2.262 2.173 0 0-2.03 1.122-2.73.889-.081.206-.063.368.099.458.61.35 2.801-.862 2.801-.862.88-.584 1.644-1.32 2.263-2.173l.683-.943-.099-.449z" fill="#ffd83e"/><path d="m146.294 133.214c-.278-.018-.521.234-.79.18l-.054.063c-.108-1.015-.494-1.985-1.113-2.793-.018-.027-.045-.054-.054-.09 0-.036.009-.071.027-.107.018-.045.045-.081.08-.108l.485.242z" fill="#ff7e04"/><path d="m145.154 130.368c-.044-.081-.089-.171-.206-.189-.243-.036-.521.063-.629.287-.018.036-.027.072-.018.108-.009 0 .404.359.853-.206z" fill="#ffbf29"/><path d="m117.767 98.9316s-2.559.2963-2.433 1.1134c.125.826.323 3.987 1.329 3.215 1.005-.782 1.409-1.105 1.409-1.105s.638-.395.575-1.472c-.027-.485-.162-1.1408-.296-1.5-.18-.4759-.584-.2514-.584-.2514z" fill="#c75700"/><path d="m175.02 97.8809 3.098-5.1901-1.617-.9338v.0089c-.386-.2155-.924-.1705-1.508.1617-1.194.6824-2.155 2.3346-2.155 3.6905 0 .6465.224 1.1044.584 1.3379l.035.018c.009.0089.018.0089.027.0179z" fill="#000"/><path d="m177.561 93.0149-2.191-1.2661c-.126.0449-.251.1077-.377.1796-1.194.6824-2.155 2.3346-2.155 3.6905 0 .2514.036.4669.09.6555l1.688.9787c.188-.0539.377-.1347.574-.2514.225-.1257.431-.2874.638-.467l1.625-2.7296c.063-.2694.099-.5298.108-.7902z" fill="#1f1f1f"/><path d="m178.71 94.0378c0 1.3469-.96 2.9991-2.155 3.6905-1.194.6824-2.155.1437-2.155-1.2032 0-1.3559.961-2.9992 2.155-3.6906 1.186-.6914 2.155-.1526 2.155 1.2033z" fill="#2a2a2a"/><path d="m178.621 94.0826c0 1.302-.925 2.8823-2.075 3.5468-1.14.6555-2.074.1437-2.074-1.1583s.925-2.8824 2.074-3.5469c1.15-.6644 2.075-.1436 2.075 1.1584z" fill="#1d1d1d"/><path d="m178.162 94.352c0 1.0057-.718 2.2449-1.607 2.7567s-1.607.1077-1.607-.898c0-1.0056.718-2.2448 1.607-2.7566.889-.5208 1.607-.1167 1.607.8979z" fill="#3b3b3b"/><path d="m178.054 94.4149c0 .9428-.673 2.0922-1.499 2.5681s-1.5.0988-1.5-.8351c0-.9428.674-2.0921 1.5-2.5681.826-.4848 1.499-.1077 1.499.8351z" fill="#727272"/><path d="m176.537 93.5889c-.817.4849-1.482 1.6252-1.482 2.5501 0 .1347.018.2514.045.3681l1.096.6286c.116-.0359.242-.0808.368-.1616.817-.4669 1.472-1.5894 1.499-2.5142z" fill="#a9a9a9"/><path d="m175.711 94.3521c-.296.395-.512.862-.61 1.3109l1.813 1.0506c.351-.3053.656-.7183.862-1.1673z" fill="#e9eae7"/><path d="m175.711 94.3521c-.296.395-.512.862-.61 1.3109l1.813 1.0506c.351-.3053.656-.7183.862-1.1673z" fill="#e9eae7"/><path d="m177.767 94.4689c0 .8081-.574 1.7958-1.293 2.2089-.709.413-1.293.0898-1.293-.7273 0-.8082.575-1.7959 1.293-2.2089.719-.4131 1.293-.0898 1.293.7273z" fill="#4d4d4d"/><path d="m177.364 94.4507c0 .6375-.458 1.4277-1.024 1.7509-.566.3233-1.024.0719-1.024-.5746s.458-1.4277 1.024-1.751c.566-.3232 1.024-.0718 1.024.5747z" fill="#949494"/><path d="m176.887 94.9628c0 .2783-.197.6286-.449.7722-.251.1437-.449.027-.449-.2514s.198-.6286.449-.7722c.252-.1437.449-.027.449.2514z" fill="#c4c4c4"/><path d="m176.752 95.1332c0 .1527-.107.3413-.242.4131-.135.0808-.242.0179-.242-.1347 0-.1527.107-.3412.242-.4131.135-.0808.242-.0179.242.1347z" fill="#4d4d4d"/><path d="m175.02 97.8811-.952-.5478c-.009 0-.018-.0089-.027-.0179l-.036-.018c-.359-.2245-.583-.6914-.583-1.3379 0-1.3559.961-2.9991 2.155-3.6905.592-.3412 1.122-.3771 1.508-.1616l-.107-.0629c-.387-.2155-.925-.1706-1.509.1616-1.194.6825-2.155 2.3347-2.155 3.6905 0 .6465.224 1.1045.584 1.3379l.036.018c.009.009.017.009.026.018z" fill="#000"/><path d="m175.02 97.881-.467-.2693c-.009 0-.018-.009-.027-.018l-.036-.018c-.359-.2245-.584-.6914-.584-1.3379 0-1.3559.961-2.9991 2.155-3.6905.593-.3412 1.123-.3771 1.509-.1616l-.108-.0629c-.386-.2155-.925-.1706-1.509.1617-1.194.6824-2.155 2.3346-2.155 3.6905 0 .6465.225 1.1044.584 1.3379l.036.0179c.009.009.018.009.027.018z" fill="#000"/><path d="m199.488 85.5883-3.097-5.19 1.616-.9339c.386-.2155.925-.1706 1.508.1617 1.195.6824 2.155 2.3346 2.155 3.6904 0 .6466-.224 1.1045-.583 1.338l-.036.0179c-.009.009-.018.009-.027.018z" fill="#000"/><path d="m196.948 80.7214 2.191-1.2661c.125.0449.251.1078.377.1796 1.194.6824 2.155 2.3346 2.155 3.6905 0 .2514-.036.4669-.099.6555l-1.688.9788c-.189-.0539-.377-.1347-.575-.2515-.224-.1257-.431-.2873-.637-.4669l-1.625-2.7297c-.054-.2694-.09-.5388-.099-.7902z" fill="#1f1f1f"/><path d="m195.807 81.745c0 1.3559.961 2.9991 2.155 3.6906 1.194.6824 2.155.1436 2.155-1.2033s-.961-2.9991-2.155-3.6905-2.155-.1526-2.155 1.2032z" fill="#2a2a2a"/><path d="m195.888 81.7901c0 1.302.925 2.8823 2.074 3.5468 1.141.6555 2.075.1437 2.075-1.1583s-.925-2.8824-2.075-3.5468c-1.149-.6645-2.074-.1437-2.074 1.1583z" fill="#1d1d1d"/><path d="m196.346 82.0593c0 1.0057.718 2.2448 1.607 2.7567.889.5118 1.607.1077 1.607-.898s-.718-2.2448-1.607-2.7566c-.88-.5208-1.607-.1168-1.607.8979z" fill="#3b3b3b"/><path d="m196.463 82.1222c0 .9428.673 2.0922 1.499 2.5681.827.4759 1.5.0987 1.5-.8351 0-.9428-.673-2.0922-1.5-2.5681-.835-.4849-1.499-.1077-1.499.8351z" fill="#727272"/><path d="m197.98 81.2961c.817.4849 1.482 1.6253 1.482 2.5502 0 .1347-.018.2514-.045.3681l-1.096.6286c-.116-.0359-.242-.0808-.368-.1527-.817-.4669-1.472-1.5893-1.499-2.5142z" fill="#a9a9a9"/><path d="m198.797 82.0505c.296.3951.512.862.611 1.311l-1.814 1.0506c-.35-.3053-.656-.7273-.862-1.1673z" fill="#e9eae7"/><path d="m198.797 82.0505c.296.3951.512.862.611 1.311l-1.814 1.0506c-.35-.3053-.656-.7273-.862-1.1673z" fill="#e9eae7"/><path d="m196.741 82.1762c0 .8081.574 1.7958 1.293 2.2089.709.413 1.293.0898 1.293-.7274 0-.8081-.575-1.7958-1.293-2.2089-.719-.413-1.293-.0898-1.293.7274z" fill="#4d4d4d"/><path d="m197.145 82.1585c0 .6375.458 1.4277 1.024 1.7509.565.3233 1.023.0719 1.023-.5747 0-.6375-.458-1.4277-1.023-1.7509-.566-.3233-1.024-.0719-1.024.5747z" fill="#949494"/><path d="m197.621 82.6701c0 .2783.198.6285.449.7722s.449.0269.449-.2514c0-.2784-.198-.6286-.449-.7723-.251-.1436-.449-.0269-.449.2515z" fill="#c4c4c4"/><path d="m197.756 82.8407c0 .1527.108.3413.242.4131.135.0808.243.0179.243-.1347 0-.1527-.108-.3412-.243-.413-.134-.0809-.242-.018-.242.1346z" fill="#4d4d4d"/><path d="m199.489 85.5883.952-.5477c.009-.009.018-.009.027-.0179l.036-.018c.359-.2335.583-.6914.583-1.3379 0-1.3469-.96-2.9991-2.155-3.6905-.592-.3413-1.122-.3772-1.508-.1617l.108-.0628c.386-.2155.924-.1706 1.508.1616 1.194.6825 2.155 2.3346 2.155 3.6905 0 .6465-.224 1.1045-.584 1.338l-.035.0179c-.009.009-.018.009-.027.0179z" fill="#000"/><path d="m199.489 85.5883.467-.2694c.009-.009.018-.009.027-.0179l.036-.018c.359-.2335.584-.6914.584-1.3379 0-1.3469-.961-2.9991-2.156-3.6905-.592-.3412-1.122-.3772-1.508-.1617l.108-.0628c.386-.2155.925-.1706 1.508.1616 1.194.6825 2.155 2.3346 2.155 3.6905 0 .6465-.224 1.1045-.583 1.338l-.036.0179c-.009.009-.018.009-.027.018z" fill="#000"/><path d="m144.157 78.3689-3.097-5.1901 1.616-.9338c.386-.2156.925-.1707 1.508.1616 1.195.6824 2.155 2.3346 2.155 3.6905 0 .6465-.224 1.1044-.583 1.3379l-.036.0179c-.009 0-.018.009-.027.018z" fill="#000"/><path d="m141.617 73.5019 2.191-1.2661c.125.0449.251.1078.377.1796 1.194.6825 2.155 2.3346 2.155 3.6905 0 .2514-.036.467-.099.6555l-1.688.9788c-.189-.0539-.377-.1347-.575-.2515-.224-.1257-.431-.2873-.637-.4669l-1.626-2.7297c-.053-.2604-.089-.5298-.098-.7902z" fill="#1f1f1f"/><path d="m140.467 74.5256c0 1.3469.961 2.9991 2.155 3.6905 1.195.6824 2.155.1437 2.155-1.2032 0-1.3559-.96-2.9991-2.155-3.6905-1.185-.6914-2.155-.1437-2.155 1.2032z" fill="#2a2a2a"/><path d="m140.557 74.5706c0 1.302.925 2.8914 2.074 3.5469 1.141.6555 2.075.1436 2.075-1.1584s-.925-2.8823-2.075-3.5468c-1.149-.6555-2.074-.1347-2.074 1.1583z" fill="#1d1d1d"/><path d="m141.015 74.8401c0 1.0056.718 2.2448 1.607 2.7566s1.607.1077 1.607-.8979c0-1.0057-.718-2.2448-1.607-2.7567-.889-.5118-1.607-.1077-1.607.898z" fill="#3b3b3b"/><path d="m141.123 74.9027c0 .9429.673 2.0922 1.5 2.5681.826.4759 1.499.0988 1.499-.844 0-.9429-.673-2.0922-1.499-2.5681-.827-.4669-1.5-.0898-1.5.844z" fill="#727272"/><path d="m142.64 74.0767c.817.4848 1.482 1.6162 1.482 2.5501 0 .1347-.018.2514-.045.3681l-1.096.6286c-.116-.0359-.242-.0808-.368-.1527-.817-.4669-1.472-1.5893-1.499-2.5142z" fill="#a9a9a9"/><path d="m143.466 74.8401c.296.3951.512.862.611 1.311l-1.814 1.0505c-.35-.3053-.656-.7273-.862-1.1673z" fill="#e9eae7"/><path d="m143.466 74.8401c.296.3951.512.862.611 1.311l-1.814 1.0505c-.35-.3053-.656-.7273-.862-1.1673z" fill="#e9eae7"/><path d="m141.41 74.9569c0 .8082.575 1.7959 1.293 2.209.71.413 1.293.0898 1.293-.7273 0-.8082-.574-1.7959-1.293-2.209-.718-.404-1.293-.0808-1.293.7273z" fill="#4d4d4d"/><path d="m141.814 74.9388c0 .6375.458 1.4277 1.024 1.751.565.3232 1.023.0718 1.023-.5747 0-.6375-.458-1.4277-1.023-1.751-.566-.3232-1.024-.0628-1.024.5747z" fill="#949494"/><path d="m142.29 75.4596c0 .2783.198.6285.449.7722s.449.0269.449-.2514c0-.2784-.198-.6286-.449-.7723-.251-.1436-.449-.0359-.449.2515z" fill="#c4c4c4"/><path d="m142.425 75.6303c0 .1526.108.3412.242.4131.135.0808.243.0179.243-.1348 0-.1526-.108-.3412-.243-.413-.134-.0808-.242-.018-.242.1347z" fill="#4d4d4d"/><path d="m144.158 78.3689.952-.5478c.009 0 .018-.009.027-.0179l.036-.018c.359-.2245.583-.6914.583-1.3379 0-1.3469-.96-2.9991-2.155-3.6905-.592-.3412-1.122-.3771-1.508-.1616l.108-.0629c.386-.2155.924-.1706 1.508.1616 1.194.6825 2.155 2.3346 2.155 3.6905 0 .6465-.224 1.1045-.584 1.338l-.035.0179c-.009.009-.018.009-.027.018z" fill="#000"/><path d="m144.158 78.3688.467-.2694c.009 0 .018-.0089.027-.0179l.036-.018c.359-.2244.583-.6914.583-1.3379 0-1.3469-.96-2.9991-2.155-3.6905-.592-.3412-1.122-.3771-1.508-.1616l.108-.0629c.386-.2155.925-.1706 1.508.1616 1.194.6825 2.155 2.3347 2.155 3.6906 0 .6465-.224 1.1044-.583 1.3379l-.036.0179c-.009.009-.018.009-.027.018z" fill="#000"/><path d="m202.532 81.5477-24.855 14.331v-23.6695l24.855-22.1789z" fill="#0d3800"/><path d="m177.678 72.2092-38.396-22.1789v23.6695l38.396 22.1789z" fill="#397a1d"/><path d="m146.133 69.3086-.009-1.8228 1.886.9877s.467.9608.143 1.5804c0 0-.197.2874-.413.1796-.215-.0988-1.607-.9249-1.607-.9249z" fill="#fff"/><path d="m148.261 70.1617 1.051-1.5534s.126-.2425.027-.5298c-.108-.2964-.368-.9967-.368-.9967l.484-.0449-1.571-1.0955-.682 1.284.449-.0269.574 1.5624c-.009-.009.288.7543.036 1.4008z" fill="#fff"/><path d="m142.586 64.6665 1.078 2.7926s.171.3861.386.5208c.225.1347.754.431.754.431l.009.6734.889-1.0236-.898-2.0742-.009.6016-1.176-.6824s-.575-.3233-1.033-1.2392z" fill="#fff"/><path d="m143.332 62.6909 1.338 1.6702-.835 1.5354s-.728-.2783-1.168-1.266c0 0-.197-.5119-.107-.7004.089-.1886.772-1.2392.772-1.2392z" fill="#fff"/><path d="m147.067 62.673-2.101-1.2301s-.297-.1437-.404.0089c-.117.1617-.377.5568-.377.5568l-.485-.6196.664 2.1011 1.572.7812-.44-.5746.583-.8621c.009 0 .288-.431.988-.1616z" fill="#fff"/><path d="m148.432 65.4658-1.311.1526-1.042-2.4963s.26-.6734 1.015-.3053c0 0 .386.2245.512.5119.125.2783.826 2.1371.826 2.1371z" fill="#fff"/><path d="m172.56 80.129-5.693-3.2865v3.502l5.693 3.2864z" fill="#a2e49d"/><path d="m152.949 57.9229-.898-.5118v23.6695l.898.5118z" fill="#0d3800"/><path d="m140.89 74.6246.889.5208v-23.6695l-.889-.5118z" fill="#0d3800"/><path d="m175.281 70.8265-.889-.5118v23.6605l.889.5208z" fill="#0d3800"/><path d="m164.11 64.3792-.889-.5208v23.6695l.889.5118z" fill="#0d3800"/><path d="m187.241 74.8489 16.396-9.4732v10.1107l-16.396 9.4732z" fill="#114700"/><path d="m184.026 72.9902v10.1108l3.214 1.8587v-10.1107z" fill="#397a1d"/><path d="m184.026 74.6067v7.39l2.343 1.3558v-7.3899z" fill="#0d3800"/><path d="m200.422 63.5261-16.396 9.4642 3.214 1.8587 16.397-9.4731z" fill="#2c8810"/><path d="m183.326 38.9407 19.781 9.958-25.546 23.2924-19.054-11.0625z" fill="#0d1b00"/><path d="m184.915 65.4836 18.192-16.5849-19.782-9.958-18.47 16.5129z" fill="#0d2700"/><path d="m198.375 53.6937c-.754-.7004-2.209-.6735-2.487-1.6612-1.347.7902-2.838 1.329-4.373 1.5894-1.051.1796-2.29.3322-2.811 1.2571-.251.44-.296 1.0057-.691 1.3289-.422.3323-1.069.2155-1.482-.1257s-.637-.862-.835-1.3559c-.296-.7453-.556-1.4995-.79-2.2628-.153-.4938-.296-1.0146-.62-1.4187-.251-.3143-.592-.5387-.888-.8171-1.033-.9787-1.491-2.604-2.811-3.1248-.503-.1976-1.069-.2065-1.562-.4131-1.608-.6734-1.491-1.1044-3.179-.3502-2.514 1.1135-5.451 1.1584-7.776 2.622-1.15.7184-2.2.9608-3.269 1.8497-1.059.88-2.047 1.8498-3.133 2.7028-2.003 1.5624-4.149 3.3852-4.517 5.8994-.045.3143-.054.6376-.018.9429l20.545 11.8706v.3233c.754-.2155 1.499-.5028 2.209-.7992.17-.0718.341-.1436.511-.2065 1.76-.7273 3.538-1.4636 5.047-2.613.889-.6734 1.688-1.5085 2.164-2.5232.601-1.275.655-2.7925 1.454-3.9509.997-1.4456 2.838-1.9575 4.445-2.6399 1.293-.5477 2.514-1.2661 3.628-2.1191.628-.4849 1.239-1.0416 1.553-1.769.324-.7542.261-1.697-.314-2.2358z" fill="#3b1300"/><path d="m180.587 47.0941c-.503-.1976-1.069-.2065-1.562-.4131-1.608-.6734-1.491-1.1044-3.179-.3501-2.514 1.1134-5.451 1.1583-7.776 2.6219-1.15.7183-2.2.9608-3.269 1.8497-1.059.88-2.047 1.8498-3.133 2.7028-2.003 1.5624-4.149 3.3852-4.517 5.8994-.045.3143-.054.6376-.018.9429l6.95 4.0137 17.914-16.0101c-.377-.5388-.799-1.0147-1.41-1.2571z" fill="#240000"/><path d="m183.326 38.9229 4.193 13.0738 7.21 4.1934 8.369-7.3002z" fill="#397a1d"/><path d="m197.935 53.3883c-.781-.422-1.814-.5388-2.047-1.3649-1.347.7902-2.838 1.329-4.373 1.5894-.296.0538-.611.0987-.916.1706l4.131 2.4064z" fill="#994000"/><path d="m183.326 38.9408-24.819 22.1879-19.225-11.0895 1.15-2.4962 23.696-19.6917z" fill="#000"/><path d="m179.851 36.9203-1.311 1.1673-20.114 17.9946-1.257 1.1224-.305-.1796-1.643-.9428-1.644-.9518-1.643-.9608-1.652-.9428-1.643-.9429-1.643-.9518-1.644-.9518-1.634-.9518-1.643-.9339-1.643-.9518 1.266-1.1313 20.131-17.9767 1.32-1.1763 1.644.9519 1.634.9518 1.643.9338 1.643.9518 3.287 1.9036 1.634.9518 1.643.9518 1.643.9519 1.653.9518z" fill="#454545"/><path d="m166.427 29.1623-1.32 1.1673-20.141 17.9676-1.248 1.1314-1.643-.9339 1.266-1.1314 20.131-17.9676 1.32-1.1853z" fill="#292929"/><path d="m169.713 31.0478-1.32 1.1852-20.132 17.9677-1.266 1.1313-1.643-.9518 1.266-1.1313 20.132-17.9677 1.32-1.1853z" fill="#292929"/><path d="m173 32.9516-1.311 1.1852-20.15 17.9677-1.257 1.1224-1.643-.9429 1.266-1.1313 20.131-17.9677 1.32-1.1852z" fill="#292929"/><path d="m176.295 34.8463-.018.009-1.32 1.1673-20.114 17.9766-1.266 1.1314-1.643-.9608 1.248-1.1224 20.131-17.9766 1.32-1.1673.018-.009z" fill="#292929"/><path d="m179.581 36.7497-.009.0089-1.32 1.1673-6.258 5.5942-13.873 12.3824-1.258 1.1135-1.643-.9339 1.266-1.1314 20.123-17.9766 1.311-1.1673.018-.0089z" fill="#292929"/><path d="m181.216 37.7016-1.32 1.1763-20.132 17.9765-1.257 1.1135-1.338-.7632-.305-.1796 1.257-1.1225h.009l13.864-12.3824 6.259-5.5942 1.319-1.1673.009-.0089z" fill="#454545"/><path d="m159.764 56.8546-1.257 1.1134-1.338-.7632-.305-.1796-1.643-.9429-1.644-.9518-1.643-.9608-1.652-.9428-1.643-.9428-1.643-.9518-1.644-.9518-1.634-.9518-1.643-.9339-1.643-.9518 1.266-1.1314 1.643.9518 1.625.9339 3.296 1.9036 1.643.9518 1.634.9518 1.643.9428 1.661.9518 1.644.9518 1.634.9518h.009l.296.1796z" fill="#454545"/><path d="m181.215 37.7015-1.32 1.1763-1.355-.7902-.288-.1616-1.643-.9518-1.652-.9518-1.643-.9518-1.626-.9339-1.652-.9518-1.643-.9518-1.643-.9518-1.643-.9518-1.635-.9339-1.643-.9608 1.32-1.1763 1.643.9519 1.635.9518 1.643.9338 1.643.9518 3.286 1.9036 1.635.9518.018-.0089 1.643.9518-.018.0089 1.643.9519.018-.009 1.643.9518z" fill="#454545"/><path d="m113.735 67.5487 2.838-4.75-1.482-.8531c-.359-.1975-.844-.1616-1.383.1527-1.086.6286-1.975 2.1371-1.975 3.3762 0 .5926.206 1.0147.539 1.2212l.027.018c.009 0 .018.0089.027.0179z" fill="#000"/><path d="m116.061 63.0961-2.011-1.1584c-.117.0449-.225.0988-.35.1617-1.087.6285-1.976 2.1371-1.976 3.3762 0 .2245.027.431.09.6016l1.544.889c.171-.0449.342-.1257.53-.2245.198-.1167.395-.2604.584-.431l1.49-2.4963c.054-.2424.09-.4849.099-.7183z" fill="#1f1f1f"/><path d="m117.112 64.029c0 1.2391-.88 2.7476-1.976 3.3762-1.086.6286-1.975.1347-1.975-1.1044 0-1.2392.88-2.7477 1.975-3.3763 1.087-.6285 1.976-.1347 1.976 1.1045z" fill="#2a2a2a"/><path d="m117.031 64.0738c0 1.1942-.853 2.6399-1.895 3.2505-1.05.6016-1.894.1257-1.894-1.0596 0-1.1852.853-2.6399 1.894-3.2505 1.051-.6106 1.895-.1347 1.895 1.0596z" fill="#1d1d1d"/><path d="m116.609 64.3163c0 .9249-.655 2.0563-1.472 2.5232s-1.473.0988-1.473-.8261.656-2.0563 1.473-2.5232 1.472-.0988 1.472.8261z" fill="#3b3b3b"/><path d="m116.51 64.3702c0 .862-.61 1.9125-1.373 2.3525-.755.44-1.374.0898-1.374-.7722s.61-1.9126 1.374-2.3526c.754-.431 1.373-.0898 1.373.7723z" fill="#727272"/><path d="m115.119 63.616c-.746.44-1.356 1.4815-1.356 2.3346 0 .1257.018.2334.036.3322l1.005.5747c.108-.0359.216-.0808.333-.1437.745-.431 1.346-1.4546 1.373-2.3077z" fill="#a9a9a9"/><path d="m114.373 64.3164c-.269.3592-.467.7902-.557 1.2032l1.662.9608c.323-.2784.601-.6644.79-1.0685z" fill="#e9eae7"/><path d="m114.373 64.3164c-.269.3592-.467.7902-.557 1.2032l1.662.9608c.323-.2784.601-.6644.79-1.0685z" fill="#e9eae7"/><path d="m116.249 64.4241c0 .7453-.529 1.6433-1.185 2.0204-.655.3771-1.185.0808-1.185-.6645s.53-1.6522 1.185-2.0204c.656-.3771 1.185-.0807 1.185.6645z" fill="#4d4d4d"/><path d="m115.881 64.4059c0 .5837-.422 1.302-.933 1.6073-.521.2963-.934.0629-.934-.5208 0-.5836.422-1.302.934-1.6073.511-.3053.933-.0718.933.5208z" fill="#949494"/><path d="m115.451 64.8817c0 .2604-.189.5747-.413.7094-.225.1347-.413.027-.413-.2335 0-.2604.188-.5746.413-.7093.224-.1347.413-.027.413.2334z" fill="#c4c4c4"/><path d="m115.325 65.0347c0 .1437-.099.3143-.225.3861-.125.0718-.224.018-.224-.1257s.099-.3143.224-.3771c.126-.0808.225-.018.225.1167z" fill="#4d4d4d"/><path d="m113.735 67.5488-.871-.5028c-.009 0-.018-.009-.027-.018l-.027-.0179c-.332-.2065-.538-.6286-.538-1.2212 0-1.2392.88-2.7477 1.975-3.3762.539-.3143 1.024-.3412 1.383-.1527l-.099-.0539c-.359-.1975-.844-.1616-1.383.1527-1.086.6285-1.975 2.1371-1.975 3.3762 0 .5927.206 1.0147.539 1.2212l.027.018c.009 0 .018.0089.026.0179z" fill="#000"/><path d="m113.736 67.5487-.423-.2424c-.008 0-.017-.009-.026-.018l-.027-.018c-.333-.2065-.539-.6285-.539-1.2211 0-1.2392.88-2.7477 1.975-3.3763.539-.3143 1.033-.3502 1.383-.1526l-.099-.0539c-.359-.1976-.844-.1616-1.382.1527-1.087.6285-1.976 2.137-1.976 3.3762 0 .5926.207 1.0146.539 1.2212l.027.0179c.009 0 .018.009.027.018z" fill="#000"/><path d="m129.988 60.6166-2.838-4.75 1.482-.8531c.359-.1975.844-.1616 1.383.1527 1.086.6285 1.975 2.137 1.975 3.3762 0 .5926-.206 1.0147-.539 1.2212l-.026.0179c-.009 0-.018.009-.027.018z" fill="#000"/><path d="m127.662 56.163 2.011-1.1584c.117.0449.225.0988.351.1617 1.086.6285 1.975 2.137 1.975 3.3762 0 .2245-.027.431-.09.6016l-1.544.898c-.171-.0539-.341-.1258-.53-.2245-.197-.1168-.395-.2604-.584-.4221l-1.49-2.4962c-.054-.2514-.09-.5029-.099-.7363z" fill="#1f1f1f"/><path d="m126.612 57.0969c0 1.2391.88 2.7476 1.975 3.3762 1.087.6286 1.976.1347 1.976-1.1045 0-1.2391-.88-2.7477-1.976-3.3762-1.086-.6286-1.975-.1347-1.975 1.1045z" fill="#2a2a2a"/><path d="m126.693 57.1417c0 1.1852.853 2.6399 1.895 3.2505 1.05.6016 1.894.1257 1.894-1.0596 0-1.1942-.853-2.6399-1.894-3.2505-1.042-.6016-1.895-.1257-1.895 1.0596z" fill="#1d1d1d"/><path d="m127.115 57.3839c0 .9249.655 2.0563 1.472 2.5232s1.473.0988 1.473-.8261-.656-2.0562-1.473-2.5232c-.808-.4669-1.472-.0987-1.472.8261z" fill="#3b3b3b"/><path d="m127.213 57.4468c0 .862.611 1.9126 1.374 2.3526.754.44 1.374.0898 1.374-.7722s-.611-1.9126-1.374-2.3526c-.754-.44-1.374-.0898-1.374.7722z" fill="#727272"/><path d="m128.605 56.6836c.745.44 1.356 1.4816 1.356 2.3346 0 .1257-.018.2335-.036.3323l-1.006.5746c-.107-.0269-.215-.0808-.332-.1437-.745-.431-1.347-1.4546-1.374-2.3076z" fill="#a9a9a9"/><path d="m129.359 57.3843c.27.3592.467.7902.557 1.2032l-1.661.9608c-.323-.2784-.602-.6645-.79-1.0685z" fill="#e9eae7"/><path d="m129.359 57.3843c.27.3592.467.7902.557 1.2032l-1.661.9608c-.323-.2784-.602-.6645-.79-1.0685z" fill="#e9eae7"/><path d="m127.474 57.492c0 .7453.529 1.6522 1.185 2.0204.655.3771 1.185.0808 1.185-.6645s-.53-1.6432-1.185-2.0203c-.656-.3682-1.185-.0719-1.185.6644z" fill="#4d4d4d"/><path d="m127.851 57.4738c0 .5837.422 1.302.934 1.6073.521.2964.934.0629.934-.5207 0-.5837-.422-1.302-.934-1.5984-.521-.3053-.934-.0718-.934.5118z" fill="#949494"/><path d="m128.282 57.9498c0 .2604.188.5747.413.7094.224.1347.413.0269.413-.2335s-.189-.5746-.413-.7093c-.234-.1257-.413-.027-.413.2334z" fill="#c4c4c4"/><path d="m128.398 58.1024c0 .1436.099.3142.225.3771.126.0718.224.0179.224-.1257 0-.1437-.098-.3143-.224-.3861-.117-.0539-.225 0-.225.1347z" fill="#4d4d4d"/><path d="m129.988 60.6167.871-.5028c.009 0 .018-.009.027-.018l.027-.0179c.332-.2066.539-.6286.539-1.2212 0-1.2392-.88-2.7477-1.976-3.3763-.539-.3143-1.033-.3412-1.383-.1526l.099-.0539c.359-.1975.844-.1616 1.383.1527 1.086.6285 1.975 2.137 1.975 3.3762 0 .5926-.206 1.0147-.538 1.2212l-.027.0179c-.009 0-.018.009-.027.018z" fill="#000"/><path d="m129.988 60.6165.422-.2424c.009 0 .018-.009.027-.0179l.027-.018c.332-.2065.539-.6286.539-1.2212 0-1.2391-.88-2.7477-1.976-3.3762-.538-.3143-1.032-.3412-1.382-.1527l.098-.0538c.359-.1976.844-.1617 1.383.1526 1.087.6286 1.976 2.1371 1.976 3.3762 0 .5927-.207 1.0147-.539 1.2212l-.027.018c-.009.009-.018.009-.027.0179z" fill="#000"/><path d="m87.1387 50.6586-2.8374-4.7501 1.4816-.853c.3591-.1975.844-.1616 1.3828.1527 1.0865.6285 1.9754 2.137 1.9754 3.3762 0 .5926-.2065 1.0146-.5387 1.2212l-.027.0179c-.009 0-.0179.009-.0269.018z" fill="#000"/><path d="m84.813 46.205 2.0114-1.1584c.1167.0449.2244.0988.3501.1617 1.0865.6285 1.9755 2.137 1.9755 3.3762 0 .2245-.0269.431-.0898.6016l-1.5444.8979c-.1706-.0538-.3413-.1257-.5298-.2244-.1976-.1168-.3951-.2604-.5837-.4221l-1.4905-2.4962c-.0539-.2514-.0898-.5029-.0988-.7363z" fill="#1f1f1f"/><path d="m83.7627 47.1387c0 1.2391.88 2.7476 1.9755 3.3762 1.0864.6285 1.9754.1347 1.9754-1.1045 0-1.2391-.88-2.7476-1.9754-3.3762-1.0955-.6285-1.9755-.1257-1.9755 1.1045z" fill="#2a2a2a"/><path d="m83.835 47.1837c0 1.1942.853 2.6399 1.8946 3.2505 1.0506.6016 1.8946.1257 1.8946-1.0596s-.853-2.6399-1.8946-3.2505c-1.0416-.6016-1.8946-.1257-1.8946 1.0596z" fill="#1d1d1d"/><path d="m84.2656 47.4262c0 .9249.6555 2.0563 1.4726 2.5232.8172.467 1.4726.0988 1.4726-.8261 0-.9248-.6554-2.0562-1.4726-2.5232-.8171-.4669-1.4726-.0898-1.4726.8261z" fill="#3b3b3b"/><path d="m84.3643 47.4888c0 .862.6106 1.9126 1.3738 2.3526.7543.4399 1.3738.0898 1.3738-.7722 0-.8621-.6106-1.9126-1.3738-2.3526-.7632-.431-1.3738-.0898-1.3738.7722z" fill="#727272"/><path d="m85.756 46.7256c.7453.44 1.3559 1.4816 1.3559 2.3346 0 .1257-.0179.2335-.0359.3322l-1.0057.5747c-.1077-.0269-.2155-.0808-.3322-.1436-.7453-.431-1.3469-1.4547-1.3738-2.3077z" fill="#a9a9a9"/><path d="m86.5016 47.426c.2694.3592.4669.7902.5567 1.2033l-1.6612.9607c-.3232-.2783-.6016-.6644-.7902-1.0685z" fill="#e9eae7"/><path d="m86.5016 47.426c.2694.3592.4669.7902.5567 1.2033l-1.6612.9607c-.3232-.2783-.6016-.6644-.7902-1.0685z" fill="#e9eae7"/><path d="m84.6157 47.5338c0 .7453.5298 1.6522 1.1853 2.0203.6555.3772 1.1853.0808 1.1853-.6644 0-.7453-.5298-1.6433-1.1853-2.0204-.6555-.3681-1.1853-.0718-1.1853.6645z" fill="#4d4d4d"/><path d="m84.9932 47.5158c0 .5837.422 1.302.9338 1.6073.5208.2964.9339.0629.9339-.5208 0-.5836-.4221-1.302-.9339-1.5983-.5118-.3053-.9338-.0718-.9338.5118z" fill="#949494"/><path d="m85.4238 47.9916c0 .2604.1886.5747.4131.7093.2245.1347.413.027.413-.2334s-.1885-.5747-.413-.7094c-.2245-.1257-.4131-.0269-.4131.2335z" fill="#c4c4c4"/><path d="m85.5493 48.1533c0 .1437.0988.3143.2245.3771.1257.0629.2245.018.2245-.1257 0-.1436-.0988-.3143-.2245-.3861s-.2245-.0089-.2245.1347z" fill="#4d4d4d"/><path d="m87.1388 50.6587.871-.5028c.009 0 .0179-.009.0269-.018l.0269-.018c.3323-.2065.5388-.6285.5388-1.2211 0-1.2392-.88-2.7477-1.9754-3.3763-.5388-.3143-1.0327-.3412-1.3829-.1526l.0988-.0539c.3592-.1975.8441-.1616 1.3828.1526 1.0865.6286 1.9755 2.1371 1.9755 3.3763 0 .5926-.2065 1.0146-.5388 1.2212l-.0269.0179c-.009 0-.018.009-.027.018z" fill="#000"/><path d="m87.139 50.6586.422-.2425c.009 0 .018-.0089.027-.0179l.0269-.018c.3323-.2065.5388-.6285.5388-1.2212 0-1.2391-.88-2.7477-1.9755-3.3762-.5387-.3143-1.0236-.3412-1.3828-.1527l.0988-.0538c.3592-.1976.844-.1617 1.3828.1526 1.0865.6286 1.9754 2.1371 1.9754 3.3762 0 .5927-.2065 1.0147-.5387 1.2212l-.0269.018c-.009.009-.018.009-.027.0179z" fill="#000"/><path d="m136.174 30.8684c-7.497-1.0865-14.896 2.4693-18.784 8.9793l-3.969 6.6626-35.1544-20.3022 3.9689-6.6717c3.87-6.51 11.278-10.04782 18.7845-8.9613z" fill="#000"/><path d="m79.4883 24.2955 3.3223-5.5852c3.1338-5.2708 9.2847-8.2789 15.4265-8.2789.7543 0 1.5175.0539 2.2719.1526l34.561 19.9341c-5.082-.413-11.448.3592-17.958 7.9737l-3.341 5.6031z" fill="#454545"/><path d="m136.174 30.8685-22.753 15.633 3.969-6.6626c3.888-6.5011 11.296-10.0479 18.784-8.9704z" fill="#1d1d1d"/><path d="m136.174 30.8684-3.672 26.3184-15.391 8.8715-3.69-19.5479z" fill="#003bab"/><path d="m114.417 51.7901.234 1.2122 20.051-11.5743.206-1.4636z" fill="#002987"/><path d="m133.014 53.5412.207-1.4726-16.909 9.7605.225 1.2122z" fill="#002987"/><path d="m113.43 46.5103-35.1629-20.3023 3.6815 19.548 35.1634 20.3022z" fill="#0073e8"/><path d="m79.5061 32.7629 35.1539 20.2843-.287-1.5176-35.1542-20.2842z" fill="#0050df"/><path d="m116.285 61.6766-35.1629-20.2933.2873 1.5175 35.1626 20.2933z" fill="#0050df"/><path d="m125.606 34.7743-5.046 13.5139 2.191 1.2661 6.384-14.78s-.988-.5567-1.374-.7812c-.799-.458-1.832-.0898-2.155.7812z" fill="#0073e8"/><path d="m126.98 35.5556-5.046 13.5139 2.191 1.266 5.405-14.4746c.153-.4131-.009-.871-.386-1.0865-.808-.467-1.841-.0898-2.164.7812z" fill="#0027ab"/><g fill="#292929"><path d="m109.326 16.9951c-.125-.0718-.26-.1077-.404-.0987-6.465.431-12.427 3.9868-15.8302 9.7066l-.9787 1.6432c-.1975.3413-.0898.7723.2514.9698l.8082.4669c.3322.1886.7632.0809.9607-.2514l.9788-1.6432c3.0709-5.1631 8.2338-8.5663 13.9718-9.4912.656-.0987.808-.9697.242-1.302z"/><path d="m113.906 19.6441c-.126-.0719-.261-.1078-.405-.0988-6.465.431-12.427 3.9868-15.83 9.7066l-.9788 1.6433c-.1975.3412-.0898.7722.2514.9697l.8082.4669c.3322.1886.7632.0809.9607-.2514l.9788-1.6432c3.0707-5.1631 8.2337-8.5663 13.9717-9.4911.656-.0988.817-.9698.243-1.302z"/><path d="m104.738 14.3555c-.126-.0718-.26-.1078-.404-.0988-6.4651.431-12.4274 3.9868-15.8305 9.7067l-.9788 1.6432c-.1975.3412-.0898.7722.2514.9698l.8082.4669c.3322.1886.7632.0808.9608-.2514l.9787-1.6432c3.0709-5.1632 8.2341-8.5663 13.9722-9.4912.655-.1078.817-.9698.242-1.302z"/><path d="m100.158 11.7063c-.125-.0718-.2599-.1077-.4036-.0987-6.4741.431-12.4363 3.9868-15.8305 9.7066l-.9788 1.6432c-.1975.3412-.0898.7722.2515.9698l.8081.4669c.3322.1886.7632.0808.9608-.2514l.9787-1.6432c3.0709-5.1631 8.2341-8.5663 13.9718-9.4912.656-.1077.817-.9697.242-1.302z"/><path d="m118.485 22.2932c-.125-.0718-.26-.1077-.404-.0987-6.465.431-12.427 3.9868-15.821 9.7066l-.979 1.6432c-.197.3412-.09.7723.251.9698l.809.4669c.332.1886.763.0808.96-.2514l.979-1.6432c3.071-5.1631 8.234-8.5663 13.972-9.4911.647-.0988.808-.9698.233-1.3021z"/><path d="m127.653 27.5909c-.125-.0719-.26-.1078-.404-.0988-6.465.431-12.418 3.9868-15.821 9.7066l-.979 1.6522c-.198.3412-.09.7723.251.9698l.809.4669c.332.1886.763.0808.96-.2514l.979-1.6522c3.071-5.1631 8.234-8.5663 13.963-9.4911.655-.1078.817-.9698.242-1.302z"/><path d="m123.074 24.9419c-.126-.0718-.261-.1077-.404-.0987-6.465.431-12.428 3.9868-15.822 9.7066l-.979 1.6432c-.197.3412-.089.7722.252.9698l.808.4669c.332.1886.763.0808.961-.2514l.979-1.6522c3.07-5.1631 8.234-8.5663 13.962-9.4912.656-.0987.818-.9607.243-1.293z"/></g><path d="m89.4193 14.7683c-.3502.2604-.7094.4939-1.0775.7273l31.5352 18.2011c.332-.2694.665-.5208 1.015-.7632z" fill="#454545"/><path d="m111.517 53.1189-6.348-3.6636.664 3.5289 6.349 3.6636z" fill="#ffd085"/><path d="m213.182 61.7393-26.04 22.6369-9.581-12.185 1.76-2.595 24.262-20.0598z" fill="#000"/><path d="m203.934 49.9315-1.392 1.2122-21.093 18.3627-1.311 1.1314-.817-1.0416 1.302-1.1404 21.102-18.3447 1.383-1.2122.017-.009z" fill="#454545"/><path d="m204.751 50.982-1.392 1.2032-21.093 18.3538-1.311 1.1313-.817-1.0326 1.311-1.1314 21.093-18.3627 1.391-1.2122z" fill="#292929"/><path d="m206.403 53.0563-.018.0179-1.383 1.2032-21.092 18.3538-1.311 1.1404-.827-1.0506 1.311-1.1404 21.102-18.3448 1.383-1.2122.009-.009z" fill="#292929"/><path d="m207.22 54.107-.009.0089-1.392 1.2123-21.092 18.3447-1.311 1.1404-.817-1.0416 1.311-1.1404 21.092-18.3537 1.383-1.2033.018-.0179z" fill="#454545"/><path d="m205.576 52.0147-.009.009-1.382 1.2122-21.102 18.3448-1.311 1.1403-.817-1.0506 1.311-1.1313 21.092-18.3538 1.383-1.2032.018-.018z" fill="#454545"/><path d="m208.046 55.1485-.018.018-1.382 1.1943-21.093 18.3447-1.311 1.1404-.826-1.0327 1.311-1.1403 21.092-18.3448 1.392-1.2122.009-.009z" fill="#292929"/><path d="m208.872 56.1811-.018.0179-1.392 1.2033-21.092 18.3537-1.302 1.1404-.826-1.0506 1.311-1.1404 21.092-18.3447 1.383-1.1943.018-.018z" fill="#454545"/><path d="m209.69 57.2317-.018.018-1.392 1.2032-21.084 18.3538-1.311 1.1314-.817-1.0416 1.302-1.1404 21.093-18.3537 1.392-1.2033.018-.0179z" fill="#292929"/><path d="m210.507 58.2823-.009.0089-1.383 1.2123-21.102 18.3447-1.311 1.1404-.817-1.0506 1.311-1.1314 21.084-18.3537 1.391-1.2033.018-.0179z" fill="#454545"/><path d="m211.323 59.3238-.017.018-1.383 1.2032-21.084 18.3537-1.311 1.1314-.826-1.0416 1.311-1.1403 21.102-18.3448 1.382-1.2122.009-.009z" fill="#292929"/><path d="m212.141 60.3743-1.392 1.2032-21.093 18.3538-1.311 1.1314-.682-.862-.135-.1706 1.311-1.1314 21.084-18.3538 1.383-1.2032.018-.018z" fill="#454545"/><path d="m189.656 79.9314-1.31 1.1314-.683-.862-.009.0089-4.238-5.3965-.817-1.0416-.826-1.0506-.817-1.0506-.818-1.0326-.817-1.0416 1.302-1.1404.826 1.0506.818 1.0326 1.643 2.0922.817 1.0416.826 1.0326.817 1.0506.826 1.0506.817 1.0416.826 1.0506.135.1616z" fill="#454545"/><path d="m212.141 60.3745-1.392 1.2032-.682-.853-.144-.1796-.808-1.0416-.835-1.0506-.817-1.0506-.818-1.0416-.826-1.0326-.817-1.0506-1.643-2.0922-.817-1.0416-.817-1.0326-.009-.018 1.383-1.2032.009.009.018-.009.808 1.0416.817 1.0506.826 1.0326.826 1.0416.817 1.0506.826 1.0416.826 1.0326.817 1.0506.818 1.0506.817 1.0416z" fill="#454545"/><path d="m173.053 61.398-.646.7093-1.877.1078c-.17.009-.341 0-.512-.027l-1.203-.1795c-.35-.0539.099-.3772.099-.3772.521-.2963.799-.1885 1.509-.1795l1.921-.1707z" fill="#c95200"/><path d="m172.407 61.802-1.877.1077c-.171.009-.341 0-.512-.0269l-1.203-.1796c-.108.0988-.242.2604-.009.2963l1.203.1796c.171.027.341.036.512.027l1.877-.1078.646-.7093-.242-.036z" fill="#ffd83e"/><path d="m171.976 61.2275 1.859.9069 1.589.1347c.602.0539 1.203.036 1.796-.0628l.763-.1168c.315-.0449.557-.3053.279-.4579-1.069.1077-3.395-.0539-3.395-.0539z" fill="#ff8b00"/><path d="m178.333 61.6945c-.071.0898-.206.1617-.35.1796l-.763.1167c-.593.0898-1.203.1078-1.796.0629l-1.589-.1347-1.257-.6106-.602-.0718 1.859.9069 1.589.1347c.602.0539 1.203.0359 1.796-.0629l.763-.1167c.27-.0449.494-.2514.35-.4041z" fill="#ffd83e"/><path d="m177.785 66.1033c-.467.2694-2.262-.6735-2.262-.6735-.503-.2963-.952-.6734-1.32-1.1224l-1.868-2.2179c.108-.1077.224-.2155.332-.3232.09-.0898.18-.1706.27-.2604.089-.0808.152-.1437.278-.0898.081.0359.144.0539.206.1167.045.0449.09.0988.135.1437.108.1167.216.2244.323.3412.324.3322.638.6735.961 1.0057.305.3232.656.6016 1.033.8351l1.104.6734c.548.5567 1.482 1.1853.808 1.5714z" fill="#ff9f17"/><path d="m177.785 65.753c-.467.2694-2.263-.6735-2.263-.6735-.502-.2963-.951-.6734-1.32-1.1224l-1.697-2.0203-.161.1616 1.867 2.2179c.378.449.827.8261 1.32 1.1224 0 0 1.796.9429 2.263.6735.252-.1437.279-.3233.189-.5208-.054.0538-.108.1077-.198.1616z" fill="#ffd83e"/><path d="m173.637 61.7663c-.278.1526-.593.1706-.907.1436-.153-.009-.305-.0538-.458-.0628-.117 0-.171-.0449-.18-.1706-.008-.0988-.035-.2065-.053-.3053-.045-.1976-.108-.3951-.18-.5837-.144-.3771-.341-.7363-.593-1.0506-.018-.0179-.036-.0449-.036-.0718s0-.0539.018-.0808c.081-.1706.288-.2424.476-.2155.189.0269.548.853.647 1.0147.449.7542.7.7452 1.266 1.3828z" fill="#ff9f17"/><path d="m172.865 62.0894-.108-.4041-.611-.2424-.952 1.3199c-.574.7992-3.196 2.8106-2.523 3.2057.467.2693 2.137-.6555 2.137-.6555.665-.449 1.249-1.0057 1.724-1.6522l.521-.7184z" fill="#ff7e04"/><path d="m172.398 63.2927c-.467.6465-1.051 1.2122-1.724 1.6522 0 0-1.545.853-2.074.6735-.063.1526-.045.2783.071.3502.467.2693 2.138-.6555 2.138-.6555.664-.449 1.248-1.0057 1.724-1.6522l.52-.7184-.071-.3412z" fill="#ffd83e"/><path d="m172.757 61.6854c-.207-.009-.395.1796-.602.1347l-.036.0449c-.08-.7722-.377-1.5175-.844-2.1281-.018-.018-.036-.0449-.045-.0719 0-.0269.009-.0538.018-.0808.018-.0359.036-.0628.063-.0808l.368.1796z" fill="#ff7e04"/><path d="m171.886 59.5212c-.036-.0628-.072-.1257-.162-.1436-.188-.027-.395.0449-.476.2155-.009.0269-.018.0538-.018.0808 0 0 .315.2783.656-.1527z" fill="#ffbf29"/><path d="m179.933 56.9994-3.188-6.2317h.009c-.09-.1436-.126-.3142-.108-.4848 0-.0539 0-.1796.072-.1976.072-.0269.09.0808.144.0988.107.0359.188-.1527.278-.2784.054-.0808.063-.1885.018-.2873-.054-.1167-.036-.2514.063-.3412.081-.0718.161-.1437.233-.2065.081-.0719.144-.1437.252-.1527.098-.009.134.0808.215.1167.081.036.162.027.243-.0179.089-.0449.179-.0988.278-.1347.072-.0359.126-.0988.153-.1706.027-.0808 0-.1616.036-.2425.044-.0987.17-.1077.269-.1257.108-.0269.215-.0449.323-.0628.126-.018.243.0359.296.1526l.009.018c.045.0898.135.1437.234.1527.126.0089.251.0179.368.0359.045.0089.117.0359.144-.027.018-.0359-.018-.0718-.027-.1077-.009-.036-.027-.0898.018-.1078.063-.0179.17.0718.215.1078.09.0718.162.1526.207.2604l3.187 6.2316z" fill="#8d8d8d"/><path d="m180.299 49.8148c.09-.3233-.054-.5837-.359-.7004-.09-.0449-.225-.0718-.368-.0808-.557-.0359-1.203.2245-1.643.6196-.054.0538-.108.0987-.162.1616l-.359-.7094c.018-.0089.027-.0269.045-.0359.08-.0628.143-.1437.251-.1526.09-.009.135.0808.216.1167.08.0269.161.0269.242-.018.09-.0538.18-.0987.269-.1346.072-.036.135-.0988.153-.1796.027-.0808 0-.1617.036-.2425.045-.1077.171-.1077.269-.1257.108-.0269.216-.0449.324-.0629.125-.0269.242.036.305.1527l.009.018c.045.0898.135.1436.233.1526.126.009.243.0269.368.0449.018 0 .045.009.072.009l3.332 6.519-2.407 1.2302-2.694-5.2619c.072-.009.153-.018.216-.0449.592-.1078 1.203-.4759 1.499-.9339.09-.1257.135-.2424.153-.3412z" fill="#c0c0c0"/><path d="m176.726 50.4325c0-.0538 0-.1796.071-.1975.072-.0269.09.0718.144.0988.108.0359.189-.1527.27-.2784.053-.0808.062-.1886.017-.2873-.062-.1168-.035-.2515.063-.3412.081-.0719.162-.1437.234-.2066.081-.0718.143-.1436.251-.1526.099-.009.135.0808.216.1167s.161.027.242-.009c.09-.0538.18-.0987.279-.1346.071-.036.125-.0988.152-.1707.027-.0808 0-.1616.036-.2424.045-.0988.171-.1078.269-.1257.108-.027.216-.0449.324-.0629.125-.0179.242.036.296.1527l.009.0179c.045.0898.135.1437.233.1527.126.009.252.0179.369.0449.045.009.116.0359.143-.027.018-.0359-.018-.0718-.027-.1077s-.027-.0898.018-.1078c.063-.0179.171.0719.216.1078.09.0718.161.1527.206.2604-.054-.0988-.08-.1616-.08-.1616-.054-.0988-.126-.1886-.207-.2604-.045-.0359-.153-.1257-.215-.1078-.045.018-.027.0719-.018.1078s.044.0718.026.1077c-.026.0629-.089.0359-.143.027-.126-.018-.243-.036-.368-.036-.099-.0089-.189-.0628-.234-.1526l-.009-.018c-.054-.1077-.179-.1706-.296-.1526-.108.018-.216.0449-.323.0629-.099.0179-.225.0269-.27.1257-.036.0808-.009.1616-.036.2424s-.08.1437-.152.1706c-.09.0449-.189.0898-.279.1347-.071.0359-.161.0449-.242.018-.081-.036-.126-.1258-.216-.1168-.107.009-.179.0898-.251.1527-.081.0718-.162.1346-.233.2065-.099.0808-.117.2245-.063.3412.045.0898.045.1976-.018.2873-.09.1258-.171.3143-.279.2784-.054-.018-.071-.1167-.143-.0988-.072.018-.072.1437-.072.1976-.018.1706.018.3412.108.4849h-.009l.08.1616h.009c-.08-.1617-.116-.3323-.098-.5029z" fill="#8d8d8d"/><path d="m180.901 57.4383c1.005.0538 2.253-.5837 2.792-1.4098.539-.8351.162-1.5444-.844-1.5983s-2.254.5836-2.792 1.4097c-.539.8351-.162 1.5535.844 1.5984z" fill="#c0c0c0"/><path d="m180.577 55.2652c-.08.1796.243.6286.719.7723.61.1885 1.427-.0539 1.822-.5388.315-.3771.396-.7722.072-1.0236-.072-.009-.26-.0449-.332-.0449-.709-.0359-1.868.431-2.281.835z" fill="#e0e0e0"/><path d="m180.901 57.0432 1.392 1.724 1.598-1.0057-.476-1.8138c-.018-.0539-.027-.0988-.054-.1436v-.009-.009h-.009c-.099-.1706-.305-.2874-.61-.3053-.629-.0359-1.401.3592-1.733.88-.18.2604-.207.5028-.108.6824z" fill="#8d8d8d"/><path d="m182.84 55.5167c-.036-.009-.062-.0269-.107-.0269-.431-.018-.925.1616-1.302.4489l1.445 2.5322.755-.5747z" fill="#c0c0c0"/><path d="m182.508 59.4495.117-.3861c.018 0 .027.0089.045.0089.467.027 1.06-.2693 1.311-.6644.009-.018.009-.036.018-.0539l.359.1437-.305-.6017c-.072-.1347-.234-.2244-.467-.2334-.467-.0269-1.06.2694-1.311.6555-.126.1975-.144.3771-.072.5118z" fill="#a84e13"/><path d="m182.975 59.6832c.467.0269 1.06-.2694 1.311-.6645.251-.3861.072-.7273-.395-.7453-.467-.0269-1.06.2694-1.311.6645-.251.3861-.081.7184.395.7453z" fill="#ff8736"/><path d="m177.605 50.0122c.045-.0718.099-.1346.162-.1975l.673 1.32c-.08.0089-.17.0089-.242.0089-.7-.0538-.97-.5477-.593-1.1314z" fill="#c0c0c0"/><path d="m178.441 51.1259-.674-1.3199c.045-.0539.099-.1078.162-.1617.44-.3951 1.086-.6554 1.643-.6195.144.009.278.0359.368.0808.305.1257.449.3771.359.7004-.018.1077-.063.2155-.143.3412-.297.4579-.898.8261-1.5.9338-.072.018-.144.036-.215.0449z" fill="#e0e0e0"/><path d="m177.723 54.8971-5.379-1.8588-1.464 4.2473 5.379 1.8497c.314.1078.709.009 1.104-.3232.773-.6735 1.24-2.0114 1.051-2.9991-.099-.5208-.359-.8262-.691-.9159z" fill="#800000"/><path d="m171.006 56.9175 4.768 1.6433 1.006.3412c.135-.0449.287-.1437.431-.2694.566-.4849.952-1.3469 1.015-2.1371l-2.048-.7004-4.283-1.4726z" fill="#bf271d"/><path d="m171.32 53.3975c-.772.6735-1.239 2.0114-1.05 2.9991.188.9877.97 1.2391 1.742.5747.772-.6645 1.239-2.0114 1.05-2.9991-.188-.9878-.969-1.2481-1.742-.5747z" fill="#bf271d"/><path d="m173.089 54.7536c-.071-.1886-.619-.2874-1.068-.0629-.575.2963-1.006 1.0416-.952 1.6792.036.4938.251.844.664.7991.054-.0359.225-.1526.279-.2065.539-.458 1.059-1.6163 1.077-2.2089z" fill="#ff6969"/><path d="m170.728 53.3613c-.692.6016-1.105 1.7958-.934 2.6848.17.88.871 1.1134 1.562.5118.692-.6016 1.114-1.7958.934-2.6848-.18-.88-.88-1.1045-1.562-.5118z" fill="#727272"/><path d="m171.887 55.2213c-.162.467-.431.889-.737 1.1583-.269.2335-.547.3233-.763.2515-.215-.0719-.368-.3053-.431-.6465-.072-.3861-.027-.8531.135-1.32.161-.4669.431-.8889.736-1.1583.269-.2335.548-.3323.763-.2514.216.0718.368.2963.431.6465.072.3861.027.853-.134 1.3199z" fill="#a9a9a9"/><path d="m170.072 56.0285c-.071-.3861-.026-.853.135-1.32.162-.4669.431-.8889.736-1.1583.243-.2155.503-.3053.701-.2694-.018-.009-.036-.0179-.063-.0269-.216-.0719-.494.0179-.763.2514-.306.2604-.575.6824-.737 1.1583-.161.467-.206.9339-.134 1.32.063.3412.224.5657.431.6465.018.009.045.009.063.018-.171-.0988-.306-.3143-.369-.6196z" fill="#484848"/><path d="m171.051 54.502.557-.4848c.099-.0808.242-.036.269.0897l.063.3143c.009.0539-.009.1168-.054.1527l-.565.4848c-.09.0809-.243.036-.27-.0897l-.063-.3143c0-.0539.018-.1168.063-.1527z" fill="#484848"/><path d="m170.961 54.4749.566-.4848c.089-.0808.242-.036.269.0897l.063.3143c.009.0539-.009.1168-.054.1527l-.566.4848c-.099.0809-.242.036-.269-.0897l-.063-.3143c-.009-.0539.009-.1167.054-.1527z" fill="#ccc"/><path d="m171.347 54.3763.045.2155c.018.0718.099.0988.144.0539l.144-.1257c.054-.0449.071-.1078.062-.1796l-.044-.2155c-.009-.0718-.099-.0988-.144-.0539l-.144.1257c-.054.0539-.072.1168-.063.1796z" fill="#000"/><path d="m171.033 54.7984c-.018-.0898.027-.2245.099-.2873.072-.0629.144-.036.162.0538s-.027.2245-.099.2874c-.072.0628-.144.0449-.162-.0539z" fill="#727272"/><path d="m144.706 89.5751-10.228-5.9533-.009.0089c-.233-.1616-.52-.2334-.808-.2244-.099 0-.305-.009-.35.1077s.117.1527.144.2514c.045.1796-.27.3053-.494.44-.144.0898-.332.0898-.476 0-.189-.1077-.422-.0808-.575.0719-.125.1257-.251.2514-.377.3771-.117.1257-.26.2335-.278.413-.018.1617.134.2425.179.3772s.027.2783-.045.404c-.089.1437-.179.2964-.26.449-.063.1167-.18.2065-.305.2425-.135.0359-.279-.018-.413.0359-.18.0718-.198.2873-.243.4489-.045.1796-.098.3592-.143.5388-.045.2065.045.4131.224.5208l.027.018c.144.0808.234.2334.234.404 0 .2065.008.4221.035.6286.009.0808.045.1975-.062.2334-.072.027-.117-.0269-.18-.0538-.054-.018-.153-.0539-.18.0179-.036.0988.108.2963.162.3682.108.1526.251.2873.413.3771.009 0 10.228 5.9533 10.228 5.9533z" fill="#8d8d8d"/><path d="m132.548 89.5301c-.557.1257-.97-.1347-1.149-.6734-.063-.1616-.099-.3861-.099-.6286 0-.9428.494-2.0113 1.194-2.7207.09-.0898.189-.1796.287-.2514l-1.158-.6735c-.027.027-.045.0449-.072.0719-.117.1257-.26.2334-.278.413-.018.1527.135.2335.179.3772.045.1346.027.2783-.044.404-.09.1437-.18.2963-.261.449-.063.1257-.179.2155-.314.2424-.135.036-.278-.0179-.413.0359-.18.0719-.198.2874-.243.449-.053.1796-.098.3592-.143.5388-.054.2065.045.413.224.5208l.027.0179c.144.0808.234.2335.234.4041.009.2065.018.422.036.6285 0 .036.009.0809.009.1168l10.694 6.2316 2.299-3.9419-8.63-5.0284c-.018.1257-.053.2514-.089.3681-.234.9967-.916 1.9845-1.706 2.4424-.207.1167-.404.1796-.584.2065z" fill="#c0c0c0"/><path d="m133.93 83.5589c-.099 0-.305-.009-.35.1078-.045.1167.116.1526.143.2514.045.1796-.269.3053-.493.44-.144.0898-.333.0898-.476 0-.189-.1078-.422-.0808-.575.0718-.126.1257-.251.2514-.377.3771-.117.1257-.261.2335-.279.4131-.017.1616.135.2424.18.3771s.027.2784-.045.4041c-.09.1437-.179.2963-.26.449-.063.1167-.18.2065-.306.2424-.134.0359-.278-.009-.413.0359-.179.0719-.197.2874-.242.449-.045.1796-.099.3592-.144.5388-.045.2065.045.413.225.5207l.027.018c.143.0808.233.2335.233.4041 0 .2065.018.422.036.6285.009.0809.045.1976-.063.2335-.072.0269-.116-.027-.179-.0539-.054-.018-.153-.0539-.18.018-.036.0988.108.2963.162.3681.107.1527.251.2874.413.3772-.162-.0988-.261-.1527-.261-.1527-.161-.0988-.305-.2245-.413-.3771-.054-.0719-.197-.2694-.161-.3682.027-.0808.125-.0449.179-.0179.063.0269.108.0808.18.0538.108-.0359.063-.1526.063-.2334-.018-.2065-.027-.4221-.036-.6286 0-.1706-.09-.3142-.234-.404l-.027-.018c-.179-.1077-.269-.3143-.224-.5208.045-.1796.09-.3592.144-.5388.044-.1616.062-.3771.242-.4489.135-.0539.278-.009.413-.0359.135-.036.243-.1168.305-.2425.081-.1526.162-.3053.261-.449.072-.1167.09-.2693.045-.404-.045-.1437-.198-.2155-.18-.3772.018-.1795.162-.2963.278-.413.126-.1257.252-.2514.378-.3771.152-.1527.386-.1796.574-.0719.153.0898.332.0898.476 0 .225-.1347.539-.2604.494-.44-.027-.0987-.189-.1257-.144-.2514.045-.1167.252-.0988.351-.1077.287-.009.574.0628.808.2244l.009-.0089.26.1526-.009.009c-.242-.1616-.521-.2335-.808-.2245z" fill="#8d8d8d"/><path d="m145.37 91.2543c-.009 1.6971-1.185 3.7533-2.64 4.5884s-2.631.1257-2.622-1.5714c0-1.6971 1.185-3.7533 2.64-4.5884s2.622-.1347 2.622 1.5714z" fill="#c0c0c0"/><path d="m141.724 90.5088c.314-.1257 1.042.4669 1.239 1.2751.261 1.0416-.224 2.3974-1.077 3.026-.665.4939-1.338.6016-1.724.0269-.009-.1167-.045-.4489-.045-.5747-.009-1.1762.88-3.0888 1.607-3.7533z" fill="#e0e0e0"/><path d="m144.705 91.2091 2.784 2.5052-1.841 2.604-3.017-.9787c-.09-.0269-.161-.0539-.242-.0988 0 0-.009 0-.009-.009-.009 0-.009 0-.018-.0089v-.009c-.288-.1796-.458-.5478-.458-1.0596 0-1.0595.736-2.3346 1.643-2.8464.449-.2604.862-.2784 1.158-.0988z" fill="#8d8d8d"/><path d="m141.94 94.3431c-.009-.0629-.036-.1078-.036-.1886 0-.7273.368-1.5444.88-2.164l4.148 2.6848-1.032 1.2212z" fill="#c0c0c0"/><path d="m148.603 94.1454-.656.1526c0 .027.018.0449.018.0719 0 .7991-.557 1.7599-1.239 2.146-.036.018-.054.018-.09.027l.207.6195-.988-.5747c-.215-.1347-.35-.413-.35-.8081 0-.7992.557-1.7599 1.239-2.146.341-.1976.656-.2066.871-.0719z" fill="#a84e13"/><path d="m148.953 94.9538c0 .7992-.557 1.76-1.239 2.1461-.683.3861-1.231.0628-1.231-.7363 0-.7992.557-1.76 1.24-2.1461.682-.3861 1.23-.0539 1.23.7363z" fill="#ff8736"/><path d="m133.131 85.0047c-.116.0718-.242.1526-.35.2514l2.155 1.2571c.027-.1437.036-.2874.036-.4131 0-1.1852-.817-1.6701-1.841-1.0954z" fill="#c0c0c0"/><path d="m134.936 86.5132-2.155-1.2571c-.099.0718-.189.1616-.287.2514-.701.7094-1.204 1.7779-1.195 2.7208 0 .2424.036.4669.099.6285.18.5298.593.7992 1.15.6735.179-.018.377-.0898.583-.2066.799-.4489 1.473-1.4456 1.706-2.4423.045-.1168.081-.2425.099-.3682z" fill="#e0e0e0"/><path d="m127.313 78.5665-.252-8.3329-6.582.1976.261 8.3328c.009.4939.35.9787 1.024 1.3469 1.319.7094 3.403.6555 4.651-.1167.655-.4041.943-.9249.898-1.4277z" fill="#3b1300"/><path d="m125.068 70.2966.206 6.6358c-1.158-.3143-2.55-.1706-3.448.3951-.242.1526-.422.3232-.539.4848l-.224-7.3899z" fill="#662600"/><path d="m125.364 80.102.009.3323c-1.203.3232-2.613.2245-3.619-.3233-.143-.0808-.296-.1796-.422-.2783l-.018-.467c.126.1617.342.3143.584.449.979.5298 2.353.6106 3.466.2873z" fill="#662600"/><path d="m126.047 69.0125c-1.32-.7094-3.403-.6555-4.652.1167-1.257.7723-1.203 1.9755.117 2.6938 1.32.7094 3.403.6555 4.651-.1167 1.258-.7722 1.204-1.9844-.116-2.6938z" fill="#662600"/><path d="m125.095 72.1464c.224-.1886.072-.9967-.467-1.4906-.7-.6375-1.949-.8351-2.793-.44-.664.3053-1.023.7812-.745 1.3289.081.0539.323.2245.422.2784.916.4939 2.766.6106 3.583.3233z" fill="#994000"/><path d="m126.056 69.1924-1.051-7.5337-2.99.0898-.557 7.2912c-.018.0898-.027.1706-.027.2604v.009.0179h.009c.027.3323.261.6645.709.907.925.4938 2.389.4579 3.269-.0808.44-.2694.655-.6106.638-.9608z" fill="#3b1300"/><path d="m122.006 70.1262c.054.0359.081.0808.144.1167.637.3412 1.526.4131 2.307.2604l-.565-8.7997-1.401.0449z" fill="#662600"/><path d="m125.193 61.5599-.449.0179c-.027-.0179-.036-.0359-.054-.0449-.673-.3591-1.742-.3322-2.379.0629-.027.018-.036.0449-.063.0628l-.413.009.018.6375c.018.2425.188.4849.521.6645.673.3682 1.742.3323 2.379-.0628.323-.1976.476-.458.458-.7094z" fill="#4f1a00"/><path d="m124.664 60.8952c-.674-.3591-1.742-.3322-2.38.0629s-.611 1.0147.063 1.3738c.673.3592 1.742.3323 2.379-.0628.647-.3951.62-1.0147-.062-1.3739z" fill="#994000"/><path d="m124.386 61.0118c-.512-.2784-1.329-.2514-1.814.0449-.485.3053-.467.7722.045 1.0505.512.2784 1.329.2515 1.814-.0448.493-.3053.476-.7813-.045-1.0506z" fill="#541e0b"/><path d="m125.265 76.9233.099 3.1697c-1.113.3232-2.496.2424-3.448-.2874-.251-.1347-.458-.2963-.584-.4489l-.044-1.5535c.116-.1706.296-.3412.538-.4849.898-.5567 2.29-.7003 3.439-.395z" fill="#994000"/><path d="m121.279 77.8032.044 1.5535c-.44-.467-.475-1.0417-.044-1.5535z" fill="#4f1a00"/><path d="m126.235 79.7247c-.26.1526-.548.2873-.871.3771l-.099-3.1697c.305.0539.62.1616.871.2963 1.212.6555 1.266 1.76.099 2.4963z" fill="#4f1a00"/><path d="m215.561 23.8373c.997-.5747 2.622-.5657 3.628.018 1.006.5836 1.024 1.5265.027 2.0922-.997.5746-2.613.5657-3.628-.018-1.005-.5837-1.014-1.5175-.027-2.0922z" fill="#f8f8ff"/></g></svg>