<svg fill="none" height="168" viewBox="0 0 245 168" width="245" xmlns="http://www.w3.org/2000/svg" xmlns:xlink="http://www.w3.org/1999/xlink"><mask id="a" height="168" maskUnits="userSpaceOnUse" width="244" x="0" y="0"><path d="m.447999 62.9618c-.08162-1.0869-.155075-2.1575-.236694-3.2035-2.350635-29.8523 15.181195-47.1852 39.103795-52.59502 6.7744-1.53634 12.3245-1.85505 18.8378.86623 8.317 3.47309 16.9768 4.15139 25.4407.85806 9.2801-3.61203 17.2294-9.275228 27.3914-8.8666271 14.463.5883841 28.134 8.0657671 40.932 15.2979571 11.272 6.366 22.192 8.409 33.831 2.1002 16.324-8.85024 40.875 6.7256 31.865 29.2477-3.641 9.0954-9.427 20.4382-4.743 30.5715 4.041 8.7195 14.741 12.9199 20.462 20.2584 6.301 8.0823 11.092 18.9103 9.738 30.1143-2.98 24.565-32.224 34.706-49.821 37.517-10.447 1.667-22.38 1.185-31.815-4.789-7.974-5.05-14.006-14.129-23.09-16.801-13.41-3.947-24.853 12.822-36.166 18.411-12.5854 6.219-27.9788 8.867-38.2954-3.93-8.2926-10.273-8.2844-33.408-21.7679-37.289-7.6314-2.199-15.5159.155-22.8779-3.98-16.3647-9.177-17.44208-34.821-18.788801-53.7882z" fill="#ffae5e" opacity=".8"/></mask><path d="m1.26464 62.8681c-.08166-1.0853-.15515-2.1542-.23682-3.1987-2.35189-29.8079 15.18928-47.115 39.12478-52.51678 6.778-1.53405 12.3311-1.85229 18.8478.86494 8.3215 3.46794 16.9859 4.14524 25.4544.85679 9.285-3.60666 17.2392-9.261431 27.4062-8.8534383 14.471.5875093 28.149 8.0537683 40.954 15.2752883 11.277 6.3565 22.204 8.3964 33.849 2.097 16.333-8.83708 40.897 6.7156 31.881 29.2041-3.642 9.082-9.432 20.4078-4.744 30.5261 4.042 8.7065 14.748 12.9007 20.473 20.2282 6.304 8.0704 11.098 18.8824 9.742 30.0694-2.981 24.528-32.24 34.655-49.847 37.462-10.453 1.664-22.392 1.183-31.832-4.782-7.979-5.043-14.014-14.109-23.103-16.777-13.417-3.941-24.866 12.803-36.185 18.384-12.592 6.21-27.9936 8.854-38.3159-3.925-8.2969-10.256-8.2888-33.357-21.7795-37.233-7.6355-2.195-15.5241.155-22.8901-3.974-16.37346-9.163-17.45142-34.7689-18.79886-53.7079z" fill="#dee4ff" opacity=".7"/><g mask="url(#a)"><path d="m181.628 35.2025 4.537-5.0694v106.5809l-39.089-6.704-16.705-2.873-1.52-.258-1.817-.312-.502-.083-1.337-.236-4.561-.775-.372-.068-.076-.016h-.015l-.312-.053-.091-.015-.441-.076-.045-.008-.335-.061-.106-.015s-.008-.007-.008 0l-.091-.015-.038-.008-.327-.053-.061-.015-.266-.046h-.023l-.03-.007-.16-.031-.091-.015-.342-.053-.053-.015-13.878-2.379 13.559-15.155.547-.608 1.429-1.596.182-.198 7.905-8.8318.866-.9728.487-.5397 3.663-4.0966.54-.6004.045-.0532.487-.5397.387-.4408.358-.3952.129-.1444.045-.0532.396-.4332 1.74-1.9534h.008l.539-.608 1.589-1.7709.175-.2052.053-.0532.159-.1824 1.771-1.9761 2.189-2.4474 3.732-4.165 3.246-3.6254.022-.0228.023-.0228 4.104-4.5907 4.773-5.3355h.008l5.541-6.2019 1.915-2.1358 2.865-3.2073 3.421-3.8155 1.292-1.444 2.242-2.5082 4.75-5.3051z" fill="#e8ecff"/><path d="m103.472 60.2081v62.3159l-9.3406-5.389v-.007l-5.2671-3.04-.5016-.289-2.0674-1.194-9.0977-5.251h-.0076l-4.8567-2.805-5.1683-2.987c-.0076 0-.0076-.008-.0076-.008l-.1672-.091-.1976-.114-.2964-.175-.0532-.03h-.0076l-.2204-.129-.0684-.038-.2964-.175s0 0-.0076 0l-.3116-.182-1.3909-.806-.5169-.2964-1.064-.6157-1.4593-.836v-.0076l-1.0793-.6157v-.0076l-1.2996-.7524s0 0-.0076 0l-1.0337-.5928-.5168-.3041-.4941-.2812-.266-.1596h-.0076l-.1672-.0988-1.9305-1.1096-1.8469-1.0717h-.0076l-5.1303-2.9642-15.3225-8.8469h-.0076l-.0532-.038h-.0152l-.0228-.0152v-.0076l-7.0836-4.0814-9.6525-5.5787v-62.316l8.3757 4.8339 1.216.7068 5.8296 3.3594.5928.3496 4.583 2.645 1.2313.7144h.0076l1.6417.9501 1.5657.9044h.0076l.5244.304.5549.3193 1.1628.6764.4561.2584 1.1096.6384v.0076h.0076l5.8448 3.3746 1.3072.7525v.0076l.8817.5016.0532.0304 5.4267 3.1314 3.8078 2.2041.2964.1672 14.7677 8.5277 3.8534 2.2269.266.1521 13.4908 7.7904 5.1455 2.9718.2888.1672z" fill="#6f5f6a"/><path d="m186.165-12.437v87.1998l-42.402 24.4886-5.739 3.3136-.061.038-.319.183-.083.045c0 .008-.008.008-.008.008l-.274.159-.456.266-.357.198-.045.03h-.008l-.015.016-.091.053-.084.045-.084.054-.319.182-.053.03-.084.046-.539.312-.426.243-.068.045-.183.099-.851.494-.015.008-1.802 1.041-1.352.783-2.547 1.467-3.731 2.166h-.008l-.038.015-.897.525-5.259 3.032-14.494 8.376v-62.3161l77.288-72.6449z" fill="#153e58"/><path d="m186.165-10.3394v25.7503l-78.778 46.4919 76.521-71.9229z" fill="#727272"/><path d="m186.165-8.35571v21.49401l-1.155.6765-1.558.9272-9.349 5.5179-16.743 9.8654-35.776 21.1292 32.508-30.5462 15.193-14.27357 14.167-13.32356 1.345-1.26927.213-.0304z" fill="#00315e"/><path d="m180.762-12.4365-77.289 72.6449-3.078-1.7861-.9423-.532-.2889-.1672-5.1455-2.9718-12.5179-7.2356-.9728-.5548-.266-.152-3.8535-2.227-13.8251-7.988-.9425-.5397-.2964-.1672-3.8078-2.2041-5.4191-3.1314h-.0076l-.0532-.0304-.8817-.5092-1.3073-.7524v-.0076l-5.8447-3.3746h-.0076l-.3344-.1976-.7753-.4409-.456-.2584-1.1629-.6688v-.0076l-.5548-.3116v-.0076l-.532-.3041-1.5657-.9044-1.6417-.9501h-.0076l-1.2313-.7144-4.583-2.645-.6005-.342-5.8219-3.367-1.2161-.7068-8.3757-4.83389v-21.65361z" fill="#0094c1"/><path d="m103.472 60.2157v62.3083l-9.3406-5.389v-.007l-5.2671-3.04-.5016-.289-2.0674-1.194-9.0977-5.251h-.0076l-4.8567-2.805-5.1683-2.987c-.0076 0-.0076-.008-.0076-.008l-.1672-.091-.1976-.114-.2964-.175-.0532-.03h-.0076l-.2204-.129-.0684-.038-.2964-.175s0 0-.0076 0l-.3116-.182-1.3909-.7985v-.0076l-.5169-.2964-1.064-.608s.0076 0 0-.0076l-1.4593-.8361v-.0076l-1.0793-.6156v-.0076l-1.3072-.7524-1.5505-.8893v-.0076l-.4941-.2812-.2736-.1596-.1672-.0912v-.0076l-1.9305-1.1097-1.8469-1.0717h-.0076l-5.1303-2.9565s0 0 0-.0076l-15.3225-8.8469h-.0076l-.0608-.0304v-.0076h-.0076l-.0228-.0152-7.0836-4.0891-9.6525-5.5711v-62.31593l9.5917 5.53313 5.822 3.367.6004.342 4.583 2.6449 1.2313.7145h.0076l1.6417.95 1.5657.9045.532.304v.0076l.5549.3116v.0076l1.1628.6689.4561.2584 1.1096.646h.0076l5.8448 3.3746v.0076l1.3072.7525.8741.5092.0456.0228 9.2497 5.3355 18.9175 10.9218 13.7568 7.9425 5.1455 2.9717.2888.1672z" fill="#7fd7fa"/><path d="m94.1316 63.2635v28.3724l-62.24-10.3974 8.3073-4.6819 42.8284 7.19-51.1357-29.5124v-26.9056z" fill="#d6edfd"/><path d="m40.1989 76.5566-8.3073 4.6819v-27.0044l51.1357 29.5125z" fill="#f8f8ff"/><path d="m94.1316 91.6359v27.8861l-62.24-38.2835z" fill="#f8f8ff"/><path d="m40.1989 32.2004-8.3073-4.7883v53.8187l8.3073-4.6667z" fill="#153e58"/><path d="m172.074-12.437h1.976l-73.656 70.8588-.9421-.532-.2888-.1672z" fill="#0083ab"/><path d="m143.8-12.437-62.3004 59.9522-.9728-.5548-.2661-.152 61.5633-59.2454z" fill="#0083ab"/><path d="m113.528-12.437-1.505 1.4517-1.399 1.34525-.038.0304-.319.31162-.479.46362-.015.0076-.418.40283-.699.67644h-.008l-.562.53963-.517.50163-.137.1368-.007.0076-.213.19762-.357.34961-1.885 1.81651-.988.95005-4.0741 3.914226-.3193.311619-1.7861 1.717695-.418.40283-1.4897 1.43648-.1064.0988-.684.66124-.0836.07601-1.2693 1.22367-.5472.52442-.1064.10641-.5701.54723-.1976.19001-.5092.49403-.0076.0076-.7296.69924-.3649.34962v.0076l-1.026.97286-.0456.0532-.8133.7752-.2508.2509-.4484.4332-.5624.532-.1445.1444-.3344.3192-.304.2965-.874.836v.0076l-.4257.4028-.532.5093-1.2541 1.2084-.3192.3116-.1824.1749-.7904.76-.1216.1216-.1293.1216h-.0076l-1.0564 1.0261-18.5147 17.8154-.9424-.5396-.2964-.1672 19.5863-18.8491.0152-.0152.0608-.0532.4788-.4637.2204-.2204.266-.2508 1.1477-1.102.342-.3269.266-.2584 1.5885-1.5353.4561-.4332.0912-.0836.4864-.4712.1292-.1292.4104-.3877.0152-.0152.9045-.874.304-.2964.0076-.0076 1.3985-1.3377.6612-.63844.4712-.45602.6461-.62324.2584-.24321.3344-.32682 1.0109-.97286.3648-.34962 1.2008-1.15526.0913-.09121.0684-.0608.684-.66124.2432-.22801.2128-.20521.7449-.72205.4408-.42562 1.8697-1.793702.3344-.319219 3.8386-3.701409 1.687-1.61889 1.368-1.32248.03-.0228.259-.25081.243-.23562.061-.0608.334-.31922.023-.0228.099-.09121.311-.30401 1.156-1.10967.539-.51685.768-.7372.008-.0076.06-.0684.016-.0076 1.079-1.0413.083-.0836.016-.0076.425-.4104z" fill="#0083ab"/><path d="m83.2859-12.437-1.0261.988-.5092.4941-1.1021 1.05643-2.0673 1.99132-5.8219 5.60152-3.3062 3.184578-1.2617 1.208472-2.1357 2.05211-2.2878 2.21173-4.9402 4.75024-3.2834 3.1618-1.1021 1.0565-.5092.494-1.1021 1.0565-.3116.304-1.6797 1.6113-.076.076-.8968.8664-6.1868 5.9512-.7752-.4409-.4561-.2584 5.1683-4.9707 3.1466-3.0325 2.0673-1.9913 1.0945-1.0489.0076-.0076.5092-.494 1.1021-1.0565 3.3214-3.19218 5.6015-5.3963.3648-.34963 2.1357-2.05211.9045-.874051.912-.881651 3.8611-3.716618.1064-.0912.3876-.37242.0532-.0532.722-.69924 4.6667-4.49186 2.0673-1.99134.6841-.6536z" fill="#0083ab"/><path d="m53.0133-12.437-.0532.0456-.9652.9348-.4408.4257-.9653.9272-1.8165 1.74812-5.5027 5.2975-1.7253 1.6569-1.1553 1.109661-.5776.554831-.5853.562433-3.3669 3.237785-.3117.30402-10.8002 10.38975-1.2161-.7068 10.8003-10.38979 2.1585-2.08252 2.7361-2.62975.5853-.56243.2508-.24322.3268-.31162.3344-.32681.4865-.47123 6.9468-6.68078 1.8165-1.74815.8208-.7828.0076-.0152.1216-.114.1292-.1292z" fill="#0083ab"/><path d="m81.2568-12.437-.608.5852-2.0673 1.98373-4.6135 4.42346-.3724.35722-1.2693 1.21607-3.4582 3.321387-.9956.950053-.9805.94245-2.1357 2.05212-.3572.34202-3.5114 3.36699-5.3431-3.08577-1.1021-.63084-.5092-.29642-1.1021-.63843-2.0673-1.18567-4.7199-2.72856-2.7741-1.59609-.0761-.0456 5.5408-5.3355 1.8165-1.74052.9652-.9348.4408-.4257.9349-.8968z" fill="#b9b9b9"/><path d="m78.4136-12.437-4.5071 4.32463-2.7513 2.63736-2.3258 2.23452-3.709 3.557006-.1368.129208-.6308.608036-.2509.24321-1.026.98806-.0912.0836-2.4018 2.30293-.8816-.50923-4.1574-2.40173-1.1021-.63084-.5092-.296416-1.1021-.638435-2.0673-1.193268-2.759-1.588491-1.5809-.91205 2.4018-2.31053.798-.76765 1.3301-1.28447.4788-.45603.9653-.93485.4408-.42562.9653-.92725.57-.5472 1.3377-1.2845z" fill="#153e58"/><path d="m68.8296-3.24049-3.7091 3.557006-.1368.129208-.6308.608036-.2508.24321-1.0261.98806-.0912.0836-2.4017 2.30293-.8817-.50923-1.6037-4.621059-1.4288-4.104231-.8817-2.52335-1.4137-4.06619 1.3377-1.2845h9.9186l.8816 2.53853.0304.08361.0684.19001.7525 2.16612z" fill="#5a7789"/><path d="m141.779-12.437-13.544 12.996731-.015.007601-29.5509 28.357168-17.5722-10.1465-.114-.0684 1.0641-1.0185v-.0076l.152-.1444.1368-.1292.7524-.7296.2584-.2433.3269-.3116 1.1704-1.1324.6157-.5929.4256-.4104.8436-.8056.2509-.2433.3724-.3648.2736-.2584.3952-.38.5168-.494.1901-.1825.7372-.7144.1444-.1368 1.1553-1.11727.1824-.17481.9044-.86645.0684-.0684.2584-.25082.2357-.22801.6232-.59283.1824-.17482.1368-.1368.0152-.0076.4712-.46363.9805-.93485.266-.25842.5853-.57003.1824-.17481 1.4592-1.39848.4181-.41042 1.8013-1.725302.3192-.311618 4.0132-3.86102 1.071-1.03366 1.802-1.7253.228-.22801h.007v-.0076l.13-.12161.349-.33442.661-.63843.023-.0152v-.00761l.015-.0076.046-.0456.905-.87405.228-.22041.828-.79805 1.398-1.35286 1.787-1.7101z" fill="#b9b9b9"/><path d="m138.951-12.437-2.075 1.9913-8.946 8.58089-1.474 1.413683-15.429 14.798027-8.771 8.4137-3.8762 3.7242-10.6786-6.1563-1.1857-.6841-.608-.3496-.6384-.3724-1.0489-.6005.2736-.266 1.8165-1.7481.3497-.3344.0836-.0836.8056-.7752.6764-.6537.9425-.912.0684-.0608.3192-.3041.0076-.0075.2204-.2205.152-.1368.5853-.57.5928-.57 1.9001-1.83174.6689-.64604.494-.47882.4864-.46363.0076-.0152.0456-.0304.3952-.38762.7069-.68404.76-.72965 8.7705-8.42128.297-.28121.061-.06081.304-.29641 2.508-2.40934.714-.69164 3.018-2.90337.235-.22801 1.178-1.13249.16-.1596 1.702-1.6341.266-.2584.388-.3724z" fill="#153e58"/><path d="m111.028 14.3471-8.771 8.4137-5.6779-16.34855 8.7709-8.42128z" fill="#5a7789"/><path d="m128.235.575018-17.686-10.207388 3.238-.39523 14.159 8.17048z" fill="#b9b9b9"/><path d="m185.01-8.40112h-1.558v24.31382h1.558z" fill="#727272"/><g fill="#b6b8b5"><path d="m118.408 77.2938c-.084-.1292-.221-.2432-.327-.3268-.129-.0684-.259-.1064-.411-.1064.304-.3268.586-.6992.829-1.0717.235-.3724.433-.7676.608-1.1552.175-.3952.281-.7905.372-1.2009.084-.3952.129-.8056.129-1.2009 0-.5244-.068-.9576-.22-1.33-.129-.3725-.35-.6309-.654-.7677-.304-.152-.699-.1748-1.178-.0836-.501.0836-1.071.3496-1.763.7373l-3.078 1.7937v12.3051l2.181-1.2617v-4.5603l.547-.3268c.175-.0912.304-.1368.388-.1368.091.0228.175.0912.243.1976l1.574 2.683c.174.266.433.2888.782.0912l1.984-1.1553zm-1.072-2.7741c-.061.266-.175.5244-.304.7676-.129.2584-.281.5016-.502.7221-.213.2128-.456.3876-.76.5624l-.874.5244v-3.6406l.874-.5244c.563-.3268.981-.418 1.239-.266.289.1596.418.5016.418 1.026 0 .2888-.045.5473-.091.8285z"/><path d="m127.247 66.3415v-2.1813l-6.042 3.5114v12.3051l6.042-3.5114v-2.2042l-3.861 2.2498v-2.9262l2.964-1.7253v-2.1357l-2.964 1.7253v-2.8578z"/><path d="m135.038 68.9333c-.046-.0152-.092-.038-.152-.038-.046 0-.092.0228-.152.0608-.069.0228-.114.0913-.175.1521-.069.0912-.129.1596-.175.2432-.129.2204-.266.418-.373.5928-.129.1672-.258.3268-.418.456-.129.152-.281.2812-.456.3876-.152.1369-.349.2433-.547.3725-.327.1976-.653.2888-.957.2888s-.57-.114-.783-.3116c-.244-.19-.418-.5017-.548-.9121-.129-.418-.197-.9424-.197-1.5733 0-.6308.068-1.2236.175-1.7633.129-.57.281-1.0716.501-1.5277.221-.4636.479-.874.783-1.2236.312-.3496.639-.6157.988-.8285.236-.1368.433-.2204.608-.2888.152-.038.304-.0608.433-.0836.137 0 .244 0 .327.0228.091.0228.175.0456.266.0608.069.0228.152.0228.221.0456.061 0 .152-.0228.213-.0608.114-.0684.197-.1596.266-.266.06-.0836.129-.1976.174-.304l.738-1.7253c-.175-.1292-.388-.2432-.608-.304-.244-.0684-.479-.0912-.745-.0912-.282.0228-.563.0684-.867.1748-.334.114-.661.266-1.011.4636-.691.3876-1.33.912-1.892 1.5657-.593.6384-1.072 1.3529-1.49 2.1433-.41.8056-.737 1.6569-.98 2.5537-.213.9121-.327 1.8089-.327 2.7286 0 .8893.114 1.6797.304 2.3333.22.6309.524 1.1325.92 1.4593.395.3268.874.5016 1.436.4788.57 0 1.201-.2128 1.923-.6308.783-.456 1.444-1.0032 2.029-1.6569.57-.6536 1.026-1.4213 1.422-2.2953z"/><path d="m142.851 55.1459c-.114.0456-.198.1064-.266.1976-.061.0608-.152.152-.198.2584-.061.0912-.106.1748-.152.2888-.038.0836-.084.19-.106.2812l-1.308 4.3399c-.129.3496-.22.6536-.304.9653-.091.2812-.175.5624-.22.8512-.091-.1976-.152-.3952-.243-.5928-.084-.1976-.198-.3953-.304-.6081l-1.33-2.8197c-.069-.1292-.152-.2356-.266-.2812-.107-.0456-.259-.0228-.456.0836l-1.916 1.1172 3.398 5.6471v4.6971l2.189-1.2693v-4.6894l3.397-9.5994z"/><path d="m151.553 59.3796c-.038-.0228-.083-.0456-.152-.0456-.038 0-.083.0228-.152.0684-.06.0228-.106.0836-.174.152-.061.0836-.13.1521-.175.2357-.129.2204-.259.418-.373.5928-.129.1748-.258.3268-.41.456-.129.152-.281.2888-.456.3952-.16.1292-.35.2433-.547.3725-.327.1976-.654.2812-.966.2812-.304 0-.562-.1064-.782-.304-.236-.1977-.411-.5017-.548-.9197-.129-.4104-.197-.9348-.197-1.5657 0-.6384.068-1.2237.174-1.7709.137-.57.289-1.0716.502-1.5277.221-.456.487-.874.791-1.2236.304-.3497.63-.6081.98-.8285.243-.1292.433-.2204.608-.2812.16-.0456.312-.0684.441-.0912.129 0 .236 0 .327.0228.083.0228.175.0456.258.0684.069.0228.152.0228.221.0456.068 0 .152-.0228.22-.0684.106-.0684.198-.152.258-.2584.069-.0912.13-.1976.175-.3116l.745-1.7177c-.175-.1368-.395-.2432-.616-.3117-.235-.0608-.478-.0836-.737-.0836-.281.0228-.57.0608-.874.1748-.327.1065-.654.2585-1.003.4561-.699.3952-1.33.9196-1.9 1.5733-.586.6308-1.072 1.3528-1.482 2.1357-.418.8056-.745 1.6569-.981 2.5537-.22.9197-.327 1.8089-.327 2.7286 0 .8968.084 1.6797.304 2.3333.221.6309.525 1.1325.912 1.4669.396.3268.874.5016 1.445.4788.57 0 1.2-.2204 1.922-.6384.76-.456 1.437-1.0033 2.03-1.6569.562-.6536 1.026-1.4137 1.413-2.2877z"/><path d="m155.551 57.8291v-10.063l-2.181 1.2693v12.3051l5.67-3.2682v-2.2725z"/><path d="m160.157 45.1289v12.3051l2.181-1.2617v-12.3051z"/><path d="m170.455 39.1473v6.5287c0 .1976 0 .3953.023.6081 0 .2204.015.4408.015.6764l-4.469-4.7959c-.046-.0684-.106-.114-.152-.152-.046-.0228-.091-.0456-.152-.0456-.046 0-.114.0228-.152.0456-.068.0152-.16.0608-.243.1292l-1.156.6537v12.3051l1.916-1.1097v-6.5896c0-.1748 0-.3724-.015-.57 0-.1976-.023-.3952-.046-.608l2.926 3.1389 1.528 1.6189c.106.1064.213.1748.349.1748.107 0 .236-.0456.411-.1368l1.132-.6764v-12.3051z"/><path d="m178.724 41.9213c0 .152.046.2432.13.304.068.0456.174.0456.304-.038l.919-.5244v1.8089c-.197.2356-.395.4332-.615.6308-.213.1748-.434.3496-.692.5016-.441.2432-.836.3724-1.178.3952-.35.0228-.661-.0684-.92-.266-.243-.19-.433-.5168-.593-.9348-.129-.4333-.19-.9577-.19-1.6113 0-.2204 0-.3952.016-.5929v-.0228c.022-.3952.091-.76.174-1.1096.114-.57.312-1.0717.525-1.5505.243-.4788.524-.9197.851-1.3073.327-.3724.699-.6764 1.117-.9196.213-.1292.411-.2204.586-.304.174-.0684.326-.1141.501-.1521.152-.0228.304-.0228.464-.0228.152.0228.304.0456.479.0836h.045.008c.129.0228.228 0 .334-.0836.046-.0228.091-.0456.114-.0684.175-.1292.304-.3268.388-.5852l.137-.3496.501-1.2921c-.174-.1292-.395-.2128-.638-.2812-.259-.0456-.517-.0684-.806-.0684-.281.0228-.608.0912-.935.2204-.349.1064-.722.2812-1.117.5016-.737.4409-1.436 1.0033-2.052 1.6569-.608.6765-1.155 1.3985-1.566 2.2042-.441.8284-.79 1.6797-1.003 2.5765-.243.9197-.372 1.8317-.372 2.7514 0 .2204 0 .4104.022.6308.038.6308.175 1.1781.35 1.6569.258.6156.608 1.0716 1.064 1.3757.441.304.988.418 1.642.3724.631-.0684 1.33-.304 2.113-.7601.593-.3344 1.155-.7676 1.702-1.292.547-.5245 1.072-1.1553 1.551-1.9001v-5.1911l-3.36 1.9457z"/><path d="m119.35 92.6543c-.046-.0228-.091-.038-.152-.038-.046 0-.091.0152-.16.0608-.038.0228-.106.0912-.174.152-.061.0912-.107.152-.175.2432-.129.2204-.259.4104-.365.5852-.137.1749-.266.3269-.418.4637-.129.152-.281.2812-.456.3876-.152.1368-.327.2432-.525.3724-.349.1976-.676.2888-.98.2888s-.57-.114-.79-.3116c-.213-.1976-.411-.5244-.54-.912-.137-.4181-.198-.9425-.198-1.5733 0-.6309.061-1.2237.175-1.7709.129-.5625.281-1.0641.502-1.5277.213-.456.479-.8665.783-1.2161s.63-.6156.98-.8284c.243-.1368.441-.2204.616-.2888.175-.038.304-.0608.433-.0836.129 0 .243 0 .327.0228.091.0228.175.038.266.0608.061.0228.152.0228.213.0456.068 0 .152-.0228.22-.0684.106-.0608.198-.1521.266-.2585.061-.0912.129-.1976.167-.304l.745-1.7253c-.175-.1292-.372-.2432-.608-.304-.22-.0684-.479-.0912-.745-.0912-.281.0228-.57.0684-.874.1748-.327.114-.653.266-1.003.4636-.699.3877-1.33.9121-1.9 1.5657-.585.6309-1.064 1.3529-1.482 2.1433-.411.8057-.738 1.6569-.958 2.5538-.243.912-.35 1.8089-.35 2.7209 0 .9197.107 1.6797.304 2.341.221.6308.525 1.1324.92 1.4593.388.3268.874.5016 1.437.4788.57 0 1.2-.2204 1.922-.6308.783-.4561 1.46-1.0033 2.03-1.6569.562-.6537 1.049-1.4213 1.413-2.2954z"/><path d="m127.224 81.0026v-2.1813l-6.042 3.4886v12.3127l5.708-3.3062.334-.19v-2.2041l-.418.2432-3.465 2.0065v-2.9414l2.538-1.4669.449-.2584v-2.1205l-2.987 1.7025v-2.835z"/><path d="m134.863 74.3904v7.1368c.007.0836.015.1672.015.2508.007.1369.015.2737.03.4257l-.357-.3801-.22-.2432-.198-.2052-.297-.3192-3.404-3.6558c-.046-.0608-.107-.1064-.152-.152-.046-.0228-.107-.038-.153-.038-.045 0-.106.0152-.174.038-.069.0228-.13.0684-.244.1368l-1.155.6536v12.3051l1.634-.9272.312-.1824v-6.5896c0-.1976-.023-.3724-.023-.57-.023-.1976-.023-.4181-.045-.6157l.896.9577.213.228.304.3268.19.1976 2.85 3.0478c.107.114.221.1748.327.1748.129 0 .259-.038.433-.1292l.593-.3496h.008l.539-.3268v-12.3051z"/><path d="m137.873 72.6498v2.265l2.66-1.5505v10.063l2.189-1.2693v-10.0326l2.637-1.5505v-2.2497z"/><path d="m152.518 66.387v-2.2041l-6.065 3.5114v12.3051l6.065-3.5114v-2.1814l-3.884 2.227v-2.9262l2.987-1.7253v-2.1357l-1.877 1.0868-.023.0228-.022.0228h-.023l-1.042.5853v-2.8578z"/><path d="m159.564 68.1275c-.106-.1292-.22-.2356-.349-.3268-.107-.0609-.259-.1065-.396-.1065.312-.3268.57-.6992.836-1.0716.236-.3724.434-.7601.586-1.1553.174-.3952.304-.7828.395-1.2009.061-.3952.106-.8056.106-1.2008 0-.5245-.068-.9577-.197-1.3301-.152-.3724-.373-.6308-.677-.76-.304-.1596-.699-.1748-1.178-.0912-.023 0-.045 0-.061.0228h-.007c-.464.0836-1.019.3496-1.672.722l-3.101 1.7861v12.3051l2.181-1.2617v-4.5602l.57-.3268c.152-.0913.281-.1369.388-.1369.091.0228.174.0913.243.1977l1.573 2.6829c.152.266.411.2888.783.0912l1.961-1.1553zm-1.094-2.7666c-.061.2584-.152.5244-.282.7601-.129.266-.304.5016-.501.722-.221.2204-.479.3952-.76.5624l-.897.5245v-3.6407l.897-.5244c.562-.3268.98-.418 1.239-.2584.266.152.395.5016.395 1.0413 0 .266-.023.5244-.091.8132z"/></g><path d="m174.103 20.26-16.744 9.8654-3.268-9.417 15.194-14.27359z" fill="#2b5479"/><path d="m155.915 113.039 7.061-3.884-20.855-3.42-5.952 4.515 19.169 3.116z" fill="#bdc7fa"/><path d="m79.1357 99.5861s.4484.4028.4028.9349c-.0456.532 0 .897 0 .897l-1.5353.79h-.684s-1.0869 1.384-2.683 1.361-2.5385-.51-1.7937-1.513c.7449-1.003 2.341-1.596 2.341-1.596l.4712-1.4895z" fill="#1b1b1b"/><path d="m75.1983 100.453s-1.5961.6-2.3409 1.596c-.2052.281-.2888.516-.2508.722 0 0 1.6949.805 3.0553-.228 1.3605-1.034 1.3681-2.189 1.3681-2.189l-1.4061-1.262z" fill="#2a2a2a"/><path d="m79.2419 82.4697v17.2302c0 .3041-.1216.5781-.3192.7751-.1976.198-.4712.319-.7753.319h-1.5124c-.9273 0-1.6949-.744-1.7177-1.6717v-.0152l-.0684-2.8046-.0228-.8892-.0228-.8893-.0228-.8968-.2737-11.1575z" fill="#fe9500"/><path d="m74.5146 82.4697.0381 1.4669 2.1433-.0456.342 16.903h1.1097c.304 0 .5776-.121.7752-.319.1976-.197.3192-.471.3192-.7751v-17.2302z" fill="#fd8700"/><path d="m79.2037 96.4546v.798c-2.2877 1.3377-3.8762.1369-4.3474-.95l-.0228-.8893c.5928 1.2921 2.2269 2.5842 4.3702 1.0413z" fill="#9fd8c9"/><path d="m74.7881 93.6272c.5928 1.3149 2.2497 2.6601 4.431 1.0869v.8056c-2.3409 1.3605-3.9522.114-4.4158-.9957z" fill="#9fd8c9"/><path d="m82.0771 101.25s.4484.403.4028.935 0 .897 0 .897l-1.5353.791h-.684s-1.0869 1.383-2.683 1.36-2.5385-.509-1.7937-1.512c.7449-1.004 2.341-1.597 2.341-1.597l.4712-1.489z" fill="#1b1b1b"/><path d="m78.1321 102.124s-1.5961.601-2.341 1.596c-.1748.244-.2584.449-.2584.631.0076.016.0152.023.0228.038 0 0 1.6949.806 3.0554-.228 1.3605-1.033 1.3681-2.189 1.3681-2.189l-1.4061-1.269z" fill="#343434"/><path d="m82.1833 84.1418v17.2302c0 .304-.0912.6-.418.821-.3192.22-.8741.365-1.7937.365-1.1173 0-2.0901-.821-2.1129-1.756v-.015l-.0684-2.6756-.0228-.8132-.0304-1.3377-.0228-.8132-.2661-10.9979h4.7351z" fill="#fe9500"/><path d="m77.4561 84.1419.0228.8284h3.3289v17.2307c0 .106-.0152.205-.038.304.4637-.061.7905-.175 1.0033-.32.3268-.22.418-.517.418-.821v-17.2297h-4.735z" fill="#fd8700"/><path d="m67.5223 80.7444s-.7829.6536-1.0641.9348c-.2888.2813-1.1477.6613-.9652.8817.1824.2204 1.1932-.4484 1.1932-.4484l-.7676 1.7709s-.1216.2052.0988.2812.2204.076.2204.076-.2432.4332.532.3192c.7753-.114.6385-.1292.8437-.456s.494-.6309.8132-1.4441.494-1.4061.494-1.4061z" fill="#ff7e17"/><path d="m73.7619 67.8466c-1.064.4256-2.1129.9804-3.1238 1.5353-.1824 1.9533-.418 3.937-.418 3.937l-3.4506 7.2812 2.5918 1.4897 3.7394-7.6689.7296-6.6047c-.0304.0152-.0532.0228-.0684.0304z" fill="#fe9500"/><path d="m73.7622 67.8463c-.3725.152-.7449.3192-1.1097.494l-.6156 5.5635-3.7015 7.6005 1.0261.5928 3.7394-7.6688.7297-6.6048c-.0304.0076-.0532.0152-.0684.0228z" fill="#fe7f00"/><path d="m72.2726 76.1081-2.721-1.3757-.4256.8969 2.7133 1.368z" fill="#9fd8c9"/><path d="m79.2803 67.9833 3.443 18.4311-1.2085.8512.1596-.2356c-2.0445.6157-4.0054.4636-6.0423-.6764 0 0-1.3453-.5168-2.303-1.9761l-2.6753-14.3116c-.0836-.4637-.0152-.9425.1976-1.3605.1444-.2736.342-.5093.5776-.6993s.5169-.3192.8133-.3952c.038-.0076.0684-.0152.1064-.0228.1368-.0304.2736-.0608.4104-.0836.1672-.0304.342-.0608.5092-.0836 1.2237-.1672 2.4778-.1368 3.6938.1064z" fill="#ffa500"/><path d="m76.9699 67.5272c-1.3909-.2736-2.8198-.2812-4.2106-.0228-.1748.0304-.3421.0684-.5169.1064-.304.0684-.5776.2053-.8132.3953-.152.1216-.2888.2584-.4028.418.038-.0076.076-.0152.114-.0228 1.3909-.2584 2.8197-.2508 4.2106.0228l2.3105.456 3.4202 18.3095c.1976-.0456.3953-.0912.5929-.152l-.1596.2356 1.2084-.8513-3.443-18.431z" fill="#fe7f00"/><path d="m80.2759 79.5664c-2.0445.6156-4.0054.456-6.0423-.6765 0 0-1.3453-.5168-2.3029-1.9761l.4484 2.4018c.9576 1.4592 2.3029 1.9761 2.3029 1.9761 2.0445 1.1324 4.0054 1.292 6.0424.6764l-.1596.2356 1.2084-.8512-.4484-2.4018-1.2085.8513z" fill="#9fd8c9"/><path d="m76.1715 68.6521.38-1.1933c-1.1552-.1824-2.3257-.1824-3.4734 0l.2432 1.0717c.3345 1.4669 2.3942 1.5505 2.8502.1216z" fill="#007cbb"/><path d="m76.2325 68.4697.3268-1.0109c-1.1552-.1824-2.3257-.1824-3.4734 0l.2205.9577c.9652-.114 1.9533-.0988 2.9261.0532z" fill="#0054bb"/><path d="m75.5178 65.7715.2964 1.5885s-.0684.6764-.6232.8968-1.064.2736-1.2921.152c-.228-.1216-.228-.1216-.228-.1216l-.2964-1.5733z" fill="#dbbaa4"/><path d="m73.3745 66.7291.0684.3649 1.4137-.6309.2964 1.5885s-.0152.1064-.0608.2432c.0304-.0152.0684-.0228.0988-.038.5548-.2204.6232-.8968.6232-.8968l-.2964-1.5885z" fill="#c7ab9f"/><path d="m75.8451 66.106c-.2204.342-.4712.6461-.7676.9045-1.5733 1.3377-2.797 0-3.2226-1.2161-.2736-.7752-.6992-1.9913-.7372-3.0554.19-.1824.494-.304.988-.2812 1.5353.0836 2.2954.0836 2.4398.9957.152.9044.2812 1.5125.2812 1.5125l.3724-.0684s.1672-1.7633.6841-1.4289c1.178.7448-.3193 1.2008-.0381 2.6373z" fill="#f8cfb3"/><path d="m75.8977 63.461c-.5169-.3344-.6841 1.4289-.6841 1.4289l-.3724.0684s-.1368-.6081-.2812-1.5125c-.1064-.6537-.5244-.8361-1.3149-.9197.0304.076.0836.1444.1444.1976.114.0912.2432.1368.3724.2128.5397.3041.7981.9273.9425 1.5277.2204.8893.266 1.8165.1444 2.7286.076-.0532.1596-.114.2356-.1824.2964-.2508.5549-.5625.7677-.8969-.2889-1.4441 1.2084-1.9001.0456-2.6525z" fill="#dbbaa4"/><path d="m77.0379 62.701s-.2584 1.9533-1.1933 3.3974c-.2812-1.4365 1.2085-1.8925.0532-2.645-.5168-.3344-.684 1.4289-.684 1.4289l-.3724.0684s-.1369-.608-.2813-1.5124c-.1444-.9121-.9044-.9121-2.4397-.9957-.494-.0304-.8056.0988-.9881.2812-.0228-.608.0836-1.1629.4257-1.5733.9272-1.1172 2.4473-2.0521 4.0662-1.5429 1.6189.5245 1.4137 3.0934 1.4137 3.0934z" fill="#222"/><path d="m72.8122 58.0571c-1.6493.3876-2.7438 1.7177-2.4474 2.9794.2965 1.2616 1.8698 1.9609 3.519 1.5809 1.6493-.3877 2.7438-1.7177 2.4474-2.9794s-1.8773-1.9685-3.519-1.5809z" fill="#ffa500"/><path d="m77.7905 97.8757.0076.228.0152.6537c.4409 1.1096 2.0445 2.3716 4.3703 1.0108v-.798c-2.1737 1.5658-3.823.2052-4.3931-1.0945z" fill="#9fd8c9"/><path d="m77.7368 96.0898.0076.2357.0152.6612c.4484 1.1173 2.0673 2.3941 4.4235 1.0185v-.8057c-2.1966 1.5809-3.8687.2128-4.4463-1.1097z" fill="#9fd8c9"/><path d="m73.8763 62.61c-1.5809.3724-3.0934-.266-3.4734-1.4213 0 0-1.0337.7829-1.1705.9881-.1444.228-.1824.5016-.0988.7524.0076.0228.0152.0456.0304.0684.1824.342.5016.5929.874.6993.3193.0988.7145.2128.8969.266.9881.2736 1.9077.1672 2.6677-.5245.0533-.0532.1065-.0912.1369-.1292.456-.4332 1.4592-1.2844 1.4592-1.2844-.3724.266-.8208.4712-1.3224.5852z" fill="#fe7f00"/><path d="m76.3312 59.6306c-.2964-1.2617-1.8697-1.961-3.519-1.5809-.3116.076-.6004.1824-.8664.3116 1.4289.0304 2.7666 1.2161 3.1694 2.9261.0608.2433.0912.4865.1064.7221.8512-.6004 1.3149-1.5049 1.1096-2.3789z" fill="#fe7f00"/><path d="m72.0219 61.9791-.0912-.4864.5548.1672s.1748.2356.114.418c0 0-.038.0836-.0988.0684-.0684-.0152-.4788-.1672-.4788-.1672z" fill="#fff"/><path d="m72.6295 62.1006.2052-.4636s.0228-.0684-.0228-.1444-.152-.2508-.152-.2508l.1292-.038-.4712-.2128-.1216.38.114-.0304.2356.3876s.1216.19.0836.3724z" fill="#fff"/><path d="m70.8438 60.915.4256.6917s.0608.0912.1292.1216c.0684.0228.2204.076.2204.076l.038.1748.19-.3192-.342-.5092.0304.1596-.3496-.1216c0 .0076-.1748-.0456-.342-.2737z" fill="#fff"/><path d="m70.9425 60.3525.4409.3801-.1445.4484s-.2052-.038-.3724-.2812c0 0-.076-.1292-.0608-.1824.0076-.0456.1368-.3649.1368-.3649z" fill="#fff"/><path d="m71.9362 60.1626-.6233-.2204s-.0836-.0228-.1064.0228-.0684.1672-.0684.1672l-.1596-.1368.2812.5245.4561.1292-.1444-.1292.114-.2585s.0532-.1368.2508-.0988z" fill="#fff"/><path d="m72.4402 60.8389-.3421.1064-.4028-.6156s.038-.19.2508-.1292c0 0 .114.038.1596.114.0608.0684.3345.5244.3345.5244z" fill="#fff"/><path d="m71.4886 108.182 1.8469-3.01-.9425-.562c-.228-.129-.5396-.106-.8816.084-.6993.395-1.2769 1.353-1.2845 2.143-.0076.38.1216.646.3344.783l.0152.007c.0076 0 .0076.008.0152.008z" fill="#000"/><path d="m73.002 105.354-1.2769-.752c-.076.023-.1444.061-.2204.099-.6992.395-1.2769 1.352-1.2845 2.143 0 .144.0152.274.0532.388l.9805.585c.1064-.031.2204-.076.342-.145.1292-.076.2508-.167.3724-.266l.9729-1.581c.0304-.167.0608-.319.0608-.471z" fill="#1f1f1f"/><path d="m73.6636 105.963c-.0076.79-.5853 1.748-1.2845 2.136-.6992.395-1.2617.068-1.2465-.722.0076-.791.5853-1.749 1.2845-2.136.6992-.388 1.2617-.069 1.2465.722z" fill="#2a2a2a"/><path d="m73.6178 105.986c-.0076.76-.5625 1.679-1.2313 2.059-.6764.38-1.2085.069-1.2009-.691s.5625-1.68 1.2313-2.06c.6688-.372 1.2085-.068 1.2009.692z" fill="#1d1d1d"/><path d="m73.3443 106.138c-.0076.593-.4333 1.307-.9577 1.596s-.9424.053-.9348-.54c.0076-.592.4332-1.307.9576-1.596s.9425-.045.9349.54z" fill="#3b3b3b"/><path d="m73.2834 106.176c-.0076.547-.4104 1.216-.8968 1.489-.4864.274-.8741.046-.8665-.501s.4104-1.216.8969-1.49c.4788-.274.874-.046.8664.502z" fill="#727272"/><path d="m72.4022 105.682c-.4789.273-.8741.934-.8817 1.482 0 .076.0076.152.0228.213l.6308.38c.0684-.023.1369-.046.2129-.092.4788-.266.874-.919.8892-1.459z" fill="#a9a9a9"/><path d="m71.9151 106.123c-.1748.228-.304.501-.3648.767l1.0565.623c.2052-.174.3876-.418.5092-.676z" fill="#e9eae7"/><path d="m71.9151 106.123c-.1748.228-.304.501-.3648.767l1.0565.623c.2052-.174.3876-.418.5092-.676z" fill="#e9eae7"/><path d="m73.1163 106.206c-.0076.471-.3496 1.049-.7677 1.285-.418.235-.7524.038-.7524-.434.0076-.471.3496-1.048.7676-1.284.4257-.236.7601-.038.7525.433z" fill="#4d4d4d"/><path d="m72.8807 106.191c-.0076.372-.2812.828-.608 1.018-.3344.183-.6005.031-.5929-.342.0076-.372.2813-.828.6081-1.018.3268-.183.5928-.031.5928.342z" fill="#949494"/><path d="m72.5995 106.487c0 .167-.1216.365-.266.449-.1444.083-.2661.015-.2585-.152 0-.168.1217-.365.2661-.449.1444-.076.2584-.007.2584.152z" fill="#c4c4c4"/><path d="m72.5159 106.586c0 .091-.0684.198-.1444.243-.076.046-.1444.008-.1444-.083s.0684-.198.1444-.243c.0836-.038.152 0 .1444.083z" fill="#4d4d4d"/><path d="m71.4898 108.182-.5473-.327c-.0076 0-.0076-.007-.0152-.007l-.0152-.008c-.2128-.137-.3344-.403-.3344-.783.0076-.79.5853-1.748 1.2845-2.135.3496-.198.6612-.213.8816-.084l-.0608-.038c-.228-.129-.5396-.106-.8816.084-.6992.395-1.2769 1.352-1.2845 2.135-.0076.38.1216.646.3344.783l.0152.008c.0076 0 .0076.007.0152.007z" fill="#000"/><path d="m71.4896 108.182-.2736-.159c-.0076 0-.0076-.008-.0152-.008l-.0152-.008c-.2128-.136-.3344-.402-.3344-.782.0076-.791.5852-1.749 1.2844-2.136.3497-.198.6613-.213.8817-.084l-.0608-.038c-.228-.129-.5396-.106-.8817.084-.6992.395-1.2768 1.353-1.2844 2.136-.0076.38.1216.646.3344.782l.0152.008c.0076 0 .0076.008.0152.008z" fill="#000"/><path d="m65.1736 104.443 1.8469-3.01-.9424-.562c-.2281-.13-.5397-.107-.8817.083-.6992.395-1.2769 1.353-1.2845 2.136-.0076.38.1216.646.3345.783l.0152.007c.0076 0 .0076.008.0152.008z" fill="#000"/><path d="m66.6858 101.615-1.2693-.753c-.076.023-.1444.061-.2204.099-.6992.395-1.2769 1.353-1.2845 2.136 0 .144.0152.273.0532.387l.9805.586c.1064-.031.2204-.076.3344-.145.1292-.076.2584-.167.3724-.266l.9653-1.581c.038-.159.0608-.311.0684-.463z" fill="#1f1f1f"/><path d="m67.3472 102.216c-.0076.79-.5853 1.748-1.2845 2.135-.6992.396-1.2617.069-1.2465-.722.0076-.79.5853-1.748 1.2845-2.143.6992-.38 1.2617-.053 1.2465.73z" fill="#2a2a2a"/><path d="m67.3016 102.246c-.0076.76-.5624 1.68-1.2388 2.06-.6765.38-1.2085.068-1.2009-.692s.5624-1.679 1.2313-2.059c.6764-.38 1.216-.069 1.2084.691z" fill="#1d1d1d"/><path d="m67.0284 102.398c-.0076.593-.4333 1.308-.9577 1.596-.5244.289-.9425.054-.9349-.539s.4333-1.307.9577-1.596.9425-.046.9349.539z" fill="#3b3b3b"/><path d="m66.9675 102.436c-.0076.547-.4104 1.216-.8968 1.49-.4865.273-.8741.045-.8665-.502s.4104-1.216.8969-1.489c.4788-.274.874-.046.8664.501z" fill="#727272"/><path d="m66.0858 101.942c-.4789.274-.8741.935-.8817 1.482 0 .076.0076.152.0228.213l.6384.38c.0684-.023.1368-.046.2129-.091.4788-.266.874-.92.8892-1.459z" fill="#a9a9a9"/><path d="m65.5997 102.383c-.1748.228-.304.502-.3648.768l1.0564.623c.2052-.175.3876-.418.5093-.677z" fill="#e9eae7"/><path d="m65.5997 102.383c-.1748.228-.304.502-.3648.768l1.0564.623c.2052-.175.3876-.418.5093-.677z" fill="#e9eae7"/><path d="m66.7999 102.467c-.0076.471-.3496 1.049-.7677 1.284-.418.236-.7524.038-.7524-.433.0076-.471.3496-1.049.7676-1.285.4257-.235.7601-.038.7525.434z" fill="#4d4d4d"/><path d="m66.5648 102.452c-.0076.372-.2812.828-.608 1.018-.3345.182-.6005.03-.5929-.342s.2812-.828.6081-1.019c.3268-.19.5928-.03.5928.343z" fill="#949494"/><path d="m66.2836 102.748c0 .167-.1217.365-.2661.448-.1444.084-.266.015-.2584-.152 0-.167.1216-.365.266-.448.1444-.076.2585-.008.2585.152z" fill="#c4c4c4"/><path d="m66.2 102.847c0 .091-.0685.197-.1445.243-.076.045-.1444.007-.1444-.084s.0684-.197.1444-.243c.0836-.038.1521 0 .1445.084z" fill="#4d4d4d"/><path d="m65.1734 104.435-.5473-.326c-.0076 0-.0076-.008-.0152-.008l-.0152-.008c-.2128-.136-.3344-.402-.3344-.783.0076-.79.5853-1.748 1.2845-2.135.3496-.198.6612-.213.8816-.084l-.0608-.038c-.228-.129-.5396-.106-.8816.084-.6993.395-1.2769 1.353-1.2845 2.135-.0076.381.1216.647.3344.783l.0152.008c.0076 0 .0076.008.0152.008z" fill="#000"/><path d="m65.1734 104.435-.266-.159c-.0076 0-.0076-.008-.0152-.008l-.0152-.008c-.2128-.136-.3344-.402-.3344-.783.0076-.79.5852-1.748 1.2844-2.135.3497-.198.6613-.213.8817-.084l-.0608-.038c-.228-.129-.5396-.106-.8817.084-.6992.395-1.2768 1.353-1.2844 2.135-.0076.381.1216.647.3344.783l.0152.008c.0076 0 .0076.008.0152.008z" fill="#000"/><path d="m65.1892 92.2137.7676 18.7883-9.3029-5.457-.7677-18.72z" fill="#0073e8"/><path d="m57.5884 106.1.5169.304-.7677-18.7203-.5168-.3041z" fill="#0050df"/><path d="m63.7981 91.461-.5169-.3116.7677 18.7196.5168.312z" fill="#0050df"/><path d="m70.4485 107.407c.0152-1.018.7524-2.242 1.6493-2.751.2888-.16.5624-.221.798-.205l.2052-16.6834-7.912 4.4386.7676 18.7958 4.7883-2.698c-.19-.198-.304-.494-.2964-.897z" fill="#003bab"/><path d="m65.341 92.8294c-.4256 0-.8512-.1064-1.2237-.3268l-8.7177-5.0543c-.4788-.2736-.5396-.912-.1824-1.2845.0532-.0532.4333-.5928.5093-.6384l.95-.2356 8.3605 6.4148c.4028.2584.5016.76.304 1.1248z" fill="#0754b1"/><path d="m73.572 88.5807-7.0304 3.9446c-.3724.2052-.7828.3116-1.1932.3116.1976-.3724.0988-.874-.3117-1.1172l-8.3604-6.4148 5.7535-3.2834c.76-.4256 1.6949-.4256 2.4473.0228l8.3985 4.5527c.152.0912.5776.7752.6461.9196.1596.3648.0456.8361-.3497 1.0641z" fill="#002987"/><path d="m73.0858 87.813-6.6503 3.7318c-.7145.4028-1.5809.3952-2.2878-.0152l-8.2464-4.7807c-.5245-.304-.5169-1.0564.0076-1.3529l6.6427-3.7926c.7221-.4104 1.6037-.4028 2.3182.0152l8.2388 4.8339c.5093.3116.5093 1.0641-.0228 1.3605z" fill="#008dff"/><path d="m74.0438 83.8911s-.7829.6537-1.0641.9349c-.2888.2812-1.1477.6612-.9653.8816s1.1933-.4484 1.1933-.4484l-.7676 1.7709s-.1216.2052.0988.2812.2204.076.2204.076-.2432.4332.532.3192c.7753-.114.6384-.1292.8437-.456.2052-.3268.494-.6308.8132-1.4441.3192-.8132.494-1.4061.494-1.4061z" fill="#ff7e17"/><path d="m71.0032 86.8934-4.8718 2.7362c-.5245.2964-1.1629.2888-1.6797-.0152l-6.05-3.5038c-.38-.2204-.38-.7753 0-.9957l4.8719-2.7741c.5244-.2965 1.1705-.2965 1.6949.0076l6.0347 3.5418c.3877.2356.3801.7904 0 1.0032z" fill="#003bab"/><path d="m71.0032 86.5895-4.8718 2.7361c-.5245.2964-1.1629.2888-1.6797-.0152l-6.05-3.5038c-.38-.2204-.38-.7752 0-.9956l4.8719-2.7742c.5244-.2964 1.1705-.2964 1.6949.0076l6.0347 3.5418c.3877.2356.3801.7828 0 1.0033z" fill="#00a2ff"/><path d="m63.7602 88.2538-3.0249-1.7785c-.266-.152-.5853-.1596-.8513-.0076l-.7068.418c-.19.1064-.19.3876 0 .4941l3.0326 1.7556c.2584.1521.5776.1521.8436.0076l.7068-.4028c.1824-.0988.1901-.3724 0-.4864z" fill="#0069f1"/><path d="m60.7273 86.4753c-.0988-.0608-.2128-.0912-.3268-.1064l-.152.0912c-.19.1064-.19.3876 0 .494l3.0325 1.7557c.1064.0608.228.0912.3497.1064l.1216-.0684c.19-.1064.1976-.3876.0076-.494z" fill="#003bab"/><path d="m58.9639 95.3906 2.8729 1.6037s.7525 1.3757.7677 2.227l-1.4289-.7449-.0152-.2432-.3344-1.1021z" fill="#6bc2ff"/><path d="m62.6121 99.4267-.0456 3.8533-.6688-2.88-.9729 1.96.2508-3.7846z" fill="#6bc2ff"/><path d="m61.7001 96.2116c.0228.3572-.1824.5168-.4636.3572-.2813-.1596-.5245-.57-.5473-.9273-.0228-.3572.1824-.5168.4637-.3572.2812.1596.5244.57.5472.9273z" fill="#6bc2ff"/><path d="m58.9785 96.1582s-.0456.3572-.152.4712-.3573.0608-.3573.0608.152.418.4789.6461c.3268.228.4332.0988.6384.266s.2204.19.2204.19-.0532-.2584.1368-.3192.2964-.1824.3116-.3268c0 0-.76-.3117-1.2768-.9881z" fill="#6bc2ff"/><path d="m60.5978 98.5982-2.2953-1.2845c-.0608-.0456-.1064 0-.0836.0608 0 .0228.0076.038.0076.0608v.0076c.0152.0456.0456.0912.076.1064l.0684.0456.6308 3.6251 1.3757.76.1748-3.1082v-.0532l.0684.0228c.0608.038.1064 0 .0836-.0684 0-.0608-.0456-.152-.1064-.1748zm-1.0261.152v-.304l.3269.1748v.304zm.3269.3496v.3496l-.2889-.1748-.0152-.2812v-.0912zm-.7677-.3496-.0228-.0836.3268.1748v.0836l.0228.266-.304-.152v-.1368zm-.0608-.5853.3268.1977.0228.304-.3116-.1748zm.4104 1.2009v.19l.0228.1976-.2812-.152-.0228-.2128-.0228-.1976zm-.912-1.4669.3496.1748.038.3269-.3268-.1748zm.1064.5929-.0228-.0912.3268.1748v.0912l.0228.152.0228.1292-.304-.1748zm.0684.456.304.1748.0228.1976.0228.1292v.0684l-.2888-.152zm.1292.8968-.0456-.304.2812.152.0228.1748.0228.2356-.2584-.152zm.1064.6994-.0608-.418.2584.129.0228.114v.084l.0228.22zm.0912.502-.0456-.327.2204.129.038.327zm.1976-1.095-.0228-.152v-.0456l.2584.152.0228.3116.0228.106-.266-.152zm.038.372.2432.152.0228.092.0228.304-.2432-.13-.0228-.22zm.0912.897-.0456-.311.2432.137.0152.304zm.2128-1.7934.3117.1748v.3952l-.2889-.1748-.0228-.1976zm.0228.57.2889.1524v.372l-.2661-.129v-.114zm.3117 1.5274-.2204-.106-.0228-.334.2432.136zm0-.456-.2432-.136-.0229-.305v-.083l.2433.152.0228.175zm.3268.654-.2204-.137v-.304l.2356.137zm.0152-.464-.2356-.129v-.372l.2584.137zm.0228-.608v.091l-.2584-.159v-.365l.2812.152zm.0228-.433-.2812-.152v-.3952l.304.1748zm.0228-.7904v.266l-.304-.1748v-.3496l.3268.1748zm.0228-.2128-.3268-.1976v-.304l.3268.19z" fill="#6bc2ff"/><path d="m54.3209 112.005c.7296-.122 1.4593.676 1.4973 1.421.0076.205-.038.418-.1748.623-.57.791-1.4973 1.125-2.3866 1.33-.8892.205-.7752.335-1.2616.167-.228-.076-.7525-.007-.7525-.007l-.266.38-1.9989.38s-1.0489-.616-.9805-1.201c.1521-1.406 1.0869-2.919 1.0869-2.919l3.6558-.076s.266.282.9653.054c.2052-.069.418-.114.6156-.152z" fill="#1b1b1b"/><path d="m52.512 95.3218v18.4002c0 .327-.1292.616-.342.829s-.5092.342-.8284.342h-1.6113c-.9957 0-1.8089-.791-1.8317-1.786v-.015l-.076-2.995-.0228-.95-.0229-.95-.0228-.965-.2888-11.9178h5.0467z" fill="#fe9500"/><path d="m47.4575 95.3218.038 1.5657 2.2878-.0456.3648 18.0581h1.1856c.3269 0 .6157-.129.8285-.342.2128-.212.342-.509.342-.828v-18.4006h-5.0467z" fill="#fd8700"/><path d="m52.466 110.264v.851c-2.4474 1.429-4.1423.152-4.6439-1.018l-.0228-.95c.6309 1.376 2.379 2.759 4.6667 1.117z" fill="#9fd8c9"/><path d="m57.0108 113.624c.7297-.122 1.4593.676 1.4973 1.421.0076.205-.038.418-.1748.623-.57.791-1.4973 1.125-2.3865 1.33-.8893.205-.7753.335-1.2617.167-.228-.083-.7524-.007-.7524-.007l-.266.38-1.999.38s-1.0488-.616-.9804-1.201c.152-1.406 1.0869-2.919 1.0869-2.919l3.6558-.076s.266.282.9652.054c.2052-.069.418-.114.6156-.152z" fill="#1b1b1b"/><path d="m47.7539 107.239c.6308 1.406 2.4093 2.843 4.7351 1.163v.867c-2.5006 1.459-4.2259.121-4.7123-1.064z" fill="#9fd8c9"/><path d="m55.6505 97.108v18.401c0 .326-.0988.638-.4484.874-.3421.235-.9349.387-1.9154.387-1.1932 0-2.2345-.881-2.2573-1.877v-.015l-.0684-2.866-.0228-.866-.0304-1.437-.0228-.866-.2888-11.7502h5.0543z" fill="#fe9500"/><path d="m50.5962 97.1079.0228.8893h3.557v18.4008c0 .114-.0152.22-.0456.327.5016-.061.8436-.183 1.0717-.342.3496-.236.4484-.548.4484-.874v-18.4011z" fill="#fd8700"/><path d="m50.9609 111.777.0076.243.0152.699c.4713 1.186 2.1814 2.531 4.6743 1.079v-.851c-2.3257 1.672-4.089.22-4.6971-1.17z" fill="#9fd8c9"/><path d="m50.9004 109.869.0076.251.0152.707c.4788 1.193 2.2041 2.561 4.7275 1.094v-.866c-2.341 1.694-4.1271.228-4.7503-1.186z" fill="#9fd8c9"/><path d="m56.8595 87.4478c.2736.1292.5928.0684.8056-.152.304-.3192.7829-.7981 1.2769-1.2085.836-.6916 1.3605-1.0184.9272-1.4137-.2736-.2584-.6156-.4864-.8208-.6156-.19-.1216-.4332-.152-.646-.0532-.1065.0456-.2281.1216-.3649.2356-.494.418-.7752.6004-.7752.6004.0152-.0152 0-.2128 0-.2432 0-.0988-.0076-.1748-.0532-.2584-.0836-.152-.2812-.1672-.4104-.0684-.152.114-.1672.3192-.1977.494l-.076.4561s.0304.7068-.6612 1.1476c-.4712.2964.4028.7981.9957 1.0793z" fill="#ff7e17"/><path d="m56.8212 84.2177-1.3757.8132c-.1824.1065-.4104.0304-.494-.1672l-2.2117-5.5407s-1.0261-1.0336-2.2194-.4256c-1.1932.6004-1.2388 1.6645-.8664 2.6753.3116.8665 2.0141 5.0087 2.5157 6.2248.1444.342.3497.6612.6233.9121.3724.342.9348.6536 1.6037.3572.9804-.4332 4.1498-2.2042 4.1498-2.2042s.7676-1.1476.1064-2.0901c-.646-.912-1.8317-.5548-1.8317-.5548z" fill="#fe9500"/><path d="m55.0271 87.501c-.6613.2964-1.2313-.0152-1.6037-.3572-.2737-.2509-.4789-.5701-.6233-.9121-.5016-1.2161-2.1965-5.3659-2.5157-6.2248-.0988-.2812-.1672-.5624-.19-.836-.7677.6232-.7601 1.5277-.4409 2.4017.3117.8665 2.0142 5.0087 2.5158 6.2248.1444.342.3496.6612.6232.912.3724.3421.9349.6537 1.6037.3573.9805-.4333 4.1499-2.2042 4.1499-2.2042s.4484-.6764.3648-1.4136c-.7905.4332-3.0782 1.6949-3.8838 2.0521z" fill="#fe7f00"/><path d="m52.2609 78.7452s-1.0185-.1824-1.4365-.0532c-.4105.1216-1.4213.7373-1.5809 1.3757s-2.949 15.4365-2.949 15.4365-.3192 2.5841 3.5418 3.8154c3.8534 1.2314 6.5212-.9881 6.5212-.9881l1.3149-11.735-.4485-4.6135-2.0521-2.5993z" fill="#fe7f00"/><path d="m55.4913 85.7759-.1901-3.4506-.2128-.266c-1.1932-1.5125-2.8653-2.5613-4.7426-2.9718 0 0-.0836-.0152-.2129-.0304-.3952.266-.7904.6309-.8816 1.0185-.1596.6384-2.949 15.4365-2.949 15.4365s-.3192 2.5841 3.5418 3.8154c1.4137.4484 2.6678.4408 3.6938.2432z" fill="#ffa500"/><path d="m55.727 80.0983-.5624-.7145-2.9034-.6384s-.1748-.0304-.4104-.0608c-.3344.228-.6917.5092.9272 1.0792 1.5125.5321 2.4398.5321 2.949.3345z" fill="#0054bb"/><path d="m56.6994 95.2536.2812-2.531-.8664.266c-2.7666.4561-5.1303.114-7.1976-1.2768 0 0-.9425-.4409-1.6265-1.4669-.1672.8892-.3268 1.7329-.4713 2.4701.6841 1.1021 1.6949 1.5733 1.6949 1.5733 2.075 1.3909 4.4311 1.7405 7.1977 1.2769z" fill="#9fd8c9"/><path d="m52.4435 77.5671-.2052 1.3377s.1824.494 1.4289.6917c1.2464.19 1.4972-.2129 1.4972-.2129l.2053-1.3072z" fill="#c7ab9f"/><path d="m52.2383 78.9127s.1824.494 1.4289.6916c.1824.0304.3344.038.4712.0456.0228-.0228.0304-.038.0304-.038l.2052-1.3072-1.9913-.3421z" fill="#dbbaa4"/><path d="m54.3434 78.3578s2.0673.9804 2.4626-.1748c.4028-1.1553.608-1.7633.608-1.7633s.646-.2205.4864-.5321c-.1596-.3192-.3952-.6688-.3572-.8284s.4104-.7981.1596-1.2389-1.7709-1.6189-1.7709-1.6189l-2.7969 2.3105-.2204 3.2074z" fill="#f8cfb3"/><path d="m54.9135 76.9744.5321-.1976s.0836-1.0793.3648-1.8165c.2812-.7297.6308-1.7329 1.2617-1.4365.6308.2888.912.6004 1.2008.2432.2889-.3572.1292-1.3073-.38-1.8697s-1.9989-1.5125-3.4202-1.3757c-1.4213.1444-2.7817 1.0565-3.3366 2.0445-.5548.9957-.342 2.3866.2356 3.4886.5777 1.1021.8665 1.9913 1.9154 2.4018 1.0412.4104 1.2312.19 1.2312.19s-.1748-.7905-.5168-1.2009-.152-1.5505.3572-1.6341.7221.3344.608.7069c-.1064.3648-.0532.456-.0532.456z" fill="#222"/><path d="m62.3314 90.0775c.2432.1824.57.1824.8133.0076.3572-.2508.9196-.6308 1.4896-.9425.9501-.5244 1.5277-.7448 1.1781-1.216-.2204-.304-.5092-.5929-.6916-.7601-.1672-.1596-.3953-.228-.6233-.1748-.114.0228-.2508.076-.4028.1596-.5624.3192-.874.4408-.874.4408.0228-.0076.038-.2128.0456-.2356.0152-.0988.0304-.1672 0-.266-.0532-.1596-.2432-.2204-.3877-.1444-.1748.0836-.228.2812-.2888.4484l-.1596.4333s-.1064.6992-.8664 1.0032c-.5245.1976.2432.8589.7676 1.2465z" fill="#ff7e17"/><path d="m61.1155 88.2686-1.5049.5396c-.1976.0684-.4104-.0532-.4484-.2584l-1.1172-5.8599s-.8133-1.2085-2.0978-.8437c-1.2844.3648-1.5276 1.3985-1.3604 2.4626.1444.9044 1.0184 5.3051 1.2768 6.5895.076.3649.2128.7145.4333 1.0109.304.4028.798.8132 1.5048.6536 1.0413-.2356 4.4919-1.3757 4.4919-1.3757s.9729-.9804.5016-2.0293c-.4408-1.0108-1.6797-.8892-1.6797-.8892z" fill="#fe9500"/><path d="m58.7363 91.1415c-.7069.1596-1.2009-.2508-1.5049-.6537-.2204-.2964-.3648-.646-.4332-1.0108-.2584-1.2921-1.1401-5.6851-1.2769-6.5896-.0456-.2888-.0608-.5852-.0304-.8588-.8741.4636-1.0337 1.3528-.8893 2.2725.1445.9044 1.0185 5.3051 1.2769 6.5896.076.3648.2128.7144.4332 1.0108.3041.4028.7981.8133 1.5049.6537 1.0413-.2357 4.4919-1.3757 4.4919-1.3757s.57-.5777.6232-1.3225c-.8588.2888-3.3366 1.0945-4.1954 1.2845z" fill="#fe7f00"/><path d="m57.2541 73.5769c1.3604-1.0792.1064-.95-.3725-1.7861 0 0 .9653-.076 1.1933-.0456 1.2161.19 2.4474 1.4517 1.9533 1.8849-.7904.6841-3.8534.7297-3.8534.7297.4332-.1824.646-.4485 1.0793-.7829z" fill="#fe7f00"/><path d="m55.1794 69.5108c-1.8013-.1901-3.3746.76-3.5266 2.1357-.1444 1.3757 1.1932 2.6449 2.9869 2.8349 1.8013.19 3.3746-.76 3.5266-2.1357.152-1.3681-1.1856-2.6373-2.9869-2.8349z" fill="#ffa500"/><path d="m58.174 72.3534c.1444-1.3757-1.1933-2.645-2.987-2.835-.342-.038-.6688-.0304-.9805.0076 1.4289.532 2.3638 2.2041 2.1586 4.0662-.0304.266-.076.5245-.152.7677 1.064-.3117 1.8545-1.0565 1.9609-2.0065z" fill="#fe7f00"/><path d="m80.5266 69.3211s-.1976-1.2541-1.4365-1.3529c-1.2388-.0912-1.634.6917-1.8013 2.9718-.1672 2.2801-.5472 5.5331-.5472 5.5331l-3.4506 7.2812 2.5918 1.4897 3.7394-7.6688z" fill="#fe9500"/><path d="m80.5264 69.3214s-.1976-1.2541-1.4365-1.3529c-.0076 0-.0076 0-.0152 0 .3192.38.3952.8285.3952.8285l-.912 8.2616-3.7015 7.6005 1.0261.5928 3.7394-7.6688z" fill="#fe7f00"/><path d="m77.9347 80.9877-2.721-1.3756-.4256.8968 2.7133 1.3681z" fill="#9fd8c9"/><path d="m142.294 107.832 1.847-3.009-.935-.555c-.228-.129-.539-.107-.881.083-.699.396-1.277 1.353-1.285 2.136-.007.38.122.646.335.783l.015.008c.008 0 .008.007.015.007z" fill="#000"/><path d="m143.807 105.012-1.277-.752c-.076.022-.144.06-.22.098-.699.396-1.277 1.353-1.285 2.136 0 .144.016.274.054.388l.98.585c.106-.03.22-.076.342-.144.129-.076.258-.168.372-.267l.973-1.58c.031-.16.061-.32.061-.464z" fill="#1f1f1f"/><path d="m144.476 105.613c-.008.79-.586 1.748-1.285 2.136-.699.395-1.262.068-1.246-.722.007-.791.585-1.748 1.284-2.136s1.254-.068 1.247.722z" fill="#2a2a2a"/><path d="m144.422 105.644c-.007.76-.562 1.679-1.231 2.059-.676.38-1.208.069-1.201-.691.008-.76.563-1.68 1.232-2.06.676-.38 1.208-.068 1.2.692z" fill="#1d1d1d"/><path d="m144.149 105.795c-.007.593-.433 1.308-.957 1.597-.525.296-.943.053-.935-.54s.433-1.307.958-1.596c.524-.289.942-.053.934.539z" fill="#3b3b3b"/><path d="m144.088 105.834c-.007.547-.41 1.216-.897 1.489-.486.274-.874.046-.866-.501.007-.547.41-1.216.897-1.49.486-.273.874-.053.866.502z" fill="#727272"/><path d="m143.206 105.34c-.478.273-.874.934-.881 1.482 0 .076.007.152.023.212l.638.381c.068-.023.137-.046.213-.092.479-.266.874-.919.889-1.459z" fill="#a9a9a9"/><path d="m142.72 105.773c-.175.228-.304.501-.365.767l1.057.624c.205-.175.388-.418.509-.677z" fill="#e9eae7"/><path d="m142.72 105.773c-.175.228-.304.501-.365.767l1.057.624c.205-.175.388-.418.509-.677z" fill="#e9eae7"/><path d="m143.921 105.864c-.008.471-.35 1.049-.768 1.284-.418.236-.752.046-.752-.433.007-.471.349-1.049.768-1.284.425-.236.76-.046.752.433z" fill="#4d4d4d"/><path d="m143.686 105.849c-.008.372-.281.828-.608 1.018-.335.182-.601.03-.593-.342s.281-.828.608-1.018.593-.038.593.342z" fill="#949494"/><path d="m143.404 106.145c0 .167-.121.365-.266.449-.144.083-.266.015-.258-.152 0-.168.121-.365.266-.449.144-.083.258-.015.258.152z" fill="#c4c4c4"/><path d="m143.328 106.244c0 .091-.068.197-.144.243s-.144.008-.144-.084c0-.091.068-.197.144-.243.076-.045.144-.007.144.084z" fill="#4d4d4d"/><path d="m142.294 107.832-.547-.326c-.007 0-.007-.008-.015-.008l-.015-.008c-.213-.136-.335-.403-.335-.783.008-.79.586-1.748 1.285-2.135.35-.198.661-.213.882-.084l-.061-.038c-.228-.129-.54-.106-.882.084-.699.395-1.277 1.353-1.284 2.135-.008.38.121.647.334.783l.015.008c.008 0 .008.008.015.008z" fill="#000"/><path d="m142.294 107.832-.266-.159c-.007 0-.007-.008-.015-.008l-.015-.007c-.213-.137-.334-.403-.334-.783.007-.791.585-1.748 1.284-2.136.35-.198.661-.213.882-.084l-.061-.038c-.228-.129-.54-.106-.882.084-.699.395-1.277 1.353-1.284 2.136-.008.38.121.646.334.783l.015.007c.008 0 .008.008.016.008z" fill="#000"/><path d="m135.979 104.093 1.846-3.01-.934-.555c-.228-.129-.54-.106-.882.084-.699.395-1.277 1.353-1.285 2.136-.007.38.122.646.335.782l.015.008c.008 0 .008.008.015.008z" fill="#000"/><path d="m137.492 101.266-1.277-.752c-.076.022-.145.06-.221.098-.699.396-1.276 1.353-1.284 2.136 0 .145.015.274.053.388l.981.585c.106-.03.22-.076.342-.144.129-.076.25-.168.372-.266l.965-1.581c.038-.152.069-.312.069-.464z" fill="#1f1f1f"/><path d="m138.161 101.873c-.007.791-.585 1.748-1.284 2.136-.7.395-1.262.068-1.247-.722.008-.79.585-1.748 1.285-2.143.691-.38 1.254-.061 1.246.729z" fill="#2a2a2a"/><path d="m138.108 101.904c-.008.76-.562 1.679-1.231 2.059-.677.38-1.209.069-1.201-.691.007-.76.562-1.68 1.231-2.06.677-.38 1.209-.068 1.201.692z" fill="#1d1d1d"/><path d="m137.834 102.056c-.008.593-.433 1.307-.958 1.596-.524.289-.942.053-.934-.54.007-.593.433-1.307.957-1.596.525-.289.943-.053.935.54z" fill="#3b3b3b"/><path d="m137.773 102.086c-.007.548-.41 1.216-.897 1.49-.486.274-.874.046-.866-.502.007-.547.41-1.216.897-1.489.486-.266.874-.046.866.501z" fill="#727272"/><path d="m136.891 101.592c-.478.274-.874.935-.881 1.482 0 .076.007.152.023.213l.63.38c.069-.023.137-.045.213-.091.479-.266.874-.92.889-1.459z" fill="#a9a9a9"/><path d="m136.405 102.033c-.175.228-.304.502-.365.768l1.056.623c.206-.175.388-.418.51-.677z" fill="#e9eae7"/><path d="m136.405 102.033c-.175.228-.304.502-.365.768l1.056.623c.206-.175.388-.418.51-.677z" fill="#e9eae7"/><path d="m137.606 102.117c-.008.471-.35 1.049-.768 1.284-.418.236-.752.038-.752-.433.008-.471.35-1.049.768-1.285.425-.228.76-.038.752.434z" fill="#4d4d4d"/><path d="m137.37 102.101c-.008.373-.274.829-.608 1.019-.334.182-.6.03-.593-.342.008-.373.274-.829.608-1.019.335-.19.593-.03.593.342z" fill="#949494"/><path d="m137.089 102.405c0 .168-.121.365-.266.449-.144.083-.266.015-.258-.152 0-.167.121-.365.266-.449.144-.083.258-.015.258.152z" fill="#c4c4c4"/><path d="m137.013 102.504c0 .092-.068.198-.144.244-.076.045-.144.007-.144-.084s.068-.198.144-.243c.076-.046.144-.008.144.083z" fill="#4d4d4d"/><path d="m135.98 104.093-.548-.327c-.007 0-.007-.008-.015-.008l-.015-.007c-.213-.137-.335-.403-.335-.783.008-.791.586-1.748 1.285-2.136.35-.198.661-.213.882-.084l-.061-.038c-.228-.129-.54-.106-.882.084-.699.395-1.277 1.353-1.284 2.136-.008.38.121.646.334.783l.015.007c.008 0 .008.008.015.008z" fill="#000"/><path d="m135.98 104.093-.266-.16c-.008 0-.008-.008-.016-.008l-.015-.007c-.213-.137-.334-.403-.334-.783.007-.79.585-1.748 1.284-2.136.35-.197.661-.213.882-.083l-.061-.038c-.228-.13-.54-.107-.882.083-.699.395-1.276 1.353-1.284 2.136-.008.38.122.646.334.783l.016.007c.007 0 .007.008.015.008z" fill="#000"/><path d="m135.994 91.8638.768 18.7962-9.295-5.465-.776-18.7199z" fill="#0073e8"/><path d="m128.394 105.75.524.311-.775-18.7196-.517-.3116z" fill="#0050df"/><path d="m134.603 91.1112-.517-.3041.768 18.7199.516.304z" fill="#0050df"/><path d="m141.254 107.057c.015-1.011.753-2.242 1.649-2.751.289-.16.563-.221.798-.206l.206-16.6825-7.912 4.4386.767 18.7959 4.789-2.698c-.19-.19-.304-.494-.297-.897z" fill="#003bab"/><path d="m136.154 92.4871c-.426 0-.851-.1064-1.224-.3268l-8.717-5.0543c-.479-.2736-.54-.912-.183-1.2844.053-.0532.433-.5929.509-.6385l.951-.2356 8.36 6.4148c.403.2508.494.7524.304 1.1248z" fill="#0754b1"/><path d="m144.378 88.2308-7.031 3.9446c-.372.2053-.783.3117-1.193.3117.198-.3725.099-.8741-.312-1.1173l-8.36-6.4148 5.753-3.2834c.761-.4256 1.695-.4256 2.448.0228l8.398 4.5527c.152.0912.578.7753.646.9197.16.3648.046.8436-.349 1.064z" fill="#002987"/><path d="m143.899 87.4631-6.651 3.7318c-.714.4029-1.58.3953-2.287-.0152l-8.247-4.7806c-.524-.3041-.517-1.0565.008-1.3529l6.643-3.7926c.722-.4105 1.603-.4029 2.318.0152l8.239 4.8338c.509.3117.501 1.0717-.023 1.3605z" fill="#008dff"/><path d="m141.809 86.5511-4.872 2.7361c-.524.2964-1.163.2889-1.679-.0152l-6.043-3.5038c-.38-.2204-.38-.7752 0-.9956l4.872-2.7742c.524-.304 1.171-.2964 1.695.0076l6.035 3.5418c.38.2356.372.7829-.008 1.0033z" fill="#003bab"/><path d="m141.809 86.2395-4.872 2.7362c-.524.2964-1.163.2888-1.679-.0152l-6.043-3.5038c-.38-.2204-.38-.7753 0-.9881l4.872-2.7741c.524-.3041 1.171-.2965 1.695.0076l6.035 3.5418c.38.228.372.7828-.008.9956z" fill="#00a2ff"/><path d="m134.565 87.904-3.025-1.7786c-.258-.152-.585-.1596-.851-.0076l-.707.4181c-.19.1064-.19.3876 0 .494l3.033 1.7557c.258.152.578.152.844.0076l.706-.4028c.183-.0912.19-.3724 0-.4864z" fill="#0069f1"/><path d="m131.533 86.133c-.099-.0608-.213-.0912-.327-.1064l-.152.0912c-.19.1064-.19.3876 0 .494l3.033 1.7557c.106.0608.228.0913.349.1065l.122-.0685c.19-.1064.198-.3876.008-.494z" fill="#003bab"/><path d="m129.77 95.0481 2.872 1.6037s.753 1.3757.768 2.2269l-1.429-.7448-.015-.2432-.334-1.1021z" fill="#6bc2ff"/><path d="m133.418 99.0842-.046 3.8538-.669-2.889-.973 1.969.251-3.7851z" fill="#6bc2ff"/><path d="m132.506 95.8615c.023.3572-.183.5168-.464.3572s-.524-.57-.547-.9273c-.023-.3572.182-.5168.464-.3572.281.1596.524.5777.547.9273z" fill="#6bc2ff"/><path d="m129.785 95.8159s-.045.3572-.152.4713c-.106.114-.357.0608-.357.0608s.152.418.479.646.433.0988.638.266.221.1976.221.1976-.054-.2584.136-.3192.297-.1824.312-.3268c0-.0076-.76-.3192-1.277-.9957z" fill="#6bc2ff"/><path d="m131.404 98.2479-2.288-1.2921c-.068-.0152-.114 0-.114.0684.023.0836.068.152.114.1976l.061.0228.615 3.6174 1.391.768.175-3.1693.068.0456c.069.0228.092 0 .092-.0608 0-.0912-.046-.152-.114-.1976zm-.7.0456v.304l-.326-.1976-.023-.304zm0 .456v.3497l-.304-.1749v-.3496zm-.349 1.2237-.259-.1596-.022-.2128-.023-.1292v-.0456l.266.152.015.2812zm-.038-.57-.289-.152-.023-.1976-.015-.2205.281.1749.023.152v.0456zm-.046-.5473-.304-.1748-.023-.1292v-.152l-.022-.0912.326.1748v.0912zm-.068-.8512.023.3268-.327-.1976-.023-.304zm-.829-.456.35.1976.023.304-.304-.1748zm.114.5852-.022-.0836.304.1748.022.0836.023.152.015.1368-.304-.1748zm.061.4636.281.1748.046.1976v.1293l.023.0836-.281-.1748zm.129.8893-.038-.304.282.152.022.1976.023.2204-.266-.152zm.046.2888.266.152.015.0834v.114l.023.198-.236-.137zm.152.9124-.061-.327.236.129.045.334zm.22-.6996.259.1366v.107l.023.281-.236-.129zm.107.8966-.038-.327.235.13.023.311zm.22-1.7858.281.152.023.1976v.1976l-.281-.1596-.023-.2128zm.023.5472.281.152v.3876l-.258-.152v-.1064zm.304 1.5426-.22-.129-.023-.304.243.129zm-.243-.608-.015-.281v-.114l.235.152v.175l.023.22zm.57.783-.221-.129v-.281l.244.129zm.023-.433-.244-.152v-.373l.266.152zm.022-.525-.266-.152v-.3948l.266.1518zm.023-.5468-.289-.152v-.3724l.289.152zm.023-.5244-.312-.152v-.3497l.312.1749zm.015-.4789-.327-.1748v-.304l.327.1748z" fill="#6bc2ff"/><path d="m153.293 126.811-20.848-3.413-7.425 7.198 15.869 2.584z" fill="#cad2fc"/><path d="m119.494 127.457-1.847-3.01.935-.555c.228-.129.539-.106.881.084.7.395 1.277 1.353 1.285 2.135.008.38-.122.646-.334.783l-.016.008c-.007 0-.007.007-.015.007z" fill="#000"/><path d="m117.974 124.637 1.269-.752c.076.022.144.06.22.098.7.396 1.277 1.353 1.285 2.136 0 .144-.015.274-.053.388l-.981.585c-.106-.03-.22-.076-.334-.145-.129-.076-.259-.167-.373-.266l-.965-1.58c-.038-.16-.061-.32-.068-.464z" fill="#1f1f1f"/><path d="m117.313 125.237c.007.791.585 1.748 1.284 2.136.699.395 1.262.068 1.247-.722-.008-.79-.586-1.748-1.285-2.143-.699-.38-1.254-.061-1.246.729z" fill="#2a2a2a"/><path d="m117.366 125.268c.007.76.562 1.679 1.231 2.059.676.38 1.208.069 1.201-.691-.008-.76-.563-1.68-1.239-2.06-.669-.38-1.209-.068-1.193.692z" fill="#1d1d1d"/><path d="m117.632 125.42c.008.593.433 1.307.958 1.596.524.289.942.053.934-.54-.007-.593-.433-1.307-.957-1.596-.525-.289-.943-.053-.935.54z" fill="#3b3b3b"/><path d="m117.7 125.458c.007.547.41 1.216.897 1.489.486.274.874.046.866-.501-.007-.547-.41-1.216-.897-1.49-.486-.273-.874-.053-.866.502z" fill="#727272"/><path d="m118.582 124.964c.479.273.874.934.882 1.482 0 .076-.008.152-.023.213l-.639.38c-.068-.023-.137-.046-.213-.092-.478-.266-.874-.919-.889-1.459z" fill="#a9a9a9"/><path d="m119.06 125.405c.175.228.304.501.365.76l-1.056.623c-.206-.175-.388-.418-.51-.677z" fill="#e9eae7"/><path d="m119.06 125.405c.175.228.304.501.365.76l-1.056.623c-.206-.175-.388-.418-.51-.677z" fill="#e9eae7"/><path d="m117.859 125.488c.008.471.35 1.049.768 1.284.418.236.752.038.752-.433-.007-.471-.349-1.049-.767-1.284-.418-.236-.753-.046-.753.433z" fill="#4d4d4d"/><path d="m118.103 125.473c.008.372.281.828.608 1.018.335.183.601.031.593-.342-.008-.372-.281-.828-.608-1.018-.334-.19-.6-.038-.593.342z" fill="#949494"/><path d="m118.384 125.769c0 .167.121.365.266.449.144.083.266.015.258-.152 0-.168-.122-.365-.266-.449-.144-.083-.266-.015-.258.152z" fill="#c4c4c4"/><path d="m118.46 125.868c0 .091.068.198.144.243.076.046.145.008.145-.083s-.069-.198-.145-.243c-.083-.038-.144-.008-.144.083z" fill="#4d4d4d"/><path d="m119.494 127.457.547-.327c.008 0 .008-.008.015-.008l.015-.007c.213-.137.335-.403.335-.783-.008-.79-.585-1.748-1.285-2.136-.349-.197-.661-.213-.881-.083l.061-.038c.228-.13.539-.107.881.083.699.395 1.277 1.353 1.285 2.136.007.38-.122.646-.335.783l-.015.007c-.008 0-.008.008-.015.008z" fill="#000"/><path d="m119.494 127.457.266-.16c.008 0 .008-.008.015-.008l.016-.007c.213-.137.334-.403.334-.783-.007-.79-.585-1.748-1.284-2.136-.35-.197-.662-.213-.882-.083l.061-.038c.228-.13.539-.107.881.083.7.395 1.277 1.353 1.285 2.136.008.38-.122.646-.335.783l-.015.007c-.007 0-.007.008-.015.008z" fill="#000"/><path d="m125.809 123.717-1.847-3.01.935-.554c.228-.13.54-.107.882.083.699.395 1.277 1.353 1.284 2.136.008.38-.121.646-.334.783l-.015.007c-.008 0-.008.008-.015.008z" fill="#000"/><path d="m124.29 120.89 1.269-.753c.076.023.144.061.22.099.699.395 1.277 1.353 1.285 2.136 0 .144-.015.274-.053.388l-.981.585c-.106-.031-.22-.076-.342-.145-.129-.076-.258-.167-.372-.266l-.973-1.58c-.023-.152-.046-.312-.053-.464z" fill="#1f1f1f"/><path d="m123.628 121.498c.008.79.585 1.748 1.284 2.136.7.395 1.262.068 1.247-.722-.008-.791-.585-1.748-1.285-2.136-.699-.388-1.254-.068-1.246.722z" fill="#2a2a2a"/><path d="m123.681 121.528c.008.76.562 1.68 1.231 2.06.677.38 1.209.068 1.201-.692-.007-.76-.562-1.679-1.231-2.059-.677-.38-1.216-.069-1.201.691z" fill="#1d1d1d"/><path d="m123.947 121.68c.008.593.434 1.308.958 1.596.524.289.942.054.935-.539-.008-.593-.433-1.308-.958-1.596-.524-.289-.942-.054-.935.539z" fill="#3b3b3b"/><path d="m124.016 121.718c.007.548.41 1.216.897 1.49.486.274.874.046.866-.502-.008-.547-.41-1.216-.897-1.489-.486-.274-.874-.054-.866.501z" fill="#727272"/><path d="m124.897 121.217c.479.273.874.934.882 1.482 0 .076-.008.152-.023.212l-.631.38c-.068-.022-.137-.045-.213-.091-.479-.266-.874-.919-.889-1.459z" fill="#a9a9a9"/><path d="m125.376 121.657c.174.228.304.502.364.76l-1.056.624c-.205-.175-.388-.419-.509-.677z" fill="#e9eae7"/><path d="m125.376 121.657c.174.228.304.502.364.76l-1.056.624c-.205-.175-.388-.419-.509-.677z" fill="#e9eae7"/><path d="m124.175 121.741c.007.471.349 1.049.767 1.285.418.235.753.038.753-.434-.008-.471-.35-1.048-.768-1.284-.418-.228-.752-.038-.752.433z" fill="#4d4d4d"/><path d="m124.419 121.726c.007.372.281.828.608 1.018.334.183.6.031.592-.342-.007-.372-.281-.828-.608-1.018-.326-.19-.6-.03-.592.342z" fill="#949494"/><path d="m124.7 122.03c0 .167.121.365.266.448.144.084.266.015.258-.152 0-.167-.122-.365-.266-.448-.144-.084-.266-.015-.258.152z" fill="#c4c4c4"/><path d="m124.775 122.129c0 .091.069.197.145.243.076.045.144.007.144-.084s-.068-.197-.144-.243c-.084-.046-.145-.008-.145.084z" fill="#4d4d4d"/><path d="m125.809 123.717.547-.326c.008 0 .008-.008.016-.008l.015-.008c.213-.136.334-.403.334-.783-.007-.79-.585-1.748-1.284-2.135-.35-.198-.661-.213-.882-.084l.061-.038c.228-.129.54-.106.882.084.699.395 1.276 1.353 1.284 2.135.008.38-.122.647-.334.783l-.016.008c-.007 0-.007.008-.015.008z" fill="#000"/><path d="m125.809 123.717.266-.159c.008 0 .008-.008.015-.008l.016-.008c.212-.136.334-.403.334-.783-.008-.79-.585-1.748-1.284-2.135-.35-.198-.662-.213-.882-.084l.061-.038c.228-.129.539-.106.881.084.7.395 1.277 1.353 1.285 2.135.007.38-.122.646-.335.783l-.015.008c-.007 0-.007.008-.015.008z" fill="#000"/><path d="m125.795 111.488-.768 18.796 9.295-5.465.775-18.72z" fill="#003bab"/><path d="m133.387 125.374-.516.312.775-18.72.517-.312z" fill="#002987"/><path d="m127.185 110.735.517-.304-.775 18.72-.517.304z" fill="#002987"/><path d="m120.535 126.689c-.015-1.011-.752-2.242-1.649-2.751-.289-.16-.562-.221-.798-.205l-.205-16.683 7.912 4.438-.768 18.796-4.788-2.698c.19-.198.304-.502.296-.897z" fill="#0073e8"/><path d="m125.635 112.111c.425 0 .851-.106 1.223-.326l8.718-5.055c.479-.273.54-.912.182-1.284-.053-.053-.433-.593-.509-.639l-.95-.235-8.36 6.415c-.403.25-.502.752-.304 1.124z" fill="#002987"/><path d="m117.411 107.855 7.031 3.945c.372.205.783.311 1.193.311-.198-.372-.099-.874.312-1.117l8.36-6.415-5.753-3.283c-.76-.426-1.695-.426-2.448.023l-8.398 4.552c-.152.092-.578.776-.646.92-.167.365-.046.844.349 1.064z" fill="#0754b1"/><path d="m117.89 107.087 6.651 3.732c.714.403 1.581.395 2.287-.015l8.247-4.781c.524-.304.517-1.056-.008-1.353l-6.642-3.792c-.723-.411-1.604-.403-2.319.015l-8.238 4.834c-.51.312-.502 1.072.022 1.36z" fill="#008dff"/><path d="m119.98 106.175 4.872 2.737c.524.296 1.163.288 1.68-.016l6.042-3.504c.38-.22.38-.775 0-.995l-4.872-2.774c-.524-.304-1.17-.297-1.695.007l-6.034 3.542c-.38.236-.38.783.007 1.003z" fill="#003bab"/><path d="m119.98 105.864 4.872 2.736c.524.296 1.163.289 1.68-.015l6.042-3.504c.38-.22.38-.775 0-.988l-4.872-2.774c-.524-.304-1.17-.297-1.695.007l-6.034 3.542c-.38.228-.38.783.007.996z" fill="#00a2ff"/><path d="m127.224 107.536 3.025-1.778c.258-.152.585-.16.851-.008l.707.418c.19.106.19.388 0 .494l-3.033 1.756c-.258.152-.578.152-.844.007l-.706-.403c-.19-.098-.19-.38 0-.486z" fill="#0069f1"/><path d="m130.248 105.757c.099-.061.213-.091.327-.106l.152.091c.19.106.19.388 0 .494l-3.032 1.756c-.107.061-.228.091-.35.106l-.121-.068c-.19-.107-.198-.388-.008-.494z" fill="#003bab"/><path d="m132.019 114.671-2.873 1.604s-.753 1.375-.768 2.227l1.429-.745.015-.244.334-1.102z" fill="#6b9fff"/><path d="m128.371 118.708.038 3.854.677-2.881.972 1.961-.25-3.785z" fill="#6b9fff"/><path d="m129.275 115.486c-.023.357.183.517.464.357s.524-.57.547-.927c.023-.358-.182-.517-.464-.358-.273.16-.524.578-.547.928z" fill="#6b9fff"/><path d="m132.004 115.44s.046.357.152.471.357.061.357.061-.152.418-.479.646c-.326.228-.433.099-.638.266s-.221.19-.221.19.054-.258-.136-.319-.297-.182-.312-.327c0 0 .76-.311 1.277-.988z" fill="#6b9fff"/><path d="m132.711 116.573c-.015 0-.015 0-.038 0l-2.296 1.292c-.06.045-.106.129-.106.197 0 .061.046.107.084.061l.068-.023.175 3.17 1.398-.791.608-3.595.069-.045c.038-.023.083-.107.106-.175 0-.069-.023-.091-.068-.091zm-1.133 1.048.327-.174-.023.326-.327.175zm-.045.57v-.091l.326-.175-.015.092v.152l-.023.129-.304.175zm-.038.631v-.045l.022-.152.282-.152-.023.197-.023.198-.281.175zm-.023.373.258-.152v.174l-.045.221-.259.152.023-.114zm-.395-1.285.349-.197-.023.326-.326.175zm0 .456.326-.175-.022.084v.289l-.304.152zm-.152 2.508-.221.107v-.281l.221-.13zm0-.456-.244.13v-.373l.244-.152zm0-.547-.259.152v-.372l.259-.152zm0-.524-.282.152v-.373l.282-.175zm0-.548-.304.175v-.349l.304-.175zm0-.501-.327.175v-.282l.327-.197zm.326 2.379-.22.129v-.304l.243-.129zm.046-.76-.023.304-.243.129.023-.198v-.197l.243-.13zm.023-.35v.084l-.266.152v-.388l.289-.152zm-.266-.304v-.198l.023-.174.281-.175v.197l-.015.198zm.524 1.239-.22.137.023-.335.243-.129zm.069-.479-.244.129.023-.304v-.083l.259-.152-.016.19zm.258.304-.22.114.045-.327.243-.136zm.091-.502-.243.13.023-.213.023-.114v-.084l.258-.152zm.107-.699-.023.114-.259.129.023-.22.015-.175.289-.152zm.068-.479-.289.152.023-.06v-.152l.046-.198.281-.152zm.152-.889-.068.304-.282.175v-.137l.023-.152.023-.106.304-.175zm.023-.266-.312.198.023-.327.35-.198z" fill="#6b9fff"/></g></svg>