<svg width="245" height="168" viewBox="0 0 245 168" fill="none" xmlns="http://www.w3.org/2000/svg">
<path opacity="0.7" d="M1.26464 62.8681C1.18298 61.7828 1.10949 60.7139 1.02782 59.6694C-1.32407 29.8615 16.2171 12.5544 40.1526 7.15262C46.9306 5.61857 52.4837 5.30033 59.0004 8.01756C67.3219 11.4855 75.9863 12.1628 84.4548 8.87435C93.7398 5.26769 101.694 -0.387081 111.861 0.0209117C126.332 0.608421 140.01 8.07468 152.815 15.2962C164.092 21.6527 175.019 23.6926 186.664 17.3932C202.997 8.55612 227.561 24.1088 218.545 46.5973C214.903 55.6793 209.113 67.0051 213.801 77.1234C217.843 85.8299 228.549 90.0241 234.274 97.3516C240.578 105.422 245.372 116.234 244.016 127.421C241.035 151.949 211.776 162.076 194.169 164.883C183.716 166.547 171.777 166.066 162.337 160.101C154.358 155.058 148.323 145.992 139.234 143.324C125.817 139.383 114.368 156.127 103.049 161.708C90.457 167.918 75.0554 170.562 64.7331 157.783C56.4362 147.527 56.4443 124.426 42.9536 120.55C35.3181 118.355 27.4295 120.705 20.0635 116.576C3.69004 107.413 2.61208 81.8071 1.26464 62.8681Z" fill="#DEE4FF"/>
<mask id="mask0" mask-type="alpha" maskUnits="userSpaceOnUse" x="0" y="0" width="244" height="168">
<path opacity="0.8" d="M0.447999 62.9618C0.366379 61.8749 0.292924 60.8043 0.211305 59.7583C-2.13933 29.906 15.3925 12.5731 39.3151 7.16328C46.0895 5.62694 51.6396 5.30823 58.1529 8.02951C66.4699 11.5026 75.1297 12.1809 83.5936 8.88757C92.8737 5.27554 100.823 -0.387658 110.985 0.0209429C125.448 0.609327 139.119 8.08671 151.917 15.3189C163.189 21.6849 174.109 23.7279 185.748 17.4191C202.072 8.56886 226.623 24.1447 217.613 46.6668C213.972 55.7622 208.186 67.105 212.87 77.2383C216.911 85.9578 227.611 90.1582 233.332 97.4967C239.633 105.579 244.424 116.407 243.07 127.611C240.09 152.176 210.846 162.317 193.249 165.128C182.802 166.795 170.869 166.313 161.434 160.339C153.46 155.289 147.428 146.21 138.344 143.538C124.934 139.591 113.491 156.36 102.178 161.949C89.5926 168.168 74.1992 170.816 63.8826 158.019C55.59 147.746 55.5982 124.611 42.1147 120.73C34.4833 118.531 26.5988 120.885 19.2368 116.75C2.8721 107.573 1.79472 81.929 0.447999 62.9618Z" fill="#FFAE5E"/>
</mask>
<g mask="url(#mask0)">
<path d="M181.628 35.2025L186.165 30.1331V136.714L147.076 130.01L130.371 127.137L128.851 126.879L127.034 126.567L126.532 126.484L125.195 126.248L120.634 125.473L120.262 125.405L120.186 125.389H120.171L119.859 125.336L119.768 125.321L119.327 125.245L119.282 125.237L118.947 125.176L118.841 125.161C118.841 125.161 118.833 125.154 118.833 125.161L118.742 125.146L118.704 125.138L118.377 125.085L118.316 125.07L118.05 125.024H118.027L117.997 125.017L117.837 124.986L117.746 124.971L117.404 124.918L117.351 124.903L103.473 122.524L117.032 107.369L117.579 106.761L119.008 105.165L119.19 104.967L127.095 96.1352L127.961 95.1624L128.448 94.6227L132.111 90.5261L132.651 89.9257L132.696 89.8725L133.183 89.3328L133.57 88.892L133.928 88.4968L134.057 88.3524L134.102 88.2992L134.498 87.866L136.238 85.9126H136.246L136.785 85.3046L138.374 83.5337L138.549 83.3285L138.602 83.2753L138.761 83.0929L140.532 81.1168L142.721 78.6694L146.453 74.5044L149.699 70.879L149.721 70.8562L149.744 70.8334L153.848 66.2427L158.621 60.9072H158.629L164.17 54.7053L166.085 52.5695L168.95 49.3622L172.371 45.5467L173.663 44.1027L175.905 41.5945L180.655 36.2894L181.628 35.2025Z" fill="#E8ECFF"/>
<path d="M103.472 60.2081V122.524L94.1314 117.135V117.128L88.8643 114.088L88.3627 113.799L86.2953 112.605L77.1976 107.354H77.19L72.3333 104.549L67.165 101.562C67.1574 101.562 67.1574 101.554 67.1574 101.554L66.9902 101.463L66.7926 101.349L66.4962 101.174L66.443 101.144H66.4354L66.215 101.015L66.1466 100.977L65.8502 100.802C65.8502 100.802 65.8502 100.802 65.8426 100.802L65.531 100.62L64.1401 99.814L63.6232 99.5176L62.5592 98.9019L61.0999 98.0659V98.0583L60.0206 97.4426V97.435L58.721 96.6826C58.721 96.6826 58.721 96.6826 58.7134 96.6826L57.6797 96.0898L57.1629 95.7857L56.6688 95.5045L56.4028 95.3449H56.3952L56.228 95.2461L54.2975 94.1365L52.4506 93.0648H52.443L47.3127 90.1006L31.9902 81.2537H31.9826L31.9294 81.2157H31.9142L31.8914 81.2005V81.1929L24.8078 77.1115L15.1553 71.5328V9.2168L23.531 14.0507L24.747 14.7575L30.5766 18.1169L31.1694 18.4665L35.7524 21.1115L36.9837 21.8259H36.9913L38.633 22.776L40.1987 23.6804H40.2063L40.7307 23.9844L41.2856 24.3037L42.4484 24.9801L42.9045 25.2385L44.0141 25.8769V25.8845H44.0217L49.8665 29.2591L51.1737 30.0116V30.0192L52.0554 30.5208L52.1086 30.5512L57.5353 33.6826L61.3431 35.8867L61.6395 36.0539L76.4072 44.5816L80.2606 46.8085L80.5266 46.9606L94.0174 54.751L99.1629 57.7228L99.4517 57.89L103.472 60.2081Z" fill="#6F5F6A"/>
<path d="M186.165 -12.437V74.7628L143.763 99.2514L138.024 102.565L137.963 102.603L137.644 102.786L137.561 102.831C137.561 102.839 137.553 102.839 137.553 102.839L137.279 102.998L136.823 103.264L136.466 103.462L136.421 103.492H136.413L136.398 103.508L136.307 103.561L136.223 103.606L136.139 103.66L135.82 103.842L135.767 103.872L135.683 103.918L135.144 104.23L134.718 104.473L134.65 104.518L134.467 104.617L133.616 105.111L133.601 105.119L131.799 106.16L130.447 106.943L127.9 108.41L124.169 110.576H124.161L124.123 110.591L123.226 111.116L117.967 114.148L103.473 122.524V60.2079L180.761 -12.437H186.165Z" fill="#153E58"/>
<path d="M186.165 -10.3394V15.4109L107.387 61.9028L183.908 -10.0201L186.165 -10.3394Z" fill="#727272"/>
<path d="M186.165 -8.35571V13.1383L185.01 13.8148L183.452 14.742L174.103 20.2599L157.36 30.1253L121.584 51.2545L154.092 20.7083L169.285 6.43473L183.452 -6.88883L184.797 -8.1581L185.01 -8.1885L186.165 -8.35571Z" fill="#00315E"/>
<path d="M180.762 -12.4365L103.473 60.2084L100.395 58.4223L99.4527 57.8903L99.1638 57.7231L94.0183 54.7513L81.5004 47.5157L80.5276 46.9609L80.2616 46.8089L76.4081 44.5819L62.583 36.5939L61.6405 36.0542L61.3441 35.887L57.5363 33.6829L52.1172 30.5515H52.1096L52.0564 30.5211L51.1747 30.0119L49.8674 29.2595V29.2519L44.0227 25.8773H44.0151L43.6807 25.6797L42.9054 25.2388L42.4494 24.9804L41.2865 24.3116V24.304L40.7317 23.9924V23.9848L40.1997 23.6807L38.634 22.7763L36.9923 21.8262H36.9847L35.7534 21.1118L31.1704 18.4668L30.5699 18.1248L24.748 14.7578L23.5319 14.051L15.1562 9.21711V-12.4365H180.762Z" fill="#0094C1"/>
<path d="M103.472 60.2157V122.524L94.1314 117.135V117.128L88.8643 114.088L88.3627 113.799L86.2953 112.605L77.1976 107.354H77.19L72.3333 104.549L67.165 101.562C67.1574 101.562 67.1574 101.554 67.1574 101.554L66.9902 101.463L66.7926 101.349L66.4962 101.174L66.443 101.144H66.4354L66.215 101.015L66.1466 100.977L65.8502 100.802C65.8502 100.802 65.8502 100.802 65.8426 100.802L65.531 100.62L64.1401 99.8215V99.8139L63.6232 99.5175L62.5592 98.9095C62.5592 98.9095 62.5668 98.9095 62.5592 98.9019L61.0999 98.0658V98.0582L60.0206 97.4426V97.435L58.7134 96.6826L57.1629 95.7933V95.7857L56.6688 95.5045L56.3952 95.3449L56.228 95.2537V95.2461L54.2975 94.1364L52.4506 93.0647H52.443L47.3127 90.1082C47.3127 90.1082 47.3127 90.1082 47.3127 90.1006L31.9902 81.2537H31.9826L31.9218 81.2233V81.2157H31.9142L31.8914 81.2005L24.8078 77.1114L15.1553 71.5403V9.22437L24.747 14.7575L30.569 18.1245L31.1694 18.4665L35.7524 21.1114L36.9837 21.8259H36.9913L38.633 22.7759L40.1987 23.6804L40.7307 23.9844V23.992L41.2856 24.3036V24.3112L42.4484 24.9801L42.9045 25.2385L44.0141 25.8845H44.0217L49.8665 29.2591V29.2667L51.1737 30.0192L52.0478 30.5284L52.0934 30.5512L61.3431 35.8867L80.2606 46.8085L94.0174 54.751L99.1629 57.7227L99.4517 57.8899L103.472 60.2157Z" fill="#7FD7FA"/>
<path d="M94.1316 63.2635V91.6359L31.8916 81.2385L40.1989 76.5566L83.0273 83.7466L31.8916 54.2342V27.3286L94.1316 63.2635Z" fill="#D6EDFD"/>
<path d="M40.1989 76.5566L31.8916 81.2385V54.2341L83.0273 83.7466L40.1989 76.5566Z" fill="#F8F8FF"/>
<path d="M94.1316 91.6359V119.522L31.8916 81.2385L94.1316 91.6359Z" fill="#F8F8FF"/>
<path d="M40.1989 32.2004L31.8916 27.4121V81.2308L40.1989 76.5641V32.2004Z" fill="#153E58"/>
<path d="M172.074 -12.437H174.05L100.394 58.4218L99.4519 57.8898L99.1631 57.7226L172.074 -12.437Z" fill="#0083AB"/>
<path d="M143.8 -12.437L81.4996 47.5152L80.5268 46.9604L80.2607 46.8084L141.824 -12.437H143.8Z" fill="#0083AB"/>
<path d="M113.528 -12.437L112.023 -10.9853L110.624 -9.64005L110.586 -9.60965L110.267 -9.29803L109.788 -8.83441L109.773 -8.82681L109.355 -8.42398L108.656 -7.74754H108.648L108.086 -7.20791L107.569 -6.70628L107.432 -6.56948L107.425 -6.56188L107.212 -6.36426L106.855 -6.01465L104.97 -4.19814L103.982 -3.24809L99.9079 0.666136L99.5886 0.977755L97.8025 2.69545L97.3845 3.09828L95.8948 4.53476L95.7884 4.63356L95.1044 5.2948L95.0208 5.37081L93.7515 6.59448L93.2043 7.1189L93.0979 7.22531L92.5278 7.77254L92.3302 7.96255L91.821 8.45658L91.8134 8.46418L91.0838 9.16342L90.7189 9.51304V9.52064L89.6929 10.4935L89.6473 10.5467L88.834 11.3219L88.5832 11.5728L88.1348 12.006L87.5724 12.538L87.4279 12.6824L87.0935 13.0016L86.7895 13.2981L85.9155 14.1341V14.1417L85.4898 14.5445L84.9578 15.0538L83.7037 16.2622L83.3845 16.5738L83.2021 16.7487L82.4117 17.5087L82.2901 17.6303L82.1608 17.7519H82.1532L81.0968 18.778L62.5821 36.5934L61.6397 36.0538L61.3433 35.8866L80.9296 17.0375L80.9448 17.0223L81.0056 16.9691L81.4844 16.5054L81.7048 16.285L81.9708 16.0342L83.1185 14.9322L83.4605 14.6053L83.7265 14.3469L85.315 12.8116L85.7711 12.3784L85.8623 12.2948L86.3487 11.8236L86.4779 11.6944L86.8883 11.3067L86.9035 11.2915L87.808 10.4175L88.112 10.1211L88.1196 10.1135L89.5181 8.7758L90.1793 8.13736L90.6505 7.68134L91.2966 7.0581L91.555 6.81489L91.8894 6.48807L92.9003 5.51521L93.2651 5.16559L94.4659 4.01033L94.5572 3.91912L94.6256 3.85832L95.3096 3.19708L95.5528 2.96907L95.7656 2.76386L96.5105 2.04181L96.9513 1.61619L98.821 -0.177512L99.1554 -0.496731L102.994 -4.19814L104.681 -5.81703L106.049 -7.13951L106.079 -7.16231L106.338 -7.41312L106.581 -7.64874L106.642 -7.70954L106.976 -8.02876L106.999 -8.05156L107.098 -8.14277L107.409 -8.44678L108.565 -9.55645L109.104 -10.0733L109.872 -10.8105L109.88 -10.8181L109.94 -10.8865L109.956 -10.8941L111.035 -11.9354L111.118 -12.019L111.134 -12.0266L111.559 -12.437H113.528Z" fill="#0083AB"/>
<path d="M83.2859 -12.437L82.2598 -11.449L81.7506 -10.9549L80.6485 -9.89847L78.5812 -7.90715L72.7593 -2.30563L69.4531 0.878948L68.1914 2.08742L66.0557 4.13953L63.7679 6.35126L58.8277 11.1015L55.5443 14.2633L54.4422 15.3198L53.933 15.8138L52.8309 16.8703L52.5193 17.1743L50.8396 18.7856L50.7636 18.8616L49.8668 19.728L43.68 25.6792L42.9048 25.2383L42.4487 24.9799L47.617 20.0092L50.7636 16.9767L52.8309 14.9854L53.9254 13.9365L53.933 13.9289L54.4422 13.4349L55.5443 12.3784L58.8657 9.18622L64.4672 3.78992L64.832 3.44029L66.9677 1.38818L67.8722 0.514129L68.7842 -0.367522L72.6453 -4.08414L72.7517 -4.17534L73.1393 -4.54776L73.1925 -4.60096L73.9145 -5.3002L78.5812 -9.79206L80.6485 -11.7834L81.3326 -12.437H83.2859Z" fill="#0083AB"/>
<path d="M53.0133 -12.437L52.9601 -12.3914L51.9949 -11.4566L51.5541 -11.0309L50.5888 -10.1037L48.7723 -8.35558L43.2696 -3.05808L41.5443 -1.40118L40.389 -0.291519L39.8114 0.263312L39.2261 0.825745L35.8592 4.06353L35.5475 4.36755L24.7473 14.7573L23.5312 14.0505L34.3315 3.66071L36.49 1.57819L39.2261 -1.05156L39.8114 -1.61399L40.0622 -1.85721L40.389 -2.16883L40.7234 -2.49564L41.2099 -2.96687L48.1567 -9.64765L49.9732 -11.3958L50.794 -12.1786L50.8016 -12.1938L50.9232 -12.3078L51.0524 -12.437H53.0133Z" fill="#0083AB"/>
<path d="M81.2568 -12.437L80.6488 -11.8518L78.5815 -9.86807L73.968 -5.44461L73.5956 -5.08739L72.3263 -3.87132L68.8681 -0.549933L67.8725 0.40012L66.892 1.34257L64.7563 3.39469L64.3991 3.73671L60.8877 7.1037L55.5446 4.01793L54.4425 3.38709L53.9333 3.09067L52.8312 2.45224L50.7639 1.26657L46.044 -1.46199L43.2699 -3.05808L43.1938 -3.10368L48.7346 -8.43918L50.5511 -10.1797L51.5163 -11.1145L51.9571 -11.5402L52.892 -12.437H81.2568Z" fill="#B9B9B9"/>
<path d="M78.4136 -12.437L73.9065 -8.11237L71.1552 -5.47501L68.8294 -3.24049L65.1204 0.316516L64.9836 0.445724L64.3528 1.05376L64.1019 1.29697L63.0759 2.28503L62.9847 2.36863L60.5829 4.67156L59.7013 4.16233L55.5439 1.7606L54.4418 1.12976L53.9326 0.833344L52.8305 0.194909L50.7632 -0.998359L48.0042 -2.58685L46.4233 -3.4989L48.8251 -5.80943L49.6231 -6.57708L50.9532 -7.86155L51.432 -8.31758L52.3973 -9.25243L52.8381 -9.67805L53.8034 -10.6053L54.3734 -11.1525L55.7111 -12.437H78.4136Z" fill="#153E58"/>
<path d="M68.8296 -3.24049L65.1205 0.316516L64.9837 0.445724L64.3529 1.05376L64.1021 1.29697L63.076 2.28503L62.9848 2.36863L60.5831 4.67156L59.7014 4.16233L58.0977 -0.458729L56.6689 -4.56296L55.7872 -7.08631L54.3735 -11.1525L55.7112 -12.437H65.6298L66.5114 -9.89847L66.5418 -9.81486L66.6102 -9.62485L67.3627 -7.45873L68.8296 -3.24049Z" fill="#5A7789"/>
<path d="M141.779 -12.437L128.235 0.559731L128.22 0.567332L98.6691 28.9245L81.0969 18.778L80.9829 18.7096L82.047 17.6911V17.6835L82.199 17.5391L82.3358 17.4099L83.0882 16.6803L83.3466 16.437L83.6735 16.1254L84.8439 14.993L85.4596 14.4001L85.8852 13.9897L86.7288 13.1841L86.9797 12.9408L87.3521 12.576L87.6257 12.3176L88.0209 11.9376L88.5377 11.4436L88.7278 11.2611L89.465 10.5467L89.6094 10.4099L90.7647 9.29263L90.9471 9.11782L91.8515 8.25137L91.9199 8.18297L92.1783 7.93215L92.414 7.70414L93.0372 7.11131L93.2196 6.93649L93.3564 6.79969L93.3716 6.79209L93.8428 6.32846L94.8233 5.39361L95.0893 5.13519L95.6746 4.56516L95.857 4.39035L97.3162 2.99187L97.7343 2.58145L99.5356 0.856148L99.8548 0.54453L103.868 -3.31649L104.939 -4.35015L106.741 -6.07545L106.969 -6.30346H106.976V-6.31106L107.106 -6.43267L107.455 -6.76709L108.116 -7.40552L108.139 -7.42072V-7.42833L108.154 -7.43593L108.2 -7.48153L109.105 -8.35558L109.333 -8.57599L110.161 -9.37404L111.559 -10.7269L113.346 -12.437H141.779Z" fill="#B9B9B9"/>
<path d="M138.951 -12.437L136.876 -10.4457L127.93 -1.86481L126.456 -0.451127L111.027 14.3469L102.256 22.7606L98.3798 26.4848L87.7012 20.3285L86.5155 19.6444L85.9075 19.2948L85.2691 18.9224L84.2202 18.3219L84.4938 18.0559L86.3103 16.3078L86.66 15.9734L86.7436 15.8898L87.5492 15.1146L88.2256 14.4609L89.1681 13.5489L89.2365 13.4881L89.5557 13.184L89.5633 13.1765L89.7837 12.956L89.9357 12.8192L90.521 12.2492L91.1138 11.6792L93.0139 9.84746L93.6828 9.20142L94.1768 8.7226L94.6632 8.25897L94.6708 8.24377L94.7164 8.21337L95.1116 7.82575L95.8185 7.14171L96.5785 6.41206L105.349 -2.00922L105.646 -2.29043L105.707 -2.35124L106.011 -2.64765L108.519 -5.05699L109.233 -5.74863L112.251 -8.652L112.486 -8.88001L113.664 -10.0125L113.824 -10.1721L115.526 -11.8062L115.792 -12.0646L116.18 -12.437H138.951Z" fill="#153E58"/>
<path d="M111.028 14.3471L102.257 22.7608L96.5791 6.41225L105.35 -2.00903L111.028 14.3471Z" fill="#5A7789"/>
<path d="M128.235 0.575018L110.549 -9.63237L113.787 -10.0276L127.946 -1.85712L128.235 0.575018Z" fill="#B9B9B9"/>
<path d="M185.01 -8.40112H183.452V15.9127H185.01V-8.40112Z" fill="#727272"/>
<path d="M118.408 77.2938C118.324 77.1646 118.187 77.0506 118.081 76.967C117.952 76.8986 117.822 76.8606 117.67 76.8606C117.974 76.5338 118.256 76.1614 118.499 75.7889C118.734 75.4165 118.932 75.0213 119.107 74.6337C119.282 74.2385 119.388 73.8432 119.479 73.4328C119.563 73.0376 119.608 72.6272 119.608 72.2319C119.608 71.7075 119.54 71.2743 119.388 70.9019C119.259 70.5294 119.038 70.271 118.734 70.1342C118.43 69.9822 118.035 69.9594 117.556 70.0506C117.055 70.1342 116.485 70.4002 115.793 70.7879L112.715 72.5816V84.8867L114.896 83.625V79.0647L115.443 78.7379C115.618 78.6467 115.747 78.6011 115.831 78.6011C115.922 78.6239 116.006 78.6923 116.074 78.7987L117.648 81.4817C117.822 81.7477 118.081 81.7705 118.43 81.5729L120.414 80.4176L118.408 77.2938ZM117.336 74.5197C117.275 74.7857 117.161 75.0441 117.032 75.2873C116.903 75.5457 116.751 75.7889 116.53 76.0094C116.317 76.2222 116.074 76.397 115.77 76.5718L114.896 77.0962V73.4556L115.77 72.9312C116.333 72.6044 116.751 72.5132 117.009 72.6652C117.298 72.8248 117.427 73.1668 117.427 73.6912C117.427 73.98 117.382 74.2385 117.336 74.5197Z" fill="#B6B8B5"/>
<path d="M127.247 66.3415V64.1602L121.205 67.6716V79.9767L127.247 76.4653V74.2611L123.386 76.5109V73.5847L126.35 71.8594V69.7237L123.386 71.449V68.5912L127.247 66.3415Z" fill="#B6B8B5"/>
<path d="M135.038 68.9333C134.992 68.9181 134.946 68.8953 134.886 68.8953C134.84 68.8953 134.794 68.9181 134.734 68.9561C134.665 68.9789 134.62 69.0474 134.559 69.1082C134.49 69.1994 134.43 69.2678 134.384 69.3514C134.255 69.5718 134.118 69.7694 134.011 69.9442C133.882 70.1114 133.753 70.271 133.593 70.4002C133.464 70.5522 133.312 70.6814 133.137 70.7878C132.985 70.9247 132.788 71.0311 132.59 71.1603C132.263 71.3579 131.937 71.4491 131.633 71.4491C131.329 71.4491 131.063 71.3351 130.85 71.1375C130.606 70.9475 130.432 70.6358 130.302 70.2254C130.173 69.8074 130.105 69.283 130.105 68.6521C130.105 68.0213 130.173 67.4285 130.28 66.8888C130.409 66.3188 130.561 65.8172 130.781 65.3611C131.002 64.8975 131.26 64.4871 131.564 64.1375C131.876 63.7879 132.203 63.5218 132.552 63.309C132.788 63.1722 132.985 63.0886 133.16 63.0202C133.312 62.9822 133.464 62.9594 133.593 62.9366C133.73 62.9366 133.837 62.9366 133.92 62.9594C134.011 62.9822 134.095 63.005 134.186 63.0202C134.255 63.043 134.338 63.043 134.407 63.0658C134.468 63.0658 134.559 63.043 134.62 63.005C134.734 62.9366 134.817 62.8454 134.886 62.739C134.946 62.6554 135.015 62.5414 135.06 62.435L135.798 60.7097C135.623 60.5805 135.41 60.4665 135.19 60.4057C134.946 60.3373 134.711 60.3145 134.445 60.3145C134.163 60.3373 133.882 60.3829 133.578 60.4893C133.244 60.6033 132.917 60.7553 132.567 60.9529C131.876 61.3405 131.237 61.8649 130.675 62.5186C130.082 63.157 129.603 63.8715 129.185 64.6619C128.775 65.4675 128.448 66.3188 128.205 67.2156C127.992 68.1277 127.878 69.0245 127.878 69.9442C127.878 70.8335 127.992 71.6239 128.182 72.2775C128.402 72.9084 128.706 73.41 129.102 73.7368C129.497 74.0636 129.976 74.2384 130.538 74.2156C131.108 74.2156 131.739 74.0028 132.461 73.5848C133.244 73.1288 133.905 72.5816 134.49 71.9279C135.06 71.2743 135.516 70.5066 135.912 69.6326L135.038 68.9333Z" fill="#B6B8B5"/>
<path d="M142.851 55.1459C142.737 55.1915 142.653 55.2523 142.585 55.3435C142.524 55.4043 142.433 55.4955 142.387 55.6019C142.326 55.6931 142.281 55.7767 142.235 55.8907C142.197 55.9743 142.151 56.0807 142.129 56.1719L140.821 60.5118C140.692 60.8614 140.601 61.1654 140.517 61.4771C140.426 61.7583 140.342 62.0395 140.297 62.3283C140.206 62.1307 140.145 61.9331 140.054 61.7355C139.97 61.5379 139.856 61.3402 139.75 61.1274L138.42 58.3077C138.351 58.1785 138.268 58.0721 138.154 58.0265C138.047 57.9809 137.895 58.0037 137.698 58.1101L135.782 59.2273L139.18 64.8744V69.5715L141.369 68.3022V63.6128L144.766 54.0134L142.851 55.1459Z" fill="#B6B8B5"/>
<path d="M151.553 59.3796C151.515 59.3568 151.47 59.334 151.401 59.334C151.363 59.334 151.318 59.3568 151.249 59.4024C151.189 59.4252 151.143 59.486 151.075 59.5544C151.014 59.638 150.945 59.7065 150.9 59.7901C150.771 60.0105 150.641 60.2081 150.527 60.3829C150.398 60.5577 150.269 60.7097 150.117 60.8389C149.988 60.9909 149.836 61.1277 149.661 61.2341C149.501 61.3633 149.311 61.4774 149.114 61.6066C148.787 61.8042 148.46 61.8878 148.148 61.8878C147.844 61.8878 147.586 61.7814 147.366 61.5838C147.13 61.3861 146.955 61.0821 146.818 60.6641C146.689 60.2537 146.621 59.7293 146.621 59.0984C146.621 58.46 146.689 57.8747 146.795 57.3275C146.932 56.7575 147.084 56.2559 147.297 55.7998C147.518 55.3438 147.784 54.9258 148.088 54.5762C148.392 54.2265 148.718 53.9681 149.068 53.7477C149.311 53.6185 149.501 53.5273 149.676 53.4665C149.836 53.4209 149.988 53.3981 150.117 53.3753C150.246 53.3753 150.353 53.3753 150.444 53.3981C150.527 53.4209 150.619 53.4437 150.702 53.4665C150.771 53.4893 150.854 53.4893 150.923 53.5121C150.991 53.5121 151.075 53.4893 151.143 53.4437C151.249 53.3753 151.341 53.2917 151.401 53.1853C151.47 53.0941 151.531 52.9877 151.576 52.8737L152.321 51.156C152.146 51.0192 151.926 50.9128 151.705 50.8443C151.47 50.7835 151.227 50.7607 150.968 50.7607C150.687 50.7835 150.398 50.8215 150.094 50.9355C149.767 51.042 149.44 51.194 149.091 51.3916C148.392 51.7868 147.761 52.3112 147.191 52.9649C146.605 53.5957 146.119 54.3177 145.709 55.1006C145.291 55.9062 144.964 56.7575 144.728 57.6543C144.508 58.574 144.401 59.4632 144.401 60.3829C144.401 61.2797 144.485 62.0626 144.705 62.7162C144.926 63.3471 145.23 63.8487 145.617 64.1831C146.013 64.5099 146.491 64.6847 147.062 64.6619C147.632 64.6619 148.262 64.4415 148.984 64.0235C149.744 63.5675 150.421 63.0202 151.014 62.3666C151.576 61.713 152.04 60.9529 152.427 60.0789L151.553 59.3796Z" fill="#B6B8B5"/>
<path d="M155.551 57.8291V47.7661L153.37 49.0354V61.3405L159.04 58.0723V55.7998L155.551 57.8291Z" fill="#B6B8B5"/>
<path d="M160.157 45.1289V57.434L162.338 56.1723V43.8672L160.157 45.1289Z" fill="#B6B8B5"/>
<path d="M170.455 39.1473V45.676C170.455 45.8736 170.455 46.0713 170.478 46.2841C170.478 46.5045 170.493 46.7249 170.493 46.9605L166.024 42.1646C165.978 42.0962 165.918 42.0506 165.872 42.0126C165.826 41.9898 165.781 41.967 165.72 41.967C165.674 41.967 165.606 41.9898 165.568 42.0126C165.5 42.0278 165.408 42.0734 165.325 42.1418L164.169 42.7955V55.1006L166.085 53.9909V47.4013C166.085 47.2265 166.085 47.0289 166.07 46.8313C166.07 46.6337 166.047 46.4361 166.024 46.2233L168.95 49.3622L170.478 50.9811C170.584 51.0875 170.691 51.1559 170.827 51.1559C170.934 51.1559 171.063 51.1103 171.238 51.0191L172.37 50.3427V38.0376L170.455 39.1473Z" fill="#B6B8B5"/>
<path d="M178.724 41.9213C178.724 42.0733 178.77 42.1645 178.854 42.2253C178.922 42.2709 179.028 42.2709 179.158 42.1873L180.077 41.6629V43.4718C179.88 43.7074 179.682 43.905 179.462 44.1026C179.249 44.2774 179.028 44.4522 178.77 44.6042C178.329 44.8474 177.934 44.9766 177.592 44.9994C177.242 45.0222 176.931 44.931 176.672 44.7334C176.429 44.5434 176.239 44.2166 176.079 43.7986C175.95 43.3653 175.889 42.8409 175.889 42.1873C175.889 41.9669 175.889 41.7921 175.905 41.5944V41.5716C175.927 41.1764 175.996 40.8116 176.079 40.462C176.193 39.892 176.391 39.3903 176.604 38.9115C176.847 38.4327 177.128 37.9918 177.455 37.6042C177.782 37.2318 178.154 36.9278 178.572 36.6846C178.785 36.5554 178.983 36.4642 179.158 36.3806C179.332 36.3122 179.484 36.2665 179.659 36.2285C179.811 36.2057 179.963 36.2057 180.123 36.2057C180.275 36.2285 180.427 36.2513 180.602 36.2893C180.624 36.2893 180.624 36.2893 180.647 36.2893H180.655C180.784 36.3121 180.883 36.2893 180.989 36.2057C181.035 36.1829 181.08 36.1601 181.103 36.1373C181.278 36.0081 181.407 35.8105 181.491 35.5521L181.628 35.2025L182.129 33.9104C181.955 33.7812 181.734 33.6976 181.491 33.6292C181.232 33.5836 180.974 33.5608 180.685 33.5608C180.404 33.5836 180.077 33.652 179.75 33.7812C179.401 33.8876 179.028 34.0624 178.633 34.2828C177.896 34.7237 177.197 35.2861 176.581 35.9397C175.973 36.6162 175.426 37.3382 175.015 38.1439C174.574 38.9723 174.225 39.8236 174.012 40.7204C173.769 41.6401 173.64 42.5521 173.64 43.4718C173.64 43.6922 173.64 43.8822 173.662 44.1026C173.7 44.7334 173.837 45.2807 174.012 45.7595C174.27 46.3751 174.62 46.8311 175.076 47.1352C175.517 47.4392 176.064 47.5532 176.718 47.5076C177.349 47.4392 178.048 47.2036 178.831 46.7475C179.424 46.4131 179.986 45.9799 180.533 45.4555C181.08 44.931 181.605 44.3002 182.084 43.5554V38.3643L178.724 40.31V41.9213Z" fill="#B6B8B5"/>
<path d="M119.35 92.6543C119.304 92.6315 119.259 92.6163 119.198 92.6163C119.152 92.6163 119.107 92.6315 119.038 92.6771C119 92.6999 118.932 92.7683 118.864 92.8291C118.803 92.9203 118.757 92.9811 118.689 93.0723C118.56 93.2927 118.43 93.4827 118.324 93.6575C118.187 93.8324 118.058 93.9844 117.906 94.1212C117.777 94.2732 117.625 94.4024 117.45 94.5088C117.298 94.6456 117.123 94.752 116.925 94.8812C116.576 95.0788 116.249 95.17 115.945 95.17C115.641 95.17 115.375 95.056 115.155 94.8584C114.942 94.6608 114.744 94.334 114.615 93.9464C114.478 93.5283 114.417 93.0039 114.417 92.3731C114.417 91.7422 114.478 91.1494 114.592 90.6022C114.721 90.0397 114.873 89.5381 115.094 89.0745C115.307 88.6185 115.573 88.208 115.877 87.8584C116.181 87.5088 116.507 87.2428 116.857 87.03C117.1 86.8932 117.298 86.8096 117.473 86.7412C117.648 86.7032 117.777 86.6804 117.906 86.6576C118.035 86.6576 118.149 86.6576 118.233 86.6804C118.324 86.7032 118.408 86.7184 118.499 86.7412C118.56 86.764 118.651 86.764 118.712 86.7868C118.78 86.7868 118.864 86.764 118.932 86.7184C119.038 86.6576 119.13 86.5663 119.198 86.4599C119.259 86.3687 119.327 86.2623 119.365 86.1559L120.11 84.4306C119.935 84.3014 119.738 84.1874 119.502 84.1266C119.282 84.0582 119.023 84.0354 118.757 84.0354C118.476 84.0582 118.187 84.1038 117.883 84.2102C117.556 84.3242 117.23 84.4762 116.88 84.6738C116.181 85.0615 115.55 85.5859 114.98 86.2395C114.395 86.8704 113.916 87.5924 113.498 88.3828C113.087 89.1885 112.76 90.0397 112.54 90.9366C112.297 91.8486 112.19 92.7455 112.19 93.6575C112.19 94.5772 112.297 95.3372 112.494 95.9985C112.715 96.6293 113.019 97.1309 113.414 97.4578C113.802 97.7846 114.288 97.9594 114.851 97.9366C115.421 97.9366 116.051 97.7162 116.773 97.3058C117.556 96.8497 118.233 96.3025 118.803 95.6489C119.365 94.9952 119.852 94.2276 120.216 93.3535L119.35 92.6543Z" fill="#B6B8B5"/>
<path d="M127.224 81.0026V78.8213L121.182 82.3099V94.6226L126.89 91.3164L127.224 91.1264V88.9223L126.806 89.1655L123.341 91.172V88.2306L125.879 86.7637L126.328 86.5053V84.3848L123.341 86.0873V83.2523L127.224 81.0026Z" fill="#B6B8B5"/>
<path d="M134.863 74.3904V81.5272C134.87 81.6108 134.878 81.6944 134.878 81.778C134.885 81.9149 134.893 82.0517 134.908 82.2037L134.551 81.8236L134.331 81.5804L134.133 81.3752L133.836 81.056L130.432 77.4002C130.386 77.3394 130.325 77.2938 130.28 77.2482C130.234 77.2254 130.173 77.2102 130.127 77.2102C130.082 77.2102 130.021 77.2254 129.953 77.2482C129.884 77.271 129.823 77.3166 129.709 77.385L128.554 78.0386V90.3437L130.188 89.4165L130.5 89.2341V82.6445C130.5 82.4469 130.477 82.2721 130.477 82.0745C130.454 81.8769 130.454 81.6564 130.432 81.4588L131.328 82.4165L131.541 82.6445L131.845 82.9713L132.035 83.1689L134.885 86.2167C134.992 86.3307 135.106 86.3915 135.212 86.3915C135.341 86.3915 135.471 86.3535 135.645 86.2623L136.238 85.9127H136.246L136.785 85.5859V73.2808L134.863 74.3904Z" fill="#B6B8B5"/>
<path d="M137.873 72.6498V74.9148L140.533 73.3643V83.4273L142.722 82.158V72.1254L145.359 70.5749V68.3252L137.873 72.6498Z" fill="#B6B8B5"/>
<path d="M152.518 66.387V64.1829L146.453 67.6943V79.9994L152.518 76.488V74.3066L148.634 76.5336V73.6074L151.621 71.8821V69.7464L149.744 70.8332L149.721 70.856L149.699 70.8788H149.676L148.634 71.4641V68.6063L152.518 66.387Z" fill="#B6B8B5"/>
<path d="M159.564 68.1275C159.458 67.9983 159.344 67.8919 159.215 67.8007C159.108 67.7398 158.956 67.6942 158.819 67.6942C159.131 67.3674 159.389 66.995 159.655 66.6226C159.891 66.2502 160.089 65.8625 160.241 65.4673C160.415 65.0721 160.545 64.6845 160.636 64.2664C160.697 63.8712 160.742 63.4608 160.742 63.0656C160.742 62.5411 160.674 62.1079 160.545 61.7355C160.393 61.3631 160.172 61.1047 159.868 60.9755C159.564 60.8159 159.169 60.8007 158.69 60.8843C158.667 60.8843 158.645 60.8843 158.629 60.9071H158.622C158.158 60.9907 157.603 61.2567 156.95 61.6291L153.849 63.4152V75.7203L156.03 74.4586V69.8984L156.6 69.5716C156.752 69.4803 156.881 69.4347 156.988 69.4347C157.079 69.4575 157.162 69.526 157.231 69.6324L158.804 72.3153C158.956 72.5813 159.215 72.6041 159.587 72.4065L161.548 71.2512L159.564 68.1275ZM158.47 65.3609C158.409 65.6193 158.318 65.8853 158.188 66.121C158.059 66.387 157.884 66.6226 157.687 66.843C157.466 67.0634 157.208 67.2382 156.927 67.4054L156.03 67.9299V64.2892L156.927 63.7648C157.489 63.438 157.907 63.3468 158.166 63.5064C158.432 63.6584 158.561 64.008 158.561 64.5477C158.561 64.8137 158.538 65.0721 158.47 65.3609Z" fill="#B6B8B5"/>
<path d="M174.103 20.26L157.359 30.1254L154.091 20.7084L169.285 6.43481L174.103 20.26Z" fill="#2B5479"/>
<path d="M155.915 113.039L162.976 109.155L142.121 105.735L136.169 110.25L155.338 113.366L155.915 113.039Z" fill="#BDC7FA"/>
<path d="M79.1357 99.5861C79.1357 99.5861 79.5841 99.9889 79.5385 100.521C79.4929 101.053 79.5385 101.418 79.5385 101.418L78.0032 102.208H77.3192C77.3192 102.208 76.2323 103.592 74.6362 103.569C73.0401 103.546 72.0977 103.059 72.8425 102.056C73.5874 101.053 75.1835 100.46 75.1835 100.46L75.6547 98.9705L79.1357 99.5861Z" fill="#1B1B1B"/>
<path d="M75.1983 100.453C75.1983 100.453 73.6022 101.053 72.8574 102.049C72.6522 102.33 72.5686 102.565 72.6066 102.771C72.6066 102.771 74.3015 103.576 75.6619 102.543C77.0224 101.509 77.03 100.354 77.03 100.354L75.6239 99.092L75.1983 100.453Z" fill="#2A2A2A"/>
<path d="M79.2419 82.4697V99.6999C79.2419 100.004 79.1203 100.278 78.9227 100.475C78.7251 100.673 78.4515 100.794 78.1474 100.794H76.635C75.7077 100.794 74.9401 100.05 74.9173 99.1223V99.1071L74.8489 96.3025L74.8261 95.4133L74.8033 94.524L74.7805 93.6272L74.5068 82.4697H79.2419Z" fill="#FE9500"/>
<path d="M74.5146 82.4697L74.5527 83.9366L76.696 83.891L77.038 100.794H78.1477C78.4517 100.794 78.7253 100.673 78.9229 100.475C79.1205 100.278 79.2421 100.004 79.2421 99.6999V82.4697H74.5146Z" fill="#FD8700"/>
<path d="M79.2037 96.4546V97.2526C76.916 98.5903 75.3275 97.3895 74.8563 96.3026L74.8335 95.4133C75.4263 96.7054 77.0604 97.9975 79.2037 96.4546Z" fill="#9FD8C9"/>
<path d="M74.7881 93.6272C75.3809 94.9421 77.0378 96.2873 79.2191 94.7141V95.5197C76.8782 96.8802 75.2669 95.6337 74.8033 94.524L74.7881 93.6272Z" fill="#9FD8C9"/>
<path d="M82.0771 101.25C82.0771 101.25 82.5255 101.653 82.4799 102.185C82.4343 102.717 82.4799 103.082 82.4799 103.082L80.9446 103.873H80.2606C80.2606 103.873 79.1737 105.256 77.5776 105.233C75.9815 105.21 75.0391 104.724 75.7839 103.721C76.5288 102.717 78.1249 102.124 78.1249 102.124L78.5961 100.635L82.0771 101.25Z" fill="#1B1B1B"/>
<path d="M78.1321 102.124C78.1321 102.124 76.536 102.725 75.7911 103.72C75.6163 103.964 75.5327 104.169 75.5327 104.351C75.5403 104.367 75.5479 104.374 75.5555 104.389C75.5555 104.389 77.2504 105.195 78.6109 104.161C79.9714 103.128 79.979 101.972 79.979 101.972L78.5729 100.703L78.1321 102.124Z" fill="#343434"/>
<path d="M82.1833 84.1418V101.372C82.1833 101.676 82.0921 101.972 81.7653 102.193C81.4461 102.413 80.8912 102.558 79.9716 102.558C78.8543 102.558 77.8815 101.737 77.8587 100.802V100.787L77.7903 98.1114L77.7675 97.2982L77.7371 95.9605L77.7143 95.1473L77.4482 84.1494H82.1833V84.1418Z" fill="#FE9500"/>
<path d="M77.4561 84.1419L77.4789 84.9703H80.8078V102.201C80.8078 102.307 80.7926 102.406 80.7698 102.505C81.2335 102.444 81.5603 102.33 81.7731 102.185C82.0999 101.965 82.1911 101.668 82.1911 101.364V84.1343H77.4561V84.1419Z" fill="#FD8700"/>
<path d="M67.5223 80.7444C67.5223 80.7444 66.7394 81.398 66.4582 81.6792C66.1694 81.9605 65.3105 82.3405 65.493 82.5609C65.6754 82.7813 66.6862 82.1125 66.6862 82.1125L65.9186 83.8834C65.9186 83.8834 65.797 84.0886 66.0174 84.1646C66.2378 84.2406 66.2378 84.2406 66.2378 84.2406C66.2378 84.2406 65.9946 84.6738 66.7698 84.5598C67.5451 84.4458 67.4083 84.4306 67.6135 84.1038C67.8187 83.777 68.1075 83.4729 68.4267 82.6597C68.7459 81.8465 68.9207 81.2536 68.9207 81.2536L67.5223 80.7444Z" fill="#FF7E17"/>
<path d="M73.7619 67.8466C72.6979 68.2722 71.649 68.827 70.6381 69.3819C70.4557 71.3352 70.2201 73.3189 70.2201 73.3189L66.7695 80.6001L69.3613 82.0898L73.1007 74.4209L73.8303 67.8162C73.7999 67.8314 73.7771 67.839 73.7619 67.8466Z" fill="#FE9500"/>
<path d="M73.7622 67.8463C73.3897 67.9983 73.0173 68.1655 72.6525 68.3403L72.0369 73.9038L68.3354 81.5043L69.3615 82.0971L73.1009 74.4283L73.8306 67.8235C73.8002 67.8311 73.7774 67.8387 73.7622 67.8463Z" fill="#FE7F00"/>
<path d="M72.2726 76.1081L69.5516 74.7324L69.126 75.6293L71.8393 76.9973L72.2726 76.1081Z" fill="#9FD8C9"/>
<path d="M79.2803 67.9833L82.7233 86.4144L81.5148 87.2656L81.6744 87.03C79.6299 87.6457 77.669 87.4936 75.6321 86.3536C75.6321 86.3536 74.2868 85.8368 73.3291 84.3775L70.6538 70.0659C70.5702 69.6022 70.6386 69.1234 70.8514 68.7054C70.9958 68.4318 71.1934 68.1961 71.429 68.0061C71.6646 67.8161 71.9459 67.6869 72.2423 67.6109C72.2803 67.6033 72.3107 67.5957 72.3487 67.5881C72.4855 67.5577 72.6223 67.5273 72.7591 67.5045C72.9263 67.4741 73.1011 67.4437 73.2683 67.4209C74.492 67.2537 75.7461 67.2841 76.9621 67.5273L79.2803 67.9833Z" fill="#FFA500"/>
<path d="M76.9699 67.5272C75.579 67.2536 74.1501 67.246 72.7593 67.5044C72.5845 67.5348 72.4172 67.5728 72.2424 67.6108C71.9384 67.6792 71.6648 67.8161 71.4292 68.0061C71.2772 68.1277 71.1404 68.2645 71.0264 68.4241C71.0644 68.4165 71.1024 68.4089 71.1404 68.4013C72.5313 68.1429 73.9601 68.1505 75.351 68.4241L77.6615 68.8801L81.0817 87.1896C81.2793 87.144 81.477 87.0984 81.6746 87.0376L81.515 87.2732L82.7234 86.4219L79.2804 67.9909L76.9699 67.5272Z" fill="#FE7F00"/>
<path d="M80.2759 79.5664C78.2314 80.182 76.2705 80.0224 74.2336 78.8899C74.2336 78.8899 72.8883 78.3731 71.9307 76.9138L72.3791 79.3156C73.3367 80.7748 74.682 81.2917 74.682 81.2917C76.7265 82.4241 78.6874 82.5837 80.7244 81.9681L80.5648 82.2037L81.7732 81.3525L81.3248 78.9507L80.1163 79.802L80.2759 79.5664Z" fill="#9FD8C9"/>
<path d="M76.1715 68.6521L76.5515 67.4588C75.3963 67.2764 74.2258 67.2764 73.0781 67.4588L73.3213 68.5305C73.6558 69.9974 75.7155 70.081 76.1715 68.6521Z" fill="#007CBB"/>
<path d="M76.2325 68.4697L76.5593 67.4588C75.4041 67.2764 74.2336 67.2764 73.0859 67.4588L73.3064 68.4165C74.2716 68.3025 75.2597 68.3177 76.2325 68.4697Z" fill="#0054BB"/>
<path d="M75.5178 65.7715L75.8142 67.36C75.8142 67.36 75.7458 68.0364 75.191 68.2568C74.6362 68.4772 74.127 68.5304 73.8989 68.4088C73.6709 68.2872 73.6709 68.2872 73.6709 68.2872L73.3745 66.7139L75.5178 65.7715Z" fill="#DBBAA4"/>
<path d="M73.3745 66.7291L73.4429 67.094L74.8566 66.4631L75.153 68.0516C75.153 68.0516 75.1378 68.158 75.0922 68.2948C75.1226 68.2796 75.1606 68.272 75.191 68.2568C75.7458 68.0364 75.8142 67.36 75.8142 67.36L75.5178 65.7715L73.3745 66.7291Z" fill="#C7AB9F"/>
<path d="M75.8451 66.106C75.6247 66.448 75.3739 66.7521 75.0775 67.0105C73.5042 68.3482 72.2805 67.0105 71.8549 65.7944C71.5813 65.0192 71.1557 63.8031 71.1177 62.739C71.3077 62.5566 71.6117 62.435 72.1057 62.4578C73.641 62.5414 74.4011 62.5414 74.5455 63.4535C74.6975 64.3579 74.8267 64.966 74.8267 64.966L75.1991 64.8976C75.1991 64.8976 75.3663 63.1343 75.8832 63.4687C77.0612 64.2135 75.5639 64.6695 75.8451 66.106Z" fill="#F8CFB3"/>
<path d="M75.8977 63.461C75.3808 63.1266 75.2136 64.8899 75.2136 64.8899L74.8412 64.9583C74.8412 64.9583 74.7044 64.3502 74.56 63.4458C74.4536 62.7921 74.0356 62.6097 73.2451 62.5261C73.2755 62.6021 73.3287 62.6705 73.3895 62.7237C73.5035 62.8149 73.6327 62.8605 73.7619 62.9365C74.3016 63.2406 74.56 63.8638 74.7044 64.4642C74.9248 65.3535 74.9704 66.2807 74.8488 67.1928C74.9248 67.1396 75.0084 67.0788 75.0844 67.0104C75.3808 66.7596 75.6393 66.4479 75.8521 66.1135C75.5632 64.6694 77.0605 64.2134 75.8977 63.461Z" fill="#DBBAA4"/>
<path d="M77.0379 62.701C77.0379 62.701 76.7795 64.6543 75.8446 66.0984C75.5634 64.6619 77.0531 64.2059 75.8978 63.4534C75.381 63.119 75.2138 64.8823 75.2138 64.8823L74.8414 64.9507C74.8414 64.9507 74.7045 64.3427 74.5601 63.4383C74.4157 62.5262 73.6557 62.5262 72.1204 62.4426C71.6264 62.4122 71.3148 62.5414 71.1323 62.7238C71.1095 62.1158 71.2159 61.5609 71.558 61.1505C72.4852 60.0333 74.0053 59.0984 75.6242 59.6076C77.2431 60.1321 77.0379 62.701 77.0379 62.701Z" fill="#222222"/>
<path d="M72.8122 58.0571C71.1629 58.4447 70.0684 59.7748 70.3648 61.0365C70.6613 62.2981 72.2346 62.9974 73.8838 62.6174C75.5331 62.2297 76.6276 60.8997 76.3312 59.638C76.0348 58.3763 74.4539 57.6695 72.8122 58.0571Z" fill="#FFA500"/>
<path d="M77.7905 97.8757L77.7981 98.1037L77.8133 98.7574C78.2542 99.867 79.8578 101.129 82.1836 99.7682V98.9702C80.0099 100.536 78.3606 99.1754 77.7905 97.8757Z" fill="#9FD8C9"/>
<path d="M77.7368 96.0898L77.7444 96.3255L77.7596 96.9867C78.208 98.104 79.8269 99.3808 82.1831 98.0052V97.1995C79.9865 98.7804 78.3144 97.4123 77.7368 96.0898Z" fill="#9FD8C9"/>
<path d="M73.8763 62.61C72.2954 62.9824 70.7829 62.344 70.4029 61.1887C70.4029 61.1887 69.3692 61.9716 69.2324 62.1768C69.088 62.4048 69.05 62.6784 69.1336 62.9292C69.1412 62.952 69.1488 62.9748 69.164 62.9976C69.3464 63.3396 69.6656 63.5905 70.038 63.6969C70.3573 63.7957 70.7525 63.9097 70.9349 63.9629C71.923 64.2365 72.8426 64.1301 73.6026 63.4384C73.6559 63.3852 73.7091 63.3472 73.7395 63.3092C74.1955 62.876 75.1987 62.0248 75.1987 62.0248C74.8263 62.2908 74.3779 62.496 73.8763 62.61Z" fill="#FE7F00"/>
<path d="M76.3312 59.6306C76.0348 58.3689 74.4615 57.6696 72.8122 58.0497C72.5006 58.1257 72.2118 58.2321 71.9458 58.3613C73.3747 58.3917 74.7124 59.5774 75.1152 61.2874C75.176 61.5307 75.2064 61.7739 75.2216 62.0095C76.0728 61.4091 76.5365 60.5046 76.3312 59.6306Z" fill="#FE7F00"/>
<path d="M72.0219 61.9791L71.9307 61.4927L72.4855 61.6599C72.4855 61.6599 72.6603 61.8955 72.5995 62.0779C72.5995 62.0779 72.5615 62.1615 72.5007 62.1463C72.4323 62.1311 72.0219 61.9791 72.0219 61.9791Z" fill="white"/>
<path d="M72.6295 62.1006L72.8347 61.637C72.8347 61.637 72.8575 61.5686 72.8119 61.4926C72.7663 61.4166 72.6599 61.2418 72.6599 61.2418L72.7891 61.2038L72.3179 60.991L72.1963 61.371L72.3103 61.3406L72.5459 61.7282C72.5459 61.7282 72.6675 61.9182 72.6295 62.1006Z" fill="white"/>
<path d="M70.8438 60.915L71.2694 61.6067C71.2694 61.6067 71.3302 61.6979 71.3986 61.7283C71.467 61.7511 71.619 61.8043 71.619 61.8043L71.657 61.9791L71.847 61.6599L71.505 61.1507L71.5354 61.3103L71.1858 61.1887C71.1858 61.1963 71.011 61.1431 70.8438 60.915Z" fill="white"/>
<path d="M70.9425 60.3525L71.3834 60.7326L71.2389 61.181C71.2389 61.181 71.0337 61.143 70.8665 60.8998C70.8665 60.8998 70.7905 60.7706 70.8057 60.7174C70.8133 60.6718 70.9425 60.3525 70.9425 60.3525Z" fill="white"/>
<path d="M71.9362 60.1626L71.3129 59.9422C71.3129 59.9422 71.2293 59.9194 71.2065 59.965C71.1837 60.0106 71.1381 60.1322 71.1381 60.1322L70.9785 59.9954L71.2597 60.5199L71.7158 60.6491L71.5714 60.5199L71.6854 60.2614C71.6854 60.2614 71.7386 60.1246 71.9362 60.1626Z" fill="white"/>
<path d="M72.4402 60.8389L72.0981 60.9453L71.6953 60.3297C71.6953 60.3297 71.7333 60.1397 71.9461 60.2005C71.9461 60.2005 72.0601 60.2385 72.1057 60.3145C72.1665 60.3829 72.4402 60.8389 72.4402 60.8389Z" fill="white"/>
<path d="M71.4886 108.182L73.3355 105.172L72.393 104.61C72.165 104.481 71.8534 104.504 71.5114 104.694C70.8121 105.089 70.2345 106.047 70.2269 106.837C70.2193 107.217 70.3485 107.483 70.5613 107.62L70.5765 107.627C70.5841 107.627 70.5841 107.635 70.5917 107.635L71.4886 108.182Z" fill="black"/>
<path d="M73.002 105.354L71.7251 104.602C71.6491 104.625 71.5807 104.663 71.5047 104.701C70.8055 105.096 70.2278 106.053 70.2202 106.844C70.2202 106.988 70.2354 107.118 70.2734 107.232L71.2539 107.817C71.3603 107.786 71.4743 107.741 71.5959 107.672C71.7251 107.596 71.8467 107.505 71.9683 107.406L72.9412 105.825C72.9716 105.658 73.002 105.506 73.002 105.354Z" fill="#1F1F1F"/>
<path d="M73.6636 105.963C73.656 106.753 73.0783 107.711 72.3791 108.099C71.6799 108.494 71.1174 108.167 71.1326 107.377C71.1402 106.586 71.7179 105.628 72.4171 105.241C73.1163 104.853 73.6788 105.172 73.6636 105.963Z" fill="#2A2A2A"/>
<path d="M73.6178 105.986C73.6102 106.746 73.0553 107.665 72.3865 108.045C71.7101 108.425 71.178 108.114 71.1856 107.354C71.1932 106.594 71.7481 105.674 72.4169 105.294C73.0857 104.922 73.6254 105.226 73.6178 105.986Z" fill="#1D1D1D"/>
<path d="M73.3443 106.138C73.3367 106.731 72.911 107.445 72.3866 107.734C71.8622 108.023 71.4442 107.787 71.4518 107.194C71.4594 106.602 71.885 105.887 72.4094 105.598C72.9338 105.309 73.3519 105.553 73.3443 106.138Z" fill="#3B3B3B"/>
<path d="M73.2834 106.176C73.2758 106.723 72.873 107.392 72.3866 107.665C71.9002 107.939 71.5125 107.711 71.5201 107.164C71.5277 106.617 71.9305 105.948 72.417 105.674C72.8958 105.4 73.291 105.628 73.2834 106.176Z" fill="#727272"/>
<path d="M72.4022 105.682C71.9233 105.955 71.5281 106.616 71.5205 107.164C71.5205 107.24 71.5281 107.316 71.5433 107.377L72.1741 107.757C72.2425 107.734 72.311 107.711 72.387 107.665C72.8658 107.399 73.261 106.746 73.2762 106.206L72.4022 105.682Z" fill="#A9A9A9"/>
<path d="M71.9151 106.123C71.7403 106.351 71.6111 106.624 71.5503 106.89L72.6068 107.513C72.812 107.339 72.9944 107.095 73.116 106.837L71.9151 106.123Z" fill="#E9EAE7"/>
<path d="M71.9151 106.123C71.7403 106.351 71.6111 106.624 71.5503 106.89L72.6068 107.513C72.812 107.339 72.9944 107.095 73.116 106.837L71.9151 106.123Z" fill="#E9EAE7"/>
<path d="M73.1163 106.206C73.1087 106.677 72.7667 107.255 72.3486 107.491C71.9306 107.726 71.5962 107.529 71.5962 107.057C71.6038 106.586 71.9458 106.009 72.3638 105.773C72.7895 105.537 73.1239 105.735 73.1163 106.206Z" fill="#4D4D4D"/>
<path d="M72.8807 106.191C72.8731 106.563 72.5995 107.019 72.2727 107.209C71.9383 107.392 71.6722 107.24 71.6798 106.867C71.6874 106.495 71.9611 106.039 72.2879 105.849C72.6147 105.666 72.8807 105.818 72.8807 106.191Z" fill="#949494"/>
<path d="M72.5995 106.487C72.5995 106.654 72.4779 106.852 72.3335 106.936C72.1891 107.019 72.0674 106.951 72.075 106.784C72.075 106.616 72.1967 106.419 72.3411 106.335C72.4855 106.259 72.5995 106.328 72.5995 106.487Z" fill="#C4C4C4"/>
<path d="M72.5159 106.586C72.5159 106.677 72.4475 106.784 72.3715 106.829C72.2955 106.875 72.2271 106.837 72.2271 106.746C72.2271 106.655 72.2955 106.548 72.3715 106.503C72.4551 106.465 72.5235 106.503 72.5159 106.586Z" fill="#4D4D4D"/>
<path d="M71.4898 108.182L70.9425 107.855C70.9349 107.855 70.9349 107.848 70.9273 107.848L70.9121 107.84C70.6993 107.703 70.5777 107.437 70.5777 107.057C70.5853 106.267 71.163 105.309 71.8622 104.922C72.2118 104.724 72.5234 104.709 72.7438 104.838L72.683 104.8C72.455 104.671 72.1434 104.694 71.8014 104.884C71.1022 105.279 70.5245 106.236 70.5169 107.019C70.5093 107.399 70.6385 107.665 70.8513 107.802L70.8665 107.81C70.8741 107.81 70.8741 107.817 70.8817 107.817L71.4898 108.182Z" fill="black"/>
<path d="M71.4896 108.182L71.216 108.023C71.2084 108.023 71.2084 108.015 71.2008 108.015L71.1856 108.007C70.9728 107.871 70.8512 107.605 70.8512 107.225C70.8588 106.434 71.4364 105.476 72.1356 105.089C72.4853 104.891 72.7969 104.876 73.0173 105.005L72.9565 104.967C72.7285 104.838 72.4169 104.861 72.0748 105.051C71.3756 105.446 70.798 106.404 70.7904 107.187C70.7828 107.567 70.912 107.833 71.1248 107.969L71.14 107.977C71.1476 107.977 71.1476 107.985 71.1552 107.985L71.4896 108.182Z" fill="black"/>
<path d="M65.1736 104.443L67.0205 101.433L66.0781 100.871C65.85 100.741 65.5384 100.764 65.1964 100.954C64.4972 101.349 63.9195 102.307 63.9119 103.09C63.9043 103.47 64.0335 103.736 64.2464 103.873L64.2616 103.88C64.2692 103.88 64.2692 103.888 64.2768 103.888L65.1736 104.443Z" fill="black"/>
<path d="M66.6858 101.615L65.4165 100.862C65.3405 100.885 65.2721 100.923 65.1961 100.961C64.4969 101.356 63.9192 102.314 63.9116 103.097C63.9116 103.241 63.9268 103.37 63.9648 103.484L64.9453 104.07C65.0517 104.039 65.1657 103.994 65.2797 103.925C65.4089 103.849 65.5381 103.758 65.6521 103.659L66.6174 102.078C66.6554 101.919 66.6782 101.767 66.6858 101.615Z" fill="#1F1F1F"/>
<path d="M67.3472 102.216C67.3396 103.006 66.7619 103.964 66.0627 104.351C65.3635 104.747 64.801 104.42 64.8162 103.629C64.8238 102.839 65.4015 101.881 66.1007 101.486C66.7999 101.106 67.3624 101.433 67.3472 102.216Z" fill="#2A2A2A"/>
<path d="M67.3016 102.246C67.294 103.006 66.7392 103.926 66.0628 104.306C65.3863 104.686 64.8543 104.374 64.8619 103.614C64.8695 102.854 65.4243 101.935 66.0932 101.555C66.7696 101.175 67.3092 101.486 67.3016 102.246Z" fill="#1D1D1D"/>
<path d="M67.0284 102.398C67.0208 102.991 66.5951 103.706 66.0707 103.994C65.5463 104.283 65.1282 104.048 65.1358 103.455C65.1434 102.862 65.5691 102.148 66.0935 101.859C66.6179 101.57 67.036 101.813 67.0284 102.398Z" fill="#3B3B3B"/>
<path d="M66.9675 102.436C66.9599 102.983 66.5571 103.652 66.0707 103.926C65.5842 104.199 65.1966 103.971 65.2042 103.424C65.2118 102.877 65.6146 102.208 66.1011 101.935C66.5799 101.661 66.9751 101.889 66.9675 102.436Z" fill="#727272"/>
<path d="M66.0858 101.942C65.6069 102.216 65.2117 102.877 65.2041 103.424C65.2041 103.5 65.2117 103.576 65.2269 103.637L65.8653 104.017C65.9337 103.994 66.0021 103.971 66.0782 103.926C66.557 103.66 66.9522 103.006 66.9674 102.467L66.0858 101.942Z" fill="#A9A9A9"/>
<path d="M65.5997 102.383C65.4249 102.611 65.2957 102.885 65.2349 103.151L66.2913 103.774C66.4965 103.599 66.6789 103.356 66.8006 103.097L65.5997 102.383Z" fill="#E9EAE7"/>
<path d="M65.5997 102.383C65.4249 102.611 65.2957 102.885 65.2349 103.151L66.2913 103.774C66.4965 103.599 66.6789 103.356 66.8006 103.097L65.5997 102.383Z" fill="#E9EAE7"/>
<path d="M66.7999 102.467C66.7923 102.938 66.4503 103.516 66.0322 103.751C65.6142 103.987 65.2798 103.789 65.2798 103.318C65.2874 102.847 65.6294 102.269 66.0474 102.033C66.4731 101.798 66.8075 101.995 66.7999 102.467Z" fill="#4D4D4D"/>
<path d="M66.5648 102.452C66.5572 102.824 66.2836 103.28 65.9568 103.47C65.6223 103.652 65.3563 103.5 65.3639 103.128C65.3715 102.756 65.6451 102.3 65.972 102.109C66.2988 101.919 66.5648 102.079 66.5648 102.452Z" fill="#949494"/>
<path d="M66.2836 102.748C66.2836 102.915 66.1619 103.113 66.0175 103.196C65.8731 103.28 65.7515 103.211 65.7591 103.044C65.7591 102.877 65.8807 102.679 66.0251 102.596C66.1695 102.52 66.2836 102.588 66.2836 102.748Z" fill="#C4C4C4"/>
<path d="M66.2 102.847C66.2 102.938 66.1315 103.044 66.0555 103.09C65.9795 103.135 65.9111 103.097 65.9111 103.006C65.9111 102.915 65.9795 102.809 66.0555 102.763C66.1391 102.725 66.2076 102.763 66.2 102.847Z" fill="#4D4D4D"/>
<path d="M65.1734 104.435L64.6261 104.109C64.6185 104.109 64.6185 104.101 64.6109 104.101L64.5957 104.093C64.3829 103.957 64.2613 103.691 64.2613 103.31C64.2689 102.52 64.8466 101.562 65.5458 101.175C65.8954 100.977 66.207 100.962 66.4274 101.091L66.3666 101.053C66.1386 100.924 65.827 100.947 65.485 101.137C64.7857 101.532 64.2081 102.49 64.2005 103.272C64.1929 103.653 64.3221 103.919 64.5349 104.055L64.5501 104.063C64.5577 104.063 64.5577 104.071 64.5653 104.071L65.1734 104.435Z" fill="black"/>
<path d="M65.1734 104.435L64.9074 104.276C64.8998 104.276 64.8998 104.268 64.8922 104.268L64.877 104.26C64.6642 104.124 64.5426 103.858 64.5426 103.477C64.5502 102.687 65.1278 101.729 65.827 101.342C66.1767 101.144 66.4883 101.129 66.7087 101.258L66.6479 101.22C66.4199 101.091 66.1083 101.114 65.7662 101.304C65.067 101.699 64.4894 102.657 64.4818 103.439C64.4742 103.82 64.6034 104.086 64.8162 104.222L64.8314 104.23C64.839 104.23 64.839 104.238 64.8466 104.238L65.1734 104.435Z" fill="black"/>
<path d="M65.1892 92.2137L65.9568 111.002L56.6539 105.545L55.8862 86.825L65.1892 92.2137Z" fill="#0073E8"/>
<path d="M57.5884 106.1L58.1053 106.404L57.3376 87.6837L56.8208 87.3796L57.5884 106.1Z" fill="#0050DF"/>
<path d="M63.7981 91.461L63.2812 91.1494L64.0489 109.869L64.5657 110.181L63.7981 91.461Z" fill="#0050DF"/>
<path d="M70.4485 107.407C70.4637 106.389 71.2009 105.165 72.0978 104.656C72.3866 104.496 72.6602 104.435 72.8958 104.451L73.101 87.7676L65.189 92.2062L65.9566 111.002L70.7449 108.304C70.5549 108.106 70.4409 107.81 70.4485 107.407Z" fill="#003BAB"/>
<path d="M65.341 92.8294C64.9154 92.8294 64.4898 92.723 64.1173 92.5026L55.3996 87.4483C54.9208 87.1747 54.86 86.5363 55.2172 86.1638C55.2704 86.1106 55.6505 85.571 55.7265 85.5254L56.6765 85.2898L65.037 91.7046C65.4398 91.963 65.5386 92.4646 65.341 92.8294Z" fill="#0754B1"/>
<path d="M73.572 88.5807L66.5416 92.5253C66.1692 92.7305 65.7588 92.8369 65.3484 92.8369C65.546 92.4645 65.4472 91.9629 65.0367 91.7197L56.6763 85.3049L62.4298 82.0215C63.1898 81.5959 64.1247 81.5959 64.8771 82.0443L73.2756 86.597C73.4276 86.6882 73.8532 87.3722 73.9217 87.5166C74.0813 87.8814 73.9673 88.3527 73.572 88.5807Z" fill="#002987"/>
<path d="M73.0858 87.813L66.4355 91.5448C65.721 91.9476 64.8546 91.94 64.1477 91.5296L55.9013 86.7489C55.3768 86.4449 55.3844 85.6925 55.9089 85.396L62.5516 81.6034C63.2737 81.193 64.1553 81.2006 64.8698 81.6186L73.1086 86.4525C73.6179 86.7641 73.6179 87.5166 73.0858 87.813Z" fill="#008DFF"/>
<path d="M74.0438 83.8911C74.0438 83.8911 73.2609 84.5448 72.9797 84.826C72.6909 85.1072 71.832 85.4872 72.0144 85.7076C72.1968 85.928 73.2077 85.2592 73.2077 85.2592L72.4401 87.0301C72.4401 87.0301 72.3185 87.2353 72.5389 87.3113C72.7593 87.3873 72.7593 87.3873 72.7593 87.3873C72.7593 87.3873 72.5161 87.8205 73.2913 87.7065C74.0666 87.5925 73.9297 87.5773 74.135 87.2505C74.3402 86.9237 74.629 86.6197 74.9482 85.8064C75.2674 84.9932 75.4422 84.4003 75.4422 84.4003L74.0438 83.8911Z" fill="#FF7E17"/>
<path d="M71.0032 86.8934L66.1314 89.6296C65.6069 89.926 64.9685 89.9184 64.4517 89.6144L58.4017 86.1106C58.0217 85.8902 58.0217 85.3353 58.4017 85.1149L63.2736 82.3408C63.798 82.0443 64.4441 82.0443 64.9685 82.3484L71.0032 85.8902C71.3909 86.1258 71.3833 86.6806 71.0032 86.8934Z" fill="#003BAB"/>
<path d="M71.0032 86.5895L66.1314 89.3256C65.6069 89.622 64.9685 89.6144 64.4517 89.3104L58.4017 85.8066C58.0217 85.5862 58.0217 85.0314 58.4017 84.811L63.2736 82.0368C63.798 81.7404 64.4441 81.7404 64.9685 82.0444L71.0032 85.5862C71.3909 85.8218 71.3833 86.369 71.0032 86.5895Z" fill="#00A2FF"/>
<path d="M63.7602 88.2538L60.7353 86.4753C60.4693 86.3233 60.15 86.3157 59.884 86.4677L59.1772 86.8857C58.9872 86.9921 58.9872 87.2733 59.1772 87.3798L62.2098 89.1354C62.4682 89.2875 62.7874 89.2875 63.0534 89.143L63.7602 88.7402C63.9426 88.6414 63.9503 88.3678 63.7602 88.2538Z" fill="#0069F1"/>
<path d="M60.7273 86.4753C60.6285 86.4145 60.5145 86.3841 60.4005 86.3689L60.2485 86.4601C60.0585 86.5665 60.0585 86.8477 60.2485 86.9541L63.281 88.7098C63.3874 88.7706 63.509 88.801 63.6307 88.8162L63.7523 88.7478C63.9423 88.6414 63.9499 88.3602 63.7599 88.2538L60.7273 86.4753Z" fill="#003BAB"/>
<path d="M58.9639 95.3906L61.8368 96.9943C61.8368 96.9943 62.5893 98.37 62.6045 99.2213L61.1756 98.4764L61.1604 98.2332L60.826 97.1311L58.9639 95.3906Z" fill="#6BC2FF"/>
<path d="M62.6121 99.4267L62.5665 103.28L61.8977 100.4L60.9248 102.36L61.1756 98.5754L62.6121 99.4267Z" fill="#6BC2FF"/>
<path d="M61.7001 96.2116C61.7229 96.5688 61.5177 96.7284 61.2365 96.5688C60.9552 96.4092 60.712 95.9988 60.6892 95.6415C60.6664 95.2843 60.8716 95.1247 61.1529 95.2843C61.4341 95.4439 61.6773 95.8543 61.7001 96.2116Z" fill="#6BC2FF"/>
<path d="M58.9785 96.1582C58.9785 96.1582 58.9329 96.5154 58.8265 96.6294C58.7201 96.7434 58.4692 96.6902 58.4692 96.6902C58.4692 96.6902 58.6212 97.1082 58.9481 97.3363C59.2749 97.5643 59.3813 97.4351 59.5865 97.6023C59.7917 97.7695 59.8069 97.7923 59.8069 97.7923C59.8069 97.7923 59.7537 97.5339 59.9437 97.4731C60.1337 97.4123 60.2401 97.2907 60.2553 97.1463C60.2553 97.1463 59.4953 96.8346 58.9785 96.1582Z" fill="#6BC2FF"/>
<path d="M60.5978 98.5982L58.3025 97.3137C58.2417 97.2681 58.1961 97.3137 58.2189 97.3745C58.2189 97.3973 58.2265 97.4125 58.2265 97.4353V97.4429C58.2417 97.4885 58.2721 97.5341 58.3025 97.5493L58.3709 97.5949L59.0017 101.22L60.3774 101.98L60.5522 98.8718V98.8186L60.6206 98.8414C60.6814 98.8794 60.727 98.8414 60.7042 98.773C60.7042 98.7122 60.6586 98.621 60.5978 98.5982ZM59.5717 98.7502V98.4462L59.8986 98.621V98.925L59.5717 98.7502ZM59.8986 99.0998V99.4494L59.6097 99.2746L59.5945 98.9934V98.9022L59.8986 99.0998ZM59.1309 98.7502L59.1081 98.6666L59.4349 98.8414V98.925L59.4577 99.191L59.1537 99.039V98.9022L59.1309 98.7502ZM59.0701 98.1649L59.3969 98.3626L59.4197 98.6666L59.1081 98.4918L59.0701 98.1649ZM59.4805 99.3658V99.5558L59.5033 99.7534L59.2221 99.6014L59.1993 99.3886L59.1765 99.191L59.4805 99.3658ZM58.5685 97.8989L58.9181 98.0737L58.9561 98.4006L58.6293 98.2258L58.5685 97.8989ZM58.6749 98.4918L58.6521 98.4006L58.9789 98.5754V98.6666L59.0017 98.8186L59.0245 98.9478L58.7205 98.773L58.6749 98.4918ZM58.7433 98.9478L59.0473 99.1226L59.0701 99.3202L59.0929 99.4494V99.5178L58.8041 99.3658L58.7433 98.9478ZM58.8725 99.8446L58.8269 99.5406L59.1081 99.6926L59.1309 99.8674L59.1537 100.103L58.8953 99.951L58.8725 99.8446ZM58.9789 100.544L58.9181 100.126L59.1765 100.255L59.1993 100.369V100.453L59.2221 100.673L58.9789 100.544ZM59.0701 101.046L59.0245 100.719L59.2449 100.848L59.2829 101.175L59.0701 101.046ZM59.2677 99.951L59.2449 99.799V99.7534L59.5033 99.9054L59.5261 100.217L59.5489 100.323L59.2829 100.171L59.2677 99.951ZM59.3057 100.323L59.5489 100.475L59.5717 100.567L59.5945 100.871L59.3513 100.741L59.3285 100.521L59.3057 100.323ZM59.3969 101.22L59.3513 100.909L59.5945 101.046L59.6097 101.35L59.3969 101.22ZM59.6097 99.4266L59.9214 99.6014V99.9966L59.6325 99.8218L59.6097 99.6242V99.4266ZM59.6325 99.9966L59.9214 100.149V100.521L59.6553 100.392V100.278L59.6325 99.9966ZM59.9442 101.524L59.7238 101.418L59.701 101.084L59.9442 101.22V101.524ZM59.9442 101.068L59.701 100.932L59.6781 100.627V100.544L59.9214 100.696L59.9442 100.871V101.068ZM60.271 101.722L60.0506 101.585V101.281L60.2862 101.418L60.271 101.722ZM60.2862 101.258L60.0506 101.129V100.757L60.309 100.894L60.2862 101.258ZM60.309 100.65V100.741L60.0506 100.582V100.217L60.3318 100.369L60.309 100.65ZM60.3318 100.217L60.0506 100.065V99.6698L60.3546 99.8446L60.3318 100.217ZM60.3546 99.4266V99.6926L60.0506 99.5178V99.1682L60.3774 99.343L60.3546 99.4266ZM60.3774 99.2138L60.0506 99.0162V98.7122L60.3774 98.9022V99.2138Z" fill="#6BC2FF"/>
<path d="M54.3209 112.005C55.0505 111.883 55.7802 112.681 55.8182 113.426C55.8258 113.631 55.7802 113.844 55.6434 114.049C55.0734 114.84 54.1461 115.174 53.2568 115.379C52.3676 115.584 52.4816 115.714 51.9952 115.546C51.7672 115.47 51.2427 115.539 51.2427 115.539L50.9767 115.919L48.9778 116.299C48.9778 116.299 47.9289 115.683 47.9973 115.098C48.1494 113.692 49.0842 112.179 49.0842 112.179L52.74 112.103C52.74 112.103 53.006 112.385 53.7053 112.157C53.9105 112.088 54.1233 112.043 54.3209 112.005Z" fill="#1B1B1B"/>
<path d="M52.512 95.3218V113.722C52.512 114.049 52.3828 114.338 52.17 114.551C51.9572 114.764 51.6608 114.893 51.3416 114.893H49.7303C48.7346 114.893 47.9214 114.102 47.8986 113.107V113.092L47.8226 110.097L47.7998 109.147L47.7769 108.197L47.7541 107.232L47.4653 95.3142H52.512V95.3218Z" fill="#FE9500"/>
<path d="M47.4575 95.3218L47.4955 96.8875L49.7833 96.8419L50.1481 114.9H51.3337C51.6606 114.9 51.9494 114.771 52.1622 114.558C52.375 114.346 52.5042 114.049 52.5042 113.73V95.3294H47.4575V95.3218Z" fill="#FD8700"/>
<path d="M52.466 110.264V111.115C50.0186 112.544 48.3237 111.267 47.8221 110.097L47.7993 109.147C48.4302 110.523 50.1783 111.906 52.466 110.264Z" fill="#9FD8C9"/>
<path d="M57.0108 113.624C57.7405 113.502 58.4701 114.3 58.5081 115.045C58.5157 115.25 58.4701 115.463 58.3333 115.668C57.7633 116.459 56.836 116.793 55.9468 116.998C55.0575 117.203 55.1715 117.333 54.6851 117.165C54.4571 117.082 53.9327 117.158 53.9327 117.158L53.6667 117.538L51.6677 117.918C51.6677 117.918 50.6189 117.302 50.6873 116.717C50.8393 115.311 51.7742 113.798 51.7742 113.798L55.43 113.722C55.43 113.722 55.696 114.004 56.3952 113.776C56.6004 113.707 56.8132 113.662 57.0108 113.624Z" fill="#1B1B1B"/>
<path d="M47.7539 107.239C48.3847 108.645 50.1632 110.082 52.489 108.402V109.269C49.9884 110.728 48.2631 109.39 47.7767 108.205L47.7539 107.239Z" fill="#9FD8C9"/>
<path d="M55.6505 97.108V115.509C55.6505 115.835 55.5517 116.147 55.2021 116.383C54.86 116.618 54.2672 116.77 53.2867 116.77C52.0935 116.77 51.0522 115.889 51.0294 114.893V114.878L50.961 112.012L50.9382 111.146L50.9078 109.709L50.885 108.843L50.5962 97.0928H55.6505V97.108Z" fill="#FE9500"/>
<path d="M50.5962 97.1079L50.619 97.9972H54.176V116.398C54.176 116.512 54.1608 116.618 54.1304 116.725C54.632 116.664 54.974 116.542 55.2021 116.383C55.5517 116.147 55.6505 115.835 55.6505 115.509V97.1079H50.5962Z" fill="#FD8700"/>
<path d="M50.9609 111.777L50.9685 112.02L50.9837 112.719C51.455 113.905 53.1651 115.25 55.658 113.798V112.947C53.3323 114.619 51.569 113.167 50.9609 111.777Z" fill="#9FD8C9"/>
<path d="M50.9004 109.869L50.908 110.12L50.9232 110.827C51.402 112.02 53.1273 113.388 55.6507 111.921V111.055C53.3097 112.749 51.5236 111.283 50.9004 109.869Z" fill="#9FD8C9"/>
<path d="M56.8595 87.4478C57.1331 87.577 57.4523 87.5162 57.6651 87.2958C57.9691 86.9766 58.448 86.4977 58.942 86.0873C59.778 85.3957 60.3025 85.0689 59.8692 84.6736C59.5956 84.4152 59.2536 84.1872 59.0484 84.058C58.8584 83.9364 58.6152 83.906 58.4024 84.0048C58.2959 84.0504 58.1743 84.1264 58.0375 84.2404C57.5435 84.6584 57.2623 84.8408 57.2623 84.8408C57.2775 84.8256 57.2623 84.628 57.2623 84.5976C57.2623 84.4988 57.2547 84.4228 57.2091 84.3392C57.1255 84.1872 56.9279 84.172 56.7987 84.2708C56.6467 84.3848 56.6315 84.59 56.601 84.7648L56.525 85.2209C56.525 85.2209 56.5554 85.9277 55.8638 86.3685C55.3926 86.6649 56.2666 87.1666 56.8595 87.4478Z" fill="#FF7E17"/>
<path d="M56.8212 84.2177L55.4455 85.0309C55.2631 85.1374 55.0351 85.0613 54.9515 84.8637L52.7398 79.323C52.7398 79.323 51.7137 78.2894 50.5204 78.8974C49.3272 79.4978 49.2816 80.5619 49.654 81.5727C49.9656 82.4392 51.6681 86.5814 52.1697 87.7975C52.3141 88.1395 52.5194 88.4587 52.793 88.7096C53.1654 89.0516 53.7278 89.3632 54.3967 89.0668C55.3771 88.6336 58.5465 86.8626 58.5465 86.8626C58.5465 86.8626 59.3141 85.715 58.6529 84.7725C58.0069 83.8605 56.8212 84.2177 56.8212 84.2177Z" fill="#FE9500"/>
<path d="M55.0271 87.501C54.3658 87.7974 53.7958 87.4858 53.4234 87.1438C53.1497 86.8929 52.9445 86.5737 52.8001 86.2317C52.2985 85.0156 50.6036 80.8658 50.2844 80.0069C50.1856 79.7257 50.1172 79.4445 50.0944 79.1709C49.3267 79.7941 49.3343 80.6986 49.6535 81.5726C49.9652 82.4391 51.6677 86.5813 52.1693 87.7974C52.3137 88.1394 52.5189 88.4586 52.7925 88.7094C53.1649 89.0515 53.7274 89.3631 54.3962 89.0667C55.3767 88.6334 58.5461 86.8625 58.5461 86.8625C58.5461 86.8625 58.9945 86.1861 58.9109 85.4489C58.1204 85.8821 55.8327 87.1438 55.0271 87.501Z" fill="#FE7F00"/>
<path d="M52.2609 78.7452C52.2609 78.7452 51.2424 78.5628 50.8244 78.692C50.4139 78.8136 49.4031 79.4293 49.2435 80.0677C49.0839 80.7061 46.2945 95.5042 46.2945 95.5042C46.2945 95.5042 45.9753 98.0883 49.8363 99.3196C53.6897 100.551 56.3575 98.3315 56.3575 98.3315L57.6724 86.5965L57.2239 81.983L55.1718 79.3837L52.2609 78.7452Z" fill="#FE7F00"/>
<path d="M55.4913 85.7759L55.3012 82.3253L55.0884 82.0593C53.8952 80.5468 52.2231 79.498 50.3458 79.0875C50.3458 79.0875 50.2622 79.0723 50.1329 79.0571C49.7377 79.3231 49.3425 79.688 49.2513 80.0756C49.0917 80.714 46.3023 95.5121 46.3023 95.5121C46.3023 95.5121 45.9831 98.0962 49.8441 99.3275C51.2578 99.7759 52.5119 99.7683 53.5379 99.5707L55.4913 85.7759Z" fill="#FFA500"/>
<path d="M55.727 80.0983L55.1646 79.3838L52.2612 78.7454C52.2612 78.7454 52.0864 78.715 51.8508 78.6846C51.5164 78.9126 51.1591 79.1938 52.778 79.7638C54.2905 80.2959 55.2178 80.2959 55.727 80.0983Z" fill="#0054BB"/>
<path d="M56.6994 95.2536L56.9806 92.7226L56.1142 92.9886C53.3476 93.4447 50.9839 93.1026 48.9166 91.7118C48.9166 91.7118 47.9741 91.2709 47.2901 90.2449C47.1229 91.1341 46.9633 91.9778 46.8188 92.715C47.5029 93.8171 48.5137 94.2883 48.5137 94.2883C50.5887 95.6792 52.9448 96.0288 55.7114 95.5652L56.6994 95.2536Z" fill="#9FD8C9"/>
<path d="M52.4435 77.5671L52.2383 78.9048C52.2383 78.9048 52.4207 79.3988 53.6672 79.5965C54.9136 79.7865 55.1644 79.3836 55.1644 79.3836L55.3697 78.0764L52.4435 77.5671Z" fill="#C7AB9F"/>
<path d="M52.2383 78.9127C52.2383 78.9127 52.4207 79.4067 53.6672 79.6043C53.8496 79.6347 54.0016 79.6423 54.1384 79.6499C54.1612 79.6271 54.1688 79.6119 54.1688 79.6119L54.374 78.3047L52.3827 77.9626L52.2383 78.9127Z" fill="#DBBAA4"/>
<path d="M54.3434 78.3578C54.3434 78.3578 56.4107 79.3382 56.806 78.183C57.2088 77.0277 57.414 76.4197 57.414 76.4197C57.414 76.4197 58.06 76.1992 57.9004 75.8876C57.7408 75.5684 57.5052 75.2188 57.5432 75.0592C57.5812 74.8996 57.9536 74.2611 57.7028 73.8203C57.452 73.3795 55.9319 72.2014 55.9319 72.2014L53.135 74.5119L52.9146 77.7193L54.3434 78.3578Z" fill="#F8CFB3"/>
<path d="M54.9135 76.9744L55.4456 76.7768C55.4456 76.7768 55.5292 75.6975 55.8104 74.9603C56.0916 74.2306 56.4412 73.2274 57.0721 73.5238C57.7029 73.8126 57.9841 74.1242 58.2729 73.767C58.5618 73.4098 58.4021 72.4597 57.8929 71.8973C57.3837 71.3349 55.894 70.3848 54.4727 70.5216C53.0514 70.666 51.691 71.5781 51.1361 72.5661C50.5813 73.5618 50.7941 74.9527 51.3717 76.0547C51.9494 77.1568 52.2382 78.046 53.2871 78.4565C54.3283 78.8669 54.5183 78.6465 54.5183 78.6465C54.5183 78.6465 54.3435 77.856 54.0015 77.4456C53.6595 77.0352 53.8495 75.8951 54.3587 75.8115C54.8679 75.7279 55.0808 76.1459 54.9667 76.5184C54.8603 76.8832 54.9135 76.9744 54.9135 76.9744Z" fill="#222222"/>
<path d="M62.3314 90.0775C62.5746 90.2599 62.9014 90.2599 63.1447 90.0851C63.5019 89.8343 64.0643 89.4543 64.6343 89.1426C65.5844 88.6182 66.162 88.3978 65.8124 87.9266C65.592 87.6226 65.3032 87.3337 65.1208 87.1665C64.9536 87.0069 64.7255 86.9385 64.4975 86.9917C64.3835 87.0145 64.2467 87.0677 64.0947 87.1513C63.5323 87.4705 63.2207 87.5921 63.2207 87.5921C63.2435 87.5845 63.2587 87.3793 63.2663 87.3565C63.2815 87.2577 63.2967 87.1893 63.2663 87.0905C63.2131 86.9309 63.0231 86.8701 62.8786 86.9461C62.7038 87.0297 62.6506 87.2273 62.5898 87.3945L62.4302 87.8278C62.4302 87.8278 62.3238 88.527 61.5638 88.831C61.0393 89.0286 61.807 89.6899 62.3314 90.0775Z" fill="#FF7E17"/>
<path d="M61.1155 88.2686L59.6106 88.8082C59.413 88.8766 59.2002 88.755 59.1622 88.5498L58.045 82.6899C58.045 82.6899 57.2317 81.4814 55.9472 81.8462C54.6628 82.211 54.4196 83.2447 54.5868 84.3088C54.7312 85.2132 55.6052 89.6139 55.8636 90.8983C55.9396 91.2632 56.0764 91.6128 56.2969 91.9092C56.6009 92.312 57.0949 92.7224 57.8017 92.5628C58.843 92.3272 62.2936 91.1871 62.2936 91.1871C62.2936 91.1871 63.2665 90.2067 62.7952 89.1578C62.3544 88.147 61.1155 88.2686 61.1155 88.2686Z" fill="#FE9500"/>
<path d="M58.7363 91.1415C58.0294 91.3011 57.5354 90.8907 57.2314 90.4878C57.011 90.1914 56.8666 89.8418 56.7982 89.477C56.5398 88.1849 55.6581 83.7919 55.5213 82.8874C55.4757 82.5986 55.4605 82.3022 55.4909 82.0286C54.6168 82.4922 54.4572 83.3814 54.6016 84.3011C54.7461 85.2055 55.6201 89.6062 55.8785 90.8907C55.9545 91.2555 56.0913 91.6051 56.3117 91.9015C56.6158 92.3043 57.1098 92.7148 57.8166 92.5552C58.8579 92.3195 62.3085 91.1795 62.3085 91.1795C62.3085 91.1795 62.8785 90.6018 62.9317 89.857C62.0729 90.1458 59.5951 90.9515 58.7363 91.1415Z" fill="#FE7F00"/>
<path d="M57.2541 73.5769C58.6145 72.4977 57.3605 72.6269 56.8816 71.7908C56.8816 71.7908 57.8469 71.7148 58.0749 71.7452C59.291 71.9352 60.5223 73.1969 60.0282 73.6301C59.2378 74.3142 56.1748 74.3598 56.1748 74.3598C56.608 74.1774 56.8208 73.9113 57.2541 73.5769Z" fill="#FE7F00"/>
<path d="M55.1794 69.5108C53.3781 69.3207 51.8048 70.2708 51.6528 71.6465C51.5084 73.0222 52.846 74.2914 54.6397 74.4814C56.441 74.6714 58.0143 73.7214 58.1663 72.3457C58.3183 70.9776 56.9807 69.7084 55.1794 69.5108Z" fill="#FFA500"/>
<path d="M58.174 72.3534C58.3184 70.9777 56.9807 69.7084 55.187 69.5184C54.845 69.4804 54.5182 69.488 54.2065 69.526C55.6354 70.058 56.5703 71.7301 56.3651 73.5922C56.3347 73.8582 56.2891 74.1167 56.2131 74.3599C57.2771 74.0482 58.0676 73.3034 58.174 72.3534Z" fill="#FE7F00"/>
<path d="M80.5266 69.3211C80.5266 69.3211 80.329 68.067 79.0901 67.9682C77.8513 67.877 77.4561 68.6599 77.2888 70.94C77.1216 73.2201 76.7416 76.4731 76.7416 76.4731L73.291 83.7543L75.8828 85.244L79.6222 77.5752L80.5266 69.3211Z" fill="#FE9500"/>
<path d="M80.5264 69.3214C80.5264 69.3214 80.3288 68.0673 79.0899 67.9685C79.0823 67.9685 79.0823 67.9685 79.0747 67.9685C79.3939 68.3485 79.4699 68.797 79.4699 68.797L78.5579 77.0586L74.8564 84.6591L75.8825 85.2519L79.6219 77.5831L80.5264 69.3214Z" fill="#FE7F00"/>
<path d="M77.9347 80.9877L75.2137 79.6121L74.7881 80.5089L77.5014 81.877L77.9347 80.9877Z" fill="#9FD8C9"/>
<path d="M142.294 107.832L144.141 104.823L143.206 104.268C142.978 104.139 142.667 104.161 142.325 104.351C141.626 104.747 141.048 105.704 141.04 106.487C141.033 106.867 141.162 107.133 141.375 107.27L141.39 107.278C141.398 107.278 141.398 107.285 141.405 107.285L142.294 107.832Z" fill="black"/>
<path d="M143.807 105.012L142.53 104.26C142.454 104.282 142.386 104.32 142.31 104.358C141.611 104.754 141.033 105.711 141.025 106.494C141.025 106.638 141.041 106.768 141.079 106.882L142.059 107.467C142.165 107.437 142.279 107.391 142.401 107.323C142.53 107.247 142.659 107.155 142.773 107.056L143.746 105.476C143.777 105.316 143.807 105.156 143.807 105.012Z" fill="#1F1F1F"/>
<path d="M144.476 105.613C144.468 106.403 143.89 107.361 143.191 107.749C142.492 108.144 141.929 107.817 141.945 107.027C141.952 106.236 142.53 105.279 143.229 104.891C143.928 104.503 144.483 104.823 144.476 105.613Z" fill="#2A2A2A"/>
<path d="M144.422 105.644C144.415 106.404 143.86 107.323 143.191 107.703C142.515 108.083 141.983 107.772 141.99 107.012C141.998 106.252 142.553 105.332 143.222 104.952C143.898 104.572 144.43 104.884 144.422 105.644Z" fill="#1D1D1D"/>
<path d="M144.149 105.795C144.142 106.388 143.716 107.103 143.192 107.392C142.667 107.688 142.249 107.445 142.257 106.852C142.265 106.259 142.69 105.545 143.215 105.256C143.739 104.967 144.157 105.203 144.149 105.795Z" fill="#3B3B3B"/>
<path d="M144.088 105.834C144.081 106.381 143.678 107.05 143.191 107.323C142.705 107.597 142.317 107.369 142.325 106.822C142.332 106.275 142.735 105.606 143.222 105.332C143.708 105.059 144.096 105.279 144.088 105.834Z" fill="#727272"/>
<path d="M143.206 105.34C142.728 105.613 142.332 106.274 142.325 106.822C142.325 106.898 142.332 106.974 142.348 107.034L142.986 107.415C143.054 107.392 143.123 107.369 143.199 107.323C143.678 107.057 144.073 106.404 144.088 105.864L143.206 105.34Z" fill="#A9A9A9"/>
<path d="M142.72 105.773C142.545 106.001 142.416 106.274 142.355 106.54L143.412 107.164C143.617 106.989 143.8 106.746 143.921 106.487L142.72 105.773Z" fill="#E9EAE7"/>
<path d="M142.72 105.773C142.545 106.001 142.416 106.274 142.355 106.54L143.412 107.164C143.617 106.989 143.8 106.746 143.921 106.487L142.72 105.773Z" fill="#E9EAE7"/>
<path d="M143.921 105.864C143.913 106.335 143.571 106.913 143.153 107.148C142.735 107.384 142.401 107.194 142.401 106.715C142.408 106.244 142.75 105.666 143.169 105.431C143.594 105.195 143.929 105.385 143.921 105.864Z" fill="#4D4D4D"/>
<path d="M143.686 105.849C143.678 106.221 143.405 106.677 143.078 106.867C142.743 107.049 142.477 106.897 142.485 106.525C142.493 106.153 142.766 105.697 143.093 105.507C143.42 105.317 143.686 105.469 143.686 105.849Z" fill="#949494"/>
<path d="M143.404 106.145C143.404 106.312 143.283 106.51 143.138 106.594C142.994 106.677 142.872 106.609 142.88 106.442C142.88 106.274 143.001 106.077 143.146 105.993C143.29 105.91 143.404 105.978 143.404 106.145Z" fill="#C4C4C4"/>
<path d="M143.328 106.244C143.328 106.335 143.26 106.441 143.184 106.487C143.108 106.533 143.04 106.495 143.04 106.403C143.04 106.312 143.108 106.206 143.184 106.16C143.26 106.115 143.328 106.153 143.328 106.244Z" fill="#4D4D4D"/>
<path d="M142.294 107.832L141.747 107.506C141.74 107.506 141.74 107.498 141.732 107.498L141.717 107.49C141.504 107.354 141.382 107.087 141.382 106.707C141.39 105.917 141.968 104.959 142.667 104.572C143.017 104.374 143.328 104.359 143.549 104.488L143.488 104.45C143.26 104.321 142.948 104.344 142.606 104.534C141.907 104.929 141.329 105.887 141.322 106.669C141.314 107.049 141.443 107.316 141.656 107.452L141.671 107.46C141.679 107.46 141.679 107.468 141.686 107.468L142.294 107.832Z" fill="black"/>
<path d="M142.294 107.832L142.028 107.673C142.021 107.673 142.021 107.665 142.013 107.665L141.998 107.658C141.785 107.521 141.664 107.255 141.664 106.875C141.671 106.084 142.249 105.127 142.948 104.739C143.298 104.541 143.609 104.526 143.83 104.655L143.769 104.617C143.541 104.488 143.229 104.511 142.887 104.701C142.188 105.096 141.61 106.054 141.603 106.837C141.595 107.217 141.724 107.483 141.937 107.62L141.952 107.627C141.96 107.627 141.96 107.635 141.968 107.635L142.294 107.832Z" fill="black"/>
<path d="M135.979 104.093L137.825 101.083L136.891 100.528C136.663 100.399 136.351 100.422 136.009 100.612C135.31 101.007 134.732 101.965 134.724 102.748C134.717 103.128 134.846 103.394 135.059 103.53L135.074 103.538C135.082 103.538 135.082 103.546 135.089 103.546L135.979 104.093Z" fill="black"/>
<path d="M137.492 101.266L136.215 100.514C136.139 100.536 136.07 100.574 135.994 100.612C135.295 101.008 134.718 101.965 134.71 102.748C134.71 102.893 134.725 103.022 134.763 103.136L135.744 103.721C135.85 103.691 135.964 103.645 136.086 103.577C136.215 103.501 136.336 103.409 136.458 103.311L137.423 101.73C137.461 101.578 137.492 101.418 137.492 101.266Z" fill="#1F1F1F"/>
<path d="M138.161 101.873C138.154 102.664 137.576 103.621 136.877 104.009C136.177 104.404 135.615 104.077 135.63 103.287C135.638 102.497 136.215 101.539 136.915 101.144C137.606 100.764 138.169 101.083 138.161 101.873Z" fill="#2A2A2A"/>
<path d="M138.108 101.904C138.1 102.664 137.546 103.583 136.877 103.963C136.2 104.343 135.668 104.032 135.676 103.272C135.683 102.512 136.238 101.592 136.907 101.212C137.584 100.832 138.116 101.144 138.108 101.904Z" fill="#1D1D1D"/>
<path d="M137.834 102.056C137.826 102.649 137.401 103.363 136.876 103.652C136.352 103.941 135.934 103.705 135.942 103.112C135.949 102.519 136.375 101.805 136.899 101.516C137.424 101.227 137.842 101.463 137.834 102.056Z" fill="#3B3B3B"/>
<path d="M137.773 102.086C137.766 102.634 137.363 103.302 136.876 103.576C136.39 103.85 136.002 103.622 136.01 103.074C136.017 102.527 136.42 101.858 136.907 101.585C137.393 101.319 137.781 101.539 137.773 102.086Z" fill="#727272"/>
<path d="M136.891 101.592C136.413 101.866 136.017 102.527 136.01 103.074C136.01 103.15 136.017 103.226 136.033 103.287L136.663 103.667C136.732 103.644 136.8 103.622 136.876 103.576C137.355 103.31 137.75 102.656 137.765 102.117L136.891 101.592Z" fill="#A9A9A9"/>
<path d="M136.405 102.033C136.23 102.261 136.101 102.535 136.04 102.801L137.096 103.424C137.302 103.249 137.484 103.006 137.606 102.747L136.405 102.033Z" fill="#E9EAE7"/>
<path d="M136.405 102.033C136.23 102.261 136.101 102.535 136.04 102.801L137.096 103.424C137.302 103.249 137.484 103.006 137.606 102.747L136.405 102.033Z" fill="#E9EAE7"/>
<path d="M137.606 102.117C137.598 102.588 137.256 103.166 136.838 103.401C136.42 103.637 136.086 103.439 136.086 102.968C136.094 102.497 136.436 101.919 136.854 101.683C137.279 101.455 137.614 101.645 137.606 102.117Z" fill="#4D4D4D"/>
<path d="M137.37 102.101C137.362 102.474 137.096 102.93 136.762 103.12C136.428 103.302 136.162 103.15 136.169 102.778C136.177 102.405 136.443 101.949 136.777 101.759C137.112 101.569 137.37 101.729 137.37 102.101Z" fill="#949494"/>
<path d="M137.089 102.405C137.089 102.573 136.968 102.77 136.823 102.854C136.679 102.937 136.557 102.869 136.565 102.702C136.565 102.535 136.686 102.337 136.831 102.253C136.975 102.17 137.089 102.238 137.089 102.405Z" fill="#C4C4C4"/>
<path d="M137.013 102.504C137.013 102.596 136.945 102.702 136.869 102.748C136.793 102.793 136.725 102.755 136.725 102.664C136.725 102.573 136.793 102.466 136.869 102.421C136.945 102.375 137.013 102.413 137.013 102.504Z" fill="#4D4D4D"/>
<path d="M135.98 104.093L135.432 103.766C135.425 103.766 135.425 103.758 135.417 103.758L135.402 103.751C135.189 103.614 135.067 103.348 135.067 102.968C135.075 102.177 135.653 101.22 136.352 100.832C136.702 100.634 137.013 100.619 137.234 100.748L137.173 100.71C136.945 100.581 136.633 100.604 136.291 100.794C135.592 101.189 135.014 102.147 135.007 102.93C134.999 103.31 135.128 103.576 135.341 103.713L135.356 103.72C135.364 103.72 135.364 103.728 135.371 103.728L135.98 104.093Z" fill="black"/>
<path d="M135.98 104.093L135.714 103.933C135.706 103.933 135.706 103.925 135.698 103.925L135.683 103.918C135.47 103.781 135.349 103.515 135.349 103.135C135.356 102.345 135.934 101.387 136.633 100.999C136.983 100.802 137.294 100.786 137.515 100.916L137.454 100.878C137.226 100.748 136.914 100.771 136.572 100.961C135.873 101.356 135.296 102.314 135.288 103.097C135.28 103.477 135.41 103.743 135.622 103.88L135.638 103.887C135.645 103.887 135.645 103.895 135.653 103.895L135.98 104.093Z" fill="black"/>
<path d="M135.994 91.8638L136.762 110.66L127.467 105.195L126.691 86.4751L135.994 91.8638Z" fill="#0073E8"/>
<path d="M128.394 105.75L128.918 106.061L128.143 87.3414L127.626 87.0298L128.394 105.75Z" fill="#0050DF"/>
<path d="M134.603 91.1112L134.086 90.8071L134.854 109.527L135.37 109.831L134.603 91.1112Z" fill="#0050DF"/>
<path d="M141.254 107.057C141.269 106.046 142.007 104.815 142.903 104.306C143.192 104.146 143.466 104.085 143.701 104.1L143.907 87.4175L135.995 91.8561L136.762 110.652L141.551 107.954C141.361 107.764 141.247 107.46 141.254 107.057Z" fill="#003BAB"/>
<path d="M136.154 92.4871C135.728 92.4871 135.303 92.3807 134.93 92.1603L126.213 87.106C125.734 86.8324 125.673 86.194 126.03 85.8216C126.083 85.7684 126.463 85.2287 126.539 85.1831L127.49 84.9475L135.85 91.3623C136.253 91.6131 136.344 92.1147 136.154 92.4871Z" fill="#0754B1"/>
<path d="M144.378 88.2308L137.347 92.1754C136.975 92.3807 136.564 92.4871 136.154 92.4871C136.352 92.1146 136.253 91.613 135.842 91.3698L127.482 84.955L133.235 81.6716C133.996 81.246 134.93 81.246 135.683 81.6944L144.081 86.2471C144.233 86.3383 144.659 87.0224 144.727 87.1668C144.887 87.5316 144.773 88.0104 144.378 88.2308Z" fill="#002987"/>
<path d="M143.899 87.4631L137.248 91.1949C136.534 91.5978 135.668 91.5902 134.961 91.1797L126.714 86.3991C126.19 86.095 126.197 85.3426 126.722 85.0462L133.365 81.2536C134.087 80.8431 134.968 80.8507 135.683 81.2688L143.922 86.1026C144.431 86.4143 144.423 87.1743 143.899 87.4631Z" fill="#008DFF"/>
<path d="M141.809 86.5511L136.937 89.2872C136.413 89.5836 135.774 89.5761 135.258 89.272L129.215 85.7682C128.835 85.5478 128.835 84.993 129.215 84.7726L134.087 81.9984C134.611 81.6944 135.258 81.702 135.782 82.006L141.817 85.5478C142.197 85.7834 142.189 86.3307 141.809 86.5511Z" fill="#003BAB"/>
<path d="M141.809 86.2395L136.937 88.9757C136.413 89.2721 135.774 89.2645 135.258 88.9605L129.215 85.4567C128.835 85.2363 128.835 84.6814 129.215 84.4686L134.087 81.6945C134.611 81.3904 135.258 81.398 135.782 81.7021L141.817 85.2439C142.197 85.4719 142.189 86.0267 141.809 86.2395Z" fill="#00A2FF"/>
<path d="M134.565 87.904L131.54 86.1254C131.282 85.9734 130.955 85.9658 130.689 86.1178L129.982 86.5359C129.792 86.6423 129.792 86.9235 129.982 87.0299L133.015 88.7856C133.273 88.9376 133.593 88.9376 133.859 88.7932L134.565 88.3904C134.748 88.2992 134.755 88.018 134.565 87.904Z" fill="#0069F1"/>
<path d="M131.533 86.133C131.434 86.0722 131.32 86.0418 131.206 86.0266L131.054 86.1178C130.864 86.2242 130.864 86.5054 131.054 86.6118L134.087 88.3675C134.193 88.4283 134.315 88.4588 134.436 88.474L134.558 88.4055C134.748 88.2991 134.756 88.0179 134.566 87.9115L131.533 86.133Z" fill="#003BAB"/>
<path d="M129.77 95.0481L132.642 96.6518C132.642 96.6518 133.395 98.0275 133.41 98.8787L131.981 98.1339L131.966 97.8907L131.632 96.7886L129.77 95.0481Z" fill="#6BC2FF"/>
<path d="M133.418 99.0842L133.372 102.938L132.703 100.049L131.73 102.018L131.981 98.2329L133.418 99.0842Z" fill="#6BC2FF"/>
<path d="M132.506 95.8615C132.529 96.2187 132.323 96.3783 132.042 96.2187C131.761 96.0591 131.518 95.6487 131.495 95.2914C131.472 94.9342 131.677 94.7746 131.959 94.9342C132.24 95.0938 132.483 95.5119 132.506 95.8615Z" fill="#6BC2FF"/>
<path d="M129.785 95.8159C129.785 95.8159 129.74 96.1731 129.633 96.2872C129.527 96.4012 129.276 96.348 129.276 96.348C129.276 96.348 129.428 96.766 129.755 96.994C130.082 97.222 130.188 97.0928 130.393 97.26C130.598 97.4272 130.614 97.4576 130.614 97.4576C130.614 97.4576 130.56 97.1992 130.75 97.1384C130.94 97.0776 131.047 96.956 131.062 96.8116C131.062 96.804 130.302 96.4924 129.785 95.8159Z" fill="#6BC2FF"/>
<path d="M131.404 98.2479L129.116 96.9558C129.048 96.9406 129.002 96.9558 129.002 97.0242C129.025 97.1078 129.07 97.1762 129.116 97.2218L129.177 97.2446L129.792 100.862L131.183 101.63L131.358 98.4607L131.426 98.5063C131.495 98.5291 131.518 98.5063 131.518 98.4455C131.518 98.3543 131.472 98.2935 131.404 98.2479ZM130.704 98.2935V98.5975L130.378 98.3999L130.355 98.0959L130.704 98.2935ZM130.704 98.7495V99.0992L130.4 98.9243V98.5747L130.704 98.7495ZM130.355 99.9732L130.096 99.8136L130.074 99.6008L130.051 99.4716V99.426L130.317 99.578L130.332 99.8592L130.355 99.9732ZM130.317 99.4032L130.028 99.2512L130.005 99.0536L129.99 98.8331L130.271 99.008L130.294 99.16V99.2056L130.317 99.4032ZM130.271 98.8559L129.967 98.6811L129.944 98.5519V98.3999L129.922 98.3087L130.248 98.4835V98.5747L130.271 98.8559ZM130.203 98.0047L130.226 98.3315L129.899 98.1339L129.876 97.8299L130.203 98.0047ZM129.374 97.5487L129.724 97.7463L129.747 98.0503L129.443 97.8755L129.374 97.5487ZM129.488 98.1339L129.466 98.0503L129.77 98.2251L129.792 98.3087L129.815 98.4607L129.83 98.5975L129.526 98.4227L129.488 98.1339ZM129.549 98.5975L129.83 98.7723L129.876 98.9699V99.0992L129.899 99.1828L129.618 99.008L129.549 98.5975ZM129.678 99.4868L129.64 99.1828L129.922 99.3348L129.944 99.5324L129.967 99.7528L129.701 99.6008L129.678 99.4868ZM129.724 99.7756L129.99 99.9276L130.005 100.011V100.125L130.028 100.323L129.792 100.186L129.724 99.7756ZM129.876 100.688L129.815 100.361L130.051 100.49L130.096 100.824L129.876 100.688ZM130.096 99.9884L130.355 100.125V100.232L130.378 100.513L130.142 100.384L130.096 99.9884ZM130.203 100.885L130.165 100.558L130.4 100.688L130.423 100.999L130.203 100.885ZM130.423 99.0992L130.704 99.2512L130.727 99.4488V99.6464L130.446 99.4868L130.423 99.274V99.0992ZM130.446 99.6464L130.727 99.7984V100.186L130.469 100.034V99.9276L130.446 99.6464ZM130.75 101.189L130.53 101.06L130.507 100.756L130.75 100.885V101.189ZM130.507 100.581L130.492 100.3V100.186L130.727 100.338V100.513L130.75 100.733L130.507 100.581ZM131.077 101.364L130.856 101.235V100.954L131.1 101.083L131.077 101.364ZM131.1 100.931L130.856 100.779V100.406L131.122 100.558L131.1 100.931ZM131.122 100.406L130.856 100.254V99.8592L131.122 100.011V100.406ZM131.145 99.8592L130.856 99.7072V99.3348L131.145 99.4868V99.8592ZM131.168 99.3348L130.856 99.1828V98.8331L131.168 99.008V99.3348ZM131.183 98.8559L130.856 98.6811V98.3771L131.183 98.5519V98.8559Z" fill="#6BC2FF"/>
<path d="M153.293 126.811L132.445 123.398L125.02 130.596L140.889 133.18L153.293 126.811Z" fill="#CAD2FC"/>
<path d="M119.494 127.457L117.647 124.447L118.582 123.892C118.81 123.763 119.121 123.786 119.463 123.976C120.163 124.371 120.74 125.329 120.748 126.111C120.756 126.491 120.626 126.757 120.414 126.894L120.398 126.902C120.391 126.902 120.391 126.909 120.383 126.909L119.494 127.457Z" fill="black"/>
<path d="M117.974 124.637L119.243 123.885C119.319 123.907 119.387 123.945 119.463 123.983C120.163 124.379 120.74 125.336 120.748 126.119C120.748 126.263 120.733 126.393 120.695 126.507L119.714 127.092C119.608 127.062 119.494 127.016 119.38 126.947C119.251 126.871 119.121 126.78 119.007 126.681L118.042 125.101C118.004 124.941 117.981 124.781 117.974 124.637Z" fill="#1F1F1F"/>
<path d="M117.313 125.237C117.32 126.028 117.898 126.985 118.597 127.373C119.296 127.768 119.859 127.441 119.844 126.651C119.836 125.861 119.258 124.903 118.559 124.508C117.86 124.128 117.305 124.447 117.313 125.237Z" fill="#2A2A2A"/>
<path d="M117.366 125.268C117.373 126.028 117.928 126.947 118.597 127.327C119.273 127.707 119.805 127.396 119.798 126.636C119.79 125.876 119.235 124.956 118.559 124.576C117.89 124.196 117.35 124.508 117.366 125.268Z" fill="#1D1D1D"/>
<path d="M117.632 125.42C117.64 126.013 118.065 126.727 118.59 127.016C119.114 127.305 119.532 127.069 119.524 126.476C119.517 125.883 119.091 125.169 118.567 124.88C118.042 124.591 117.624 124.827 117.632 125.42Z" fill="#3B3B3B"/>
<path d="M117.7 125.458C117.707 126.005 118.11 126.674 118.597 126.947C119.083 127.221 119.471 126.993 119.463 126.446C119.456 125.899 119.053 125.23 118.566 124.956C118.08 124.683 117.692 124.903 117.7 125.458Z" fill="#727272"/>
<path d="M118.582 124.964C119.061 125.237 119.456 125.898 119.464 126.446C119.464 126.522 119.456 126.598 119.441 126.659L118.802 127.039C118.734 127.016 118.665 126.993 118.589 126.947C118.111 126.681 117.715 126.028 117.7 125.488L118.582 124.964Z" fill="#A9A9A9"/>
<path d="M119.06 125.405C119.235 125.633 119.364 125.906 119.425 126.165L118.369 126.788C118.163 126.613 117.981 126.37 117.859 126.111L119.06 125.405Z" fill="#E9EAE7"/>
<path d="M119.06 125.405C119.235 125.633 119.364 125.906 119.425 126.165L118.369 126.788C118.163 126.613 117.981 126.37 117.859 126.111L119.06 125.405Z" fill="#E9EAE7"/>
<path d="M117.859 125.488C117.867 125.959 118.209 126.537 118.627 126.772C119.045 127.008 119.379 126.81 119.379 126.339C119.372 125.868 119.03 125.29 118.612 125.055C118.194 124.819 117.859 125.009 117.859 125.488Z" fill="#4D4D4D"/>
<path d="M118.103 125.473C118.111 125.845 118.384 126.301 118.711 126.491C119.046 126.674 119.312 126.522 119.304 126.149C119.296 125.777 119.023 125.321 118.696 125.131C118.362 124.941 118.096 125.093 118.103 125.473Z" fill="#949494"/>
<path d="M118.384 125.769C118.384 125.936 118.505 126.134 118.65 126.218C118.794 126.301 118.916 126.233 118.908 126.066C118.908 125.898 118.786 125.701 118.642 125.617C118.498 125.534 118.376 125.602 118.384 125.769Z" fill="#C4C4C4"/>
<path d="M118.46 125.868C118.46 125.959 118.528 126.066 118.604 126.111C118.68 126.157 118.749 126.119 118.749 126.028C118.749 125.937 118.68 125.83 118.604 125.785C118.521 125.747 118.46 125.777 118.46 125.868Z" fill="#4D4D4D"/>
<path d="M119.494 127.457L120.041 127.13C120.049 127.13 120.049 127.122 120.056 127.122L120.071 127.115C120.284 126.978 120.406 126.712 120.406 126.332C120.398 125.542 119.821 124.584 119.121 124.196C118.772 123.999 118.46 123.983 118.24 124.113L118.301 124.075C118.529 123.945 118.84 123.968 119.182 124.158C119.881 124.553 120.459 125.511 120.467 126.294C120.474 126.674 120.345 126.94 120.132 127.077L120.117 127.084C120.109 127.084 120.109 127.092 120.102 127.092L119.494 127.457Z" fill="black"/>
<path d="M119.494 127.457L119.76 127.297C119.768 127.297 119.768 127.289 119.775 127.289L119.791 127.282C120.004 127.145 120.125 126.879 120.125 126.499C120.118 125.709 119.54 124.751 118.841 124.363C118.491 124.166 118.179 124.15 117.959 124.28L118.02 124.242C118.248 124.112 118.559 124.135 118.901 124.325C119.601 124.72 120.178 125.678 120.186 126.461C120.194 126.841 120.064 127.107 119.851 127.244L119.836 127.251C119.829 127.251 119.829 127.259 119.821 127.259L119.494 127.457Z" fill="black"/>
<path d="M125.809 123.717L123.962 120.707L124.897 120.153C125.125 120.023 125.437 120.046 125.779 120.236C126.478 120.631 127.056 121.589 127.063 122.372C127.071 122.752 126.942 123.018 126.729 123.155L126.714 123.162C126.706 123.162 126.706 123.17 126.699 123.17L125.809 123.717Z" fill="black"/>
<path d="M124.29 120.89L125.559 120.137C125.635 120.16 125.703 120.198 125.779 120.236C126.478 120.631 127.056 121.589 127.064 122.372C127.064 122.516 127.049 122.646 127.011 122.76L126.03 123.345C125.924 123.314 125.81 123.269 125.688 123.2C125.559 123.124 125.43 123.033 125.316 122.934L124.343 121.354C124.32 121.202 124.297 121.042 124.29 120.89Z" fill="#1F1F1F"/>
<path d="M123.628 121.498C123.636 122.288 124.213 123.246 124.912 123.634C125.612 124.029 126.174 123.702 126.159 122.912C126.151 122.121 125.574 121.164 124.874 120.776C124.175 120.388 123.62 120.708 123.628 121.498Z" fill="#2A2A2A"/>
<path d="M123.681 121.528C123.689 122.288 124.243 123.208 124.912 123.588C125.589 123.968 126.121 123.656 126.113 122.896C126.106 122.136 125.551 121.217 124.882 120.837C124.205 120.457 123.666 120.768 123.681 121.528Z" fill="#1D1D1D"/>
<path d="M123.947 121.68C123.955 122.273 124.381 122.988 124.905 123.276C125.429 123.565 125.847 123.33 125.84 122.737C125.832 122.144 125.407 121.429 124.882 121.141C124.358 120.852 123.94 121.087 123.947 121.68Z" fill="#3B3B3B"/>
<path d="M124.016 121.718C124.023 122.266 124.426 122.934 124.913 123.208C125.399 123.482 125.787 123.254 125.779 122.706C125.771 122.159 125.369 121.49 124.882 121.217C124.396 120.943 124.008 121.163 124.016 121.718Z" fill="#727272"/>
<path d="M124.897 121.217C125.376 121.49 125.771 122.151 125.779 122.699C125.779 122.775 125.771 122.851 125.756 122.911L125.125 123.291C125.057 123.269 124.988 123.246 124.912 123.2C124.433 122.934 124.038 122.281 124.023 121.741L124.897 121.217Z" fill="#A9A9A9"/>
<path d="M125.376 121.657C125.55 121.885 125.68 122.159 125.74 122.417L124.684 123.041C124.479 122.866 124.296 122.622 124.175 122.364L125.376 121.657Z" fill="#E9EAE7"/>
<path d="M125.376 121.657C125.55 121.885 125.68 122.159 125.74 122.417L124.684 123.041C124.479 122.866 124.296 122.622 124.175 122.364L125.376 121.657Z" fill="#E9EAE7"/>
<path d="M124.175 121.741C124.182 122.212 124.524 122.79 124.942 123.026C125.36 123.261 125.695 123.064 125.695 122.592C125.687 122.121 125.345 121.544 124.927 121.308C124.509 121.08 124.175 121.27 124.175 121.741Z" fill="#4D4D4D"/>
<path d="M124.419 121.726C124.426 122.098 124.7 122.554 125.027 122.744C125.361 122.927 125.627 122.775 125.619 122.402C125.612 122.03 125.338 121.574 125.011 121.384C124.685 121.194 124.411 121.354 124.419 121.726Z" fill="#949494"/>
<path d="M124.7 122.03C124.7 122.197 124.821 122.395 124.966 122.478C125.11 122.562 125.232 122.493 125.224 122.326C125.224 122.159 125.102 121.961 124.958 121.878C124.814 121.794 124.692 121.863 124.7 122.03Z" fill="#C4C4C4"/>
<path d="M124.775 122.129C124.775 122.22 124.844 122.326 124.92 122.372C124.996 122.417 125.064 122.379 125.064 122.288C125.064 122.197 124.996 122.091 124.92 122.045C124.836 121.999 124.775 122.037 124.775 122.129Z" fill="#4D4D4D"/>
<path d="M125.809 123.717L126.356 123.391C126.364 123.391 126.364 123.383 126.372 123.383L126.387 123.375C126.6 123.239 126.721 122.972 126.721 122.592C126.714 121.802 126.136 120.844 125.437 120.457C125.087 120.259 124.776 120.244 124.555 120.373L124.616 120.335C124.844 120.206 125.156 120.229 125.498 120.419C126.197 120.814 126.774 121.772 126.782 122.554C126.79 122.934 126.66 123.201 126.448 123.337L126.432 123.345C126.425 123.345 126.425 123.353 126.417 123.353L125.809 123.717Z" fill="black"/>
<path d="M125.809 123.717L126.075 123.558C126.083 123.558 126.083 123.55 126.09 123.55L126.106 123.542C126.318 123.406 126.44 123.139 126.44 122.759C126.432 121.969 125.855 121.011 125.156 120.624C124.806 120.426 124.494 120.411 124.274 120.54L124.335 120.502C124.563 120.373 124.874 120.396 125.216 120.586C125.916 120.981 126.493 121.939 126.501 122.721C126.508 123.101 126.379 123.367 126.166 123.504L126.151 123.512C126.144 123.512 126.144 123.52 126.136 123.52L125.809 123.717Z" fill="black"/>
<path d="M125.795 111.488L125.027 130.284L134.322 124.819L135.097 106.099L125.795 111.488Z" fill="#003BAB"/>
<path d="M133.387 125.374L132.871 125.686L133.646 106.966L134.163 106.654L133.387 125.374Z" fill="#002987"/>
<path d="M127.185 110.735L127.702 110.431L126.927 129.151L126.41 129.455L127.185 110.735Z" fill="#002987"/>
<path d="M120.535 126.689C120.52 125.678 119.783 124.447 118.886 123.938C118.597 123.778 118.324 123.717 118.088 123.733L117.883 107.05L125.795 111.488L125.027 130.284L120.239 127.586C120.429 127.388 120.543 127.084 120.535 126.689Z" fill="#0073E8"/>
<path d="M125.635 112.111C126.06 112.111 126.486 112.005 126.858 111.785L135.576 106.73C136.055 106.457 136.116 105.818 135.758 105.446C135.705 105.393 135.325 104.853 135.249 104.807L134.299 104.572L125.939 110.987C125.536 111.237 125.437 111.739 125.635 112.111Z" fill="#002987"/>
<path d="M117.411 107.855L124.442 111.8C124.814 112.005 125.225 112.111 125.635 112.111C125.437 111.739 125.536 111.237 125.947 110.994L134.307 104.579L128.554 101.296C127.794 100.87 126.859 100.87 126.106 101.319L117.708 105.871C117.556 105.963 117.13 106.647 117.062 106.791C116.895 107.156 117.016 107.635 117.411 107.855Z" fill="#0754B1"/>
<path d="M117.89 107.087L124.541 110.819C125.255 111.222 126.122 111.214 126.828 110.804L135.075 106.023C135.599 105.719 135.592 104.967 135.067 104.67L128.425 100.878C127.702 100.467 126.821 100.475 126.106 100.893L117.868 105.727C117.358 106.039 117.366 106.799 117.89 107.087Z" fill="#008DFF"/>
<path d="M119.98 106.175L124.852 108.912C125.376 109.208 126.015 109.2 126.532 108.896L132.574 105.392C132.954 105.172 132.954 104.617 132.574 104.397L127.702 101.623C127.178 101.319 126.532 101.326 126.007 101.63L119.973 105.172C119.593 105.408 119.593 105.955 119.98 106.175Z" fill="#003BAB"/>
<path d="M119.98 105.864L124.852 108.6C125.376 108.896 126.015 108.889 126.532 108.585L132.574 105.081C132.954 104.861 132.954 104.306 132.574 104.093L127.702 101.319C127.178 101.015 126.532 101.022 126.007 101.326L119.973 104.868C119.593 105.096 119.593 105.651 119.98 105.864Z" fill="#00A2FF"/>
<path d="M127.224 107.536L130.249 105.758C130.507 105.606 130.834 105.598 131.1 105.75L131.807 106.168C131.997 106.274 131.997 106.556 131.807 106.662L128.774 108.418C128.516 108.57 128.196 108.57 127.93 108.425L127.224 108.022C127.034 107.924 127.034 107.642 127.224 107.536Z" fill="#0069F1"/>
<path d="M130.248 105.757C130.347 105.696 130.461 105.666 130.575 105.651L130.727 105.742C130.917 105.848 130.917 106.13 130.727 106.236L127.695 107.992C127.588 108.053 127.467 108.083 127.345 108.098L127.224 108.03C127.034 107.923 127.026 107.642 127.216 107.536L130.248 105.757Z" fill="#003BAB"/>
<path d="M132.019 114.671L129.146 116.275C129.146 116.275 128.393 117.65 128.378 118.502L129.807 117.757L129.822 117.513L130.156 116.411L132.019 114.671Z" fill="#6B9FFF"/>
<path d="M128.371 118.708L128.409 122.562L129.086 119.681L130.058 121.642L129.808 117.857L128.371 118.708Z" fill="#6B9FFF"/>
<path d="M129.275 115.486C129.252 115.843 129.458 116.003 129.739 115.843C130.02 115.683 130.263 115.273 130.286 114.916C130.309 114.558 130.104 114.399 129.822 114.558C129.549 114.718 129.298 115.136 129.275 115.486Z" fill="#6B9FFF"/>
<path d="M132.004 115.44C132.004 115.44 132.05 115.797 132.156 115.911C132.262 116.025 132.513 115.972 132.513 115.972C132.513 115.972 132.361 116.39 132.034 116.618C131.708 116.846 131.601 116.717 131.396 116.884C131.191 117.051 131.175 117.074 131.175 117.074C131.175 117.074 131.229 116.816 131.039 116.755C130.849 116.694 130.742 116.573 130.727 116.428C130.727 116.428 131.487 116.117 132.004 115.44Z" fill="#6B9FFF"/>
<path d="M132.711 116.573C132.696 116.573 132.696 116.573 132.673 116.573L130.377 117.865C130.317 117.91 130.271 117.994 130.271 118.062C130.271 118.123 130.317 118.169 130.355 118.123L130.423 118.1L130.598 121.27L131.996 120.479L132.604 116.884L132.673 116.839C132.711 116.816 132.756 116.732 132.779 116.664C132.779 116.595 132.756 116.573 132.711 116.573ZM131.578 117.621L131.905 117.447L131.882 117.773L131.555 117.948L131.578 117.621ZM131.533 118.191V118.1L131.859 117.925L131.844 118.017V118.169L131.821 118.298L131.517 118.473L131.533 118.191ZM131.495 118.822V118.777L131.517 118.625L131.799 118.473L131.776 118.67L131.753 118.868L131.472 119.043L131.495 118.822ZM131.472 119.195L131.73 119.043V119.217L131.685 119.438L131.426 119.59L131.449 119.476L131.472 119.195ZM131.077 117.91L131.426 117.713L131.403 118.039L131.077 118.214V117.91ZM131.077 118.366L131.403 118.191L131.381 118.275V118.564L131.077 118.716V118.366ZM130.925 120.874L130.704 120.981V120.7L130.925 120.57V120.874ZM130.925 120.418L130.681 120.548V120.175L130.925 120.023V120.418ZM130.925 119.871L130.666 120.023V119.651L130.925 119.499V119.871ZM130.925 119.347L130.643 119.499V119.126L130.925 118.951V119.347ZM130.925 118.799L130.621 118.974V118.625L130.925 118.45V118.799ZM130.925 118.298L130.598 118.473V118.191L130.925 117.994V118.298ZM131.251 120.677L131.031 120.806V120.502L131.274 120.373L131.251 120.677ZM131.297 119.917L131.274 120.221L131.031 120.35L131.054 120.152V119.955L131.297 119.825V119.917ZM131.32 119.567V119.651L131.054 119.803V119.415L131.343 119.263L131.32 119.567ZM131.054 119.263V119.065L131.077 118.891L131.358 118.716V118.913L131.343 119.111L131.054 119.263ZM131.578 120.502L131.358 120.639L131.381 120.304L131.624 120.175L131.578 120.502ZM131.647 120.023L131.403 120.152L131.426 119.848V119.765L131.685 119.613L131.669 119.803L131.647 120.023ZM131.905 120.327L131.685 120.441L131.73 120.114L131.973 119.978L131.905 120.327ZM131.996 119.825L131.753 119.955L131.776 119.742L131.799 119.628V119.544L132.057 119.392L131.996 119.825ZM132.103 119.126L132.08 119.24L131.821 119.369L131.844 119.149L131.859 118.974L132.148 118.822L132.103 119.126ZM132.171 118.647L131.882 118.799L131.905 118.739V118.587L131.951 118.389L132.232 118.237L132.171 118.647ZM132.323 117.758L132.255 118.062L131.973 118.237V118.1L131.996 117.948L132.019 117.842L132.323 117.667V117.758ZM132.346 117.492L132.034 117.69L132.057 117.363L132.407 117.165L132.346 117.492Z" fill="#6B9FFF"/>
</g>
</svg>
