<svg fill="none" height="164" viewBox="0 0 239 164" width="239" xmlns="http://www.w3.org/2000/svg" xmlns:xlink="http://www.w3.org/1999/xlink"><mask id="a" height="164" maskUnits="userSpaceOnUse" width="239" x="0" y="0"><path d="m.439476 61.6565c-.080066-1.0641-.152124-2.1121-.232191-3.1361-2.305915-29.2253 14.892415-46.194 38.359915-51.49026 6.6456-1.50407 12.0901-1.81608 18.4794.84803 8.1588 3.40013 16.6539 4.06413 24.9568.84004 9.1036-3.53615 16.9021-9.08039 26.8706-8.6803731 14.188.5760251 27.599 7.8963331 40.153 14.9766631 11.057 6.2322 21.77 8.2323 33.188 2.0561 16.013-8.6644 40.097 6.5842 31.258 28.6332-3.571 8.9044-9.248 20.0089-4.652 29.9293 3.963 8.5364 14.46 12.6485 20.073 19.8328 6.181 7.9121 10.881 18.5131 9.552 29.4811-2.923 24.049-31.611 33.978-48.873 36.73-10.249 1.632-21.954 1.16-31.21-4.688-7.823-4.945-13.739-13.833-22.651-16.449-13.155-3.864-24.38 12.552-35.477 18.025-12.3467 6.088-27.4473 8.68-37.5677-3.849-8.1348-10.056-8.1268-32.705-21.3538-36.505-7.4862-2.152-15.2207.152-22.4427-3.896-16.05334-8.985-17.11022-34.0897-18.431324-52.6585z" fill="#dee4ff" opacity=".8"/></mask><path d="m.439476 61.6391c-.080066-1.064-.152124-2.112-.232191-3.1361-2.305915-29.2252 14.892415-46.194 38.359915-51.4902 6.6456-1.50406 12.0901-1.81608 18.4794.84804 8.1588 3.40016 16.6539 4.06416 24.9568.84003 9.1036-3.53615 16.9021-9.080384 26.8706-8.6803671 14.188.5760251 27.599 7.8963371 40.153 14.9765971 11.057 6.2323 21.77 8.2324 33.188 2.0561 16.013-8.66434 40.097 6.5843 31.258 28.6333-3.571 8.9043-9.248 20.0088-4.652 29.9293 3.963 8.5363 14.46 12.6485 20.073 19.8328 6.181 7.9124 10.881 18.5124 9.552 29.4814-2.923 24.049-31.611 33.977-48.873 36.729-10.249 1.633-21.954 1.16-31.21-4.688-7.823-4.944-13.739-13.832-22.651-16.448-13.155-3.865-24.38 12.552-35.477 18.024-12.3467 6.089-27.4473 8.681-37.5677-3.848-8.1348-10.056-8.1268-32.705-21.3538-36.505-7.4862-2.152-15.2207.152-22.4427-3.897-16.05334-8.984-17.11022-34.0891-18.431324-52.6579z" fill="#dee4ff" opacity=".7"/><g mask="url(#a)"><path d="m120.124 44.4215c0 2.333-1.89 4.2233-4.224 4.2233-2.333 0-4.223-1.8903-4.223-4.2233s1.89-4.2233 4.223-4.2233c2.334 0 4.224 1.8903 4.224 4.2233z" fill="#ffc1ac"/><path d="m144.577 44.4215c0 2.333-1.89 4.2233-4.223 4.2233s-4.223-1.8903-4.223-4.2233 1.89-4.2233 4.223-4.2233 4.223 1.8903 4.223 4.2233z" fill="#ffc1ac"/><path d="m126.812 136.229c.145-.885.429-1.738.793-2.571l-16.173-.733s-6.946 14.48-5.366 26.436h20.581c.224-7.501-1.375-15.432.165-23.132z" fill="#ffb84d"/><path d="m147.948 134.577-20.343-.919c-.357.833-.641 1.686-.793 2.571-1.54 7.706.059 15.631-.172 23.132h27.269s-.403-13.317-5.961-24.784z" fill="#ffc773"/><path d="m110.652 81.6242 13.946-12.1542h10.059l9.801 13.7007s6.662 17.3753 8.348 62.9653c0 0-32.418 8.592-46.978 0 3.529-32.167 4.441-61.465 4.441-61.465z" fill="#6785ff"/><path d="m128.134 145.812c1.348 0 2.313.886 2.313 1.983v7.27c0 1.097-.965 1.983-2.313 1.983-.588 0-1.104-.172-1.5-.449" stroke="#ad6800" stroke-dasharray="1 1" stroke-miterlimit="10"/><path d="m120.13 72.9663c-.621 1.3351-3.331 2.8486-4.441 3.8598-1.468 1.3284-2.902 2.7031-4.283 4.1307-2.842 2.9278-5.499 6.054-7.911 9.3519-3.8335 5.2609-7.0654 10.8783-9.286 17.0323-2.115 5.862-4.3687 14.216 1.7977 18.38 3.9983 2.703 9.9603 3.555 14.6523 3.899.542.04 8.129.106 8.136.126l-1.758-4.125c-2.756-1.573-5.532-2.993-8.374-4.395-2.214-1.084-5.366-2.478-4.811-5.624.515-2.908 4.428-11.659 5.73-14.256 1.355-2.6899 1.308.37 2.234-2.5048.006.0132 8.294-25.8352 8.314-25.8749z" fill="#ffc1ac"/><path d="m150.01 110.434c-1.567-1.904-2.935-3.999-4.607-5.797 1.183 9.181 1.355 19.702 1.897 34.348 0 0-14.428 7.27-41.234 4.964-.238 2.194 0 0-.238 2.194 14.56 8.592 46.978 0 46.978 0-.542-14.732-1.606-26.509-2.796-35.709z" fill="#476cff"/><path d="m137.043 72.854c.667 1.302 3.41 2.6899 4.554 3.6483 1.507 1.2623 2.98 2.5709 4.408 3.9258 2.928 2.7957 5.69 5.7896 8.202 8.9818 4.005 5.0759 7.422 10.5417 9.861 16.5891 2.32 5.763 4.877 13.998-1.091 18.446-3.873 2.888-9.755 4.012-14.401 4.574-.535.066-7.072.436-7.072.456l.588-4.151c2.677-1.698 5.38-3.245 8.149-4.778 2.155-1.19 5.235-2.723 4.567-5.843-.621-2.881-4.765-10.991-6.159-13.522-1.448-2.624-1.355-.02-2.38-2.8487-.006 0-9.213-25.4386-9.226-25.4783z" fill="#ffc1ac"/><path d="m151.246 106.726-8.691-10.9581s-5.499-22.8743-5.518-22.9073c10.713 2.8552 17.501 9.8741 21.816 17.2433-2.3 9.7749-7.607 16.6221-7.607 16.6221z" fill="#6785ff"/><path d="m124.129 53.6147-3.926 19.7284s8.744 17.4415 17.124-.5155l-4.699-19.2129z" fill="#ffb9a1"/><path d="m132.628 53.6147h-8.5l-3.886 19.5301c4.501-3.4896 10.192-6.1928 15.102-8.4399z" fill="#ffb296"/><path d="m140.691 50.3101c0 6.933-5.624 12.5574-12.557 12.5574s-12.557-5.6244-12.557-12.5574v-13.2183c0-6.933 5.624-12.5574 12.557-12.5574s12.557 5.6244 12.557 12.5574z" fill="#ffc1ac"/><path d="m134.479 23.9197c2.412 1.7845 4.606 3.8466 5.115 4.4678 2.036 2.4719-.489 4.0052-2.531 4.7718-1.349.5023-2.756.846-4.164 1.0906-1.494.2511-2.968.9979-3.886-.4891-.621-1.0046.152-2.1546-1.699-1.8308-2.287.3966-5.485 4.5538-7.283 1.5796-.549-.9054-.489-2.2933-1.474-2.9014-1.104-.6807-2.703.1785-3.813.3503-2.175.3371-4.495-.8129-2.195-2.9675 1.831-1.7118 4.409-1.5664 6.464-2.6437-2.683-.8988 1.296-2.4586 2.32-2.5181 1.897-.1123 3.787.152 5.677.2512.027-3.7408 3.986-1.7382 7.469.8393z" fill="#1f2f6d"/><path d="m138.153 32.1615c.351 1.758 1.772 10.3962 1.772 10.3962 1.123-3.8466 3.093-8.3606 1.731-12.3393-.258-.7469-.919-1.5796-1.877-1.8308-1.143-.2974-1.791.4759-1.837 1.3351-.04.8261.053 1.6391.211 2.4388z" fill="#1f2f6d"/><path d="m118.518 32.2142c-.397 1.8637-2.148 11.4801-2.036 11.0042-1.289-4.0712-3.556-8.8431-1.989-13.0597.291-.7931 1.057-1.6721 2.154-1.9365 1.309-.3106 2.062.5023 2.109 1.4078.046.879-.053 1.7382-.238 2.5842z" fill="#1f2f6d"/><path d="m127.611 42.1809s.443 2.3925-1.269 8.5258c0 0 1.824 1.117 4.052 0" stroke="#bf826d" stroke-linecap="round" stroke-linejoin="round" stroke-miterlimit="10"/><path d="m133.533 43.1458c0 .423-.343.7733-.773.7733-.423 0-.773-.3437-.773-.7733 0-.423.343-.7732.773-.7732.423.0066.773.3502.773.7732z" fill="#000"/><path d="m144.492 90.7914s-1.587-5.5517.912 13.8466c1.672 1.797 3.04 3.892 4.606 5.796-2.498-19.2924-5.518-19.6426-5.518-19.6426z" fill="#476cff"/><path d="m124.281 43.1458c0 .423-.344.7733-.773.7733-.423 0-.774-.3437-.774-.7733 0-.423.344-.7732.774-.7732.423.0066.773.3502.773.7732z" fill="#000"/><g stroke-linecap="round" stroke-linejoin="round" stroke-miterlimit="10"><path d="m120.526 41.6322s1.071-1.6523 3.424-1.8968" stroke="#1f2f6d" stroke-width="1.5"/><path d="m135.186 41.6322s-1.071-1.6523-3.424-1.8968" stroke="#1f2f6d" stroke-width="1.5"/><path d="m126.35 55.5977s5.644 2.148 8.843-3.7276" stroke="#bf826d"/><path d="m135.047 51.2683.753.4825" stroke="#bf826d"/></g><path d="m121.392 124.782c-2.029 2.34-4.163 3.701-4.771 3.054-.609-.648.548-3.074 2.577-5.413 2.029-2.34 4.164-3.701 4.772-3.054.608.655-.549 3.073-2.578 5.413z" fill="#ffc1ac"/><path d="m132.76 57.0249c.436-.2247 1.203-.8063 1.586-1.2227" stroke="#bf826d" stroke-linecap="round" stroke-linejoin="round" stroke-miterlimit="10" stroke-width=".5"/><path d="m138.398 124.782c2.029 2.34 4.164 3.701 4.772 3.054.608-.648-.549-3.074-2.578-5.413-2.029-2.34-4.164-3.701-4.772-3.054-.601.655.549 3.073 2.578 5.413z" fill="#ffc1ac"/><path d="m136.964 132.568c0 .515-.8 1.017-1.58 1.017h-8.076c-.78 0-1.626-.621-1.626-1.136l-3.609-16.259c0-.515.628-1.11 1.408-1.11h14.368c.78 0 1.408.595 1.408 1.11z" fill="#867575"/><path d="m137.981 115.397-11.843 17.792c.317.271.747.39 1.17.39h8.076c.78 0 1.579-.503 1.579-1.018l2.3-16.226c-.006-.482-.568-.885-1.282-.938z" fill="#756666"/><path d="m128.794 127.102c0 4.124-2.736 4.124-6.113 4.124s-6.114-1.844-6.114-4.124c0-2.274 2.737-4.124 6.114-4.124s6.113 1.85 6.113 4.124z" fill="#ffc1ac"/><path d="m130.996 127.102c0 4.124 2.736 4.124 6.113 4.124s6.114-1.844 6.114-4.124c0-2.274-2.737-4.124-6.114-4.124-3.371 0-6.113 1.85-6.113 4.124z" fill="#ffc1ac"/><path d="m107.354 107.387 8.222-11.3085s4.706-23.1717 4.719-23.1981c-10.588 3.3045-17.237 10.6804-21.2418 18.2214 2.2408 7.3957 8.3008 16.2852 8.3008 16.2852z" fill="#6785ff"/><path d="m112.78 92.199s-2.101 4.4347-3.74 11.493" stroke="#fff" stroke-linecap="round" stroke-linejoin="round" stroke-miterlimit="10"/><path d="m145.536 92.199s2.61 4.6793 4.553 12.022" stroke="#fff" stroke-linecap="round" stroke-linejoin="round" stroke-miterlimit="10"/><path d="m115.021 43.7804c-.284-.0661-.588.0727-.832.3701-.014-.1454-.02-.3173-.02-.5288 0-.6344.39-1.1632.852-1.1632.185 0 .331-.1454.331-.3304 0-.1851-.146-.3305-.331-.3305-.839 0-1.513.8195-1.513 1.8241 0 1.1897.178 1.7448.608 1.877.053.0199.106.0265.158.0265.265 0 .503-.1983.708-.4429v.0397c-.014.6477-.397 1.1698-.853 1.1698-.185 0-.33.1454-.33.3305 0 .185.145.3304.33.3304.826 0 1.494-.7997 1.514-1.8175.026-.9913-.324-1.2888-.622-1.3548z" fill="#ab7461"/><path d="m141.234 43.7804c.284-.0661.588.0727.832.3701.013-.1454.02-.3173.02-.5288 0-.6344-.39-1.1632-.852-1.1632-.186 0-.331-.1454-.331-.3304 0-.1851.145-.3305.331-.3305.839 0 1.513.8195 1.513 1.8241 0 1.1897-.178 1.7448-.608 1.877-.053.0199-.106.0265-.159.0265-.264 0-.502-.1983-.707-.4429v.0397c.013.6477.397 1.1698.853 1.1698.185 0 .33.1454.33.3305 0 .185-.145.3304-.33.3304-.826 0-1.494-.7997-1.514-1.8175-.026-.9913.324-1.2888.622-1.3548z" fill="#ab7461"/><path d="m101.81 85.6692s-2.3136 2.4189-3.0869 4.6132c0 0 2.4719 12.6436 8.9689 17.6006 0 0 2.617-2.433 3.053-4.389.007-.007-6.516-9.6427-8.935-17.8248z" fill="#a1b3ff"/><path d="m156.573 85.6692s2.313 2.4189 3.086 4.6132c0 0-2.472 12.6436-8.968 17.6006 0 0-2.618-2.433-3.054-4.389-.006-.007 6.51-9.6427 8.936-17.8248z" fill="#a1b3ff"/><path d="m129.317 81.155c-1.097.1124-2.221-.0198-3.357-.5023-1.983-.8393-3.536-2.2273-4.964-3.8135-.502-.5617-1.877-2.0554-2.419-3.3772-.363-.8857 1.428-2.2736 1.811-1.963.549.4363 2.399 3.1064 3.212 3.9325 2.875 2.9146 6.537 3.3046 9.768.9121 1.25-.9253 2.69-2.5049 3.629-3.7739.78-1.0574 3.06 1.2359.7 3.5756-2.24 2.2074-5.181 4.6727-8.38 5.0097z" fill="#a1b3ff"/><path d="m138.246 32.6371 1.354-4.2496" stroke="#fff" stroke-linecap="round" stroke-linejoin="round" stroke-miterlimit="10" stroke-width=".25"/></g></svg>