<svg fill="none" height="168" viewBox="0 0 245 168" width="245" xmlns="http://www.w3.org/2000/svg" xmlns:xlink="http://www.w3.org/1999/xlink"><mask id="a" height="168" maskUnits="userSpaceOnUse" width="244" x="1" y="0"><path d="m1.45947 63.133c-.08184-1.0898-.15549-2.1632-.23734-3.2121-2.35703-29.9336 15.22247-47.3135 39.21017-52.73813 6.7929-1.54052 12.3581-1.8601 18.889.86858 8.3397 3.48255 17.0231 4.16265 25.51.8604 9.3054-3.62185 17.2767-9.300462 27.4657-8.8907501 14.503.5899851 28.211 8.0877101 41.044 15.3396001 11.302 6.3833 22.252 8.4319 33.923 2.1059 16.368-8.87432 40.986 6.7439 31.951 29.3272-3.65 9.1202-9.453 20.4938-4.755 30.6547 4.051 8.7432 14.78 12.9551 20.518 20.3135 6.318 8.1041 11.122 18.9611 9.763 30.1961-2.987 24.632-32.311 34.801-49.956 37.619-10.475 1.672-22.441 1.189-31.902-4.801-7.995-5.064-14.044-14.168-23.152-16.848-13.447-3.958-24.921 12.857-36.264 18.462-12.6204 6.236-28.0556 8.891-38.4004-3.942-8.3151-10.3-8.3069-33.498-21.8271-37.39-7.6522-2.204-15.558.156-22.9401-3.99-16.40924-9.203-17.48955-34.9161-18.83993-53.935z" fill="#dee4ff" opacity=".8"/></mask><path d="m.449458 63.0391c-.081885-1.0882-.155579-2.16-.237465-3.2073-2.358293-29.8891 15.230607-47.2432 39.231207-52.65972 6.7965-1.53822 12.3647-1.85733 18.8991.8673 8.3441 3.47732 17.0321 4.15652 25.5236.85911 9.3104-3.61646 17.2861-9.286624 27.4811-8.8775214 14.51.5891074 28.225 8.0756814 41.065 15.3168314 11.308 6.3738 22.265 8.4193 33.941 2.1028 16.377-8.8612 41.009 6.7338 31.968 29.2835-3.652 9.1066-9.457 20.4633-4.757 30.6091 4.053 8.7302 14.788 12.9358 20.528 20.2833 6.322 8.0925 11.129 18.9335 9.769 30.1505-2.988 24.596-32.328 34.75-49.982 37.564-10.482 1.669-22.453 1.187-31.919-4.795-8-5.056-14.052-14.146-23.166-16.822-13.453-3.952-24.934 12.838-36.283 18.434-12.6265 6.227-28.0701 8.878-38.4204-3.935-8.3195-10.285-8.3113-33.448-21.8387-37.335-7.6563-2.201-15.5664.156-22.9525-3.985-16.41795-9.188-17.49884-34.8633-18.849942-53.8539z" fill="#dee4ff" opacity=".7"/><g mask="url(#a)"><path d="m281.888 116.236-80.074 73.594-222.021-131.1841 30.3105-55.06408h54.6501z" fill="#0094c1"/><path d="m38.8301 62.54v3.0248l7.3787 4.6522.3579-.1875v-3.0248zm.3749.6476 6.9868 4.0302v2.1556l-6.9868-4.0301z" fill="#2c2c2c"/><path d="m38.4639 62.719v3.0248l7.7451 4.4732v-3.0248zm.3749.6561 6.9867 4.0387v2.1556l-6.9867-4.0301z" fill="#474747"/><path d="m36.0012 66.1442 2.1216-1.2099 5.7002 3.2889 3.2037.8521v.9969l-3.3059 1.8915-8.9039-5.1378v-.9969z" fill="#313131"/><path d="m38.1231 63.9373 8.9038 5.1378-3.3059 1.8915-8.9124-5.1378z" fill="#747474"/><path d="m37.0923 53.4573 10.6079 6.0069.8606 9.4918-11.4685-6.6034z" fill="#003b18"/><path d="m37.0923 53.4572 3.6382 2.1046 6.2199-3.5871-3.6467-2.1046z" fill="#002e13"/><path d="m37.0923 58.2456 12.4143 6.4415v1.2951l-12.4143-6.4159z" fill="#74a674"/><path d="m140.002 53.3975-50.1682-28.961-31.3553 18.106 50.1685 28.961z" fill="#1b7735"/><path d="m53.4431 42.9346h2.3006v-2.5817h-2.3006z" fill="#002e13"/><path d="m60.2044 39.032h2.3005v-2.5817h-2.3005z" fill="#002e13"/><path d="m66.9666 35.1296h2.3005v-2.5817h-2.3005z" fill="#002e13"/><path d="m73.7195 31.2271h2.3005v-2.5817h-2.3005z" fill="#002e13"/><path d="m50.8521 44.4087 4.8056-2.7777-2.2153-1.2781 1.9426-1.1247 2.2238 1.2781 4.8056-2.7776-2.2153-1.2781 1.9512-1.1247 2.2153 1.2781 4.8055-2.7777-2.2153-1.2781 1.9512-1.1247 2.2153 1.2781 4.814-2.7777-2.2153-1.278 3.1611-1.8319 8.4182 4.8651-31.3552 18.0975-8.4182-4.8567 3.1014-1.7893z" fill="#1b7735"/><path d="m140.002 53.3975-50.1682-28.961-31.3553 18.106 50.1685 28.961z" fill="#1b7735"/><path d="m98.2532 68.0729-34.8128 20.0997 1.2909 2.2358 34.8127-20.0998z" fill="#000"/><path d="m65.5674 93.8443-11.4004-19.1284 5.9643-3.4423.0085.0171c1.4315-.7839 3.3997-.6391 5.5724.6134 4.3795 2.5221 7.9411 8.6057 7.9411 13.5902 0 2.3857-.8265 4.0813-2.1557 4.9248v.0085l-.1193.0682c-.0341.017-.0681.034-.0937.0596z" fill="#000"/><path d="m56.2202 75.9175 8.0859-4.6692c.4516.1704.9202.3834 1.3974.6561 4.3795 2.522 7.941 8.6056 7.941 13.5901 0 .9202-.1192 1.7296-.3493 2.4283l-6.2199 3.5956c-.6816-.1959-1.3889-.4941-2.1216-.9116-.8095-.4687-1.5933-1.0566-2.3431-1.7127l-5.9899-10.0456c-.2301-.9969-.3749-1.9767-.4005-2.931z" fill="#1f1f1f"/><path d="m51.9937 79.6834c0 4.9845 3.553 11.0681 7.941 13.5902 4.3795 2.522 7.9411.5367 7.9411-4.4477 0-4.976-3.553-11.0681-7.9411-13.5902-4.388-2.522-7.941-.5282-7.941 4.4477z" fill="#2a2a2a"/><path d="m52.3003 79.8622c0 4.7885 3.4167 10.6335 7.6343 13.0618 4.2176 2.4284 7.6343.5112 7.6343-4.2772 0-4.7885-3.4167-10.6336-7.6343-13.0619s-7.6343-.5112-7.6343 4.2773z" fill="#1d1d1d"/><path d="m54.0049 80.8421c0 3.7149 2.6498 8.2564 5.9217 10.1394 3.2718 1.883 5.9217.4004 5.9217-3.3145s-2.6499-8.2563-5.9217-10.1393c-3.2634-1.8916-5.9217-.4005-5.9217 3.3144z" fill="#3b3b3b"/><path d="m54.4053 81.0723c0 3.4678 2.4709 7.7025 5.5212 9.4577 3.0504 1.7552 5.5213.3749 5.5213-3.093 0-3.4678-2.4709-7.7024-5.5213-9.4577-3.0418-1.7552-5.5212-.3663-5.5212 3.093z" fill="#727272"/><path d="m60.0032 78.022c3.0163 1.7807 5.4531 5.9728 5.4531 9.4066 0 .4941-.0511.9372-.1533 1.3462l-4.0302 2.3261c-.426-.1278-.8776-.3153-1.3377-.5794-2.9992-1.7297-5.4361-5.8451-5.5127-9.2788z" fill="#a9a9a9"/><path d="m63.0196 80.8337c1.0821 1.457 1.883 3.1782 2.2324 4.8482l-6.6886 3.8597c-1.3036-1.1247-2.4198-2.6669-3.1611-4.3113z" fill="#e9eae7"/><path d="m63.0196 80.8337c1.0821 1.457 1.883 3.1782 2.2324 4.8482l-6.6886 3.8597c-1.3036-1.1247-2.4198-2.6669-3.1611-4.3113z" fill="#e9eae7"/><path d="m56.1777 81.0126c0 2.7521 1.9683 6.1177 4.3881 7.5151 2.4283 1.3973 4.388.2982 4.388-2.4624 0-2.7607-1.9682-6.1177-4.388-7.5151-2.4198-1.3888-4.3881-.2897-4.3881 2.4624z" fill="#4d4d4d"/><path d="m56.9526 81.2001c0 2.3601 1.6871 5.2486 3.7661 6.45 2.079 1.2013 3.766.2556 3.766-2.1131 0-2.3602-1.687-5.2486-3.766-6.45-2.079-1.1929-3.7661-.2471-3.7661 2.1131z" fill="#949494"/><g fill="#727272"><path d="m62.678 80.8249c.0511-.0767.1278-.1363.2045-.1789.2215.2812.4345.5879.622.8946-.179.0597-.3835.0682-.5624 0-.3238-.1278-.4431-.443-.2641-.7157z"/><path d="m56.9951 83.0659c-.2556-.3323-.196-.6135.1193-.639.3153-.0256.7754.2215 1.031.5453.2471.3323.1959.6134-.1193.639-.3153.0256-.7754-.2215-1.031-.5453z"/><path d="m63.6073 85.6136c-.0852-.392.1108-.5453.4346-.3408s.6561.6986.7413 1.0906c.0852.3919-.1108.5453-.4346.3408s-.6561-.6902-.7413-1.0906z"/><path d="m58.7674 78.6608c.1108-.3238.3834-.2812.5964.0852s.2982.9202.1875 1.244c-.1108.3238-.3834.2812-.5965-.0852-.2215-.3664-.3067-.9202-.1874-1.244z"/><path d="m63.6497 82.9039c-.2982-.2642-.3068-.5794-.0256-.6987.0682-.0341.1534-.0426.2386-.0426.1789.3408.3493.6987.4857 1.048-.2386-.0255-.5028-.1278-.6987-.3067z"/><path d="m63.8201 87.6754c-.0511.3578-.3068.3749-.5709.0511-.2556-.3323-.426-.8861-.3749-1.244s.3068-.3749.5709-.0511c.2556.3323.426.8946.3749 1.244z"/><path d="m63.8797 84.3437c-.2045-.3663-.1108-.622.2215-.5708.1619.0255.3578.1193.5283.2556.1022.3579.1874.7072.2386 1.0651-.0086 0-.0086 0-.0171 0-.3238-.0512-.7583-.3835-.9713-.7499z"/><path d="m57.7198 85.0852c-.3152-.213-.3749-.5283-.1363-.7157.2386-.1875.6987-.1705 1.0139.0425.3153.2131.3749.5283.1364.7243-.2471.1789-.6987.1619-1.014-.0511z"/><path d="m60.122 87.4196c-.017-.392.2045-.7924.4857-.9032s.5197.1193.5283.5027c.017.3919-.2045.7924-.4857.9032-.2727.1107-.5112-.1193-.5283-.5027z"/><path d="m62.4142 87.0535c.1448.3919.1193.9202-.0597 1.1758-.1789.2556-.4515.1449-.6049-.2471-.1534-.3919-.1193-.9202.0596-1.1758.1875-.2641.4602-.1448.605.2471z"/><path d="m58.6477 86.1419c.1278-.3152.4941-.5282.8179-.4771s.4942.3579.3664.6731c-.1278.3153-.4942.5283-.818.4772-.3323-.0597-.4941-.3579-.3663-.6732z"/><path d="m58.1455 80.8419c-.2982-.2641-.5623-.8009-.5879-1.1843s.2045-.4857.5027-.213c.2982.2641.5624.8009.5879 1.1843.0171.3834-.2045.4857-.5027.213z"/><path d="m62.4222 80.0922c-.1193.2045-.3152.3664-.5197.3919-.3067.0341-.5198-.23-.4686-.5879.0255-.196.1278-.3834.2641-.5197.2471.2215.4857.4601.7242.7157z"/><path d="m57.2677 80.8249c.3323.1193.7328.5282.8862.9202.1533.3834.0085.5964-.3238.4771s-.7328-.5282-.8947-.9202c-.1448-.3834 0-.5964.3323-.4771z"/><path d="m60.9231 78.7801c.0085.0256.0256.0511.0256.0767.0937.4004-.0256.8861-.2557 1.0821-.23.1959-.4941.034-.5793-.3749-.0938-.4005.0255-.8862.2556-1.0821.0085-.0085.0255-.0085.0341-.0171.0596.0341.1107.0512.1704.0853.1107.0766.23.1533.3493.23z"/><path d="m58.6821 82.0435c0 1.4655 1.0395 3.2463 2.3346 3.9876 1.2866.7413 2.3346.1534 2.3346-1.3036 0-1.4656-1.0395-3.2463-2.3346-3.9876-1.2866-.7413-2.3346-.1619-2.3346 1.3036z"/></g><path d="m60.3606 80.4841c.2045.0512.426.1278.6475.2556 1.2866.7413 2.3346 2.5306 2.3346 3.9876 0 .392-.0766.7157-.213.9799l-2.1216-.4431c-.8265-.7157-.9372-1.5337-1.4143-2.5817z" fill="#a9a9a9"/><path d="m60.3099 84.3524c-.1534-.2897-.2812-.5965-.409-.9288.8946-.3408 1.7211-.8265 2.4539-1.4314.3919.5453.6901 1.1758.852 1.7978-1.0139.0085-1.9938.213-2.8969.5624z" fill="#dcded9"/><path d="m58.6821 83.1086c0 1.0395.7413 2.309 1.653 2.8373s1.653.1108 1.653-.9287-.7413-2.3091-1.653-2.8374c-.9117-.5282-1.653-.1107-1.653.9288z" fill="#c4c4c4"/><path d="m59.1851 83.739c0 .5624.4004 1.2525.8946 1.5337s.8947.0597.8947-.5027c0-.5623-.4005-1.2525-.8947-1.5337-.4942-.2897-.8946-.0596-.8946.5027z" fill="#4d4d4d"/><path d="m65.5668 93.8444 3.4934-2.0194c.0341-.017.0682-.0341.0938-.0596l.1192-.0682-.0085-.0085c1.3377-.8435 2.1557-2.5391 2.1557-4.9248 0-4.976-3.553-11.0681-7.9411-13.5902-2.1727-1.2525-4.1409-1.3888-5.5723-.6134l-.0086-.0085.392-.2301.0085.0171c1.4314-.7839 3.3997-.6391 5.5724.6134 4.3795 2.5221 7.941 8.6057 7.941 13.5901 0 2.3858-.8264 4.0813-2.1556 4.9248l.0085.0086-.1193.0682c-.0341.017-.0682.034-.0937.0596z" fill="#000"/><path d="m65.5671 93.8442 1.7126-.9884c.0341-.0171.0682-.0341.0937-.0596l.1193-.0682v-.0086c1.3378-.8435 2.1557-2.539 2.1557-4.9248 0-4.9844-3.553-11.068-7.9411-13.5901-2.1727-1.2525-4.1409-1.3888-5.5723-.6134l-.0085-.0086.3919-.23.0085.017c1.4315-.7839 3.3997-.639 5.5724.6135 4.3795 2.522 7.941 8.6057 7.941 13.5901 0 2.3857-.8264 4.0813-2.1556 4.9248l.0085.0085-.1193.0682c-.0341.0171-.0681.0341-.0937.0597z" fill="#000"/><path d="m52.1988 46.155 58.6042 33.8433v23.7297l-71.1463-41.1285z" fill="#003b18"/><path d="m76.3281 94.0402 14.8256 8.5628v-7.174l-14.8256-8.5716z" fill="#747474"/><path d="m100.015 97.4908-8.8612 5.1122v-7.1742l.9628-2.505z" fill="#2a2a2a"/><path d="m76.3281 86.8573.9543-2.505 14.8341 8.5716-.9628 2.505z" fill="#313131"/><path d="m72.3408 78.6692v10.02l24.4708 15.4308 1.2013-.605v-10.0287zm1.2525 2.1642 23.1756 13.3771v7.1405l-23.1756-13.3775z" fill="#2c2c2c"/><path d="m71.1479 79.2742v10.02l25.6722 14.8168v-10.0198zm1.244 2.1642 23.1757 13.3771v7.1405l-23.1757-13.3775z" fill="#474747"/><path d="m110.802 100.286v3.442l-68.9135-39.8077-.409-3.7064z" fill="#002e13"/><path d="m110.803 96.3747v1.7126l-71.1463-41.1197 1.8234-.6646z" fill="#74a674"/><path d="m107.658 87.5391v4.6351 3.1866l3.17-1.8319 4.013-2.3175 1.056 1.8234-4.013 2.3175-4.371 2.5221c-.042.0426-.102.0937-.17.1278-.043.0255-.094.0341-.136.0511-.034.0341-.086.0511-.145.0596-.401.1193-.886.0853-1.219-.1022-.23-.1278-.323-.3153-.289-.4857v-5.3508-4.6351z" fill="#474747"/><path d="m106.635 97.3715c.188.0682.401.0597.571-.0426.264-.1534.529-.3067.784-.4516.494-.2897.997-.5708 1.491-.8605.477-.2727.963-.5538 1.44-.8265.213-.1193.426-.2471.639-.3664.034-.017 3.477-2.0108 3.477-2.0108l-.426-.7413c-.179.1023-.35.2045-.529.3067-.443.2557-.877.5113-1.32.7669-.58.3323-1.159.6731-1.739 1.0054-.596.3408-1.192.6902-1.78 1.031-.486.2811-.963.5623-1.449.835-.162.0937-.443.3408-.622.2045-.153-.1193-.136-.2471-.136-.4175 0-.1534 0-.3153 0-.4687 0-.3663 0-.7412 0-1.1076 0-.6135 0-1.2355 0-1.849 0-.0681 0-.1278 0-.1959v-4.0132h-.852v.2812 1.2696 1.9256 2.1557 1.9682.7839.3152c-.009.213.204.392.383.4857.017-.0085.043.0085.068.017z" fill="#747474"/><path d="m110.802 79.9986-2.155-8.4949-50.1687-28.961-6.2796 3.6127z" fill="#046033"/><path d="m110.802 79.9983 31.62-18.2593-2.42-8.3415-31.356 18.1059z" fill="#005c1d"/><path d="m141.356 71.0008v-13.9139h3.919v13.9139h-.008c.034.3153-.154.6476-.571.8861-.775.4516-2.019.4516-2.786.0171-.435-.2471-.614-.5794-.554-.9032z" fill="#707568"/><path d="m144.619 71.921c-.75.4005-1.874.409-2.616.0341v-14.8682h2.616z" fill="#92978d"/><path d="m144.355 72.0488c-.366.1363-.784.196-1.201.1789v-15.1408h1.201z" fill="#babdb7"/><path d="m144.705 56.2777c-.767-.443-2.011-.4345-2.787.0171-.775.4515-.783 1.1673-.017 1.6103.767.4431 2.011.4346 2.787-.017.775-.4516.783-1.1673.017-1.6104z" fill="#6f6f6f"/><path d="m142.259 57.0531v-4.6351h2.105v4.6351h-.009c.017.1704-.076.3493-.306.4771-.418.2386-1.083.2471-1.5.0086-.23-.1278-.324-.3068-.29-.4857z" fill="#92978d"/><path d="m143.826 57.6154c-.162.0597-.34.0937-.519.0937v-5.2997h.519z" fill="#babdb7"/><path d="m144.057 51.9833c-.409-.2386-1.083-.23-1.492.0085-.417.2386-.426.6305-.008.8691.409.2386 1.082.2301 1.5-.0085.409-.2471.409-.6305 0-.8691z" fill="#000"/><path d="m156.616 80.6122 3.741-2.1557v-9.9604l-3.741 2.1557z" fill="#676767"/><path d="m160.144 78.1581v-8.5204l-2.488 1.44v8.5119z" fill="#92978d"/><path d="m160.357 68.4961-.213 1.1417-2.488 1.44-1.04-.426z" fill="#e9eae7"/><path d="m157.656 79.5897-1.04 1.0224 3.741-2.1557-.213-.2982z" fill="#404040"/><path d="m160.536 80.8506c0 1.2014-.921 2.7351-2.054 3.4337-1.133.6902-2.053.2812-2.053-.9201 0-1.2014.92-2.7351 2.053-3.4338 1.142-.6901 2.054-.2812 2.054.9202z" fill="#676767"/><path d="m159.573 83.2791c-.316.4004-.69.7583-1.091 1.0054-.196.1192-.375.1959-.554.2471.247-.4175.597-.801.98-1.031.247-.1534.469-.213.665-.2215z" fill="#404040"/><path d="m157.536 80.7653c.29-.3323.605-.6305.946-.835.673-.4175 1.269-.426 1.644-.1193 0 .0511.009.0937.009.1448 0 .9288-.622 1.6871-1.389 1.6871-.52-.0085-.971-.3579-1.21-.8776z" fill="#e9eae7"/><path d="m160.289 81.3788c0 .8009-.614 1.8319-1.372 2.3005-.759.4687-1.372.1875-1.372-.6134 0-.8095.613-1.8319 1.372-2.3006.758-.4686 1.372-.1874 1.372.6135z" fill="#92978d"/><path d="m158.669 75.9513.826-.4686v1.4995l-.826.4772-.179-.1108v-1.4996z" fill="#73796c"/><path d="m159.494 76.5726v-1.4996l-.826.4686v1.5081z" fill="#676767"/><path d="m159.496 75.0737-.188-.1108-.818.4771.179.1023z" fill="#e9eae7"/><path d="m158.49 76.9395v-1.4996l.179.1023v1.5081z" fill="#404040"/><path d="m158.669 82.2052.826-.4686v1.0139l-.826.4772-.179-.1108v-1.014z" fill="#73796c"/><path d="m159.494 82.341v-1.0224l-.826.4771v1.014z" fill="#676767"/><path d="m159.496 81.3191-.188-.1023-.818.4771.179.1023z" fill="#e9eae7"/><path d="m158.49 82.7078v-1.014l.179.1023v1.014z" fill="#404040"/><path d="m155.653 88.1101v-.6391l3.298-3.1185v-17.5095l-.98-.7328.153-.4686 1.295.9628v17.9441z" fill="#383838"/><path d="m108.715 78.4563 19.938 11.5026v30.5971l-19.938-11.503z" fill="#c6c8cc"/><path d="m128.593 119.372.119-.213-1.192-.69c-.622-.358-1.006-1.023-1.006-1.739v-8.69c0-.418.213-.801.58-1.006.366-.213.8-.213 1.158 0l.333.188.119-.213-.332-.188c-.443-.256-.963-.256-1.406 0s-.699.707-.699 1.219v8.69c0 .801.426 1.551 1.125 1.952z" fill="#a8a8a8"/><path d="m111.381 99.0161 2.633 1.5419v-1.9509l-2.633-1.5507z" fill="#6f6f6f"/><path d="m117.107 108.798-6.97-4.175v-24.863l11.051 6.3733.043.0256 4.422 14.3651.008.017-.195 12.662zm3.919-22.4772-10.642-6.1433v24.3005l6.851 4.098 7.992 4.226.187-12.227z" fill="#a8a8a8"/><path d="m103.569 106.08v-7.5751c1.372-.2642 3.033.0681 4.814 1.0991 4.601 2.65 8.35 8.912 8.571 14.204z" fill="#656f7c"/><path d="m163.901 86.7725-35.249 20.3465-1.491-4.592 35.241-20.3471z" fill="#d3dbed"/><path d="m163.143 86.4828-1.099-3.3742-34.133 19.7074 1.099 3.375z" fill="#e9e9e9"/><path d="m152.655 95.906.23-.0766-3.962-12.1587-.23.0766z" fill="#a8a8a8"/><path d="m141.646 103.004.23-.077-3.97-12.1587-.23.0767z" fill="#a8a8a8"/><path d="m141.05 97.0051c-.009 0-.009.0085-.017.0085 0-.017-.009-.0256-.009-.0426 0-.1874.154-.426.341-.5368l3.673-2.1216c.187-.1107.34-.0426.34.1449 0 .017-.008.0426-.008.0681-.034.0086-.068.0256-.102.0426z" fill="#2d2d2d"/><path d="m146.579 94.5939 3.673-2.1216c.187-.1108.34-.0426.34.1448 0 .0171-.008.0341-.008.0597-.017.0085-.034.0085-.051.017l-4.209 2.4283c-.026.0171-.043.0341-.069.0512 0-.0171-.008-.0256-.008-.0426-.009-.1875.145-.4346.332-.5368z" fill="#2d2d2d"/><path d="m146 94.1422c-.026.017-.043.0341-.068.0511 0-.017-.009-.0255-.009-.0426 0-.1874.154-.426.341-.5368l3.672-2.1216c.188-.1108.341-.0426.341.1449 0 .017-.008.0341-.008.0596-.017.0085-.034.0085-.051.0171z" fill="#2d2d2d"/><path d="m149.894 90.7255-4.209 2.4284c-.026.017-.043.0341-.069.0511 0-.017-.008-.0255-.008-.0426 0-.1874.153-.426.341-.5368l3.672-2.1216c.187-.1107.341-.0426.341.1449 0 .017-.009.0341-.009.0596-.025 0-.042 0-.059.017z" fill="#2d2d2d"/><path d="m141.689 97.4142 3.672-2.1216c.188-.1108.341-.0426.341.1448 0 .0171-.008.0427-.008.0682-.034.0085-.068.0256-.103.0426l-4.209 2.4283c-.008 0-.008.0086-.017.0086 0-.0171-.008-.0256-.008-.0426-.009-.179.145-.4175.332-.5283z" fill="#2d2d2d"/><path d="m144.943 93.58-4.209 2.4283c-.008 0-.008.0085-.017.0085 0-.017-.009-.0256-.009-.0341 0-.1874.154-.426.341-.5368l3.673-2.1216c.187-.1107.34-.0426.34.1449 0 .017-.008.0426-.008.0682-.043.0085-.077.0255-.111.0426z" fill="#2d2d2d"/><path d="m146.323 95.1221 4.209-2.4283c.017-.0085.034-.0085.051-.017-.025.1789-.161.3834-.332.4771l-3.672 2.1216c-.171.0937-.307.0511-.332-.0937.025-.0256.051-.0426.076-.0597z" fill="#fff"/><path d="m145.037 94.9943-3.672 2.1216c-.171.1022-.307.0511-.333-.1023.009 0 .009-.0085.017-.0085l4.209-2.4283c.034-.0256.069-.0341.103-.0426-.026.1619-.154.3664-.324.4601z" fill="#fff"/><path d="m141.373 97.9851 4.209-2.4283c.034-.0256.068-.0341.102-.0426-.025.1789-.162.3749-.323.4686l-3.673 2.1216c-.17.1022-.306.0511-.332-.1023.008-.017.008-.017.017-.017z" fill="#fff"/><path d="m149.893 90.7255c.018-.0085.035-.0085.052-.017-.026.1789-.162.3834-.333.4771l-3.672 2.1216c-.17.1023-.298.0512-.324-.0937.026-.017.043-.0341.068-.0511z" fill="#fff"/><path d="m149.927 92.174-3.672 2.1215c-.17.0938-.307.0512-.332-.0937.025-.017.042-.034.068-.0511l4.209-2.4283c.017-.0085.034-.0086.051-.0171-.017.1619-.153.3664-.324.4687z" fill="#fff"/><path d="m144.943 93.5799c.034-.0255.068-.034.102-.0425-.025.1789-.162.3748-.324.4686l-3.672 2.1216c-.17.1022-.307.0511-.332-.1023 0 0 .008-.0085.017-.0085z" fill="#fff"/><path d="m122.399 86.3464 35.24-20.3469 4.763 16.1803-35.24 20.3472z" fill="#eaf1ff"/><path d="m151.999 69.9787 7.855 5.8365-2.309-7.7366c-.179-.5709-.826-.8265-1.337-.5282z" fill="#38505e"/><path d="m134.089 80.3222 13.232 9.8496 8.742-5.0441-13.232-9.8496z" fill="#38505e"/><path d="m142.83 75.278 10.199 7.5918.435-.2471c1.286-.7413 2.845-.8265 4.2-.2386l1.789.7839c1.296-.7498 1.909-2.2835 1.483-3.7064l-1.082-3.6383-1.73-1.2866 1.773 6.3904c.196.6987-.554 1.2781-1.185.9202l-9.492-5.4787c-.681-.3919-1.227-.9627-1.584-1.6273l6.049-3.4934-1.695-1.2525z" fill="#829aa9"/><path d="m159.531 79.6067-.111-.4089v.4089c.043-.0085.077-.0085.111 0z" fill="#c0ffff"/><path d="m147.645 74.7329c.366.6731.903 1.2354 1.584 1.6274l8.103 4.6692c.196-.2556.409-.4942.639-.6987.009-.017.026-.0341.034-.0426.154-.1278.316-.2556.478-.3664.127-.0767.247-.1363.366-.1874.025-.0085.06-.0171.085-.0341.009 0 .009-.0085.017-.0085v-.4346l-2.334 1.3463v-7.1998l-2.923-2.1727z" fill="#c0ffff"/><path d="m156.617 70.6515v9.9519l2.334-1.3463v.4431c-.008 0-.008.0085-.017.0085-.025.0086-.059.0256-.085.0341-.119.0511-.239.1108-.366.1875-.162.1022-.324.23-.477.3663-.009.0086-.026.0256-.035.0426-.23.2045-.443.4431-.639.6987l1.389.8095c.622.3578 1.372-.2216 1.185-.9203l-.367-1.3206c-.034-.0085-.076-.0085-.111-.0085v-.409l-1.295-4.6607-1.133-4.0898z" fill="#65818a"/><path d="m156.617 73.4123v-2.7606l.375-.213-.273-.9543-3.025 1.7467z" fill="#a6ddff"/><path d="m124.912 85.622 7.728 5.7513 3.221-1.8575 2.641 1.7382 5.786-3.34-10.199-7.5917z" fill="#829aa9"/><path d="m123.676 88.6639 2.693 9.0146c.051.1619.102.3153.179.4686.784 1.67 2.863 2.3519 4.516 1.4059l7.089-4.0898-3.034-2.258-10.199-7.5917-.034.0171c-1.065.6135-1.559 1.866-1.21 3.0333z" fill="#38505e"/><path d="m113.009 121.263-11.401-19.128 5.965-3.4427.008.0171c1.432-.7839 3.4-.6391 5.573.6134 4.379 2.5222 7.941 8.6052 7.941 13.5902 0 2.386-.827 4.081-2.156 4.925l.008.008-.119.068c-.034.017-.068.035-.094.06z" fill="#000"/><path d="m103.662 103.336 8.086-4.6693c.451.1705.92.3835 1.397.6561 4.379 2.5222 7.941 8.6052 7.941 13.5902 0 .912-.119 1.73-.349 2.428l-6.22 3.596c-.682-.196-1.389-.494-2.122-.92-.809-.469-1.593-1.048-2.343-1.713l-5.99-10.046c-.23-.988-.375-1.976-.4-2.922z" fill="#1f1f1f"/><path d="m99.436 107.102c0 4.976 3.553 11.068 7.941 13.59 4.38 2.522 7.941.537 7.941-4.448 0-4.984-3.553-11.068-7.941-13.59s-7.941-.536-7.941 4.448z" fill="#2a2a2a"/><path d="m99.7427 107.281c0 4.788 3.4163 10.633 7.6343 13.062 4.218 2.428 7.634.511 7.634-4.278 0-4.788-3.416-10.633-7.634-13.061-4.218-2.429-7.6343-.512-7.6343 4.277z" fill="#1d1d1d"/><path d="m101.447 108.261c0 3.715 2.65 8.256 5.921 10.139 3.272 1.883 5.922.4 5.922-3.315 0-3.714-2.65-8.256-5.922-10.139-3.271-1.891-5.921-.4-5.921 3.315z" fill="#3b3b3b"/><path d="m101.847 108.491c0 3.468 2.471 7.702 5.521 9.457 3.051 1.756 5.522.375 5.522-3.092 0-3.468-2.471-7.703-5.522-9.458-3.05-1.755-5.521-.367-5.521 3.093z" fill="#727272"/><path d="m107.445 105.441c3.016 1.78 5.453 5.972 5.453 9.406 0 .494-.051.937-.153 1.346l-4.03 2.327c-.426-.128-.878-.316-1.338-.58-2.999-1.729-5.436-5.845-5.513-9.279z" fill="#a9a9a9"/><path d="m110.462 108.252c1.082 1.457 1.883 3.179 2.232 4.849l-6.689 3.859c-1.303-1.124-2.419-2.667-3.161-4.311z" fill="#e9eae7"/><path d="m110.462 108.252c1.082 1.457 1.883 3.179 2.232 4.849l-6.689 3.859c-1.303-1.124-2.419-2.667-3.161-4.311z" fill="#e9eae7"/><path d="m103.62 108.431c0 2.752 1.968 6.118 4.388 7.515 2.428 1.398 4.388.299 4.388-2.462 0-2.752-1.969-6.118-4.388-7.515-2.429-1.389-4.388-.29-4.388 2.462z" fill="#4d4d4d"/><path d="m104.395 108.619c0 2.36 1.687 5.248 3.766 6.45 2.079 1.201 3.766.255 3.766-2.113 0-2.361-1.687-5.249-3.766-6.45-2.087-1.193-3.766-.247-3.766 2.113z" fill="#949494"/><path d="m110.12 108.244c.051-.077.12-.136.205-.179.221.29.434.588.622.895-.179.059-.384.068-.563 0-.323-.128-.451-.452-.264-.716z" fill="#727272"/><path d="m104.437 110.476c-.247-.332-.196-.613.12-.639.315-.025.775.222 1.031.546.247.332.196.613-.12.639-.315.034-.775-.213-1.031-.546z" fill="#727272"/><path d="m111.05 113.033c-.085-.392.11-.546.434-.341.324.204.656.698.742 1.09.085.392-.111.546-.435.341-.324-.204-.656-.699-.741-1.09z" fill="#727272"/><path d="m106.201 106.08c.111-.324.383-.281.596.085s.299.92.188 1.244c-.111.315-.384.281-.597-.085-.213-.367-.298-.92-.187-1.244z" fill="#727272"/><path d="m111.092 110.323c-.299-.273-.307-.58-.026-.699.068-.034.153-.042.239-.042.187.34.349.69.485 1.048-.238-.026-.502-.128-.698-.307z" fill="#727272"/><path d="m111.253 115.095c-.051.357-.307.374-.571.051-.255-.333-.426-.886-.375-1.244.052-.358.307-.375.571-.051.264.332.435.886.375 1.244z" fill="#727272"/><path d="m111.322 111.763c-.205-.367-.111-.622.221-.571.162.025.358.119.528.255.103.358.188.708.239 1.065-.009 0-.009 0-.017 0-.324-.051-.758-.383-.971-.749z" fill="#727272"/><path d="m105.162 112.504c-.316-.213-.375-.528-.137-.724.239-.188.699-.171 1.014.042.316.213.375.537.137.725-.247.187-.699.17-1.014-.043z" fill="#727272"/><path d="m107.564 114.83c-.017-.392.204-.792.486-.903.281-.111.519.119.528.503.017.392-.205.792-.486.903-.281.119-.52-.111-.528-.503z" fill="#727272"/><path d="m109.856 114.472c.145.392.119.921-.06 1.176-.179.256-.451.145-.605-.247-.145-.392-.119-.92.06-1.176.187-.264.452-.153.605.247z" fill="#727272"/><path d="m106.09 113.552c.128-.315.494-.528.818-.477s.494.358.366.673c-.127.315-.494.528-.818.477-.332-.051-.494-.349-.366-.673z" fill="#727272"/><path d="m105.579 108.261c-.298-.264-.562-.801-.588-1.184-.025-.384.205-.486.503-.213.298.264.562.801.588 1.184.025.384-.196.486-.503.213z" fill="#727272"/><path d="m109.856 107.511c-.119.213-.315.366-.519.392-.307.043-.52-.23-.469-.596.025-.196.128-.384.256-.52.264.23.502.468.732.724z" fill="#727272"/><path d="m104.71 108.244c.332.119.732.528.886.92.153.384.008.597-.324.477-.332-.119-.733-.528-.886-.92-.153-.383-.009-.596.324-.477z" fill="#727272"/><path d="m108.356 106.199c.009.026.026.051.035.077.093.4-.026.886-.256 1.082s-.494.025-.579-.375c-.094-.401.025-.886.255-1.082.009-.009.026-.009.034-.017.06.025.111.051.171.085.11.077.23.153.34.23z" fill="#727272"/><path d="m106.124 109.462c0 1.466 1.04 3.246 2.335 3.988 1.286.741 2.334.153 2.334-1.304 0-1.465-1.039-3.246-2.334-3.987-1.287-.742-2.335-.162-2.335 1.303z" fill="#727272"/><path d="m107.803 107.903c.204.051.426.128.648.255 1.286.742 2.334 2.531 2.334 3.988 0 .392-.077.716-.213.98l-2.121-.443c-.827-.716-.938-1.534-1.415-2.582z" fill="#a9a9a9"/><path d="m107.752 111.771c-.153-.29-.281-.596-.409-.929.895-.34 1.721-.826 2.454-1.431.392.545.69 1.176.852 1.798-1.014.008-1.994.213-2.897.562z" fill="#dcded9"/><path d="m106.124 110.527c0 1.04.741 2.309 1.653 2.837.912.529 1.653.111 1.653-.928 0-1.04-.741-2.309-1.653-2.838-.912-.528-1.653-.11-1.653.929z" fill="#c4c4c4"/><path d="m106.627 111.158c0 .562.4 1.252.895 1.533.494.282.894.06.894-.502 0-.563-.4-1.253-.894-1.534-.495-.29-.895-.06-.895.503z" fill="#4d4d4d"/><path d="m113.009 121.263 3.493-2.019c.034-.017.069-.034.094-.06l.119-.068v-.009c1.338-.843 2.156-2.539 2.156-4.924 0-4.976-3.553-11.068-7.941-13.591-2.173-1.252-4.141-1.3884-5.572-.613l-.009-.0085.392-.2301.009.0171c1.431-.7839 3.399-.6391 5.572.6135 4.379 2.522 7.941 8.606 7.941 13.59 0 2.386-.826 4.081-2.156 4.925l.009.008-.119.069c-.034.017-.069.034-.094.059z" fill="#000"/><path d="m113.009 121.263 1.712-.988c.034-.018.069-.035.094-.06l.119-.068-.008-.009c1.338-.843 2.156-2.539 2.156-4.925 0-4.976-3.553-11.068-7.942-13.59-2.172-1.252-4.14-1.389-5.572-.613l-.008-.009.392-.23.008.017c1.431-.775 3.4-.639 5.572.614 4.388 2.522 7.941 8.605 7.941 13.59 0 2.386-.826 4.081-2.155 4.925v.008l-.119.068c-.035.017-.069.043-.094.06z" fill="#000"/><path d="m117.5 114.089 9.96 5.759v2.667.921l-9.96-5.76z" fill="#747474"/><path d="m123.872 118.502-5.751-3.323v2.139l5.751 3.332z" fill="#525252"/><path d="m123.872 115.631-5.751-3.331v2.147l.315.179 5.436 3.152z" fill="#747474"/><path d="m123.872 118.502-5.751-3.331v2.147l.954-.043c1.21-.051 2.378.461 3.153 1.398l1.644 1.977z" fill="#2a2a2a"/><path d="m123.872 115.631-5.751-3.331v2.147l.878-.077c1.312-.111 2.598.452 3.399 1.5l1.474 1.908z" fill="#525252"/><path d="m128.653 120.556 35.249-20.347v-13.4368l-35.249 20.3468z" fill="#fff"/><path d="m154.929 97.3972v1.0906l-17.629 10.1652v-1.091z" fill="#a9a9a9"/><path d="m154.929 99.5786v1.0824l-17.629 10.165v-1.091z" fill="#a9a9a9"/><path d="m154.929 101.743v.843l-17.629 10.165v-.843z" fill="#a9a9a9"/><path d="m160.946 98.7436-3.741 2.1554c-.826.477-1.491.196-1.491-.63v-2.8546c0-.8265.673-1.883 1.491-2.3516l3.741-2.1557c.826-.4772 1.491-.196 1.491.6305v2.8543c0 .8265-.665 1.8746-1.491 2.3517z" fill="#dee0de"/><path d="m162.436 94.969v1.4229c0 .8265-.673 1.883-1.491 2.3516l-3.74 2.1555c-.827.477-1.491.196-1.491-.63v-1.4232z" fill="#92978d"/><path d="m161.192 98.8204c.682-.3919 1.244-1.278 1.244-1.9597v-2.8543c0-.6817-.562-.9202-1.244-.5283l-3.74 2.1557c-.682.3919-1.244 1.278-1.244 1.9597v2.8545c0 .681.554.92 1.244.528z" fill="#cccec9"/><path d="m157.205 100.908 3.74-2.156c.827-.4771 1.491-1.5336 1.491-2.3516v1.0139c0 .5879-.477 1.3377-1.065 1.6786l-4.592 2.6501c-.588.341-1.065.136-1.065-.452v-1.014c0 .818.664 1.108 1.491.631z" fill="#b4c9d2"/><path d="m157.775 96.8265v2.6073c0 .4686.384.6302.852.3579l2.608-1.5082c.468-.2726.852-.8691.852-1.3377v-2.6072c0-.4687-.384-.6306-.852-.3579l-2.608 1.5081c-.468.2641-.852.8691-.852 1.3377z" fill="#759fff"/><path d="m157.775 99.1186v.3152c0 .4686.384.6302.852.3579l2.608-1.5081c.468-.2727.852-.8691.852-1.3377v-.3153l-2.156.2556z" fill="#83c1ff"/><path d="m162.087 94.6453v-.3153c0-.4686-.384-.6305-.852-.3578l-2.608 1.5081c-.468.2726-.852.8691-.852 1.3377v.3153l2.156-.2471z" fill="#6e90c2"/><path d="m131.107 115.989 3.74-2.156c.827-.477 1.491-1.533 1.491-2.351v-2.855c0-.826-.673-1.107-1.491-.63l-3.74 2.155c-.827.478-1.491 1.534-1.491 2.352v2.854c0 .827.664 1.108 1.491.631z" fill="#dee0de"/><path d="m129.615 113.935v1.423c0 .827.673 1.108 1.491.631l3.741-2.156c.826-.477 1.491-1.534 1.491-2.351v-1.423z" fill="#92978d"/><path d="m130.118 115.52v-2.854c0-.69.553-1.559 1.244-1.96l3.74-2.156c.69-.391 1.244-.161 1.244.529v2.854c0 .69-.554 1.568-1.244 1.96l-3.74 2.155c-.691.401-1.244.162-1.244-.528z" fill="#cccec9"/><path d="m134.847 113.816-3.741 2.156c-.826.477-1.491.196-1.491-.631v1.014c0 .588.477.793 1.065.452l4.593-2.65c.588-.341 1.065-1.091 1.065-1.679v-1.014c0 .818-.665 1.875-1.491 2.352z" fill="#b4c9d2"/><path d="m134.779 110.101v2.608c0 .468-.384 1.065-.852 1.337l-2.608 1.508c-.468.273-.852.111-.852-.358v-2.607c0-.468.384-1.065.852-1.337l2.608-1.509c.468-.272.852-.11.852.358z" fill="#759fff"/><path d="m134.779 112.402v.315c0 .469-.384 1.065-.852 1.338l-2.608 1.508c-.468.273-.852.111-.852-.358v-.315l2.156-2.233z" fill="#83c1ff"/><path d="m130.467 112.904v-.315c0-.468.384-1.065.852-1.337l2.608-1.509c.468-.272.852-.11.852.358v.316l-2.156 2.232z" fill="#6e90c2"/><path d="m129.862 120.743 32.821-18.941v-.895l-32.821 18.95z" fill="#000"/><path d="m126.028 120.104c.247-.145.554-.153.801-.008l.741.426 1.9.042 34.866-20.116v-.7673l-1.227-.7072.946-.5453 1.891 1.0906v5.1892l-36.476 21.054h-1.9l-.443-.264c-1.44-.835-1.849-3.272-1.849-4.942z" fill="#e9eae7"/><path d="m129.471 126.75 36.476-21.054v-5.18l-36.476 21.045z" fill="#a9a9a9"/><path d="m165.657 105.244v.426l-35.803 20.663v-.427z" fill="#676767"/><path d="m155.509 104.495 2.897-1.67v.809l-2.897 1.67z" fill="#000"/><path d="m137.045 115.154-2.905 1.678v.81l2.905-1.679z" fill="#000"/><path d="m140.982 119.934c.46-.264.835-.852.835-1.312v-2.344c0-.46-.375-.613-.835-.349l-6.16 3.553c-.461.264-.827.852-.827 1.312v2.335c0 .46.375.613.827.349z" fill="#676767"/><path d="m140.982 119.465c.46-.264.835-.852.835-1.312v-2.334c0-.461-.375-.614-.835-.35l-6.16 3.553c-.461.264-.827.852-.827 1.312v2.335c0 .46.375.613.827.349z" fill="#fff"/><path d="m134.821 122.864 6.16-3.553c.375-.213.673-.69.673-1.065v-2.335c0-.375-.298-.502-.673-.281l-6.16 3.553c-.375.213-.674.69-.674 1.065v2.335c0 .366.307.494.674.281z" fill="#fff"/><path d="m134.155 120.223c.008-.367.307-.835.673-1.048l6.16-3.553c.367-.213.665-.086.673.272z" fill="#ff7f45"/><path d="m141.655 118.255c-.009.367-.307.835-.673 1.048l-6.16 3.553c-.367.213-.665.085-.674-.272z" fill="#ff7f45"/><path d="m132.64 91.3731 5.512 4.0984 9.168-5.2998-3.033-2.2579-5.785 3.34-2.642-1.7381z" fill="#acacac"/><path d="m153.029 82.8615 3.034 2.2579 3.399-1.9597-1.789-.7839c-1.363-.5879-2.914-.5027-4.201.2386z" fill="#acacac"/><path d="m144.288 87.9139 3.033 2.258 8.742-5.0441-3.033-2.2665z" fill="#4f6e78"/><path d="m126.548 98.1556c.784 1.67 2.863 2.3514 4.516 1.4058l7.089-4.0898-5.505-4.0983-5.972 3.4508.008 3.1696z" fill="#4f6e78"/><path d="m146.068 90.8877-2.207 1.278-4.805-14.7148 2.215-1.278z" fill="#d3dbed"/><path d="m122.501 86.4143c-.043-.2556-.077-.5112-.077-.7839 0-.5282.085-1.0395.247-1.474l-12.874-7.4298-1.082 1.7296z" fill="#b3b8be"/><path d="m122.671 84.1481c-.153.4346-.247.9458-.247 1.4741 0 .2726.034.5282.077.7839l.451.2641c.622.3578 1.313.5368 2.003.5283.289 0 .571-.0341.852-.0938.29-.0596.571-.1533.835-.2812.102-.0426.213-.1022.315-.1533l31.33-18.0889c.596-.3409.767-1.031.545-1.5849-.102-.2385-1.022-1.5933-1.295-1.7637 0-.0085-.009-.0085-.009-.0085l-13.573-7.1146-34.158 18.6172z" fill="#e4e4e4"/><path d="m122.433 85.6219c0 .2726.034.5282.076.7839l.452.2641c.622.3579 1.312.5368 2.002.5283.281 0 .571-.0341.852-.0938.281-.0596.571-.1533.835-.2811.102-.3749.162-.7839.162-1.2014 0-.3153-.034-.622-.094-.9117-.264-1.3292-1.107-2.3005-2.096-2.3005-.843 0-1.576.7071-1.942 1.7381-.162.4346-.247.9458-.247 1.4741z" fill="#c6c8cc"/><path d="m109.797 76.7266 12.874 7.4298.614.3579c1.056.6049 2.326.6816 3.425.2045.145-.0597.29-.1278.426-.2045l30.12-17.3903c.698-.409.801-1.3292.289-1.883 0-.0085-.008-.0085-.008-.0085-.077-.0852-.17-.1534-.273-.2216l-13.59-7.8388z" fill="#fff"/><path d="m128.32 66.0335c.35-.196.776-.196 1.116 0l13.182 7.6002c.749.426.749 1.5081 0 1.9341-.35.196-.776.196-1.117 0l-13.181-7.6002c-.75-.4346-.75-1.5081 0-1.9341z" fill="#c6c8cc"/><path d="m153.643 69.1945c-.349.196-.775.196-1.116 0l-13.181-7.6002c-.741-.426-.741-1.5081 0-1.9341.349-.196.775-.196 1.116 0l13.181 7.6002c.75.4346.75 1.5081 0 1.9341z" fill="#c6c8cc"/><path d="m133.833 62.8469c.35-.1959.776-.1959 1.117 0l13.181 7.6003c.741.426.741 1.5081 0 1.9341-.35.196-.776.196-1.117 0l-13.181-7.6002c-.741-.4346-.741-1.5081 0-1.9342z" fill="#c6c8cc"/><path d="m117.286 72.3982c.35-.196.776-.196 1.117 0l13.181 7.6002c.741.426.741 1.5082 0 1.9342-.35.196-.776.196-1.116 0l-13.182-7.6003c-.749-.426-.749-1.4996 0-1.9341z" fill="#c6c8cc"/><path d="m122.8 69.2117c.349-.196.775-.196 1.116 0l13.181 7.6002c.741.4261.741 1.5081 0 1.9342-.349.1959-.775.1959-1.116 0l-13.181-7.6003c-.742-.426-.742-1.4996 0-1.9341z" fill="#c6c8cc"/><path d="m128.32 66.6553c.35-.196.776-.196 1.116 0l13.182 7.6002c.749.4261.749 1.5081 0 1.9342-.35.1959-.776.1959-1.117 0l-13.181-7.6003c-.75-.426-.75-1.5081 0-1.9341z" fill="#e4e4e4"/><path d="m153.643 69.8249c-.349.1959-.775.1959-1.116 0l-13.173-7.6088c-.741-.426-.741-1.5081 0-1.9341.35-.196.776-.196 1.116 0l13.182 7.6002c.741.4346.741 1.5081-.009 1.9427z" fill="#e4e4e4"/><path d="m133.833 63.4688c.35-.196.776-.196 1.117 0l13.181 7.6002c.741.426.741 1.5081 0 1.9341-.35.196-.776.196-1.117 0l-13.181-7.6002c-.741-.426-.741-1.4996 0-1.9341z" fill="#e4e4e4"/><path d="m117.286 73.0286c.35-.196.776-.196 1.117 0l13.181 7.6002c.741.426.741 1.5081 0 1.9342-.35.1959-.776.1959-1.116 0l-13.182-7.6003c-.749-.4345-.749-1.5081 0-1.9341z" fill="#e4e4e4"/><path d="m122.8 69.8418c.349-.196.775-.196 1.116 0l13.181 7.6002c.741.4261.741 1.5082 0 1.9342-.349.196-.775.196-1.116 0l-13.181-7.6003c-.742-.4345-.742-1.5081 0-1.9341z" fill="#e4e4e4"/><path d="m127.57 121.519 1.9.042v5.189h-1.9z" fill="#8d8d8d"/><path d="m125.986 120.598 1.584.921v5.231l-.443-.264c-1.44-.835-2.326-2.377-2.326-4.039v-1.167c0-.605.656-.988 1.185-.682z" fill="#676767"/><path d="m163.993 100.436h.34v-.7583h-.34z" fill="#e9eae7"/><path d="m112.796 82.4523 6.655 3.8427c.579.3323 1.013.8861 1.192 1.5337l3.4 12.2183c.196.699-.554 1.278-1.184.92l-9.492-5.4784c-1.321-.7584-2.13-2.1642-2.13-3.6894v-8.4523c0-.7924.86-1.2951 1.559-.8946z" fill="#38505e"/><path d="m112.796 82.4523 6.655 3.8427c.579.3323 1.014.8861 1.193 1.5337l.025.0767-9.176 5.2997c-.154-.4431-.247-.9202-.247-1.4059v-8.4523c-.009-.7924.852-1.2951 1.55-.8946z" fill="#4f6e78"/><path d="m117.763 100.652 4.831 2.803c.605.35.98.997.98 1.696v3.178c0 .588-.639.963-1.15.665l-4.814-2.804c-.503-.289-.818-.835-.818-1.414v-3.553c-.017-.503.528-.818.971-.571z" fill="#38505e"/><path d="m101.983 98.3003c1.5-.2726 3.298.0937 5.232 1.2099 5.044 2.8968 9.142 9.7648 9.398 15.5668v2.147l1.244-.715v-2.122c-.256-5.802-4.362-12.67-9.398-15.5669-1.951-1.1333-3.775-1.4996-5.274-1.2099z" fill="#595959"/><path d="m107.215 99.5187c5.044 2.8973 9.142 9.7643 9.398 15.5673v2.147l-.639-.367-.009-2.155c-.017-.282-.042-.537-.085-.784-.698-5.368-4.473-11.273-8.98-13.863-1.381-.7924-2.735-1.2185-3.937-1.2185-.119 0-.238 0-.358.0086-.213 0-.426.0255-.622.0596v-.6135c1.5-.2726 3.298.0938 5.232 1.2185z" fill="#474747"/><path d="m138.851 66.8941c-.247.426.205 1.1332.997 1.5933.793.4601 1.636.4857 1.875.0682.247-.426-.205-1.1332-.997-1.5933-.793-.4601-1.636-.4857-1.875-.0682z" fill="#da6700"/><path d="m133.373 70.0552c-.247.4175.204 1.1333.997 1.5934.792.4601 1.627.4856 1.874.0681.247-.426-.204-1.1332-.997-1.5933-.792-.4601-1.627-.4857-1.874-.0682z" fill="#da6700"/><path d="m127.826 73.2588c-.247.4175.204 1.1333.997 1.5934.792.4601 1.627.4856 1.874.0681.247-.426-.204-1.1332-.997-1.5933-.792-.4601-1.635-.4857-1.874-.0682z" fill="#da6700"/><path d="m53.945 49.7763-3.8683 21.6505c-.1192.6646-.5197 1.1843-1.048 1.4911l-2.2494 1.2951.5027-1.1162c-.1363-.0426-.2726-.1022-.409-.1789-3.144-1.8149-3.4848-23.1331-3.4848-26.7628l2.1472-1.2354z" fill="#002e13"/><path d="m43.3882 46.1551 2.1386-1.2354 5.2912 3.0503-2.1471 1.2355-.426-.2471z" fill="#1b7735"/><path d="m44.7344 74.1618c-3.144-1.8149-10.0456-22.1362-1.3462-27.9982l8.4182 4.8566-2.914 16.2996-.9543 5.3509c-.2641 1.474-1.9086 2.2323-3.2037 1.4911z" fill="#003b18"/><path d="m117.704 103.072 3.741-2.156v-9.9602l-3.741 2.1557z" fill="#676767"/><path d="m121.231 100.618v-8.5203l-2.488 1.4399v8.5124z" fill="#92978d"/><path d="m121.445 90.9558-.213 1.1417-2.488 1.44-1.04-.426z" fill="#e9eae7"/><path d="m118.743 102.049-1.039 1.023 3.74-2.156-.213-.298z" fill="#404040"/><path d="m121.632 103.31c0 1.202-.92 2.735-2.054 3.434-1.133.69-2.053.281-2.053-.92 0-1.202.92-2.735 2.053-3.434 1.134-.699 2.054-.281 2.054.92z" fill="#676767"/><path d="m120.661 105.739c-.316.4-.691.758-1.091 1.005-.196.119-.375.196-.554.247.247-.417.597-.801.98-1.031.247-.153.469-.221.665-.221z" fill="#404040"/><path d="m118.624 103.225c.281-.332.604-.63.945-.835.673-.417 1.27-.426 1.645-.119 0 .051.008.094.008.145 0 .929-.622 1.687-1.389 1.687-.519-.009-.971-.358-1.209-.878z" fill="#e9eae7"/><path d="m121.376 103.839c0 .809-.613 1.832-1.371 2.3-.759.46-1.372.188-1.372-.613 0-.81.613-1.832 1.372-2.301.758-.468 1.371-.196 1.371.614z" fill="#92978d"/><path d="m119.757 98.411.827-.4686v1.4996l-.827.4771-.179-.1107v-1.4996z" fill="#73796c"/><path d="m120.582 99.0328v-1.5081l-.826.4771v1.4996z" fill="#676767"/><path d="m120.584 97.5248-.188-.1022-.818.4772.179.1022z" fill="#e9eae7"/><path d="m119.578 99.3993v-1.4996l.179.1022v1.4996z" fill="#404040"/><path d="m119.757 104.665.827-.477v1.022l-.827.478-.179-.111v-1.014z" fill="#73796c"/><path d="m120.582 104.801v-1.022l-.826.477v1.014z" fill="#676767"/><path d="m120.584 103.779-.188-.102-.818.468.179.111z" fill="#e9eae7"/><path d="m119.578 105.168v-1.023l.179.111v1.014z" fill="#404040"/><path d="m123.711 110.57v-.639l-3.306-3.127v-17.5013l.98-.7328-.154-.4686-1.295.9628v17.9439z" fill="#383838"/><path d="m97.0156 64.7893-1.457-.8435 31.3634-18.0974 1.466.8435z" fill="#18692f"/><path d="m94.3149 94.2019-1.457-.8521v-23.7209l1.457.8435z" fill="#003315"/><path d="m94.3149 70.4727-1.457-.8435 2.701-5.6832 1.457.8436z" fill="#0b4d20"/><path d="m95.3198 96.9797 1.8745-1.0821v-23.7635l2.7095-5.6746 31.3642-18.106.46.2642.673.3919-2.539-2.0108-31.8412 18.3701-2.701 5.6831z" fill="#003b18"/><path d="m95.3203 96.9795-1.457-.8521v-25.9191l1.457.8435z" fill="#003b18"/><path d="m95.3203 71.0518-1.457-.8435 2.6924-5.6832 1.4655.8436z" fill="#0c5423"/><path d="m98.0212 65.3687-1.4655-.8436 31.8413-18.3701 1.465.8436z" fill="#1b7735"/><path d="m98.021 65.3689 1.883 1.0906 31.364-18.106 1.133.6561-2.539-2.0108z" fill="#005c1d"/><path d="m97.1943 72.1341v23.7635l-1.8745 1.0821v-25.9277z" fill="#002e13"/><path d="m84.4055 57.4959-1.4656-.8435 31.3721-18.0975 1.457.8435z" fill="#18692f"/><path d="m81.7043 63.1793-1.4655-.8436 2.701-5.6831 1.4655.8435z" fill="#0b4d20"/><path d="m87.2937 59.1575 31.3553-18.0974.46.2641.682.392-2.548-2.0109-31.8409 18.3616-2.7009 5.6917z" fill="#003b18"/><path d="m82.7012 63.7584-1.4571-.8436 2.701-5.6831 1.457.835z" fill="#0c5423"/><path d="m85.4023 58.0667-1.457-.835 31.8407-18.3701 1.457.8435z" fill="#1b7735"/><path d="m85.4019 58.0669 1.8915 1.0906 31.3556-18.0974 1.141.6561-2.547-2.0109z" fill="#005c1d"/><path d="m71.7866 50.1854-1.457-.8435 31.3634-18.089 1.466.8435-6.2626 5.0101z" fill="#18692f"/><path d="m69.0854 79.5981-1.457-.8435v-23.7209l1.457.8435z" fill="#003315"/><path d="m69.0854 55.877-1.457-.8435 2.701-5.6917 1.457.8435z" fill="#0b4d20"/><path d="m70.0913 82.3843 1.8745-1.0821v-23.7636l2.7095-5.6831 31.3637-18.0974.46.2641.673.3919-2.539-2.0193-31.8407 18.3701-2.701 5.6916z" fill="#003b18"/><path d="m70.0913 82.3843-1.457-.852v-25.9193l1.457.8436z" fill="#003b18"/><path d="m70.0913 56.4566-1.457-.8436 2.6924-5.6916 1.4656.8435z" fill="#0c5423"/><path d="m96.905 35.1725h-.0085v1.687l1.6785-.9628 6.058-3.4933-1.457-.8436z" fill="#1b7735"/><path d="m71.3267 49.9298 1.4655.8436 9.2702-5.3594 14.6296-8.4352h-.0085l-.4686-.2727-.4686-.2727-.5113-.2981-14.6211 8.4352-1.9 1.0906z" fill="#1b7735"/><path d="m72.792 50.7649 1.883 1.0906 31.364-18.0974 1.133.656-2.539-2.0193z" fill="#005c1d"/><path d="m71.9658 57.5389v23.7635l-1.8745 1.0736v-25.9192z" fill="#002e13"/><path d="m59.1765 42.9344-1.4656-.8435 31.3723-18.0975 1.457.8435z" fill="#18692f"/><path d="m56.4756 72.3469-1.457-.8435v-23.7209l1.457.8435z" fill="#003315"/><path d="m56.4756 48.6262-1.457-.8435 2.6924-5.6916 1.4655.8435z" fill="#0b4d20"/><path d="m57.4722 75.125 1.8745-1.0821v-23.755l2.718-5.6832 31.3553-18.1059.4601.2726.6816.392-2.5476-2.0194-31.8409 18.3701-2.701 5.6917z" fill="#003b18"/><path d="m57.4721 75.1248-1.457-.852v-25.9107l1.457.8435z" fill="#003b18"/><path d="m57.4721 49.2056-1.457-.8435 2.701-5.6917 1.457.8435z" fill="#0c5423"/><path d="m60.1733 43.5139-1.457-.8435 31.8409-18.3701 1.457.8435z" fill="#1b7735"/><path d="m60.1733 43.5141 1.8916 1.0906 31.3552-18.1059 1.1418.6646-2.5476-2.0194z" fill="#005c1d"/><path d="m59.3467 50.2877v23.755l-1.8745 1.0821v-25.9192z" fill="#002e13"/><path d="m60.3691 62.7954 5.9559 3.4338v3.127l-5.9559-3.4423z" fill="#747474"/><path d="m41.2153 54.7354 3.6468 2.1045v7.1742l-3.6468-2.1045z" fill="#74a674"/><path d="m119.127 59.8052v-.8265h.528c.051-.0341.102-.0767.162-.1108.912-.5283 2.386-.5368 3.28-.0171.068.0426.128.0853.188.1279h.485v.8265c-.008.3408-.238.6816-.69.9372-.912.5283-2.386.5368-3.28.017-.46-.2641-.682-.6049-.673-.9542z" fill="#1d1d1d"/><path d="m119.127 58.9784.392-4.0216h3.859l.392 3.979c0 .0171.009.0256 0 .0426-.008.3409-.238.6817-.69.9373-.912.5282-2.386.5368-3.28.017-.46-.2641-.682-.6049-.673-.9543z" fill="#c97735"/><path d="m122.834 58.1776c-.759-.4346-1.986-.426-2.753.017-.766.4431-.775 1.1588-.017 1.5933.759.4346 1.986.4261 2.753-.017.766-.4516.775-1.1588.017-1.5933z" fill="#bc5705"/><path d="m120.447 56.0814c.486-.8435 1.287-.835 1.79.0256.494.8605.502 2.2409.017 3.0844-.486.8435-1.287.835-1.79-.0256-.494-.8605-.502-2.2409-.017-3.0844z" fill="#bd4d00"/><path d="m122.825 59.6686c-.358.2045-.801.3323-1.261.3749-.026-.0171-.051-.0426-.068-.0682-.077-.0937-.154-.196-.222-.3152-.656-1.1418-.664-2.9737-.017-4.0899.162-.2811.35-.4856.546-.622h1.244c.034.0171.059.0512.085.0682.008.0085.017.017.025.0341l.358 3.6212c0 .017.009.0256 0 .0426-.008.3493-.238.6901-.69.9543z" fill="#e07705"/><path d="m121.615 56.499c.358-.6135.937-.6135 1.303.017.358.6306.367 1.636.009 2.2495-.358.6134-.937.6049-1.304-.0171-.358-.622-.366-1.6274-.008-2.2494z" fill="#e09c05"/><path d="m122.816 54.1559c-.75-.4346-1.968-.4261-2.727.017-.758.4345-.767 1.1417-.017 1.5763.75.4345 1.968.426 2.727-.0171.758-.4345.767-1.1417.017-1.5762z" fill="#eda94d"/><path d="m78.1089 45.3032.605.3579 1.9-1.0906 1.4485.8435v2.1812l2.9736 1.7126 16.496-9.5258-2.957-1.7127-1.6785-.9628-.2045-.1278h-.0085l-.4687-.2726-.4686-.2727-.5112-.2982-.6135-.3579z" fill="#002e13"/><path d="m93.4372 36.4587h1.3803l-14.1354 8.1541-.0682-.0426-1.9 1.0906-.605-.3578z" fill="#7c4600"/><path d="m71.8379 41.6819 4.814 2.7776 16.5041-9.5258-4.814-2.7777z" fill="#1b7735"/><path d="m76.6523 44.4595 1.0651.622.3919.2215 16.5127-9.5259-.4005-.2215-1.065-.622z" fill="#003b18"/><path d="m75.5005 46.831 20.001-11.5383-1.8734-3.2474-20.0009 11.5383z" fill="#000"/><path d="m94.7153 33.9028-.1279 1.9001-1.5166.8776.2897-4.4903.2727-.1619z" fill="#ceb329"/><path d="m87.2001 35.7348 1.5252-.8691-.2897 4.4903-1.5167.8776z" fill="#ceb329"/><path d="m90.2853 33.9626 1.5166-.8776-.2897 4.4988-1.5166.8776z" fill="#ceb329"/><path d="m81.0319 39.2963 1.5166-.8691-.2897 4.4903-1.5166.8776z" fill="#ceb329"/><path d="m74.7095 45.4398.1619-2.5903 1.5251-.8776-.2897 4.4988-.6049.3409z" fill="#b07500"/><path d="m84.1249 37.5155 1.5167-.8776-.2812 4.4903-1.5166.8776z" fill="#ceb329"/><path d="m77.9557 41.0771 1.5166-.8776-.2896 4.4902-1.5167.8776z" fill="#ceb329"/><path d="m98.5751 39.4239-1.6786-.9628-.2045-.1192h-.0085l-.4686-.2812-.4686-.2642-.5113-.2982-1.0139-.5879-5.8791-3.3911-15.3198 8.8442-1.1843-.6816 16.5041-9.5259 5.8791 3.3997 1.0139.5794.5113.2982.4686.2726.4686.2727h.0085l.2045.1278 1.6786.9628 2.9569 1.7126-1.176.6816z" fill="#005c1d"/><path d="m65.5418 57.2572-1.2099.6986-2.079-3.1184 1.2099-.6987z" fill="#002e13"/><path d="m45.0991 70.7444 19.2251-12.7898-2.0765-3.1214-19.2251 12.7898z" fill="#004d1f"/><path d="m45.1001 70.7441 19.2251-12.7898-2.0766-3.1214-19.2251 12.7898z" fill="#000"/><path d="m63.4548 56.6355v1.9085l-1.4655.9714v-4.5073l.2641-.1705z" fill="#b07500"/><path d="m56.0757 58.9447 1.457-.9713v4.5073l-1.457.9714z" fill="#b07500"/><path d="m59.0322 56.9762 1.457-.9713v4.5073l-1.457.9714z" fill="#b07500"/><path d="m50.1455 62.8978 1.457-.9713v4.4988l-1.457.9713z" fill="#b07500"/><path d="m44.2236 69.4248v-2.5902l1.4656-.9713v4.4988l-.5794.3834z" fill="#b07500"/><path d="m53.1191 60.9127 1.457-.9713v4.5073l-1.457.9714z" fill="#b07500"/><path d="m47.1802 64.8661 1.4655-.9713v4.4988l-1.4655.9713z" fill="#b07500"/><path d="m96.897 35.1721v1.9342l1.6785.9628v-2.1728l-1.67-.7242z" fill="#003b18"/><path d="m108.715 95.7783s-1.355.8265-1.798.7072c-.307-.0852-.315-.5197-.315-.5197v-8.4353h.519v7.7962c0 .3068.222.5453.648.2812l.946-.5197z" fill="#595959"/><path d="m104.65 92.251v-13.9138h3.919v13.9138h-.008c.034.3153-.154.6476-.571.8862-.775.4516-2.019.4515-2.786.017-.435-.2471-.605-.5794-.554-.9032z" fill="#707568"/><path d="m107.914 93.1712c-.75.392-1.875.409-2.616.0341v-14.8681h2.616z" fill="#92978d"/><path d="m107.65 93.2905c-.367.1364-.784.196-1.202.179v-15.1323h1.202z" fill="#babdb7"/><path d="m108.007 77.5192c-.767-.4431-2.01-.4346-2.786.017-.775.4516-.784 1.1673-.017 1.6104.767.443 2.011.4345 2.786-.0171.767-.443.776-1.1673.017-1.6103z" fill="#6f6f6f"/><path d="m105.553 78.3031v-4.6351h2.105v4.6351h-.009c.017.1704-.076.3493-.306.4771-.418.2386-1.083.2471-1.5.0086-.222-.1364-.324-.3153-.29-.4857z" fill="#92978d"/><path d="m107.121 78.8652c-.162.0596-.341.0937-.52.0937v-5.2997h.52z" fill="#babdb7"/><path d="m107.351 73.2248c-.409-.2386-1.082-.2301-1.499.0085-.418.2386-.418.6305-.009.8606.409.2385 1.082.23 1.5-.0086.417-.2385.426-.6219.008-.8605z" fill="#000"/><path d="m81.6789 77.9277-.0085-2.9736 3.0674 1.6189s.7583 1.5592.23 2.5817c0 0-.3152.4686-.6731.2982-.3408-.1789-2.6158-1.5252-2.6158-1.5252z" fill="#747474"/><path d="m85.1383 79.3078 1.7126-2.5305s.213-.392.0341-.8691c-.1704-.4772-.605-1.6274-.605-1.6274l.7839-.0767-2.5561-1.7893-1.1162 2.096.7242-.0426.9458 2.5391c.0085.0085.4857 1.2525.0767 2.3005z" fill="#747474"/><path d="m75.9023 70.3616 1.7553 4.5499s.2726.6305.6305.8435c.3578.213 1.2184.7072 1.2184.7072l.0085 1.0906 1.4485-1.67-1.4655-3.3741-.0086.9884-1.9085-1.1077c.0085 0-.9288-.5282-1.6786-2.0278z" fill="#747474"/><path d="m77.1118 67.1492 2.1727 2.718-1.3547 2.4965s-1.1844-.4516-1.9001-2.0705c0 0-.3238-.835-.1789-1.1417.1533-.2897 1.261-2.0023 1.261-2.0023z" fill="#747474"/><path d="m83.204 67.1237-3.4252-2.0023s-.4772-.2386-.6647.0171c-.1874.2556-.6049.9031-.6049.9031l-.7924-1.0054 1.0906 3.4167 2.5561 1.2696-.7071-.9288.9542-1.4058s.4516-.7072 1.5934-.2642z" fill="#747474"/><path d="m85.4277 71.665-2.1386.2471-1.687-4.0558s.4174-1.0991 1.6444-.5027c0 0 .6305.3664.835.835.196.4601 1.3462 3.4764 1.3462 3.4764z" fill="#747474"/><path d="m44.9812 54.5395-.0085-1.4741 1.5166.801s.3749.7753.1193 1.278c0 0-.1534.2301-.3323.1449-.1704-.0853-1.2951-.7498-1.2951-.7498z" fill="#747474"/><path d="m46.6946 55.2295.852-1.2525s.1022-.196.017-.426c-.0852-.2386-.2982-.8009-.2982-.8009l.392-.0341-1.2696-.8862-.5538 1.0395.3579-.0255.4686 1.261c0-.017.23.6049.0341 1.1247z" fill="#747474"/><path d="m42.1191 50.7988.8691 2.2494s.1363.3153.3153.4175c.1789.1108.6049.3494.6049.3494l.0085.5367.7158-.8264-.7243-1.67v.4856l-.9457-.5538c-.0086.0085-.4772-.2471-.8436-.9884z" fill="#747474"/><path d="m42.7154 49.2056 1.0735 1.3462-.6731 1.2355s-.5879-.2216-.9372-1.0225c0 0-.1619-.4175-.0852-.5624.0681-.1533.622-.9968.622-.9968z" fill="#747474"/><path d="m45.7315 49.1886-1.6956-.9884s-.2386-.1192-.3238.0086c-.0937.1278-.2982.4515-.2982.4515l-.3919-.4941.5368 1.6955 1.2695.6305-.3493-.4601.4771-.6986c-.017-.0086.213-.3579.7754-.1449z" fill="#747474"/><path d="m46.8305 51.4378-1.0565.1193-.835-2.0109s.213-.5453.8179-.2471c0 0 .3153.179.4175.4175.0938.2301.6561 1.7212.6561 1.7212z" fill="#747474"/><path d="m163.893 96.9883h-1.133v3.2207h1.133z" fill="#fff"/><path d="m30.6076 141.942-10.4035-6.015 7.7025-11.801 2.701 1.414z" fill="#cccdcb"/><path d="m91.9547 120.053-43.0709 24.931-18.2764-3.042 38.3506-30.878z" fill="#0094c1"/><path d="m70.3468 102.561-39.7394 22.979v16.402l39.7394-22.937z" fill="#9fa19e"/><path d="m30.6077 125.541-2.701-1.415 39.7309-22.98 2.7095 1.415z" fill="#e1e7e8"/><g fill="#404040"><path d="m45.0669 124.186v-3.936l.9884-.571c.2215-.128.409-.205.5623-.239.1534-.034.2812-.025.3749.026s.1704.128.213.247.0682.255.0682.426c0 .128-.017.255-.0426.383s-.0682.256-.1193.384c-.0511.127-.1193.247-.196.375-.0766.119-.1618.23-.2641.34.0511 0 .0937.017.1278.043.0426.026.0767.06.1108.102l.639.997-.6305.366c-.1193.069-.2045.06-.2556-.025l-.5027-.852c-.0256-.034-.0511-.06-.0767-.06-.0341 0-.0682.009-.1193.043l-.1789.102v1.457zm.6901-2.488.2812-.162c.0938-.051.1789-.119.2471-.187s.1193-.145.1619-.222c.0426-.076.0767-.162.0937-.247.0171-.085.0256-.17.0256-.256 0-.17-.0426-.281-.1278-.332s-.2215-.017-.4005.085l-.2812.162z"/><path d="m47.7764 122.618v-3.936l1.9341-1.125v.699l-1.2354.716v.911l.9542-.554v.682l-.9542.554v.937l1.2354-.716v.699z"/><path d="m49.915 119.406c0-.29.0341-.588.1108-.869.0767-.29.1789-.562.3067-.818.1364-.256.2898-.486.4772-.69.1875-.205.3834-.375.6049-.503.1108-.068.2216-.111.3153-.145.1022-.034.196-.051.2812-.051s.1704.009.2385.026c.0767.025.1364.051.196.093l-.2386.554c-.017.034-.034.068-.0511.102-.017.035-.0511.06-.0852.086-.0255.017-.0511.017-.0681.017-.0256 0-.0427-.009-.0682-.009-.0256 0-.0511-.008-.0852-.017-.0341-.008-.0682-.008-.1023-.008-.0426 0-.0852.008-.1448.025-.0511.017-.1193.043-.1875.085-.1192.069-.2215.154-.3152.264-.0937.111-.1789.239-.2471.392-.0682.145-.1193.307-.1619.486-.0341.179-.0596.366-.0596.562 0 .205.017.367.0596.503.0426.128.1023.23.1704.298.0682.069.1534.103.2556.103.0938 0 .196-.034.3067-.094.0597-.034.1193-.077.1705-.111.0511-.042.1022-.085.1448-.128.0426-.042.0852-.093.1278-.145.0426-.051.0767-.119.1193-.187.017-.026.0341-.051.0511-.077.0171-.025.0426-.042.0597-.051.017-.008.0341-.017.0511-.017s.0341 0 .0511.017l.2727.222c-.1193.281-.2727.519-.4516.733-.1789.213-.4005.391-.6476.528-.23.136-.4345.204-.6134.204-.179 0-.3323-.051-.4601-.153s-.2216-.264-.2897-.469c-.0597-.221-.0938-.468-.0938-.758z"/><path d="m52.437 115.981.6135-.358c.0596-.034.1108-.043.1448-.026.0341.017.0682.051.0853.094l.426.903c.0341.068.0681.137.0937.196.0256.06.0511.128.0767.188.017-.086.0426-.179.0681-.273.0256-.094.0597-.196.0938-.307l.426-1.389c.0085-.025.017-.059.0341-.093.017-.034.0341-.06.0511-.094s.0426-.06.0681-.085c.0256-.026.0512-.051.0768-.068l.6219-.358-1.0906 3.076v1.499l-.6987.401v-1.5z"/><path d="m55.1978 116.356c0-.29.034-.588.1107-.878s.1789-.562.3067-.818c.1364-.256.2897-.486.4772-.69.1874-.205.3834-.375.6049-.503.1108-.068.2216-.111.3153-.145.1023-.034.196-.051.2812-.051s.1704.009.2385.026c.0767.025.1364.051.196.094l-.2385.553c-.0171.034-.0341.068-.0512.103-.017.034-.0511.059-.0852.076-.0255.017-.0511.017-.0682.017-.0255 0-.0425-.008-.0681-.008-.0256-.009-.0511-.009-.0852-.017-.0341-.009-.0682-.009-.1023-.009-.0426 0-.0852.009-.1448.026-.0511.017-.1193.042-.1875.085-.1193.068-.2215.153-.3152.264s-.1789.239-.2471.392c-.0682.145-.1193.307-.1619.486-.0341.179-.0596.366-.0596.571 0 .204.017.366.0596.502.0426.128.1022.23.1704.299.0682.068.1534.102.2556.102.0938 0 .196-.034.3068-.094.0596-.034.1193-.077.1704-.111.0511-.042.1022-.076.1448-.128.0426-.042.0852-.093.1278-.144s.0767-.12.1193-.188c.0171-.025.0341-.051.0511-.076.0171-.026.0426-.043.0597-.052.017-.008.0341-.017.0511-.017s.0341 0 .0511.017l.2727.222c-.1193.281-.2727.52-.4516.733s-.4005.392-.6476.536c-.23.137-.4345.196-.6134.205-.179 0-.3323-.051-.4601-.153-.1278-.111-.2216-.265-.2897-.469-.0597-.23-.0937-.477-.0937-.758z"/><path d="m58.0693 116.662v-3.936l.6987-.401v3.213l1.1162-.648v.724z"/><path d="m60.2422 115.401v-3.936l.6987-.401v3.937z"/><path d="m61.52 114.66v-3.936l.3664-.213c.0341-.017.0597-.034.0767-.043.017-.008.0341-.009.0511-.009.0171 0 .0341.009.0511.018.0171.008.0341.025.0512.042l1.4314 1.534c-.0085-.077-.0085-.145-.0085-.213s0-.137 0-.196v-2.088l.6134-.358v3.937l-.3663.213c-.0512.034-.1023.043-.1364.043-.034 0-.0767-.018-.1107-.052l-1.4229-1.525c0 .068.0085.128.0085.196 0 .06.0085.128.0085.179v2.113z"/><path d="m64.562 110.937c0-.29.0341-.588.1108-.878s.1789-.562.3238-.826c.1363-.256.3067-.495.5027-.708.1959-.213.4175-.392.656-.528.1278-.068.2386-.128.3494-.162.1107-.034.213-.059.3067-.068s.1789 0 .2556.017.1449.051.2045.094l-.2045.52c-.0341.085-.0767.144-.1278.187-.0085.009-.0255.017-.0341.026-.0426.025-.0852.034-.1278.025-.0596-.008-.1107-.017-.1533-.025-.0512 0-.0938 0-.1449.008-.0511.009-.1022.026-.1619.051-.0596.026-.1193.051-.1874.094-.1278.077-.2471.179-.3579.298-.1022.119-.1959.256-.2726.409s-.1279.315-.1705.494-.0596.358-.0596.554c0 .213.0256.384.0682.52s.1022.238.1874.298c.0852.068.179.094.2897.085.1108-.008.2386-.051.3749-.128.0852-.051.1534-.102.2216-.161.0681-.06.1363-.128.1959-.196v-.58l-.2897.171c-.0426.025-.0767.034-.1022.008-.0256-.017-.0341-.051-.0341-.102v-.511l1.0736-.622v1.661c-.1534.239-.3238.443-.4942.605-.179.171-.3579.307-.5453.418-.2471.144-.4772.221-.6816.238-.2045.017-.3835-.025-.5283-.119-.1449-.094-.2556-.247-.3323-.443-.0767-.188-.1108-.435-.1108-.724z"/><path d="m44.8965 128.932c0-.418.0511-.835.1533-1.244.1023-.409.2471-.801.4346-1.159.1874-.366.4175-.69.6731-.98.2641-.29.5538-.528.8691-.716.1619-.093.3153-.161.4516-.204.1448-.043.2726-.068.4004-.077.1278-.008.2386.009.3409.043.1022.034.1959.076.2811.136l-.3323.784c-.0255.051-.0511.094-.0766.145-.0341.051-.0682.085-.1193.119-.0341.017-.0682.026-.1023.026s-.0681-.009-.1022-.017c-.0341-.009-.0767-.017-.1193-.026-.0426-.008-.0937-.017-.1534-.008-.0596 0-.1278.017-.2045.042-.0767.026-.1704.068-.2726.128-.1619.094-.3153.222-.4516.383-.1363.162-.2556.341-.3494.554-.1022.213-.1704.443-.23.69-.0511.256-.0767.52-.0767.81s.0256.528.0852.716c.0596.187.1449.323.2471.417s.2215.136.3579.136c.1363 0 .2811-.042.443-.136.0938-.051.1704-.102.2471-.162.0767-.059.1449-.111.213-.179.0682-.068.1278-.136.179-.213.0596-.076.1107-.17.1789-.264.0255-.034.0511-.077.0767-.111.0255-.034.0596-.059.0852-.076.0255-.017.0426-.017.0682-.026.0255 0 .0425 0 .0681.017l.3919.315c-.1704.392-.3919.742-.6475 1.048-.2556.299-.5624.554-.9202.759-.3238.187-.6135.281-.8776.289-.2556.009-.4772-.068-.6561-.221s-.3153-.375-.4175-.673c-.0852-.307-.1363-.656-.1363-1.065z"/><path d="m48.9863 129.366v-5.606l2.7606-1.593v.996l-1.7637 1.023v1.295l1.3548-.784v.971l-1.3548.784v1.338l1.7637-1.022v.996z"/><path d="m52.3516 127.424v-5.607l.5282-.306c.0426-.026.0767-.043.1108-.06.0256-.009.0511-.017.0767-.017.0255 0 .0426.008.0681.025.0256.017.0426.034.0767.06l2.0364 2.19c-.0085-.102-.017-.205-.017-.307s-.0085-.196-.0085-.281v-2.965l.8776-.503v5.607l-.5198.298c-.0767.042-.1448.068-.196.059-.0511 0-.1022-.025-.1533-.076l-2.0194-2.173c.0085.094.0085.187.0171.281.0085.094.0085.179.0085.256v3.007z"/><path d="m56.5947 120.394v-1.031l3.4082-1.968v1.031l-1.2099.699v4.575l-.9884.571v-4.575z"/><path d="m60.4976 122.712v-5.607l2.7606-1.593v.997l-1.7638 1.022v1.295l1.3548-.783v.971l-1.3548.784v1.337l1.7638-1.022v.997z"/><path d="m63.8633 120.761v-5.607l1.4059-.809c.3152-.179.5793-.29.8009-.333.2215-.042.4004-.034.5368.034.1363.069.2386.188.3067.35.0597.17.0937.366.0937.605 0 .179-.017.366-.0596.545-.0341.179-.0937.366-.1704.545s-.1704.358-.2812.529c-.1108.17-.2386.332-.3749.477.0682 0 .1278.025.1874.059.0597.035.1108.086.1534.145l.9117 1.423-.8946.52c-.1704.094-.2897.085-.3579-.043l-.7157-1.218c-.0341-.051-.0682-.077-.1108-.085-.0426-.009-.1022.008-.1789.051l-.2556.145v2.079zm.9969-3.545.4004-.23c.1364-.077.2471-.17.3494-.264.0937-.102.1704-.205.23-.324.0597-.111.1023-.23.1364-.358.0255-.119.0426-.247.0426-.366 0-.247-.0597-.401-.1875-.469-.1193-.068-.3152-.025-.5709.12l-.4004.23z"/><path d="m37.2873 135.808.0085-3.119-3.2207 1.696s-.801 1.636-.2471 2.701c0 0 .3323.485.6986.307.3749-.171 2.7607-1.585 2.7607-1.585z"/><path d="m33.6578 137.265-1.7979-2.65s-.2215-.409-.0426-.912c.179-.503.6391-1.704.6391-1.704l-.8265-.077 2.6754-1.874 1.1758 2.198-.7668-.051-.9884 2.658s-.4942 1.313-.0681 2.412z"/><path d="m43.3451 127.884-1.8404 4.771s-.2897.665-.6646.886c-.3749.23-1.2781.741-1.2781.741l-.0085 1.142-1.5252-1.747 1.5422-3.536.0085 1.031 2.0023-1.167s.9799-.554 1.7638-2.121z"/><path d="m42.076 124.518-2.2835 2.854 1.4229 2.616s1.244-.468 1.9938-2.164c0 0 .3408-.878.1874-1.193-.1533-.324-1.3206-2.113-1.3206-2.113z"/><path d="m35.6855 124.484 3.5957-2.096s.5027-.247.6986.017c.196.273.6391.946.6391.946l.8265-1.048-1.1418 3.578-2.6754 1.329.7498-.971-1.0054-1.474c-.0085 0-.4857-.741-1.6871-.281z"/><path d="m33.3594 129.247 2.2409.256 1.7722-4.261s-.4431-1.15-1.7297-.528c0 0-.6645.383-.8776.878-.2044.494-1.4058 3.655-1.4058 3.655z"/></g></g></svg>