<svg width="245" height="168" viewBox="0 0 245 168" fill="none" xmlns="http://www.w3.org/2000/svg">
<path opacity="0.7" d="M0.449458 63.0391C0.367573 61.9509 0.293879 60.8791 0.211993 59.8318C-2.1463 29.9427 15.4426 12.5886 39.4432 7.17208C46.2397 5.63386 51.8079 5.31475 58.3423 8.03938C66.6864 11.5167 75.3744 12.1959 83.8659 8.89849C93.1763 5.28203 101.152 -0.388134 111.347 0.0209686C125.857 0.610076 139.572 8.09665 152.412 15.3378C163.72 21.7116 174.677 23.7571 186.353 17.4406C202.73 8.5794 227.362 24.1744 218.321 46.7241C214.669 55.8307 208.864 67.1874 213.564 77.3332C217.617 86.0634 228.352 90.269 234.092 97.6165C240.414 105.709 245.221 116.55 243.861 127.767C240.873 152.363 211.533 162.517 193.879 165.331C183.397 167 171.426 166.518 161.96 160.536C153.96 155.48 147.908 146.39 138.794 143.714C125.341 139.762 113.86 156.552 102.511 162.148C89.8845 168.375 74.4409 171.026 64.0906 158.213C55.7711 147.928 55.7793 124.765 42.2519 120.878C34.5956 118.677 26.6855 121.034 19.2994 116.893C2.88145 107.705 1.80056 82.0297 0.449458 63.0391Z" fill="#DEE4FF"/>
<mask id="mask0" mask-type="alpha" maskUnits="userSpaceOnUse" x="1" y="0" width="244" height="168">
<path opacity="0.8" d="M1.45947 63.133C1.37763 62.0432 1.30398 60.9698 1.22213 59.9209C-1.1349 29.9873 16.4446 12.6074 40.4323 7.18277C47.2252 5.64225 52.7904 5.32267 59.3213 8.05135C67.661 11.5339 76.3444 12.214 84.8313 8.91175C94.1367 5.2899 102.108 -0.388712 112.297 0.0209999C126.8 0.610985 140.508 8.10871 153.341 15.3606C164.643 21.7439 175.593 23.7925 187.264 17.4665C203.632 8.59218 228.25 24.2104 219.215 46.7937C215.565 55.9139 209.762 67.2875 214.46 77.4484C218.511 86.1916 229.24 90.4035 234.978 97.7619C241.296 105.866 246.1 116.723 244.741 127.958C241.754 152.59 212.43 162.759 194.785 165.577C184.31 167.249 172.344 166.766 162.883 160.776C154.888 155.712 148.839 146.608 139.731 143.928C126.284 139.97 114.81 156.785 103.467 162.39C90.8466 168.626 75.4114 171.281 65.0666 158.448C56.7515 148.148 56.7597 124.95 43.2395 121.058C35.5873 118.854 27.6815 121.214 20.2994 117.068C3.89016 107.865 2.80985 82.1519 1.45947 63.133Z" fill="#DEE4FF"/>
</mask>
<g mask="url(#mask0)">
<path d="M281.888 116.236L201.814 189.83L-20.207 58.6459L10.1035 3.58182H64.7536L281.888 116.236Z" fill="#0094C1"/>
<path d="M38.8301 62.54V65.5648L46.2088 70.217L46.5667 70.0295V67.0047L38.8301 62.54ZM39.205 63.1876L46.1918 67.2178V69.3734L39.205 65.3433V63.1876Z" fill="#2C2C2C"/>
<path d="M38.4639 62.719V65.7438L46.209 70.217V67.1922L38.4639 62.719ZM38.8388 63.3751L45.8255 67.4138V69.5694L38.8388 65.5393V63.3751Z" fill="#474747"/>
<path d="M36.0012 66.1442L38.1228 64.9343L43.823 68.2232L47.0267 69.0753V70.0722L43.7208 71.9637L34.8169 66.8259V65.829L36.0012 66.1442Z" fill="#313131"/>
<path d="M38.1231 63.9373L47.0269 69.0751L43.721 70.9666L34.8086 65.8288L38.1231 63.9373Z" fill="#747474"/>
<path d="M37.0923 53.4573L47.7002 59.4642L48.5608 68.956L37.0923 62.3526V53.4573Z" fill="#003B18"/>
<path d="M37.0923 53.4572L40.7305 55.5618L46.9504 51.9747L43.3037 49.8701L37.0923 53.4572Z" fill="#002E13"/>
<path d="M37.0923 58.2456L49.5066 64.6871V65.9822L37.0923 59.5663V58.2456Z" fill="#74A674"/>
<path d="M140.002 53.3975L89.8338 24.4365L58.4785 42.5425L108.647 71.5035L140.002 53.3975Z" fill="#1B7735"/>
<path d="M53.4431 42.9346H55.7437V40.3529H53.4431V42.9346Z" fill="#002E13"/>
<path d="M60.2044 39.032H62.5049V36.4503H60.2044V39.032Z" fill="#002E13"/>
<path d="M66.9666 35.1296H69.2671V32.5479H66.9666V35.1296Z" fill="#002E13"/>
<path d="M73.7195 31.2271H76.02V28.6454H73.7195V31.2271Z" fill="#002E13"/>
<path d="M50.8521 44.4087L55.6577 41.631L53.4424 40.3529L55.385 39.2282L57.6088 40.5063L62.4144 37.7287L60.1991 36.4506L62.1503 35.3259L64.3656 36.604L69.1711 33.8263L66.9558 32.5482L68.907 31.4235L71.1223 32.7016L75.9363 29.9239L73.721 28.6459L76.8821 26.814L85.3003 31.6791L53.9451 49.7766L45.5269 44.9199L48.6283 43.1306L50.8521 44.4087Z" fill="#1B7735"/>
<path d="M140.002 53.3975L89.8338 24.4365L58.4785 42.5425L108.647 71.5035L140.002 53.3975Z" fill="#1B7735"/>
<path d="M98.2532 68.0729L63.4404 88.1726L64.7313 90.4084L99.544 70.3086L98.2532 68.0729Z" fill="black"/>
<path d="M65.5674 93.8443L54.167 74.7159L60.1313 71.2736L60.1398 71.2907C61.5713 70.5068 63.5395 70.6516 65.7122 71.9041C70.0917 74.4262 73.6533 80.5098 73.6533 85.4943C73.6533 87.88 72.8268 89.5756 71.4976 90.4191V90.4276L71.3783 90.4958C71.3442 90.5128 71.3102 90.5298 71.2846 90.5554L65.5674 93.8443Z" fill="black"/>
<path d="M56.2202 75.9175L64.3061 71.2483C64.7577 71.4187 65.2263 71.6317 65.7035 71.9044C70.083 74.4264 73.6445 80.51 73.6445 85.4945C73.6445 86.4147 73.5253 87.2241 73.2952 87.9228L67.0753 91.5184C66.3937 91.3225 65.6864 91.0243 64.9537 90.6068C64.1442 90.1381 63.3604 89.5502 62.6106 88.8941L56.6207 78.8485C56.3906 77.8516 56.2458 76.8718 56.2202 75.9175Z" fill="#1F1F1F"/>
<path d="M51.9937 79.6834C51.9937 84.6679 55.5467 90.7515 59.9347 93.2736C64.3142 95.7956 67.8758 93.8103 67.8758 88.8259C67.8758 83.8499 64.3228 77.7578 59.9347 75.2357C55.5467 72.7137 51.9937 74.7075 51.9937 79.6834Z" fill="#2A2A2A"/>
<path d="M52.3003 79.8622C52.3003 84.6507 55.717 90.4957 59.9346 92.924C64.1522 95.3524 67.5689 93.4352 67.5689 88.6468C67.5689 83.8583 64.1522 78.0132 59.9346 75.5849C55.717 73.1566 52.3003 75.0737 52.3003 79.8622Z" fill="#1D1D1D"/>
<path d="M54.0049 80.8421C54.0049 84.557 56.6547 89.0985 59.9266 90.9815C63.1984 92.8645 65.8483 91.3819 65.8483 87.667C65.8483 83.9521 63.1984 79.4107 59.9266 77.5277C56.6632 75.6361 54.0049 77.1272 54.0049 80.8421Z" fill="#3B3B3B"/>
<path d="M54.4053 81.0723C54.4053 84.5401 56.8762 88.7748 59.9265 90.53C62.9769 92.2852 65.4478 90.9049 65.4478 87.437C65.4478 83.9692 62.9769 79.7346 59.9265 77.9793C56.8847 76.2241 54.4053 77.613 54.4053 81.0723Z" fill="#727272"/>
<path d="M60.0032 78.022C63.0195 79.8027 65.4563 83.9948 65.4563 87.4286C65.4563 87.9227 65.4052 88.3658 65.303 88.7748L61.2728 91.1009C60.8468 90.9731 60.3952 90.7856 59.9351 90.5215C56.9359 88.7918 54.499 84.6764 54.4224 81.2427L60.0032 78.022Z" fill="#A9A9A9"/>
<path d="M63.0196 80.8337C64.1017 82.2907 64.9026 84.0119 65.252 85.6819L58.5634 89.5416C57.2598 88.4169 56.1436 86.8747 55.4023 85.2303L63.0196 80.8337Z" fill="#E9EAE7"/>
<path d="M63.0196 80.8337C64.1017 82.2907 64.9026 84.0119 65.252 85.6819L58.5634 89.5416C57.2598 88.4169 56.1436 86.8747 55.4023 85.2303L63.0196 80.8337Z" fill="#E9EAE7"/>
<path d="M56.1777 81.0126C56.1777 83.7647 58.146 87.1303 60.5658 88.5277C62.9941 89.925 64.9538 88.8259 64.9538 86.0653C64.9538 83.3046 62.9856 79.9476 60.5658 78.5502C58.146 77.1614 56.1777 78.2605 56.1777 81.0126Z" fill="#4D4D4D"/>
<path d="M56.9526 81.2001C56.9526 83.5602 58.6397 86.4487 60.7187 87.6501C62.7977 88.8514 64.4847 87.9057 64.4847 85.537C64.4847 83.1768 62.7977 80.2884 60.7187 79.087C58.6397 77.8941 56.9526 78.8399 56.9526 81.2001Z" fill="#949494"/>
<path d="M62.678 80.8249C62.7291 80.7482 62.8058 80.6886 62.8825 80.646C63.104 80.9272 63.317 81.2339 63.5045 81.5406C63.3255 81.6003 63.121 81.6088 62.9421 81.5406C62.6183 81.4128 62.499 81.0976 62.678 80.8249Z" fill="#727272"/>
<path d="M56.9951 83.0659C56.7395 82.7336 56.7991 82.4524 57.1144 82.4269C57.4297 82.4013 57.8898 82.6484 58.1454 82.9722C58.3925 83.3045 58.3413 83.5856 58.0261 83.6112C57.7108 83.6368 57.2507 83.3897 56.9951 83.0659Z" fill="#727272"/>
<path d="M63.6073 85.6136C63.5221 85.2216 63.7181 85.0683 64.0419 85.2728C64.3657 85.4773 64.698 85.9714 64.7832 86.3634C64.8684 86.7553 64.6724 86.9087 64.3486 86.7042C64.0248 86.4997 63.6925 86.014 63.6073 85.6136Z" fill="#727272"/>
<path d="M58.7674 78.6608C58.8782 78.337 59.1508 78.3796 59.3638 78.746C59.5768 79.1124 59.662 79.6662 59.5513 79.99C59.4405 80.3138 59.1679 80.2712 58.9548 79.9048C58.7333 79.5384 58.6481 78.9846 58.7674 78.6608Z" fill="#727272"/>
<path d="M63.6497 82.9039C63.3515 82.6397 63.3429 82.3245 63.6241 82.2052C63.6923 82.1711 63.7775 82.1626 63.8627 82.1626C64.0416 82.5034 64.212 82.8613 64.3484 83.2106C64.1098 83.1851 63.8456 83.0828 63.6497 82.9039Z" fill="#727272"/>
<path d="M63.8201 87.6754C63.769 88.0332 63.5133 88.0503 63.2492 87.7265C62.9936 87.3942 62.8232 86.8404 62.8743 86.4825C62.9254 86.1246 63.1811 86.1076 63.4452 86.4314C63.7008 86.7637 63.8712 87.326 63.8201 87.6754Z" fill="#727272"/>
<path d="M63.8797 84.3437C63.6752 83.9774 63.7689 83.7217 64.1012 83.7729C64.2631 83.7984 64.459 83.8922 64.6295 84.0285C64.7317 84.3864 64.8169 84.7357 64.8681 85.0936C64.8595 85.0936 64.8595 85.0936 64.851 85.0936C64.5272 85.0424 64.0927 84.7101 63.8797 84.3437Z" fill="#727272"/>
<path d="M57.7198 85.0852C57.4046 84.8722 57.3449 84.5569 57.5835 84.3695C57.8221 84.182 58.2822 84.199 58.5974 84.412C58.9127 84.6251 58.9723 84.9403 58.7338 85.1363C58.4867 85.3152 58.0351 85.2982 57.7198 85.0852Z" fill="#727272"/>
<path d="M60.122 87.4196C60.105 87.0276 60.3265 86.6272 60.6077 86.5164C60.8889 86.4056 61.1274 86.6357 61.136 87.0191C61.153 87.411 60.9315 87.8115 60.6503 87.9223C60.3776 88.033 60.1391 87.803 60.122 87.4196Z" fill="#727272"/>
<path d="M62.4142 87.0535C62.559 87.4454 62.5335 87.9737 62.3545 88.2293C62.1756 88.4849 61.903 88.3742 61.7496 87.9822C61.5962 87.5903 61.6303 87.062 61.8092 86.8064C61.9967 86.5423 62.2694 86.6616 62.4142 87.0535Z" fill="#727272"/>
<path d="M58.6477 86.1419C58.7755 85.8267 59.1418 85.6137 59.4656 85.6648C59.7894 85.7159 59.9598 86.0227 59.832 86.3379C59.7042 86.6532 59.3378 86.8662 59.014 86.8151C58.6817 86.7554 58.5199 86.4572 58.6477 86.1419Z" fill="#727272"/>
<path d="M58.1455 80.8419C57.8473 80.5778 57.5832 80.041 57.5576 79.6576C57.532 79.2742 57.7621 79.1719 58.0603 79.4446C58.3585 79.7087 58.6227 80.2455 58.6482 80.6289C58.6653 81.0123 58.4437 81.1146 58.1455 80.8419Z" fill="#727272"/>
<path d="M62.4222 80.0922C62.3029 80.2967 62.107 80.4586 61.9025 80.4841C61.5958 80.5182 61.3827 80.2541 61.4339 79.8962C61.4594 79.7002 61.5617 79.5128 61.698 79.3765C61.9451 79.598 62.1837 79.8366 62.4222 80.0922Z" fill="#727272"/>
<path d="M57.2677 80.8249C57.6 80.9442 58.0005 81.3531 58.1539 81.7451C58.3072 82.1285 58.1624 82.3415 57.8301 82.2222C57.4978 82.1029 57.0973 81.694 56.9354 81.302C56.7906 80.9186 56.9354 80.7056 57.2677 80.8249Z" fill="#727272"/>
<path d="M60.9231 78.7801C60.9316 78.8057 60.9487 78.8312 60.9487 78.8568C61.0424 79.2572 60.9231 79.7429 60.693 79.9389C60.463 80.1348 60.1989 79.9729 60.1137 79.564C60.0199 79.1635 60.1392 78.6778 60.3693 78.4819C60.3778 78.4734 60.3948 78.4734 60.4034 78.4648C60.463 78.4989 60.5141 78.516 60.5738 78.5501C60.6845 78.6267 60.8038 78.7034 60.9231 78.7801Z" fill="#727272"/>
<path d="M58.6821 82.0435C58.6821 83.509 59.7216 85.2898 61.0167 86.0311C62.3033 86.7724 63.3513 86.1845 63.3513 84.7275C63.3513 83.2619 62.3118 81.4812 61.0167 80.7399C59.7301 79.9986 58.6821 80.578 58.6821 82.0435Z" fill="#727272"/>
<path d="M60.3606 80.4841C60.5651 80.5353 60.7866 80.6119 61.0081 80.7397C62.2947 81.481 63.3427 83.2703 63.3427 84.7273C63.3427 85.1193 63.2661 85.443 63.1297 85.7072L61.0081 85.2641C60.1816 84.5484 60.0709 83.7304 59.5938 82.6824L60.3606 80.4841Z" fill="#A9A9A9"/>
<path d="M60.3099 84.3524C60.1565 84.0627 60.0287 83.7559 59.9009 83.4236C60.7955 83.0828 61.622 82.5971 62.3548 81.9922C62.7467 82.5375 63.0449 83.168 63.2068 83.79C62.1929 83.7985 61.213 84.003 60.3099 84.3524Z" fill="#DCDED9"/>
<path d="M58.6821 83.1086C58.6821 84.1481 59.4234 85.4176 60.3351 85.9459C61.2468 86.4742 61.9881 86.0567 61.9881 85.0172C61.9881 83.9777 61.2468 82.7081 60.3351 82.1798C59.4234 81.6516 58.6821 82.0691 58.6821 83.1086Z" fill="#C4C4C4"/>
<path d="M59.1851 83.739C59.1851 84.3014 59.5855 84.9915 60.0797 85.2727C60.5739 85.5539 60.9744 85.3324 60.9744 84.77C60.9744 84.2077 60.5739 83.5175 60.0797 83.2363C59.5855 82.9466 59.1851 83.1767 59.1851 83.739Z" fill="#4D4D4D"/>
<path d="M65.5668 93.8444L69.0602 91.825C69.0943 91.808 69.1284 91.7909 69.154 91.7654L69.2732 91.6972L69.2647 91.6887C70.6024 90.8452 71.4204 89.1496 71.4204 86.7639C71.4204 81.7879 67.8674 75.6958 63.4793 73.1737C61.3066 71.9212 59.3384 71.7849 57.907 72.5603L57.8984 72.5518L58.2904 72.3217L58.2989 72.3388C59.7303 71.5549 61.6986 71.6997 63.8713 72.9522C68.2508 75.4743 71.8123 81.5579 71.8123 86.5423C71.8123 88.9281 70.9859 90.6236 69.6567 91.4671L69.6652 91.4757L69.5459 91.5439C69.5118 91.5609 69.4777 91.5779 69.4522 91.6035L65.5668 93.8444Z" fill="black"/>
<path d="M65.5671 93.8442L67.2797 92.8558C67.3138 92.8387 67.3479 92.8217 67.3734 92.7962L67.4927 92.728V92.7194C68.8305 91.8759 69.6484 90.1804 69.6484 87.7946C69.6484 82.8102 66.0954 76.7266 61.7073 74.2045C59.5346 72.952 57.5664 72.8157 56.135 73.5911L56.1265 73.5825L56.5184 73.3525L56.5269 73.3695C57.9584 72.5856 59.9266 72.7305 62.0993 73.983C66.4788 76.505 70.0403 82.5887 70.0403 87.5731C70.0403 89.9588 69.2139 91.6544 67.8847 92.4979L67.8932 92.5064L67.7739 92.5746C67.7398 92.5917 67.7058 92.6087 67.6802 92.6343L65.5671 93.8442Z" fill="black"/>
<path d="M52.1988 46.155L110.803 79.9983V103.728L39.6567 62.5995L52.1988 46.155Z" fill="#003B18"/>
<path d="M76.3281 94.0402L91.1537 102.603V95.429L76.3281 86.8574V94.0402Z" fill="#747474"/>
<path d="M100.015 97.4908L91.1538 102.603V95.4288L92.1166 92.9238L100.015 97.4908Z" fill="#2A2A2A"/>
<path d="M76.3281 86.8573L77.2824 84.3523L92.1165 92.9239L91.1537 95.4289L76.3281 86.8573Z" fill="#313131"/>
<path d="M72.3408 78.6692V88.6892L96.8116 104.12L98.0129 103.515V93.4863L72.3408 78.6692ZM73.5933 80.8334L96.7689 94.2105V101.351L73.5933 87.9735V80.8334Z" fill="#2C2C2C"/>
<path d="M71.1479 79.2742V89.2942L96.8201 104.111V94.0912L71.1479 79.2742ZM72.3919 81.4384L95.5676 94.8155V101.956L72.3919 88.5785V81.4384Z" fill="#474747"/>
<path d="M110.802 100.286V103.728L41.8885 63.9203L41.4795 60.2139L110.802 100.286Z" fill="#002E13"/>
<path d="M110.803 96.3747V98.0873L39.6567 56.9676L41.4801 56.303L110.803 96.3747Z" fill="#74A674"/>
<path d="M107.658 87.5391V92.1742V95.3608L110.828 93.5289L114.841 91.2114L115.897 93.0348L111.884 95.3523L107.513 97.8744C107.471 97.917 107.411 97.9681 107.343 98.0022C107.3 98.0277 107.249 98.0363 107.207 98.0533C107.173 98.0874 107.121 98.1044 107.062 98.1129C106.661 98.2322 106.176 98.1982 105.843 98.0107C105.613 97.8829 105.52 97.6954 105.554 97.525V92.1742V87.5391H107.658Z" fill="#474747"/>
<path d="M106.635 97.3715C106.823 97.4397 107.036 97.4312 107.206 97.3289C107.47 97.1755 107.735 97.0222 107.99 96.8773C108.484 96.5876 108.987 96.3065 109.481 96.0168C109.958 95.7441 110.444 95.463 110.921 95.1903C111.134 95.071 111.347 94.9432 111.56 94.8239C111.594 94.8069 115.037 92.8131 115.037 92.8131L114.611 92.0718C114.432 92.1741 114.261 92.2763 114.082 92.3785C113.639 92.6342 113.205 92.8898 112.762 93.1454C112.182 93.4777 111.603 93.8185 111.023 94.1508C110.427 94.4916 109.831 94.841 109.243 95.1818C108.757 95.4629 108.28 95.7441 107.794 96.0168C107.632 96.1105 107.351 96.3576 107.172 96.2213C107.019 96.102 107.036 95.9742 107.036 95.8038C107.036 95.6504 107.036 95.4885 107.036 95.3351C107.036 94.9688 107.036 94.5939 107.036 94.2275C107.036 93.614 107.036 92.992 107.036 92.3785C107.036 92.3104 107.036 92.2507 107.036 92.1826V88.1694H106.184C106.184 88.2632 106.184 88.3569 106.184 88.4506C106.184 88.8766 106.184 89.3027 106.184 89.7202C106.184 90.3592 106.184 91.0068 106.184 91.6458C106.184 92.3615 106.184 93.0857 106.184 93.8015C106.184 94.4575 106.184 95.1136 106.184 95.7697C106.184 96.0253 106.184 96.2894 106.184 96.5536C106.184 96.6558 106.184 96.7666 106.184 96.8688C106.175 97.0818 106.388 97.2608 106.567 97.3545C106.584 97.346 106.61 97.363 106.635 97.3715Z" fill="#747474"/>
<path d="M110.802 79.9986L108.647 71.5037L58.4783 42.5427L52.1987 46.1554L110.802 79.9986Z" fill="#046033"/>
<path d="M110.802 79.9983L142.422 61.739L140.002 53.3975L108.646 71.5034L110.802 79.9983Z" fill="#005C1D"/>
<path d="M141.356 71.0008V57.0869H145.275V71.0008H145.267C145.301 71.3161 145.113 71.6484 144.696 71.8869C143.921 72.3385 142.677 72.3385 141.91 71.904C141.475 71.6569 141.296 71.3246 141.356 71.0008Z" fill="#707568"/>
<path d="M144.619 71.921C143.869 72.3215 142.745 72.33 142.003 71.9551V57.0869H144.619V71.921Z" fill="#92978D"/>
<path d="M144.355 72.0488C143.989 72.1851 143.571 72.2448 143.154 72.2277V57.0869H144.355V72.0488Z" fill="#BABDB7"/>
<path d="M144.705 56.2777C143.938 55.8347 142.694 55.8432 141.918 56.2948C141.143 56.7463 141.135 57.4621 141.901 57.9051C142.668 58.3482 143.912 58.3397 144.688 57.8881C145.463 57.4365 145.471 56.7208 144.705 56.2777Z" fill="#6F6F6F"/>
<path d="M142.259 57.0531V52.418H144.364V57.0531H144.355C144.372 57.2235 144.279 57.4024 144.049 57.5302C143.631 57.7688 142.966 57.7773 142.549 57.5388C142.319 57.411 142.225 57.232 142.259 57.0531Z" fill="#92978D"/>
<path d="M143.826 57.6154C143.664 57.6751 143.486 57.7091 143.307 57.7091V52.4094H143.826V57.6154Z" fill="#BABDB7"/>
<path d="M144.057 51.9833C143.648 51.7447 142.974 51.7533 142.565 51.9918C142.148 52.2304 142.139 52.6223 142.557 52.8609C142.966 53.0995 143.639 53.091 144.057 52.8524C144.466 52.6053 144.466 52.2219 144.057 51.9833Z" fill="black"/>
<path d="M156.616 80.6122L160.357 78.4565V68.4961L156.616 70.6518V80.6122Z" fill="#676767"/>
<path d="M160.144 78.1581V69.6377L157.656 71.0777V79.5896L160.144 78.1581Z" fill="#92978D"/>
<path d="M160.357 68.4961L160.144 69.6378L157.656 71.0778L156.616 70.6518L160.357 68.4961Z" fill="#E9EAE7"/>
<path d="M157.656 79.5897L156.616 80.6121L160.357 78.4564L160.144 78.1582L157.656 79.5897Z" fill="#404040"/>
<path d="M160.536 80.8506C160.536 82.052 159.615 83.5857 158.482 84.2843C157.349 84.9745 156.429 84.5655 156.429 83.3642C156.429 82.1628 157.349 80.6291 158.482 79.9304C159.624 79.2403 160.536 79.6492 160.536 80.8506Z" fill="#676767"/>
<path d="M159.573 83.2791C159.257 83.6795 158.883 84.0374 158.482 84.2845C158.286 84.4037 158.107 84.4804 157.928 84.5316C158.175 84.1141 158.525 83.7306 158.908 83.5006C159.155 83.3472 159.377 83.2876 159.573 83.2791Z" fill="#404040"/>
<path d="M157.536 80.7653C157.826 80.433 158.141 80.1348 158.482 79.9303C159.155 79.5128 159.751 79.5043 160.126 79.811C160.126 79.8621 160.135 79.9047 160.135 79.9558C160.135 80.8846 159.513 81.6429 158.746 81.6429C158.226 81.6344 157.775 81.285 157.536 80.7653Z" fill="#E9EAE7"/>
<path d="M160.289 81.3788C160.289 82.1797 159.675 83.2107 158.917 83.6793C158.158 84.148 157.545 83.8668 157.545 83.0659C157.545 82.2564 158.158 81.234 158.917 80.7653C159.675 80.2967 160.289 80.5779 160.289 81.3788Z" fill="#92978D"/>
<path d="M158.669 75.9513L159.495 75.4827V76.9822L158.669 77.4594L158.49 77.3486V75.849L158.669 75.9513Z" fill="#73796C"/>
<path d="M159.494 76.5726V75.073L158.668 75.5416V77.0497L159.494 76.5726Z" fill="#676767"/>
<path d="M159.496 75.0737L159.308 74.9629L158.49 75.44L158.669 75.5423L159.496 75.0737Z" fill="#E9EAE7"/>
<path d="M158.49 76.9395V75.4399L158.669 75.5422V77.0503L158.49 76.9395Z" fill="#404040"/>
<path d="M158.669 82.2052L159.495 81.7366V82.7505L158.669 83.2277L158.49 83.1169V82.1029L158.669 82.2052Z" fill="#73796C"/>
<path d="M159.494 82.341V81.3186L158.668 81.7957V82.8097L159.494 82.341Z" fill="#676767"/>
<path d="M159.496 81.3191L159.308 81.2168L158.49 81.6939L158.669 81.7962L159.496 81.3191Z" fill="#E9EAE7"/>
<path d="M158.49 82.7078V81.6938L158.669 81.7961V82.8101L158.49 82.7078Z" fill="#404040"/>
<path d="M155.653 88.1101V87.471L158.951 84.3525V66.843L157.971 66.1102L158.124 65.6416L159.419 66.6044V84.5485L155.653 88.1101Z" fill="#383838"/>
<path d="M108.715 78.4563L128.653 89.9589V120.556L108.715 109.053V78.4563Z" fill="#C6C8CC"/>
<path d="M128.593 119.372L128.712 119.159L127.52 118.469C126.898 118.111 126.514 117.446 126.514 116.73V108.04C126.514 107.622 126.727 107.239 127.094 107.034C127.46 106.821 127.894 106.821 128.252 107.034L128.585 107.222L128.704 107.009L128.372 106.821C127.929 106.565 127.409 106.565 126.966 106.821C126.523 107.077 126.267 107.528 126.267 108.04V116.73C126.267 117.531 126.693 118.281 127.392 118.682L128.593 119.372Z" fill="#A8A8A8"/>
<path d="M111.381 99.0161L114.014 100.558V98.6071L111.381 97.0564V99.0161Z" fill="#6F6F6F"/>
<path d="M117.107 108.798L110.137 104.623V79.76L121.188 86.1333L121.231 86.1589L125.653 100.524L125.661 100.541L125.466 113.203L117.107 108.798ZM121.026 86.3208L110.384 80.1775V104.478L117.235 108.576L125.227 112.802L125.414 100.575L121.026 86.3208Z" fill="#A8A8A8"/>
<path d="M103.569 106.08V98.5049C104.941 98.2407 106.602 98.573 108.383 99.604C112.984 102.254 116.733 108.516 116.954 113.808L103.569 106.08Z" fill="#656F7C"/>
<path d="M163.901 86.7725L128.652 107.119L127.161 102.527L162.402 82.1799L163.901 86.7725Z" fill="#D3DBED"/>
<path d="M163.143 86.4828L162.044 83.1086L127.911 102.816L129.01 106.191L163.143 86.4828Z" fill="#E9E9E9"/>
<path d="M152.655 95.906L152.885 95.8294L148.923 83.6707L148.693 83.7473L152.655 95.906Z" fill="#A8A8A8"/>
<path d="M141.646 103.004L141.876 102.927L137.906 90.7683L137.676 90.845L141.646 103.004Z" fill="#A8A8A8"/>
<path d="M141.05 97.0051C141.041 97.0051 141.041 97.0136 141.033 97.0136C141.033 96.9966 141.024 96.988 141.024 96.971C141.024 96.7836 141.178 96.545 141.365 96.4342L145.038 94.3126C145.225 94.2019 145.378 94.27 145.378 94.4575C145.378 94.4745 145.37 94.5001 145.37 94.5256C145.336 94.5342 145.302 94.5512 145.268 94.5682L141.05 97.0051Z" fill="#2D2D2D"/>
<path d="M146.579 94.5939L150.252 92.4723C150.439 92.3615 150.592 92.4297 150.592 92.6171C150.592 92.6342 150.584 92.6512 150.584 92.6768C150.567 92.6853 150.55 92.6853 150.533 92.6938L146.324 95.1221C146.298 95.1392 146.281 95.1562 146.255 95.1733C146.255 95.1562 146.247 95.1477 146.247 95.1307C146.238 94.9432 146.392 94.6961 146.579 94.5939Z" fill="#2D2D2D"/>
<path d="M146 94.1422C145.974 94.1592 145.957 94.1763 145.932 94.1933C145.932 94.1763 145.923 94.1678 145.923 94.1507C145.923 93.9633 146.077 93.7247 146.264 93.6139L149.936 91.4923C150.124 91.3815 150.277 91.4497 150.277 91.6372C150.277 91.6542 150.269 91.6713 150.269 91.6968C150.252 91.7053 150.235 91.7053 150.218 91.7139L146 94.1422Z" fill="#2D2D2D"/>
<path d="M149.894 90.7255L145.685 93.1539C145.659 93.1709 145.642 93.188 145.616 93.205C145.616 93.188 145.608 93.1795 145.608 93.1624C145.608 92.975 145.761 92.7364 145.949 92.6256L149.621 90.504C149.808 90.3933 149.962 90.4614 149.962 90.6489C149.962 90.6659 149.953 90.683 149.953 90.7085C149.928 90.7085 149.911 90.7085 149.894 90.7255Z" fill="#2D2D2D"/>
<path d="M141.689 97.4142L145.361 95.2926C145.549 95.1818 145.702 95.25 145.702 95.4374C145.702 95.4545 145.694 95.4801 145.694 95.5056C145.66 95.5141 145.626 95.5312 145.591 95.5482L141.382 97.9765C141.374 97.9765 141.374 97.9851 141.365 97.9851C141.365 97.968 141.357 97.9595 141.357 97.9425C141.348 97.7635 141.502 97.525 141.689 97.4142Z" fill="#2D2D2D"/>
<path d="M144.943 93.58L140.734 96.0083C140.726 96.0083 140.726 96.0168 140.717 96.0168C140.717 95.9998 140.708 95.9912 140.708 95.9827C140.708 95.7953 140.862 95.5567 141.049 95.4459L144.722 93.3243C144.909 93.2136 145.062 93.2817 145.062 93.4692C145.062 93.4862 145.054 93.5118 145.054 93.5374C145.011 93.5459 144.977 93.5629 144.943 93.58Z" fill="#2D2D2D"/>
<path d="M146.323 95.1221L150.532 92.6938C150.549 92.6853 150.566 92.6853 150.583 92.6768C150.558 92.8557 150.422 93.0602 150.251 93.1539L146.579 95.2755C146.408 95.3692 146.272 95.3266 146.247 95.1818C146.272 95.1562 146.298 95.1392 146.323 95.1221Z" fill="white"/>
<path d="M145.037 94.9943L141.365 97.1159C141.194 97.2181 141.058 97.167 141.032 97.0136C141.041 97.0136 141.041 97.0051 141.049 97.0051L145.258 94.5768C145.292 94.5512 145.327 94.5427 145.361 94.5342C145.335 94.6961 145.207 94.9006 145.037 94.9943Z" fill="white"/>
<path d="M141.373 97.9851L145.582 95.5568C145.616 95.5312 145.65 95.5227 145.684 95.5142C145.659 95.6931 145.522 95.8891 145.361 95.9828L141.688 98.1044C141.518 98.2066 141.382 98.1555 141.356 98.0021C141.364 97.9851 141.364 97.9851 141.373 97.9851Z" fill="white"/>
<path d="M149.893 90.7255C149.911 90.717 149.928 90.717 149.945 90.7085C149.919 90.8874 149.783 91.0919 149.612 91.1856L145.94 93.3072C145.77 93.4095 145.642 93.3584 145.616 93.2135C145.642 93.1965 145.659 93.1794 145.684 93.1624L149.893 90.7255Z" fill="white"/>
<path d="M149.927 92.174L146.255 94.2955C146.085 94.3893 145.948 94.3467 145.923 94.2018C145.948 94.1848 145.965 94.1678 145.991 94.1507L150.2 91.7224C150.217 91.7139 150.234 91.7138 150.251 91.7053C150.234 91.8672 150.098 92.0717 149.927 92.174Z" fill="white"/>
<path d="M144.943 93.5799C144.977 93.5544 145.011 93.5459 145.045 93.5374C145.02 93.7163 144.883 93.9122 144.721 94.006L141.049 96.1276C140.879 96.2298 140.742 96.1787 140.717 96.0253C140.717 96.0253 140.725 96.0168 140.734 96.0168L144.943 93.5799Z" fill="white"/>
<path d="M122.399 86.3464L157.639 65.9995L162.402 82.1798L127.162 102.527L122.399 86.3464Z" fill="#EAF1FF"/>
<path d="M151.999 69.9787L159.854 75.8152L157.545 68.0786C157.366 67.5077 156.719 67.2521 156.208 67.5504L151.999 69.9787Z" fill="#38505E"/>
<path d="M134.089 80.3222L147.321 90.1718L156.063 85.1277L142.831 75.2781L134.089 80.3222Z" fill="#38505E"/>
<path d="M142.83 75.278L153.029 82.8698L153.464 82.6227C154.75 81.8814 156.309 81.7962 157.664 82.3841L159.453 83.168C160.749 82.4182 161.362 80.8845 160.936 79.4616L159.854 75.8233L158.124 74.5367L159.897 80.9271C160.093 81.6258 159.343 82.2052 158.712 81.8473L149.22 76.3686C148.539 75.9767 147.993 75.4059 147.636 74.7413L153.685 71.2479L151.99 69.9954L142.83 75.278Z" fill="#829AA9"/>
<path d="M159.531 79.6067L159.42 79.1978V79.6067C159.463 79.5982 159.497 79.5982 159.531 79.6067Z" fill="#C0FFFF"/>
<path d="M147.645 74.7329C148.011 75.406 148.548 75.9683 149.229 76.3603L157.332 81.0295C157.528 80.7739 157.741 80.5353 157.971 80.3308C157.98 80.3138 157.997 80.2967 158.005 80.2882C158.159 80.1604 158.321 80.0326 158.483 79.9218C158.61 79.8451 158.73 79.7855 158.849 79.7344C158.874 79.7259 158.909 79.7173 158.934 79.7003C158.943 79.7003 158.943 79.6918 158.951 79.6918V79.2572L156.617 80.6035V73.4037L153.694 71.231L147.645 74.7329Z" fill="#C0FFFF"/>
<path d="M156.617 70.6515V80.6034L158.951 79.2571V79.7002C158.943 79.7002 158.943 79.7087 158.934 79.7087C158.909 79.7173 158.875 79.7343 158.849 79.7428C158.73 79.7939 158.61 79.8536 158.483 79.9303C158.321 80.0325 158.159 80.1603 158.006 80.2966C157.997 80.3052 157.98 80.3222 157.971 80.3392C157.741 80.5437 157.528 80.7823 157.332 81.0379L158.721 81.8474C159.343 82.2052 160.093 81.6258 159.906 80.9271L159.539 79.6065C159.505 79.598 159.463 79.598 159.428 79.598V79.189L158.133 74.5283L157 70.4385L156.617 70.6515Z" fill="#65818A"/>
<path d="M156.617 73.4123V70.6517L156.992 70.4387L156.719 69.4844L153.694 71.2311L156.617 73.4123Z" fill="#A6DDFF"/>
<path d="M124.912 85.622L132.64 91.3733L135.861 89.5158L138.502 91.254L144.288 87.914L134.089 80.3223L124.912 85.622Z" fill="#829AA9"/>
<path d="M123.676 88.6639L126.369 97.6785C126.42 97.8404 126.471 97.9938 126.548 98.1471C127.332 99.8171 129.411 100.499 131.064 99.553L138.153 95.4632L135.119 93.2052L124.92 85.6135L124.886 85.6306C123.821 86.2441 123.327 87.4966 123.676 88.6639Z" fill="#38505E"/>
<path d="M113.009 121.263L101.608 102.135L107.573 98.6923L107.581 98.7094C109.013 97.9255 110.981 98.0703 113.154 99.3228C117.533 101.845 121.095 107.928 121.095 112.913C121.095 115.299 120.268 116.994 118.939 117.838L118.947 117.846L118.828 117.914C118.794 117.931 118.76 117.949 118.734 117.974L113.009 121.263Z" fill="black"/>
<path d="M103.662 103.336L111.748 98.6667C112.199 98.8372 112.668 99.0502 113.145 99.3228C117.524 101.845 121.086 107.928 121.086 112.913C121.086 113.825 120.967 114.643 120.737 115.341L114.517 118.937C113.835 118.741 113.128 118.443 112.395 118.017C111.586 117.548 110.802 116.969 110.052 116.304L104.062 106.258C103.832 105.27 103.687 104.282 103.662 103.336Z" fill="#1F1F1F"/>
<path d="M99.436 107.102C99.436 112.078 102.989 118.17 107.377 120.692C111.757 123.214 115.318 121.229 115.318 116.244C115.318 111.26 111.765 105.176 107.377 102.654C102.989 100.132 99.436 102.118 99.436 107.102Z" fill="#2A2A2A"/>
<path d="M99.7427 107.281C99.7427 112.069 103.159 117.914 107.377 120.343C111.595 122.771 115.011 120.854 115.011 116.065C115.011 111.277 111.595 105.432 107.377 103.004C103.159 100.575 99.7427 102.492 99.7427 107.281Z" fill="#1D1D1D"/>
<path d="M101.447 108.261C101.447 111.976 104.097 116.517 107.368 118.4C110.64 120.283 113.29 118.8 113.29 115.085C113.29 111.371 110.64 106.829 107.368 104.946C104.097 103.055 101.447 104.546 101.447 108.261Z" fill="#3B3B3B"/>
<path d="M101.847 108.491C101.847 111.959 104.318 116.193 107.368 117.948C110.419 119.704 112.89 118.323 112.89 114.856C112.89 111.388 110.419 107.153 107.368 105.398C104.318 103.643 101.847 105.031 101.847 108.491Z" fill="#727272"/>
<path d="M107.445 105.441C110.461 107.221 112.898 111.413 112.898 114.847C112.898 115.341 112.847 115.784 112.745 116.193L108.715 118.52C108.289 118.392 107.837 118.204 107.377 117.94C104.378 116.211 101.941 112.095 101.864 108.661L107.445 105.441Z" fill="#A9A9A9"/>
<path d="M110.462 108.252C111.544 109.709 112.345 111.431 112.694 113.101L106.005 116.96C104.702 115.836 103.586 114.293 102.844 112.649L110.462 108.252Z" fill="#E9EAE7"/>
<path d="M110.462 108.252C111.544 109.709 112.345 111.431 112.694 113.101L106.005 116.96C104.702 115.836 103.586 114.293 102.844 112.649L110.462 108.252Z" fill="#E9EAE7"/>
<path d="M103.62 108.431C103.62 111.183 105.588 114.549 108.008 115.946C110.436 117.344 112.396 116.245 112.396 113.484C112.396 110.732 110.427 107.366 108.008 105.969C105.579 104.58 103.62 105.679 103.62 108.431Z" fill="#4D4D4D"/>
<path d="M104.395 108.619C104.395 110.979 106.082 113.867 108.161 115.069C110.24 116.27 111.927 115.324 111.927 112.956C111.927 110.595 110.24 107.707 108.161 106.506C106.074 105.313 104.395 106.259 104.395 108.619Z" fill="#949494"/>
<path d="M110.12 108.244C110.171 108.167 110.24 108.108 110.325 108.065C110.546 108.355 110.759 108.653 110.947 108.96C110.768 109.019 110.563 109.028 110.384 108.96C110.061 108.832 109.933 108.508 110.12 108.244Z" fill="#727272"/>
<path d="M104.437 110.476C104.19 110.144 104.241 109.863 104.557 109.837C104.872 109.812 105.332 110.059 105.588 110.383C105.835 110.715 105.784 110.996 105.468 111.022C105.153 111.056 104.693 110.809 104.437 110.476Z" fill="#727272"/>
<path d="M111.05 113.033C110.965 112.641 111.16 112.487 111.484 112.692C111.808 112.896 112.14 113.39 112.226 113.782C112.311 114.174 112.115 114.328 111.791 114.123C111.467 113.919 111.135 113.424 111.05 113.033Z" fill="#727272"/>
<path d="M106.201 106.08C106.312 105.756 106.584 105.799 106.797 106.165C107.01 106.531 107.096 107.085 106.985 107.409C106.874 107.724 106.601 107.69 106.388 107.324C106.175 106.957 106.09 106.404 106.201 106.08Z" fill="#727272"/>
<path d="M111.092 110.323C110.793 110.05 110.785 109.743 111.066 109.624C111.134 109.59 111.219 109.582 111.305 109.582C111.492 109.922 111.654 110.272 111.79 110.63C111.552 110.604 111.288 110.502 111.092 110.323Z" fill="#727272"/>
<path d="M111.253 115.095C111.202 115.452 110.946 115.469 110.682 115.146C110.427 114.813 110.256 114.26 110.307 113.902C110.359 113.544 110.614 113.527 110.878 113.851C111.142 114.183 111.313 114.737 111.253 115.095Z" fill="#727272"/>
<path d="M111.322 111.763C111.117 111.396 111.211 111.141 111.543 111.192C111.705 111.217 111.901 111.311 112.071 111.447C112.174 111.805 112.259 112.155 112.31 112.512C112.301 112.512 112.301 112.512 112.293 112.512C111.969 112.461 111.535 112.129 111.322 111.763Z" fill="#727272"/>
<path d="M105.162 112.504C104.846 112.291 104.787 111.976 105.025 111.78C105.264 111.592 105.724 111.609 106.039 111.822C106.355 112.035 106.414 112.359 106.176 112.547C105.929 112.734 105.477 112.717 105.162 112.504Z" fill="#727272"/>
<path d="M107.564 114.83C107.547 114.438 107.768 114.038 108.05 113.927C108.331 113.816 108.569 114.046 108.578 114.43C108.595 114.822 108.373 115.222 108.092 115.333C107.811 115.452 107.572 115.222 107.564 114.83Z" fill="#727272"/>
<path d="M109.856 114.472C110.001 114.864 109.975 115.393 109.796 115.648C109.617 115.904 109.345 115.793 109.191 115.401C109.046 115.009 109.072 114.481 109.251 114.225C109.438 113.961 109.703 114.072 109.856 114.472Z" fill="#727272"/>
<path d="M106.09 113.552C106.218 113.237 106.584 113.024 106.908 113.075C107.232 113.126 107.402 113.433 107.274 113.748C107.147 114.063 106.78 114.276 106.456 114.225C106.124 114.174 105.962 113.876 106.09 113.552Z" fill="#727272"/>
<path d="M105.579 108.261C105.281 107.997 105.017 107.46 104.991 107.077C104.966 106.693 105.196 106.591 105.494 106.864C105.792 107.128 106.056 107.665 106.082 108.048C106.107 108.432 105.886 108.534 105.579 108.261Z" fill="#727272"/>
<path d="M109.856 107.511C109.737 107.724 109.541 107.877 109.337 107.903C109.03 107.946 108.817 107.673 108.868 107.307C108.893 107.111 108.996 106.923 109.124 106.787C109.388 107.017 109.626 107.255 109.856 107.511Z" fill="#727272"/>
<path d="M104.71 108.244C105.042 108.363 105.442 108.772 105.596 109.164C105.749 109.548 105.604 109.761 105.272 109.641C104.94 109.522 104.539 109.113 104.386 108.721C104.233 108.338 104.377 108.125 104.71 108.244Z" fill="#727272"/>
<path d="M108.356 106.199C108.365 106.225 108.382 106.25 108.391 106.276C108.484 106.676 108.365 107.162 108.135 107.358C107.905 107.554 107.641 107.383 107.556 106.983C107.462 106.582 107.581 106.097 107.811 105.901C107.82 105.892 107.837 105.892 107.845 105.884C107.905 105.909 107.956 105.935 108.016 105.969C108.126 106.046 108.246 106.122 108.356 106.199Z" fill="#727272"/>
<path d="M106.124 109.462C106.124 110.928 107.164 112.708 108.459 113.45C109.745 114.191 110.793 113.603 110.793 112.146C110.793 110.681 109.754 108.9 108.459 108.159C107.172 107.417 106.124 107.997 106.124 109.462Z" fill="#727272"/>
<path d="M107.803 107.903C108.007 107.954 108.229 108.031 108.451 108.158C109.737 108.9 110.785 110.689 110.785 112.146C110.785 112.538 110.708 112.862 110.572 113.126L108.451 112.683C107.624 111.967 107.513 111.149 107.036 110.101L107.803 107.903Z" fill="#A9A9A9"/>
<path d="M107.752 111.771C107.599 111.481 107.471 111.175 107.343 110.842C108.238 110.502 109.064 110.016 109.797 109.411C110.189 109.956 110.487 110.587 110.649 111.209C109.635 111.217 108.655 111.422 107.752 111.771Z" fill="#DCDED9"/>
<path d="M106.124 110.527C106.124 111.567 106.865 112.836 107.777 113.364C108.689 113.893 109.43 113.475 109.43 112.436C109.43 111.396 108.689 110.127 107.777 109.598C106.865 109.07 106.124 109.488 106.124 110.527Z" fill="#C4C4C4"/>
<path d="M106.627 111.158C106.627 111.72 107.027 112.41 107.522 112.691C108.016 112.973 108.416 112.751 108.416 112.189C108.416 111.626 108.016 110.936 107.522 110.655C107.027 110.365 106.627 110.595 106.627 111.158Z" fill="#4D4D4D"/>
<path d="M113.009 121.263L116.502 119.244C116.536 119.227 116.571 119.21 116.596 119.184L116.715 119.116V119.107C118.053 118.264 118.871 116.568 118.871 114.183C118.871 109.207 115.318 103.115 110.93 100.592C108.757 99.34 106.789 99.2036 105.358 99.979L105.349 99.9705L105.741 99.7404L105.75 99.7575C107.181 98.9736 109.149 99.1184 111.322 100.371C115.701 102.893 119.263 108.977 119.263 113.961C119.263 116.347 118.437 118.042 117.107 118.886L117.116 118.894L116.997 118.963C116.963 118.98 116.928 118.997 116.903 119.022L113.009 121.263Z" fill="black"/>
<path d="M113.009 121.263L114.721 120.275C114.755 120.257 114.79 120.24 114.815 120.215L114.934 120.147L114.926 120.138C116.264 119.295 117.082 117.599 117.082 115.213C117.082 110.237 113.529 104.145 109.14 101.623C106.968 100.371 105 100.234 103.568 101.01L103.56 101.001L103.952 100.771L103.96 100.788C105.391 100.013 107.36 100.149 109.532 101.402C113.92 103.924 117.473 110.007 117.473 114.992C117.473 117.378 116.647 119.073 115.318 119.917V119.925L115.199 119.993C115.164 120.01 115.13 120.036 115.105 120.053L113.009 121.263Z" fill="black"/>
<path d="M117.5 114.089L127.46 119.848V122.515V123.436L117.5 117.676V114.089Z" fill="#747474"/>
<path d="M123.872 118.502L118.121 115.179V117.318L123.872 120.65V118.502Z" fill="#525252"/>
<path d="M123.872 115.631L118.121 112.3V114.447L118.436 114.626L123.872 117.778V115.631Z" fill="#747474"/>
<path d="M123.872 118.502L118.121 115.171V117.318L119.075 117.275C120.285 117.224 121.453 117.736 122.228 118.673L123.872 120.65V118.502Z" fill="#2A2A2A"/>
<path d="M123.872 115.631L118.121 112.3V114.447L118.999 114.37C120.311 114.259 121.597 114.822 122.398 115.87L123.872 117.778V115.631Z" fill="#525252"/>
<path d="M128.653 120.556L163.902 100.209V86.7722L128.653 107.119V120.556Z" fill="white"/>
<path d="M154.929 97.3972V98.4878L137.3 108.653V107.562L154.929 97.3972Z" fill="#A9A9A9"/>
<path d="M154.929 99.5786V100.661L137.3 110.826V109.735L154.929 99.5786Z" fill="#A9A9A9"/>
<path d="M154.929 101.743V102.586L137.3 112.751V111.908L154.929 101.743Z" fill="#A9A9A9"/>
<path d="M160.946 98.7436L157.205 100.899C156.379 101.376 155.714 101.095 155.714 100.269V97.4144C155.714 96.5879 156.387 95.5314 157.205 95.0628L160.946 92.9071C161.772 92.4299 162.437 92.7111 162.437 93.5376V96.3919C162.437 97.2184 161.772 98.2665 160.946 98.7436Z" fill="#DEE0DE"/>
<path d="M162.436 94.969V96.3919C162.436 97.2184 161.763 98.2749 160.945 98.7435L157.205 100.899C156.378 101.376 155.714 101.095 155.714 100.269V98.8458L162.436 94.969Z" fill="#92978D"/>
<path d="M161.192 98.8204C161.874 98.4285 162.436 97.5424 162.436 96.8607V94.0064C162.436 93.3247 161.874 93.0862 161.192 93.4781L157.452 95.6338C156.77 96.0257 156.208 96.9118 156.208 97.5935V100.448C156.208 101.129 156.762 101.368 157.452 100.976L161.192 98.8204Z" fill="#CCCEC9"/>
<path d="M157.205 100.908L160.945 98.752C161.772 98.2749 162.436 97.2184 162.436 96.4004V97.4143C162.436 98.0022 161.959 98.752 161.371 99.0929L156.779 101.743C156.191 102.084 155.714 101.879 155.714 101.291V100.277C155.714 101.095 156.378 101.385 157.205 100.908Z" fill="#B4C9D2"/>
<path d="M157.775 96.8265V99.4338C157.775 99.9024 158.159 100.064 158.627 99.7917L161.235 98.2835C161.703 98.0109 162.087 97.4144 162.087 96.9458V94.3386C162.087 93.8699 161.703 93.708 161.235 93.9807L158.627 95.4888C158.159 95.7529 157.775 96.3579 157.775 96.8265Z" fill="#759FFF"/>
<path d="M157.775 99.1186V99.4338C157.775 99.9024 158.159 100.064 158.627 99.7917L161.235 98.2836C161.703 98.0109 162.087 97.4145 162.087 96.9459V96.6306L159.931 96.8862L157.775 99.1186Z" fill="#83C1FF"/>
<path d="M162.087 94.6453V94.33C162.087 93.8614 161.703 93.6995 161.235 93.9722L158.627 95.4803C158.159 95.7529 157.775 96.3494 157.775 96.818V97.1333L159.931 96.8862L162.087 94.6453Z" fill="#6E90C2"/>
<path d="M131.107 115.989L134.847 113.833C135.674 113.356 136.338 112.3 136.338 111.482V108.627C136.338 107.801 135.665 107.52 134.847 107.997L131.107 110.152C130.28 110.63 129.616 111.686 129.616 112.504V115.358C129.616 116.185 130.28 116.466 131.107 115.989Z" fill="#DEE0DE"/>
<path d="M129.615 113.935V115.358C129.615 116.185 130.288 116.466 131.106 115.989L134.847 113.833C135.673 113.356 136.338 112.299 136.338 111.482V110.059L129.615 113.935Z" fill="#92978D"/>
<path d="M130.118 115.52V112.666C130.118 111.976 130.671 111.107 131.362 110.706L135.102 108.55C135.792 108.159 136.346 108.389 136.346 109.079V111.933C136.346 112.623 135.792 113.501 135.102 113.893L131.362 116.048C130.671 116.449 130.118 116.21 130.118 115.52Z" fill="#CCCEC9"/>
<path d="M134.847 113.816L131.106 115.972C130.28 116.449 129.615 116.168 129.615 115.341V116.355C129.615 116.943 130.092 117.148 130.68 116.807L135.273 114.157C135.861 113.816 136.338 113.066 136.338 112.478V111.464C136.338 112.282 135.673 113.339 134.847 113.816Z" fill="#B4C9D2"/>
<path d="M134.779 110.101V112.709C134.779 113.177 134.395 113.774 133.927 114.046L131.319 115.554C130.851 115.827 130.467 115.665 130.467 115.196V112.589C130.467 112.121 130.851 111.524 131.319 111.252L133.927 109.743C134.395 109.471 134.779 109.633 134.779 110.101Z" fill="#759FFF"/>
<path d="M134.779 112.402V112.717C134.779 113.186 134.395 113.782 133.927 114.055L131.319 115.563C130.851 115.836 130.467 115.674 130.467 115.205V114.89L132.623 112.657L134.779 112.402Z" fill="#83C1FF"/>
<path d="M130.467 112.904V112.589C130.467 112.121 130.851 111.524 131.319 111.252L133.927 109.743C134.395 109.471 134.779 109.633 134.779 110.101V110.417L132.623 112.649L130.467 112.904Z" fill="#6E90C2"/>
<path d="M129.862 120.743L162.683 101.802V100.907L129.862 119.857V120.743Z" fill="black"/>
<path d="M126.028 120.104C126.275 119.959 126.582 119.951 126.829 120.096L127.57 120.522L129.47 120.564L164.336 100.448V99.6807L163.109 98.9735L164.055 98.4282L165.946 99.5188V104.708L129.47 125.762H127.57L127.127 125.498C125.687 124.663 125.278 122.226 125.278 120.556L126.028 120.104Z" fill="#E9EAE7"/>
<path d="M129.471 126.75L165.947 105.696V100.516L129.471 121.561V126.75Z" fill="#A9A9A9"/>
<path d="M165.657 105.244V105.67L129.854 126.333V125.906L165.657 105.244Z" fill="#676767"/>
<path d="M155.509 104.495L158.406 102.825V103.634L155.509 105.304V104.495Z" fill="black"/>
<path d="M137.045 115.154L134.14 116.832V117.642L137.045 115.963V115.154Z" fill="black"/>
<path d="M140.982 119.934C141.442 119.67 141.817 119.082 141.817 118.622V116.278C141.817 115.818 141.442 115.665 140.982 115.929L134.822 119.482C134.361 119.746 133.995 120.334 133.995 120.794V123.129C133.995 123.589 134.37 123.742 134.822 123.478L140.982 119.934Z" fill="#676767"/>
<path d="M140.982 119.465C141.442 119.201 141.817 118.613 141.817 118.153V115.819C141.817 115.358 141.442 115.205 140.982 115.469L134.822 119.022C134.361 119.286 133.995 119.874 133.995 120.334V122.669C133.995 123.129 134.37 123.282 134.822 123.018L140.982 119.465Z" fill="white"/>
<path d="M134.821 122.864L140.981 119.311C141.356 119.098 141.654 118.621 141.654 118.246V115.911C141.654 115.536 141.356 115.409 140.981 115.63L134.821 119.183C134.446 119.396 134.147 119.873 134.147 120.248V122.583C134.147 122.949 134.454 123.077 134.821 122.864Z" fill="white"/>
<path d="M134.155 120.223C134.163 119.856 134.462 119.388 134.828 119.175L140.988 115.622C141.355 115.409 141.653 115.536 141.661 115.894L134.155 120.223Z" fill="#FF7F45"/>
<path d="M141.655 118.255C141.646 118.622 141.348 119.09 140.982 119.303L134.822 122.856C134.455 123.069 134.157 122.941 134.148 122.584L141.655 118.255Z" fill="#FF7F45"/>
<path d="M132.64 91.3731L138.152 95.4715L147.32 90.1717L144.287 87.9138L138.502 91.2538L135.86 89.5157L132.64 91.3731Z" fill="#ACACAC"/>
<path d="M153.029 82.8615L156.063 85.1194L159.462 83.1597L157.673 82.3758C156.31 81.7879 154.759 81.8731 153.472 82.6144L153.029 82.8615Z" fill="#ACACAC"/>
<path d="M144.288 87.9139L147.321 90.1719L156.063 85.1278L153.03 82.8613L144.288 87.9139Z" fill="#4F6E78"/>
<path d="M126.548 98.1556C127.332 99.8256 129.411 100.507 131.064 99.5614L138.153 95.4716L132.648 91.3733L126.676 94.8241L126.684 97.9937L126.548 98.1556Z" fill="#4F6E78"/>
<path d="M146.068 90.8877L143.861 92.1657L139.056 77.4509L141.271 76.1729L146.068 90.8877Z" fill="#D3DBED"/>
<path d="M122.501 86.4143C122.458 86.1587 122.424 85.9031 122.424 85.6304C122.424 85.1022 122.509 84.5909 122.671 84.1564L109.797 76.7266L108.715 78.4562L122.501 86.4143Z" fill="#B3B8BE"/>
<path d="M122.671 84.1481C122.518 84.5827 122.424 85.0939 122.424 85.6222C122.424 85.8948 122.458 86.1504 122.501 86.4061L122.952 86.6702C123.574 87.028 124.265 87.207 124.955 87.1985C125.244 87.1985 125.526 87.1644 125.807 87.1047C126.097 87.0451 126.378 86.9514 126.642 86.8235C126.744 86.7809 126.855 86.7213 126.957 86.6702L158.287 68.5813C158.883 68.2404 159.054 67.5503 158.832 66.9964C158.73 66.7579 157.81 65.4031 157.537 65.2327C157.537 65.2242 157.528 65.2242 157.528 65.2242L143.955 58.1096L109.797 76.7268L122.671 84.1481Z" fill="#E4E4E4"/>
<path d="M122.433 85.6219C122.433 85.8945 122.467 86.1501 122.509 86.4058L122.961 86.6699C123.583 87.0278 124.273 87.2067 124.963 87.1982C125.244 87.1982 125.534 87.1641 125.815 87.1044C126.096 87.0448 126.386 86.9511 126.65 86.8233C126.752 86.4484 126.812 86.0394 126.812 85.6219C126.812 85.3066 126.778 84.9999 126.718 84.7102C126.454 83.381 125.611 82.4097 124.622 82.4097C123.779 82.4097 123.046 83.1168 122.68 84.1478C122.518 84.5824 122.433 85.0936 122.433 85.6219Z" fill="#C6C8CC"/>
<path d="M109.797 76.7266L122.671 84.1564L123.285 84.5143C124.341 85.1192 125.611 85.1959 126.71 84.7188C126.855 84.6591 127 84.591 127.136 84.5143L157.256 67.124C157.954 66.715 158.057 65.7948 157.545 65.241C157.545 65.2325 157.537 65.2325 157.537 65.2325C157.46 65.1473 157.367 65.0791 157.264 65.0109L143.674 57.1721L109.797 76.7266Z" fill="white"/>
<path d="M128.32 66.0335C128.67 65.8375 129.096 65.8375 129.436 66.0335L142.618 73.6337C143.367 74.0597 143.367 75.1418 142.618 75.5678C142.268 75.7638 141.842 75.7638 141.501 75.5678L128.32 67.9676C127.57 67.533 127.57 66.4595 128.32 66.0335Z" fill="#C6C8CC"/>
<path d="M153.643 69.1945C153.294 69.3905 152.868 69.3905 152.527 69.1945L139.346 61.5943C138.605 61.1683 138.605 60.0862 139.346 59.6602C139.695 59.4642 140.121 59.4642 140.462 59.6602L153.643 67.2604C154.393 67.695 154.393 68.7685 153.643 69.1945Z" fill="#C6C8CC"/>
<path d="M133.833 62.8469C134.183 62.651 134.609 62.651 134.95 62.8469L148.131 70.4472C148.872 70.8732 148.872 71.9553 148.131 72.3813C147.781 72.5773 147.355 72.5773 147.014 72.3813L133.833 64.7811C133.092 64.3465 133.092 63.273 133.833 62.8469Z" fill="#C6C8CC"/>
<path d="M117.286 72.3982C117.636 72.2022 118.062 72.2022 118.403 72.3982L131.584 79.9984C132.325 80.4244 132.325 81.5066 131.584 81.9326C131.234 82.1286 130.808 82.1286 130.468 81.9326L117.286 74.3323C116.537 73.9063 116.537 72.8327 117.286 72.3982Z" fill="#C6C8CC"/>
<path d="M122.8 69.2117C123.149 69.0157 123.575 69.0157 123.916 69.2117L137.097 76.8119C137.838 77.238 137.838 78.32 137.097 78.7461C136.748 78.942 136.322 78.942 135.981 78.7461L122.8 71.1458C122.058 70.7198 122.058 69.6462 122.8 69.2117Z" fill="#C6C8CC"/>
<path d="M128.32 66.6553C128.67 66.4593 129.096 66.4593 129.436 66.6553L142.618 74.2555C143.367 74.6816 143.367 75.7636 142.618 76.1897C142.268 76.3856 141.842 76.3856 141.501 76.1897L128.32 68.5894C127.57 68.1634 127.57 67.0813 128.32 66.6553Z" fill="#E4E4E4"/>
<path d="M153.643 69.8249C153.294 70.0208 152.868 70.0208 152.527 69.8249L139.354 62.2161C138.613 61.7901 138.613 60.708 139.354 60.282C139.704 60.086 140.13 60.086 140.47 60.282L153.652 67.8822C154.393 68.3168 154.393 69.3903 153.643 69.8249Z" fill="#E4E4E4"/>
<path d="M133.833 63.4688C134.183 63.2728 134.609 63.2728 134.95 63.4688L148.131 71.069C148.872 71.495 148.872 72.5771 148.131 73.0031C147.781 73.1991 147.355 73.1991 147.014 73.0031L133.833 65.4029C133.092 64.9769 133.092 63.9033 133.833 63.4688Z" fill="#E4E4E4"/>
<path d="M117.286 73.0286C117.636 72.8326 118.062 72.8326 118.403 73.0286L131.584 80.6288C132.325 81.0548 132.325 82.1369 131.584 82.563C131.234 82.7589 130.808 82.7589 130.468 82.563L117.286 74.9627C116.537 74.5282 116.537 73.4546 117.286 73.0286Z" fill="#E4E4E4"/>
<path d="M122.8 69.8418C123.149 69.6458 123.575 69.6458 123.916 69.8418L137.097 77.442C137.838 77.8681 137.838 78.9502 137.097 79.3762C136.748 79.5722 136.322 79.5722 135.981 79.3762L122.8 71.7759C122.058 71.3414 122.058 70.2678 122.8 69.8418Z" fill="#E4E4E4"/>
<path d="M127.57 121.519L129.47 121.561V126.75H127.57V121.519Z" fill="#8D8D8D"/>
<path d="M125.986 120.598L127.57 121.519V126.75L127.127 126.486C125.687 125.651 124.801 124.109 124.801 122.447V121.28C124.801 120.675 125.457 120.292 125.986 120.598Z" fill="#676767"/>
<path d="M163.993 100.436H164.333V99.6777H163.993V100.436Z" fill="#E9EAE7"/>
<path d="M112.796 82.4523L119.451 86.295C120.03 86.6273 120.464 87.1811 120.643 87.8287L124.043 100.047C124.239 100.746 123.489 101.325 122.859 100.967L113.367 95.4886C112.046 94.7302 111.237 93.3244 111.237 91.7992V83.3469C111.237 82.5545 112.097 82.0518 112.796 82.4523Z" fill="#38505E"/>
<path d="M112.796 82.4523L119.451 86.295C120.03 86.6273 120.465 87.1811 120.644 87.8287L120.669 87.9054L111.493 93.2051C111.339 92.762 111.246 92.2849 111.246 91.7992V83.3469C111.237 82.5545 112.098 82.0518 112.796 82.4523Z" fill="#4F6E78"/>
<path d="M117.763 100.652L122.594 103.455C123.199 103.805 123.574 104.452 123.574 105.151V108.329C123.574 108.917 122.935 109.292 122.424 108.994L117.61 106.19C117.107 105.901 116.792 105.355 116.792 104.776V101.223C116.775 100.72 117.32 100.405 117.763 100.652Z" fill="#38505E"/>
<path d="M101.983 98.3003C103.483 98.0277 105.281 98.394 107.215 99.5102C112.259 102.407 116.357 109.275 116.613 115.077V117.224L117.857 116.509V114.387C117.601 108.585 113.495 101.717 108.459 98.8201C106.508 97.6868 104.684 97.3205 103.185 97.6102L101.983 98.3003Z" fill="#595959"/>
<path d="M107.215 99.5187C112.259 102.416 116.357 109.283 116.613 115.086V117.233L115.974 116.866L115.965 114.711C115.948 114.429 115.923 114.174 115.88 113.927C115.182 108.559 111.407 102.654 106.9 100.064C105.519 99.2716 104.165 98.8455 102.963 98.8455C102.844 98.8455 102.725 98.8455 102.605 98.8541C102.392 98.8541 102.179 98.8796 101.983 98.9137V98.3002C103.483 98.0276 105.281 98.394 107.215 99.5187Z" fill="#474747"/>
<path d="M138.851 66.8941C138.604 67.3201 139.056 68.0273 139.848 68.4874C140.641 68.9475 141.484 68.9731 141.723 68.5556C141.97 68.1296 141.518 67.4224 140.726 66.9623C139.933 66.5022 139.09 66.4766 138.851 66.8941Z" fill="#DA6700"/>
<path d="M133.373 70.0552C133.126 70.4727 133.577 71.1885 134.37 71.6486C135.162 72.1087 135.997 72.1342 136.244 71.7167C136.491 71.2907 136.04 70.5835 135.247 70.1234C134.455 69.6633 133.62 69.6377 133.373 70.0552Z" fill="#DA6700"/>
<path d="M127.826 73.2588C127.579 73.6763 128.03 74.3921 128.823 74.8522C129.615 75.3123 130.45 75.3378 130.697 74.9203C130.944 74.4943 130.493 73.7871 129.7 73.327C128.908 72.8669 128.065 72.8413 127.826 73.2588Z" fill="#DA6700"/>
<path d="M53.945 49.7763L50.0767 71.4268C49.9575 72.0914 49.557 72.6111 49.0287 72.9179L46.7793 74.213L47.282 73.0968C47.1457 73.0542 47.0094 72.9946 46.873 72.9179C43.729 71.103 43.3882 49.7848 43.3882 46.1551L45.5354 44.9197L53.945 49.7763Z" fill="#002E13"/>
<path d="M43.3882 46.1551L45.5268 44.9197L50.818 47.97L48.6709 49.2055L48.2449 48.9584L43.3882 46.1551Z" fill="#1B7735"/>
<path d="M44.7344 74.1618C41.5904 72.3469 34.6888 52.0256 43.3882 46.1636L51.8064 51.0202L48.8924 67.3198L47.9381 72.6707C47.674 74.1447 46.0295 74.903 44.7344 74.1618Z" fill="#003B18"/>
<path d="M117.704 103.072L121.445 100.916V90.9558L117.704 93.1115V103.072Z" fill="#676767"/>
<path d="M121.231 100.618V92.0977L118.743 93.5376V102.05L121.231 100.618Z" fill="#92978D"/>
<path d="M121.445 90.9558L121.232 92.0975L118.744 93.5375L117.704 93.1115L121.445 90.9558Z" fill="#E9EAE7"/>
<path d="M118.743 102.049L117.704 103.072L121.444 100.916L121.231 100.618L118.743 102.049Z" fill="#404040"/>
<path d="M121.632 103.31C121.632 104.512 120.712 106.045 119.578 106.744C118.445 107.434 117.525 107.025 117.525 105.824C117.525 104.622 118.445 103.089 119.578 102.39C120.712 101.691 121.632 102.109 121.632 103.31Z" fill="#676767"/>
<path d="M120.661 105.739C120.345 106.139 119.97 106.497 119.57 106.744C119.374 106.863 119.195 106.94 119.016 106.991C119.263 106.574 119.613 106.19 119.996 105.96C120.243 105.807 120.465 105.739 120.661 105.739Z" fill="#404040"/>
<path d="M118.624 103.225C118.905 102.893 119.228 102.595 119.569 102.39C120.242 101.973 120.839 101.964 121.214 102.271C121.214 102.322 121.222 102.365 121.222 102.416C121.222 103.345 120.6 104.103 119.833 104.103C119.314 104.094 118.862 103.745 118.624 103.225Z" fill="#E9EAE7"/>
<path d="M121.376 103.839C121.376 104.648 120.763 105.671 120.005 106.139C119.246 106.599 118.633 106.327 118.633 105.526C118.633 104.716 119.246 103.694 120.005 103.225C120.763 102.757 121.376 103.029 121.376 103.839Z" fill="#92978D"/>
<path d="M119.757 98.411L120.584 97.9424V99.442L119.757 99.9191L119.578 99.8084V98.3088L119.757 98.411Z" fill="#73796C"/>
<path d="M120.582 99.0328V97.5247L119.756 98.0018V99.5014L120.582 99.0328Z" fill="#676767"/>
<path d="M120.584 97.5248L120.396 97.4226L119.578 97.8998L119.757 98.002L120.584 97.5248Z" fill="#E9EAE7"/>
<path d="M119.578 99.3993V97.8997L119.757 98.0019V99.5015L119.578 99.3993Z" fill="#404040"/>
<path d="M119.757 104.665L120.584 104.188V105.21L119.757 105.688L119.578 105.577V104.563L119.757 104.665Z" fill="#73796C"/>
<path d="M120.582 104.801V103.779L119.756 104.256V105.27L120.582 104.801Z" fill="#676767"/>
<path d="M120.584 103.779L120.396 103.677L119.578 104.145L119.757 104.256L120.584 103.779Z" fill="#E9EAE7"/>
<path d="M119.578 105.168V104.145L119.757 104.256V105.27L119.578 105.168Z" fill="#404040"/>
<path d="M123.711 110.57V109.931L120.405 106.804V89.3027L121.385 88.5699L121.231 88.1013L119.936 89.0641V107.008L123.711 110.57Z" fill="#383838"/>
<path d="M97.0156 64.7893L95.5586 63.9458L126.922 45.8484L128.388 46.6919L97.0156 64.7893Z" fill="#18692F"/>
<path d="M94.3149 94.2019L92.8579 93.3498V69.6289L94.3149 70.4724V94.2019Z" fill="#003315"/>
<path d="M94.3149 70.4727L92.8579 69.6292L95.5589 63.946L97.0159 64.7896L94.3149 70.4727Z" fill="#0B4D20"/>
<path d="M95.3198 96.9797L97.1943 95.8976V72.1341L99.9038 66.4595L131.268 48.3535L131.728 48.6177L132.401 49.0096L129.862 46.9988L98.0208 65.3689L95.3198 71.052V96.9797Z" fill="#003B18"/>
<path d="M95.3203 96.9795L93.8633 96.1274V70.2083L95.3203 71.0518V96.9795Z" fill="#003B18"/>
<path d="M95.3203 71.0518L93.8633 70.2083L96.5557 64.5251L98.0212 65.3687L95.3203 71.0518Z" fill="#0C5423"/>
<path d="M98.0212 65.3687L96.5557 64.5251L128.397 46.155L129.862 46.9986L98.0212 65.3687Z" fill="#1B7735"/>
<path d="M98.021 65.3689L99.904 66.4595L131.268 48.3535L132.401 49.0096L129.862 46.9988L98.021 65.3689Z" fill="#005C1D"/>
<path d="M97.1943 72.1341V95.8976L95.3198 96.9797V71.052L97.1943 72.1341Z" fill="#002E13"/>
<path d="M84.4055 57.4959L82.9399 56.6524L114.312 38.5549L115.769 39.3984L84.4055 57.4959Z" fill="#18692F"/>
<path d="M81.7043 63.1793L80.2388 62.3357L82.9398 56.6526L84.4053 57.4961L81.7043 63.1793Z" fill="#0B4D20"/>
<path d="M87.2937 59.1575L118.649 41.0601L119.109 41.3242L119.791 41.7162L117.243 39.7053L85.4021 58.0669L82.7012 63.7586L87.2937 59.1575Z" fill="#003B18"/>
<path d="M82.7012 63.7584L81.2441 62.9148L83.9451 57.2317L85.4021 58.0667L82.7012 63.7584Z" fill="#0C5423"/>
<path d="M85.4023 58.0667L83.9453 57.2317L115.786 38.8616L117.243 39.7051L85.4023 58.0667Z" fill="#1B7735"/>
<path d="M85.4019 58.0669L87.2934 59.1575L118.649 41.0601L119.79 41.7162L117.243 39.7053L85.4019 58.0669Z" fill="#005C1D"/>
<path d="M71.7866 50.1854L70.3296 49.3419L101.693 31.2529L103.159 32.0964L96.8964 37.1065L71.7866 50.1854Z" fill="#18692F"/>
<path d="M69.0854 79.5981L67.6284 78.7546V55.0337L69.0854 55.8772V79.5981Z" fill="#003315"/>
<path d="M69.0854 55.877L67.6284 55.0335L70.3294 49.3418L71.7864 50.1853L69.0854 55.877Z" fill="#0B4D20"/>
<path d="M70.0913 82.3843L71.9658 81.3022V57.5386L74.6753 51.8555L106.039 33.7581L106.499 34.0222L107.172 34.4141L104.633 32.3948L72.7923 50.7649L70.0913 56.4565V82.3843Z" fill="#003B18"/>
<path d="M70.0913 82.3843L68.6343 81.5323V55.613L70.0913 56.4566V82.3843Z" fill="#003B18"/>
<path d="M70.0913 56.4566L68.6343 55.613L71.3267 49.9214L72.7923 50.7649L70.0913 56.4566Z" fill="#0C5423"/>
<path d="M96.905 35.1725H96.8965V36.8595L98.575 35.8967L104.633 32.4034L103.176 31.5598L96.905 35.1725Z" fill="#1B7735"/>
<path d="M71.3267 49.9298L72.7922 50.7734L82.0624 45.414L96.692 36.9788H96.6835L96.2149 36.7061L95.7463 36.4334L95.235 36.1353L80.6139 44.5705L78.7139 45.6611L71.3267 49.9298Z" fill="#1B7735"/>
<path d="M72.792 50.7649L74.675 51.8555L106.039 33.7581L107.172 34.4141L104.633 32.3948L72.792 50.7649Z" fill="#005C1D"/>
<path d="M71.9658 57.5389V81.3024L70.0913 82.376V56.4568L71.9658 57.5389Z" fill="#002E13"/>
<path d="M59.1765 42.9344L57.7109 42.0909L89.0832 23.9934L90.5402 24.8369L59.1765 42.9344Z" fill="#18692F"/>
<path d="M56.4756 72.3469L55.0186 71.5034V47.7825L56.4756 48.626V72.3469Z" fill="#003315"/>
<path d="M56.4756 48.6262L55.0186 47.7827L57.711 42.0911L59.1765 42.9346L56.4756 48.6262Z" fill="#0B4D20"/>
<path d="M57.4722 75.125L59.3467 74.0429V50.2879L62.0647 44.6047L93.42 26.4988L93.8801 26.7714L94.5617 27.1634L92.0141 25.144L60.1732 43.5141L57.4722 49.2058V75.125Z" fill="#003B18"/>
<path d="M57.4721 75.1248L56.0151 74.2728V48.3621L57.4721 49.2056V75.1248Z" fill="#003B18"/>
<path d="M57.4721 49.2056L56.0151 48.3621L58.7161 42.6704L60.1731 43.5139L57.4721 49.2056Z" fill="#0C5423"/>
<path d="M60.1733 43.5139L58.7163 42.6704L90.5572 24.3003L92.0142 25.1438L60.1733 43.5139Z" fill="#1B7735"/>
<path d="M60.1733 43.5141L62.0649 44.6047L93.4201 26.4988L94.5619 27.1634L92.0143 25.144L60.1733 43.5141Z" fill="#005C1D"/>
<path d="M59.3467 50.2877V74.0427L57.4722 75.1248V49.2056L59.3467 50.2877Z" fill="#002E13"/>
<path d="M60.3691 62.7954L66.325 66.2292V69.3562L60.3691 65.9139V62.7954Z" fill="#747474"/>
<path d="M41.2153 54.7354L44.8621 56.8399V64.0141L41.2153 61.9096V54.7354Z" fill="#74A674"/>
<path d="M119.127 59.8052V58.9787H119.655C119.706 58.9446 119.757 58.902 119.817 58.8679C120.729 58.3396 122.203 58.3311 123.097 58.8508C123.165 58.8934 123.225 58.9361 123.285 58.9787H123.77V59.8052C123.762 60.146 123.532 60.4868 123.08 60.7424C122.168 61.2707 120.694 61.2792 119.8 60.7594C119.34 60.4953 119.118 60.1545 119.127 59.8052Z" fill="#1D1D1D"/>
<path d="M119.127 58.9784L119.519 54.9568H123.378L123.77 58.9358C123.77 58.9529 123.779 58.9614 123.77 58.9784C123.762 59.3193 123.532 59.6601 123.08 59.9157C122.168 60.4439 120.694 60.4525 119.8 59.9327C119.34 59.6686 119.118 59.3278 119.127 58.9784Z" fill="#C97735"/>
<path d="M122.834 58.1776C122.075 57.743 120.848 57.7516 120.081 58.1946C119.315 58.6377 119.306 59.3534 120.064 59.7879C120.823 60.2225 122.05 60.214 122.817 59.7709C123.583 59.3193 123.592 58.6121 122.834 58.1776Z" fill="#BC5705"/>
<path d="M120.447 56.0814C120.933 55.2379 121.734 55.2464 122.237 56.107C122.731 56.9675 122.739 58.3479 122.254 59.1914C121.768 60.0349 120.967 60.0264 120.464 59.1658C119.97 58.3053 119.962 56.9249 120.447 56.0814Z" fill="#BD4D00"/>
<path d="M122.825 59.6686C122.467 59.8731 122.024 60.0009 121.564 60.0435C121.538 60.0264 121.513 60.0009 121.496 59.9753C121.419 59.8816 121.342 59.7793 121.274 59.6601C120.618 58.5183 120.61 56.6864 121.257 55.5702C121.419 55.2891 121.607 55.0846 121.803 54.9482H123.047C123.081 54.9653 123.106 54.9994 123.132 55.0164C123.14 55.0249 123.149 55.0334 123.157 55.0505L123.515 58.6717C123.515 58.6887 123.524 58.6973 123.515 58.7143C123.507 59.0636 123.277 59.4044 122.825 59.6686Z" fill="#E07705"/>
<path d="M121.615 56.499C121.973 55.8855 122.552 55.8855 122.918 56.516C123.276 57.1466 123.285 58.152 122.927 58.7655C122.569 59.3789 121.99 59.3704 121.623 58.7484C121.265 58.1264 121.257 57.121 121.615 56.499Z" fill="#E09C05"/>
<path d="M122.816 54.1559C122.066 53.7213 120.848 53.7298 120.089 54.1729C119.331 54.6074 119.322 55.3146 120.072 55.7492C120.822 56.1837 122.04 56.1752 122.799 55.7321C123.557 55.2976 123.566 54.5904 122.816 54.1559Z" fill="#EDA94D"/>
<path d="M78.1089 45.3032L78.7139 45.6611L80.6139 44.5705L82.0624 45.414V47.5952L85.036 49.3078L101.532 39.782L98.575 38.0693L96.8965 37.1065L96.692 36.9787H96.6835L96.2148 36.7061L95.7462 36.4334L95.235 36.1352L94.6215 35.7773L78.1089 45.3032Z" fill="#002E13"/>
<path d="M93.4372 36.4587H94.8175L80.6821 44.6128L80.6139 44.5702L78.7139 45.6608L78.1089 45.303L93.4372 36.4587Z" fill="#7C4600"/>
<path d="M71.8379 41.6819L76.6519 44.4595L93.156 34.9337L88.342 32.156L71.8379 41.6819Z" fill="#1B7735"/>
<path d="M76.6523 44.4595L77.7174 45.0815L78.1093 45.303L94.622 35.7771L94.2215 35.5556L93.1565 34.9336L76.6523 44.4595Z" fill="#003B18"/>
<path d="M75.5005 46.831L95.5015 35.2927L93.6281 32.0453L73.6272 43.5836L75.5005 46.831Z" fill="black"/>
<path d="M94.7153 33.9028L94.5874 35.8029L93.0708 36.6805L93.3605 32.1902L93.6332 32.0283L94.7153 33.9028Z" fill="#CEB329"/>
<path d="M87.2001 35.7348L88.7253 34.8657L88.4356 39.356L86.9189 40.2336L87.2001 35.7348Z" fill="#CEB329"/>
<path d="M90.2853 33.9626L91.8019 33.085L91.5122 37.5838L89.9956 38.4614L90.2853 33.9626Z" fill="#CEB329"/>
<path d="M81.0319 39.2963L82.5485 38.4272L82.2588 42.9175L80.7422 43.7951L81.0319 39.2963Z" fill="#CEB329"/>
<path d="M74.7095 45.4398L74.8714 42.8495L76.3965 41.9719L76.1068 46.4707L75.5019 46.8116L74.7095 45.4398Z" fill="#B07500"/>
<path d="M84.1249 37.5155L85.6416 36.6379L85.3604 41.1282L83.8438 42.0058L84.1249 37.5155Z" fill="#CEB329"/>
<path d="M77.9557 41.0771L79.4723 40.1995L79.1827 44.6897L77.666 45.5673L77.9557 41.0771Z" fill="#CEB329"/>
<path d="M98.5751 39.4239L96.8965 38.4611L96.692 38.3419H96.6835L96.2149 38.0607L95.7463 37.7965L95.235 37.4983L94.2211 36.9104L88.342 33.5193L73.0222 42.3635L71.8379 41.6819L88.342 32.156L94.2211 35.5557L95.235 36.1351L95.7463 36.4333L96.2149 36.7059L96.6835 36.9786H96.692L96.8965 37.1064L98.5751 38.0692L101.532 39.7818L100.356 40.4634L98.5751 39.4239Z" fill="#005C1D"/>
<path d="M65.5418 57.2572L64.3319 57.9558L62.2529 54.8374L63.4628 54.1387L65.5418 57.2572Z" fill="#002E13"/>
<path d="M45.0991 70.7444L64.3242 57.9546L62.2477 54.8332L43.0226 67.623L45.0991 70.7444Z" fill="#004D1F"/>
<path d="M45.1001 70.7441L64.3252 57.9543L62.2486 54.8329L43.0235 67.6227L45.1001 70.7441Z" fill="black"/>
<path d="M63.4548 56.6355V58.544L61.9893 59.5154V55.0081L62.2534 54.8376L63.4548 56.6355Z" fill="#B07500"/>
<path d="M56.0757 58.9447L57.5327 57.9734V62.4807L56.0757 63.4521V58.9447Z" fill="#B07500"/>
<path d="M59.0322 56.9762L60.4892 56.0049V60.5122L59.0322 61.4836V56.9762Z" fill="#B07500"/>
<path d="M50.1455 62.8978L51.6025 61.9265V66.4253L50.1455 67.3966V62.8978Z" fill="#B07500"/>
<path d="M44.2236 69.4248V66.8346L45.6892 65.8633V70.3621L45.1098 70.7455L44.2236 69.4248Z" fill="#B07500"/>
<path d="M53.1191 60.9127L54.5761 59.9414V64.4487L53.1191 65.4201V60.9127Z" fill="#B07500"/>
<path d="M47.1802 64.8661L48.6457 63.8948V68.3936L47.1802 69.3649V64.8661Z" fill="#B07500"/>
<path d="M96.897 35.1721V37.1063L98.5755 38.0691V35.8963L96.9055 35.1721H96.897Z" fill="#003B18"/>
<path d="M108.715 95.7783C108.715 95.7783 107.36 96.6048 106.917 96.4855C106.61 96.4003 106.602 95.9658 106.602 95.9658V87.5305H107.121V95.3267C107.121 95.6335 107.343 95.872 107.769 95.6079L108.715 95.0882V95.7783Z" fill="#595959"/>
<path d="M104.65 92.251V78.3372H108.569V92.251H108.561C108.595 92.5663 108.407 92.8986 107.99 93.1372C107.215 93.5888 105.971 93.5887 105.204 93.1542C104.769 92.9071 104.599 92.5748 104.65 92.251Z" fill="#707568"/>
<path d="M107.914 93.1712C107.164 93.5632 106.039 93.5802 105.298 93.2053V78.3372H107.914V93.1712Z" fill="#92978D"/>
<path d="M107.65 93.2905C107.283 93.4269 106.866 93.4865 106.448 93.4695V78.3372H107.65V93.2905Z" fill="#BABDB7"/>
<path d="M108.007 77.5192C107.24 77.0761 105.997 77.0846 105.221 77.5362C104.446 77.9878 104.437 78.7035 105.204 79.1466C105.971 79.5896 107.215 79.5811 107.99 79.1295C108.757 78.6865 108.766 77.9622 108.007 77.5192Z" fill="#6F6F6F"/>
<path d="M105.553 78.3031V73.668H107.658V78.3031H107.649C107.666 78.4735 107.573 78.6524 107.343 78.7802C106.925 79.0188 106.26 79.0273 105.843 78.7888C105.621 78.6524 105.519 78.4735 105.553 78.3031Z" fill="#92978D"/>
<path d="M107.121 78.8652C106.959 78.9248 106.78 78.9589 106.601 78.9589V73.6592H107.121V78.8652Z" fill="#BABDB7"/>
<path d="M107.351 73.2248C106.942 72.9862 106.269 72.9947 105.852 73.2333C105.434 73.4719 105.434 73.8638 105.843 74.0939C106.252 74.3324 106.925 74.3239 107.343 74.0853C107.76 73.8468 107.769 73.4634 107.351 73.2248Z" fill="black"/>
<path d="M81.6789 77.9277L81.6704 74.9541L84.7378 76.573C84.7378 76.573 85.4961 78.1322 84.9678 79.1547C84.9678 79.1547 84.6526 79.6233 84.2947 79.4529C83.9539 79.274 81.6789 77.9277 81.6789 77.9277Z" fill="#747474"/>
<path d="M85.1383 79.3078L86.8509 76.7773C86.8509 76.7773 87.0639 76.3853 86.885 75.9082C86.7146 75.431 86.28 74.2808 86.28 74.2808L87.0639 74.2041L84.5078 72.4148L83.3916 74.5108L84.1158 74.4682L85.0616 77.0073C85.0701 77.0158 85.5473 78.2598 85.1383 79.3078Z" fill="#747474"/>
<path d="M75.9023 70.3616L77.6576 74.9115C77.6576 74.9115 77.9302 75.542 78.2881 75.755C78.6459 75.968 79.5065 76.4622 79.5065 76.4622L79.515 77.5528L80.9635 75.8828L79.498 72.5087L79.4894 73.4971L77.5809 72.3894C77.5894 72.3894 76.6521 71.8612 75.9023 70.3616Z" fill="#747474"/>
<path d="M77.1118 67.1492L79.2845 69.8672L77.9298 72.3637C77.9298 72.3637 76.7454 71.9121 76.0297 70.2932C76.0297 70.2932 75.7059 69.4582 75.8508 69.1515C76.0041 68.8618 77.1118 67.1492 77.1118 67.1492Z" fill="#747474"/>
<path d="M83.204 67.1237L79.7788 65.1214C79.7788 65.1214 79.3016 64.8828 79.1141 65.1385C78.9267 65.3941 78.5092 66.0416 78.5092 66.0416L77.7168 65.0362L78.8074 68.4529L81.3635 69.7225L80.6564 68.7937L81.6106 67.3879C81.6106 67.3879 82.0622 66.6807 83.204 67.1237Z" fill="#747474"/>
<path d="M85.4277 71.665L83.2891 71.9121L81.6021 67.8563C81.6021 67.8563 82.0195 66.7572 83.2465 67.3536C83.2465 67.3536 83.877 67.72 84.0815 68.1886C84.2775 68.6487 85.4277 71.665 85.4277 71.665Z" fill="#747474"/>
<path d="M44.9812 54.5395L44.9727 53.0654L46.4893 53.8664C46.4893 53.8664 46.8642 54.6417 46.6086 55.1444C46.6086 55.1444 46.4552 55.3745 46.2763 55.2893C46.1059 55.204 44.9812 54.5395 44.9812 54.5395Z" fill="#747474"/>
<path d="M46.6946 55.2295L47.5466 53.977C47.5466 53.977 47.6488 53.781 47.5636 53.551C47.4784 53.3124 47.2654 52.7501 47.2654 52.7501L47.6574 52.716L46.3878 51.8298L45.834 52.8693L46.1919 52.8438L46.6605 54.1048C46.6605 54.0878 46.8905 54.7097 46.6946 55.2295Z" fill="#747474"/>
<path d="M42.1191 50.7988L42.9882 53.0482C42.9882 53.0482 43.1245 53.3635 43.3035 53.4657C43.4824 53.5765 43.9084 53.8151 43.9084 53.8151L43.9169 54.3518L44.6327 53.5254L43.9084 51.8554V52.341L42.9627 51.7872C42.9541 51.7957 42.4855 51.5401 42.1191 50.7988Z" fill="#747474"/>
<path d="M42.7154 49.2056L43.7889 50.5518L43.1158 51.7873C43.1158 51.7873 42.5279 51.5657 42.1786 50.7648C42.1786 50.7648 42.0167 50.3473 42.0934 50.2024C42.1615 50.0491 42.7154 49.2056 42.7154 49.2056Z" fill="#747474"/>
<path d="M45.7315 49.1886L44.0359 48.2002C44.0359 48.2002 43.7973 48.081 43.7121 48.2088C43.6184 48.3366 43.4139 48.6603 43.4139 48.6603L43.022 48.1662L43.5588 49.8617L44.8283 50.4922L44.479 50.0321L44.9561 49.3335C44.9391 49.3249 45.1691 48.9756 45.7315 49.1886Z" fill="#747474"/>
<path d="M46.8305 51.4378L45.774 51.5571L44.939 49.5462C44.939 49.5462 45.152 49.0009 45.7569 49.2991C45.7569 49.2991 46.0722 49.4781 46.1744 49.7166C46.2682 49.9467 46.8305 51.4378 46.8305 51.4378Z" fill="#747474"/>
<path d="M163.893 96.9883H162.76V100.209H163.893V96.9883Z" fill="white"/>
<path d="M30.6076 141.942L20.2041 135.927L27.9066 124.126L30.6076 125.54V141.942Z" fill="#CCCDCB"/>
<path d="M91.9547 120.053L48.8838 144.984L30.6074 141.942L68.958 111.064L91.9547 120.053Z" fill="#0094C1"/>
<path d="M70.3468 102.561L30.6074 125.54V141.942L70.3468 119.005V102.561Z" fill="#9FA19E"/>
<path d="M30.6077 125.541L27.9067 124.126L67.6376 101.146L70.3471 102.561L30.6077 125.541Z" fill="#E1E7E8"/>
<path d="M45.0669 124.186V120.25L46.0553 119.679C46.2768 119.551 46.4643 119.474 46.6176 119.44C46.771 119.406 46.8988 119.415 46.9925 119.466C47.0862 119.517 47.1629 119.594 47.2055 119.713C47.2481 119.832 47.2737 119.968 47.2737 120.139C47.2737 120.267 47.2567 120.394 47.2311 120.522C47.2055 120.65 47.1629 120.778 47.1118 120.906C47.0607 121.033 46.9925 121.153 46.9158 121.281C46.8392 121.4 46.754 121.511 46.6517 121.621C46.7028 121.621 46.7454 121.638 46.7795 121.664C46.8221 121.69 46.8562 121.724 46.8903 121.766L47.5293 122.763L46.8988 123.129C46.7795 123.198 46.6943 123.189 46.6432 123.104L46.1405 122.252C46.1149 122.218 46.0894 122.192 46.0638 122.192C46.0297 122.192 45.9956 122.201 45.9445 122.235L45.7656 122.337V123.794L45.0669 124.186ZM45.757 121.698L46.0382 121.536C46.132 121.485 46.2171 121.417 46.2853 121.349C46.3535 121.281 46.4046 121.204 46.4472 121.127C46.4898 121.051 46.5239 120.965 46.5409 120.88C46.558 120.795 46.5665 120.71 46.5665 120.624C46.5665 120.454 46.5239 120.343 46.4387 120.292C46.3535 120.241 46.2172 120.275 46.0382 120.377L45.757 120.539V121.698Z" fill="#404040"/>
<path d="M47.7764 122.618V118.682L49.7105 117.557V118.256L48.4751 118.972V119.883L49.4293 119.329V120.011L48.4751 120.565V121.502L49.7105 120.786V121.485L47.7764 122.618Z" fill="#404040"/>
<path d="M49.915 119.406C49.915 119.116 49.9491 118.818 50.0258 118.537C50.1025 118.247 50.2047 117.975 50.3325 117.719C50.4689 117.463 50.6223 117.233 50.8097 117.029C50.9972 116.824 51.1931 116.654 51.4146 116.526C51.5254 116.458 51.6362 116.415 51.7299 116.381C51.8321 116.347 51.9259 116.33 52.0111 116.33C52.0963 116.33 52.1815 116.339 52.2496 116.356C52.3263 116.381 52.386 116.407 52.4456 116.449L52.207 117.003C52.19 117.037 52.173 117.071 52.1559 117.105C52.1389 117.14 52.1048 117.165 52.0707 117.191C52.0452 117.208 52.0196 117.208 52.0026 117.208C51.977 117.208 51.9599 117.199 51.9344 117.199C51.9088 117.199 51.8833 117.191 51.8492 117.182C51.8151 117.174 51.781 117.174 51.7469 117.174C51.7043 117.174 51.6617 117.182 51.6021 117.199C51.551 117.216 51.4828 117.242 51.4146 117.284C51.2954 117.353 51.1931 117.438 51.0994 117.548C51.0057 117.659 50.9205 117.787 50.8523 117.94C50.7841 118.085 50.733 118.247 50.6904 118.426C50.6563 118.605 50.6308 118.792 50.6308 118.988C50.6308 119.193 50.6478 119.355 50.6904 119.491C50.733 119.619 50.7927 119.721 50.8608 119.789C50.929 119.858 51.0142 119.892 51.1164 119.892C51.2102 119.892 51.3124 119.858 51.4231 119.798C51.4828 119.764 51.5424 119.721 51.5936 119.687C51.6447 119.645 51.6958 119.602 51.7384 119.559C51.781 119.517 51.8236 119.466 51.8662 119.414C51.9088 119.363 51.9429 119.295 51.9855 119.227C52.0025 119.201 52.0196 119.176 52.0366 119.15C52.0537 119.125 52.0792 119.108 52.0963 119.099C52.1133 119.091 52.1304 119.082 52.1474 119.082C52.1644 119.082 52.1815 119.082 52.1985 119.099L52.4712 119.321C52.3519 119.602 52.1985 119.84 52.0196 120.054C51.8407 120.267 51.6191 120.445 51.372 120.582C51.142 120.718 50.9375 120.786 50.7586 120.786C50.5796 120.786 50.4263 120.735 50.2985 120.633C50.1707 120.531 50.0769 120.369 50.0088 120.164C49.9491 119.943 49.915 119.696 49.915 119.406Z" fill="#404040"/>
<path d="M52.437 115.981L53.0505 115.623C53.1101 115.589 53.1613 115.58 53.1953 115.597C53.2294 115.614 53.2635 115.648 53.2806 115.691L53.7066 116.594C53.7407 116.662 53.7747 116.731 53.8003 116.79C53.8259 116.85 53.8514 116.918 53.877 116.978C53.894 116.892 53.9196 116.799 53.9451 116.705C53.9707 116.611 54.0048 116.509 54.0389 116.398L54.4649 115.009C54.4734 114.984 54.4819 114.95 54.499 114.916C54.516 114.882 54.5331 114.856 54.5501 114.822C54.5671 114.788 54.5927 114.762 54.6182 114.737C54.6438 114.711 54.6694 114.686 54.695 114.669L55.3169 114.311L54.2263 117.387V118.886L53.5276 119.287V117.787L52.437 115.981Z" fill="#404040"/>
<path d="M55.1978 116.356C55.1978 116.066 55.2318 115.768 55.3085 115.478C55.3852 115.188 55.4874 114.916 55.6152 114.66C55.7516 114.404 55.9049 114.174 56.0924 113.97C56.2798 113.765 56.4758 113.595 56.6973 113.467C56.8081 113.399 56.9189 113.356 57.0126 113.322C57.1149 113.288 57.2086 113.271 57.2938 113.271C57.379 113.271 57.4642 113.28 57.5323 113.297C57.609 113.322 57.6687 113.348 57.7283 113.391L57.4898 113.944C57.4727 113.978 57.4557 114.012 57.4386 114.047C57.4216 114.081 57.3875 114.106 57.3534 114.123C57.3279 114.14 57.3023 114.14 57.2852 114.14C57.2597 114.14 57.2427 114.132 57.2171 114.132C57.1915 114.123 57.166 114.123 57.1319 114.115C57.0978 114.106 57.0637 114.106 57.0296 114.106C56.987 114.106 56.9444 114.115 56.8848 114.132C56.8337 114.149 56.7655 114.174 56.6973 114.217C56.578 114.285 56.4758 114.37 56.3821 114.481C56.2884 114.592 56.2032 114.72 56.135 114.873C56.0668 115.018 56.0157 115.18 55.9731 115.359C55.939 115.538 55.9135 115.725 55.9135 115.93C55.9135 116.134 55.9305 116.296 55.9731 116.432C56.0157 116.56 56.0753 116.662 56.1435 116.731C56.2117 116.799 56.2969 116.833 56.3991 116.833C56.4929 116.833 56.5951 116.799 56.7059 116.739C56.7655 116.705 56.8252 116.662 56.8763 116.628C56.9274 116.586 56.9785 116.552 57.0211 116.5C57.0637 116.458 57.1063 116.407 57.1489 116.356C57.1915 116.305 57.2256 116.236 57.2682 116.168C57.2853 116.143 57.3023 116.117 57.3193 116.092C57.3364 116.066 57.3619 116.049 57.379 116.04C57.396 116.032 57.4131 116.023 57.4301 116.023C57.4471 116.023 57.4642 116.023 57.4812 116.04L57.7539 116.262C57.6346 116.543 57.4812 116.782 57.3023 116.995C57.1234 117.208 56.9018 117.387 56.6547 117.531C56.4247 117.668 56.2202 117.727 56.0413 117.736C55.8623 117.736 55.709 117.685 55.5812 117.583C55.4534 117.472 55.3596 117.318 55.2915 117.114C55.2318 116.884 55.1978 116.637 55.1978 116.356Z" fill="#404040"/>
<path d="M58.0693 116.662V112.726L58.768 112.325V115.538L59.8842 114.89V115.614L58.0693 116.662Z" fill="#404040"/>
<path d="M60.2422 115.401V111.465L60.9409 111.064V115.001L60.2422 115.401Z" fill="#404040"/>
<path d="M61.52 114.66V110.724L61.8864 110.511C61.9205 110.494 61.9461 110.477 61.9631 110.468C61.9801 110.46 61.9972 110.459 62.0142 110.459C62.0313 110.459 62.0483 110.468 62.0653 110.477C62.0824 110.485 62.0994 110.502 62.1165 110.519L63.5479 112.053C63.5394 111.976 63.5394 111.908 63.5394 111.84C63.5394 111.772 63.5394 111.703 63.5394 111.644V109.556L64.1528 109.198V113.135L63.7865 113.348C63.7353 113.382 63.6842 113.391 63.6501 113.391C63.6161 113.391 63.5734 113.373 63.5394 113.339L62.1165 111.814C62.1165 111.882 62.125 111.942 62.125 112.01C62.125 112.07 62.1335 112.138 62.1335 112.189V114.302L61.52 114.66Z" fill="#404040"/>
<path d="M64.562 110.937C64.562 110.647 64.5961 110.349 64.6728 110.059C64.7495 109.769 64.8517 109.497 64.9966 109.233C65.1329 108.977 65.3033 108.738 65.4993 108.525C65.6952 108.312 65.9168 108.133 66.1553 107.997C66.2831 107.929 66.3939 107.869 66.5047 107.835C66.6154 107.801 66.7177 107.776 66.8114 107.767C66.9051 107.758 66.9903 107.767 67.067 107.784C67.1437 107.801 67.2119 107.835 67.2715 107.878L67.067 108.398C67.0329 108.483 66.9903 108.542 66.9392 108.585C66.9307 108.594 66.9137 108.602 66.9051 108.611C66.8625 108.636 66.8199 108.645 66.7773 108.636C66.7177 108.628 66.6666 108.619 66.624 108.611C66.5728 108.611 66.5302 108.611 66.4791 108.619C66.428 108.628 66.3769 108.645 66.3172 108.67C66.2576 108.696 66.1979 108.721 66.1298 108.764C66.002 108.841 65.8827 108.943 65.7719 109.062C65.6697 109.181 65.576 109.318 65.4993 109.471C65.4226 109.624 65.3714 109.786 65.3288 109.965C65.2862 110.144 65.2692 110.323 65.2692 110.519C65.2692 110.732 65.2948 110.903 65.3374 111.039C65.38 111.175 65.4396 111.277 65.5248 111.337C65.61 111.405 65.7038 111.431 65.8145 111.422C65.9253 111.414 66.0531 111.371 66.1894 111.294C66.2746 111.243 66.3428 111.192 66.411 111.133C66.4791 111.073 66.5473 111.005 66.6069 110.937V110.357L66.3172 110.528C66.2746 110.553 66.2405 110.562 66.215 110.536C66.1894 110.519 66.1809 110.485 66.1809 110.434V109.923L67.2545 109.301V110.962C67.1011 111.201 66.9307 111.405 66.7603 111.567C66.5813 111.738 66.4024 111.874 66.215 111.985C65.9679 112.129 65.7378 112.206 65.5334 112.223C65.3289 112.24 65.1499 112.198 65.0051 112.104C64.8602 112.01 64.7495 111.857 64.6728 111.661C64.5961 111.473 64.562 111.226 64.562 110.937Z" fill="#404040"/>
<path d="M44.8965 128.932C44.8965 128.514 44.9476 128.097 45.0498 127.688C45.1521 127.279 45.2969 126.887 45.4844 126.529C45.6718 126.163 45.9019 125.839 46.1575 125.549C46.4216 125.259 46.7113 125.021 47.0266 124.833C47.1885 124.74 47.3419 124.672 47.4782 124.629C47.623 124.586 47.7508 124.561 47.8786 124.552C48.0064 124.544 48.1172 124.561 48.2195 124.595C48.3217 124.629 48.4154 124.671 48.5006 124.731L48.1683 125.515C48.1428 125.566 48.1172 125.609 48.0917 125.66C48.0576 125.711 48.0235 125.745 47.9724 125.779C47.9383 125.796 47.9042 125.805 47.8701 125.805C47.836 125.805 47.802 125.796 47.7679 125.788C47.7338 125.779 47.6912 125.771 47.6486 125.762C47.606 125.754 47.5549 125.745 47.4952 125.754C47.4356 125.754 47.3674 125.771 47.2907 125.796C47.214 125.822 47.1203 125.864 47.0181 125.924C46.8562 126.018 46.7028 126.146 46.5665 126.307C46.4302 126.469 46.3109 126.648 46.2171 126.861C46.1149 127.074 46.0467 127.304 45.9871 127.551C45.936 127.807 45.9104 128.071 45.9104 128.361C45.9104 128.651 45.936 128.889 45.9956 129.077C46.0552 129.264 46.1405 129.4 46.2427 129.494C46.3449 129.588 46.4642 129.63 46.6006 129.63C46.7369 129.63 46.8817 129.588 47.0436 129.494C47.1374 129.443 47.214 129.392 47.2907 129.332C47.3674 129.273 47.4356 129.221 47.5037 129.153C47.5719 129.085 47.6315 129.017 47.6827 128.94C47.7423 128.864 47.7934 128.77 47.8616 128.676C47.8871 128.642 47.9127 128.599 47.9383 128.565C47.9638 128.531 47.9979 128.506 48.0235 128.489C48.049 128.472 48.0661 128.472 48.0917 128.463C48.1172 128.463 48.1342 128.463 48.1598 128.48L48.5517 128.795C48.3813 129.187 48.1598 129.537 47.9042 129.843C47.6486 130.142 47.3418 130.397 46.984 130.602C46.6602 130.789 46.3705 130.883 46.1064 130.891C45.8508 130.9 45.6292 130.823 45.4503 130.67C45.2714 130.517 45.135 130.295 45.0328 129.997C44.9476 129.69 44.8965 129.341 44.8965 128.932Z" fill="#404040"/>
<path d="M48.9863 129.366V123.76L51.7469 122.167V123.163L49.9832 124.186V125.481L51.338 124.697V125.668L49.9832 126.452V127.79L51.7469 126.768V127.764L48.9863 129.366Z" fill="#404040"/>
<path d="M52.3516 127.424V121.817L52.8798 121.511C52.9224 121.485 52.9565 121.468 52.9906 121.451C53.0162 121.442 53.0417 121.434 53.0673 121.434C53.0928 121.434 53.1099 121.442 53.1354 121.459C53.161 121.476 53.178 121.493 53.2121 121.519L55.2485 123.709C55.24 123.607 55.2315 123.504 55.2315 123.402C55.2315 123.3 55.223 123.206 55.223 123.121V120.156L56.1006 119.653V125.26L55.5808 125.558C55.5041 125.6 55.436 125.626 55.3848 125.617C55.3337 125.617 55.2826 125.592 55.2315 125.541L53.2121 123.368C53.2206 123.462 53.2206 123.555 53.2292 123.649C53.2377 123.743 53.2377 123.828 53.2377 123.905V126.912L52.3516 127.424Z" fill="#404040"/>
<path d="M56.5947 120.394V119.363L60.0029 117.395V118.426L58.793 119.125V123.7L57.8046 124.271V119.696L56.5947 120.394Z" fill="#404040"/>
<path d="M60.4976 122.712V117.105L63.2582 115.512V116.509L61.4944 117.531V118.826L62.8492 118.043V119.014L61.4944 119.798V121.135L63.2582 120.113V121.11L60.4976 122.712Z" fill="#404040"/>
<path d="M63.8633 120.761V115.154L65.2692 114.345C65.5844 114.166 65.8485 114.055 66.0701 114.012C66.2916 113.97 66.4705 113.978 66.6069 114.046C66.7432 114.115 66.8455 114.234 66.9136 114.396C66.9733 114.566 67.0073 114.762 67.0073 115.001C67.0073 115.18 66.9903 115.367 66.9477 115.546C66.9136 115.725 66.854 115.912 66.7773 116.091C66.7006 116.27 66.6069 116.449 66.4961 116.62C66.3853 116.79 66.2575 116.952 66.1212 117.097C66.1894 117.097 66.249 117.122 66.3086 117.156C66.3683 117.191 66.4194 117.242 66.462 117.301L67.3737 118.724L66.4791 119.244C66.3087 119.338 66.1894 119.329 66.1212 119.201L65.4055 117.983C65.3714 117.932 65.3373 117.906 65.2947 117.898C65.2521 117.889 65.1925 117.906 65.1158 117.949L64.8602 118.094V120.173L63.8633 120.761ZM64.8602 117.216L65.2606 116.986C65.397 116.909 65.5077 116.816 65.61 116.722C65.7037 116.62 65.7804 116.517 65.84 116.398C65.8997 116.287 65.9423 116.168 65.9764 116.04C66.0019 115.921 66.019 115.793 66.019 115.674C66.019 115.427 65.9593 115.273 65.8315 115.205C65.7122 115.137 65.5163 115.18 65.2606 115.325L64.8602 115.555V117.216Z" fill="#404040"/>
<path d="M37.2873 135.808L37.2958 132.689L34.0751 134.385C34.0751 134.385 33.2741 136.021 33.828 137.086C33.828 137.086 34.1603 137.571 34.5266 137.393C34.9015 137.222 37.2873 135.808 37.2873 135.808Z" fill="#404040"/>
<path d="M33.6578 137.265L31.8599 134.615C31.8599 134.615 31.6384 134.206 31.8173 133.703C31.9963 133.2 32.4564 131.999 32.4564 131.999L31.6299 131.922L34.3053 130.048L35.4811 132.246L34.7143 132.195L33.7259 134.853C33.7259 134.853 33.2317 136.166 33.6578 137.265Z" fill="#404040"/>
<path d="M43.3451 127.884L41.5047 132.655C41.5047 132.655 41.215 133.32 40.8401 133.541C40.4652 133.771 39.562 134.282 39.562 134.282L39.5535 135.424L38.0283 133.677L39.5705 130.141L39.579 131.172L41.5813 130.005C41.5813 130.005 42.5612 129.451 43.3451 127.884Z" fill="#404040"/>
<path d="M42.076 124.518L39.7925 127.372L41.2154 129.988C41.2154 129.988 42.4594 129.52 43.2092 127.824C43.2092 127.824 43.55 126.946 43.3966 126.631C43.2433 126.307 42.076 124.518 42.076 124.518Z" fill="#404040"/>
<path d="M35.6855 124.484L39.2812 122.388C39.2812 122.388 39.7839 122.141 39.9798 122.405C40.1758 122.678 40.6189 123.351 40.6189 123.351L41.4454 122.303L40.3036 125.881L37.6282 127.21L38.378 126.239L37.3726 124.765C37.3641 124.765 36.8869 124.024 35.6855 124.484Z" fill="#404040"/>
<path d="M33.3594 129.247L35.6003 129.503L37.3725 125.242C37.3725 125.242 36.9294 124.092 35.6428 124.714C35.6428 124.714 34.9783 125.097 34.7652 125.592C34.5608 126.086 33.3594 129.247 33.3594 129.247Z" fill="#404040"/>
</g>
</svg>
